<svg id="Calque_1" data-name="Calque 1" xmlns="http://www.w3.org/2000/svg" viewBox="0 0 526.72 1012"><defs><style>.cls-1{fill:#211717;}.cls-2{fill:#622419;stroke-width:2px;}.cls-2,.cls-3{stroke:#211717;stroke-miterlimit:10;}.cls-3{fill:none;}.cls-4{fill:#a3a3a3;opacity:0.6;isolation:isolate;}</style></defs><g id="Groupe_236" data-name="Groupe 236"><g id="Groupe_234" data-name="Groupe 234"><g id="Groupe_233" data-name="Groupe 233"><rect id="Rectangle_166" data-name="Rectangle 166" class="cls-1" x="23.85" y="985.14" width="478.6" height="26.86"/><g id="Groupe_232" data-name="Groupe 232"><rect id="Rectangle_167" data-name="Rectangle 167" class="cls-2" x="3.94" y="2.94" width="518.43" height="987.26"/><path id="Tracé_896" data-name="Tracé 896" class="cls-1" d="M1219,37h0v0h-11.27v0h-30V48.21h30v30H1219v-30h0Z" transform="translate(-696.64 -34)"/><path id="Tracé_897" data-name="Tracé 897" class="cls-1" d="M700.59,36.88h0v0h11.27v0h30V48.15h-30v30H700.61v-30h0Z" transform="translate(-696.64 -34)"/></g></g><rect id="Rectangle_168" data-name="Rectangle 168" class="cls-1" y="443.5" width="526.32" height="108.19"/></g><rect id="Rectangle_169" data-name="Rectangle 169" class="cls-1" y="724.73" width="526.32" height="108.19"/><rect id="Rectangle_170" data-name="Rectangle 170" class="cls-1" y="170.74" width="526.32" height="108.19"/><rect id="Rectangle_171" data-name="Rectangle 171" class="cls-1" x="466.14" y="157.78" width="60.58" height="131.86"/><rect id="Rectangle_172" data-name="Rectangle 172" class="cls-1" x="466" y="431.93" width="60.58" height="131.86"/><rect id="Rectangle_173" data-name="Rectangle 173" class="cls-1" x="465.63" y="711.71" width="60.58" height="131.86"/><g id="Groupe_235" data-name="Groupe 235"><line id="Ligne_1" data-name="Ligne 1" class="cls-3" x1="104.9" y1="1.69" x2="108.66" y2="992.9"/><line id="Ligne_2" data-name="Ligne 2" class="cls-3" x1="259.8" y1="2.25" x2="259.8" y2="992.9"/><line id="Ligne_3" data-name="Ligne 3" class="cls-3" x1="407.99" x2="407.99" y2="996.28"/></g><path id="Tracé_898" data-name="Tracé 898" class="cls-4" d="M1219.27,195.87H1167v8.59h43.65V313.22h8.6V204.46h0Z" transform="translate(-696.64 -34)"/><path id="Tracé_899" data-name="Tracé 899" class="cls-4" d="M1219.06,468.77H1166.8v8.59h43.64V586.12h8.6V477.36h0Z" transform="translate(-696.64 -34)"/><path id="Tracé_900" data-name="Tracé 900" class="cls-4" d="M1218.41,749.77h-52.27v8.59h43.65V867.12h8.59V758.36h0Z" transform="translate(-696.64 -34)"/><path id="Tracé_901" data-name="Tracé 901" class="cls-4" d="M1217.54,38.42h-36.72v2.72h34v34h2.73v-34h0Z" transform="translate(-696.64 -34)"/><path id="Tracé_902" data-name="Tracé 902" class="cls-4" d="M702.35,38.64h36.72v2.73h-34v34h-2.73v-34h0Z" transform="translate(-696.64 -34)"/><rect id="Rectangle_174" data-name="Rectangle 174" class="cls-4" x="4.91" y="176.19" width="461.51" height="7.51"/><rect id="Rectangle_175" data-name="Rectangle 175" class="cls-4" x="4.26" y="449.11" width="461.51" height="7.51"/><rect id="Rectangle_176" data-name="Rectangle 176" class="cls-4" x="4.63" y="729.51" width="461.51" height="7.51"/><line id="Ligne_4" data-name="Ligne 4" class="cls-3" x1="137.99" y1="132.74" x2="137.99" y2="174.03"/><line id="Ligne_5" data-name="Ligne 5" class="cls-3" x1="188.95" y1="1.13" x2="188.95" y2="36.63"/><line id="Ligne_6" data-name="Ligne 6" class="cls-3" x1="222.15" y1="63.11" x2="221.4" y2="144.82"/><line id="Ligne_7" data-name="Ligne 7" class="cls-3" x1="240.25" y1="121.15" x2="238.75" y2="152.15"/><line id="Ligne_8" data-name="Ligne 8" class="cls-3" x1="293.64" y1="103.12" x2="292.89" y2="158.91"/><path id="Tracé_903" data-name="Tracé 903" class="cls-3" d="M1002.31,102.19V152.9" transform="translate(-696.64 -34)"/><line id="Ligne_9" data-name="Ligne 9" class="cls-3" x1="330.49" y1="113.83" x2="330.49" y2="144.26"/><line id="Ligne_10" data-name="Ligne 10" class="cls-3" x1="377.86" y1="18.59" x2="376.35" y2="72.69"/><line id="Ligne_11" data-name="Ligne 11" class="cls-3" x1="377.86" y1="85.09" x2="375.6" y2="153.27"/><line id="Ligne_12" data-name="Ligne 12" class="cls-3" x1="425.23" y1="10.14" x2="425.23" y2="48.46"/><line id="Ligne_13" data-name="Ligne 13" class="cls-3" x1="429.74" y1="85.65" x2="429.74" y2="126.79"/><line id="Ligne_14" data-name="Ligne 14" class="cls-3" x1="445.78" y1="122.84" x2="446.53" y2="173.98"/><line id="Ligne_15" data-name="Ligne 15" class="cls-3" x1="457.95" y1="139.18" x2="458.42" y2="162.29"/><line id="Ligne_16" data-name="Ligne 16" class="cls-3" x1="495.16" y1="13.52" x2="494.41" y2="85.09"/><line id="Ligne_17" data-name="Ligne 17" class="cls-3" x1="74.22" y1="77.95" x2="73.32" y2="174.12"/><line id="Ligne_18" data-name="Ligne 18" class="cls-3" x1="57.53" y1="36.06" x2="57.6" y2="64.94"/><line id="Ligne_19" data-name="Ligne 19" class="cls-3" x1="34.22" y1="46.77" x2="34.5" y2="85.51"/><line id="Ligne_20" data-name="Ligne 20" class="cls-3" x1="3.22" y1="408.54" x2="3.22" y2="440.85"/><line id="Ligne_21" data-name="Ligne 21" class="cls-3" x1="29" y1="356.7" x2="29" y2="431.83"/><line id="Ligne_22" data-name="Ligne 22" class="cls-3" x1="86.69" y1="298.09" x2="85.46" y2="346.93"/><line id="Ligne_23" data-name="Ligne 23" class="cls-3" x1="123.53" y1="322.14" x2="124.75" y2="365.71"/><line id="Ligne_24" data-name="Ligne 24" class="cls-3" x1="134.57" y1="371.73" x2="133.35" y2="422.07"/><line id="Ligne_25" data-name="Ligne 25" class="cls-3" x1="194.74" y1="291.33" x2="194.74" y2="337.91"/><line id="Ligne_26" data-name="Ligne 26" class="cls-3" x1="214.39" y1="309.36" x2="213.16" y2="363.46"/><line id="Ligne_27" data-name="Ligne 27" class="cls-3" x1="370.27" y1="296.59" x2="371.5" y2="323.64"/><line id="Ligne_28" data-name="Ligne 28" class="cls-3" x1="346.95" y1="340.92" x2="348.18" y2="388.26"/><line id="Ligne_29" data-name="Ligne 29" class="cls-3" x1="345.72" y1="401.78" x2="345.72" y2="439.35"/><line id="Ligne_30" data-name="Ligne 30" class="cls-3" x1="371.5" y1="336.41" x2="373.95" y2="397.27"/><line id="Ligne_31" data-name="Ligne 31" class="cls-3" x1="441.47" y1="325.14" x2="439.02" y2="375.48"/><line id="Ligne_32" data-name="Ligne 32" class="cls-3" x1="442.7" y1="387.5" x2="440.24" y2="437.84"/><line id="Ligne_33" data-name="Ligne 33" class="cls-3" x1="454.97" y1="415.59" x2="454.97" y2="444.23"/><line id="Ligne_34" data-name="Ligne 34" class="cls-3" x1="478.3" y1="410.8" x2="478.3" y2="434.09"/><line id="Ligne_35" data-name="Ligne 35" class="cls-3" x1="504.08" y1="375.48" x2="505.31" y2="423.57"/><line id="Ligne_36" data-name="Ligne 36" class="cls-3" x1="384.57" y1="683.05" x2="384.57" y2="727.1"/><line id="Ligne_37" data-name="Ligne 37" class="cls-3" x1="333.6" y1="542.66" x2="333.6" y2="580.53"/><line id="Ligne_38" data-name="Ligne 38" class="cls-3" x1="300.4" y1="608.78" x2="301.16" y2="695.94"/><line id="Ligne_39" data-name="Ligne 39" class="cls-3" x1="282.3" y1="670.7" x2="283.81" y2="703.76"/><line id="Ligne_40" data-name="Ligne 40" class="cls-3" x1="228.92" y1="651.46" x2="229.67" y2="710.97"/><path id="Tracé_904" data-name="Tracé 904" class="cls-3" d="M913.52,648.19v54.1" transform="translate(-696.64 -34)"/><line id="Ligne_41" data-name="Ligne 41" class="cls-3" x1="192.07" y1="662.88" x2="192.07" y2="695.34"/><line id="Ligne_42" data-name="Ligne 42" class="cls-3" x1="144.7" y1="561.29" x2="146.2" y2="619"/><line id="Ligne_43" data-name="Ligne 43" class="cls-3" x1="144.7" y1="632.22" x2="146.95" y2="704.96"/><line id="Ligne_44" data-name="Ligne 44" class="cls-3" x1="97.32" y1="552.27" x2="97.32" y2="593.15"/><line id="Ligne_45" data-name="Ligne 45" class="cls-3" x1="92.81" y1="632.83" x2="92.81" y2="676.71"/><line id="Ligne_46" data-name="Ligne 46" class="cls-3" x1="76.77" y1="672.5" x2="76.02" y2="727.05"/><line id="Ligne_47" data-name="Ligne 47" class="cls-3" x1="64.6" y1="689.93" x2="64.13" y2="714.58"/><line id="Ligne_48" data-name="Ligne 48" class="cls-3" x1="27.39" y1="555.88" x2="28.14" y2="632.22"/><line id="Ligne_49" data-name="Ligne 49" class="cls-3" x1="448.33" y1="624.61" x2="449.24" y2="727.21"/><line id="Ligne_50" data-name="Ligne 50" class="cls-3" x1="465.03" y1="579.93" x2="464.95" y2="610.73"/><line id="Ligne_51" data-name="Ligne 51" class="cls-3" x1="488.34" y1="591.35" x2="488.06" y2="632.68"/><line id="Ligne_52" data-name="Ligne 52" class="cls-3" x1="518.55" y1="868.57" x2="518.55" y2="833.27"/><line id="Ligne_53" data-name="Ligne 53" class="cls-3" x1="492.77" y1="925.22" x2="492.77" y2="843.12"/><line id="Ligne_54" data-name="Ligne 54" class="cls-3" x1="435.08" y1="989.26" x2="436.31" y2="935.9"/><line id="Ligne_55" data-name="Ligne 55" class="cls-3" x1="398.24" y1="962.99" x2="397.02" y2="915.37"/><line id="Ligne_56" data-name="Ligne 56" class="cls-3" x1="387.2" y1="908.8" x2="388.42" y2="853.8"/><line id="Ligne_57" data-name="Ligne 57" class="cls-3" x1="327.03" y1="996.65" x2="327.03" y2="945.75"/><line id="Ligne_58" data-name="Ligne 58" class="cls-3" x1="307.39" y1="976.95" x2="308.61" y2="917.83"/><line id="Ligne_59" data-name="Ligne 59" class="cls-3" x1="151.5" y1="990.91" x2="150.27" y2="961.35"/><line id="Ligne_60" data-name="Ligne 60" class="cls-3" x1="174.82" y1="942.47" x2="173.6" y2="890.74"/><line id="Ligne_61" data-name="Ligne 61" class="cls-3" x1="176.05" y1="875.96" x2="176.05" y2="834.91"/><line id="Ligne_62" data-name="Ligne 62" class="cls-3" x1="150.27" y1="947.39" x2="147.82" y2="880.89"/><line id="Ligne_63" data-name="Ligne 63" class="cls-3" x1="80.3" y1="959.71" x2="82.75" y2="904.7"/><line id="Ligne_64" data-name="Ligne 64" class="cls-3" x1="79.07" y1="891.56" x2="81.53" y2="836.55"/><line id="Ligne_65" data-name="Ligne 65" class="cls-3" x1="66.79" y1="860.88" x2="66.79" y2="829.57"/><line id="Ligne_66" data-name="Ligne 66" class="cls-3" x1="43.47" y1="866.11" x2="43.47" y2="840.66"/><line id="Ligne_67" data-name="Ligne 67" class="cls-3" x1="17.69" y1="904.7" x2="16.46" y2="852.15"/><circle id="Ellipse_1" data-name="Ellipse 1" class="cls-4" cx="491.88" cy="187.55" r="8.73"/><circle id="Ellipse_2" data-name="Ellipse 2" class="cls-4" cx="492.16" cy="269.45" r="8.73"/><circle id="Ellipse_3" data-name="Ellipse 3" class="cls-4" cx="491.08" cy="460.43" r="8.73"/><circle id="Ellipse_4" data-name="Ellipse 4" class="cls-4" cx="491.36" cy="542.33" r="8.73"/><circle id="Ellipse_5" data-name="Ellipse 5" class="cls-4" cx="489.9" cy="741.57" r="8.73"/><circle id="Ellipse_6" data-name="Ellipse 6" class="cls-4" cx="490.18" cy="823.47" r="8.73"/></g></svg>