<svg id="Calque_1" data-name="Calque 1" xmlns="http://www.w3.org/2000/svg" viewBox="0 0 960 1080"><defs><style>.cls-1{fill:#6dc0a9;}.cls-2{fill:#652327;}</style></defs><g id="Groupe_231" data-name="Groupe 231"><rect id="Rectangle_93" data-name="Rectangle 93" class="cls-1" width="120" height="120"/><rect id="Rectangle_94" data-name="Rectangle 94" x="120" width="120" height="120"/><rect id="Rectangle_95" data-name="Rectangle 95" class="cls-1" x="240" width="120" height="120"/><rect id="Rectangle_96" data-name="Rectangle 96" class="cls-2" x="360" width="124" height="120"/><rect id="Rectangle_97" data-name="Rectangle 97" class="cls-2" x="480" width="120" height="120"/><rect id="Rectangle_98" data-name="Rectangle 98" class="cls-2" x="599" width="121" height="120"/><rect id="Rectangle_99" data-name="Rectangle 99" class="cls-1" x="720" width="120" height="120"/><rect id="Rectangle_100" data-name="Rectangle 100" x="840" width="120" height="120"/><rect id="Rectangle_101" data-name="Rectangle 101" class="cls-1" x="840" y="120" width="120" height="120"/><rect id="Rectangle_102" data-name="Rectangle 102" x="720" y="120" width="120" height="120"/><rect id="Rectangle_103" data-name="Rectangle 103" class="cls-1" x="600" y="120" width="120" height="120"/><rect id="Rectangle_104" data-name="Rectangle 104" x="480" y="120" width="120" height="120"/><rect id="Rectangle_105" data-name="Rectangle 105" class="cls-1" x="360" y="120" width="120" height="120"/><rect id="Rectangle_106" data-name="Rectangle 106" x="240" y="120" width="120" height="120"/><rect id="Rectangle_107" data-name="Rectangle 107" class="cls-1" x="120" y="120" width="120" height="120"/><rect id="Rectangle_108" data-name="Rectangle 108" y="120" width="120" height="120"/><rect id="Rectangle_109" data-name="Rectangle 109" class="cls-1" y="240" width="120" height="120"/><rect id="Rectangle_110" data-name="Rectangle 110" x="120" y="240" width="120" height="120"/><rect id="Rectangle_111" data-name="Rectangle 111" class="cls-1" x="240" y="240" width="120" height="120"/><rect id="Rectangle_112" data-name="Rectangle 112" x="360" y="240" width="120" height="120"/><rect id="Rectangle_113" data-name="Rectangle 113" class="cls-1" x="480" y="240" width="120" height="120"/><rect id="Rectangle_114" data-name="Rectangle 114" x="600" y="240" width="120" height="120"/><rect id="Rectangle_115" data-name="Rectangle 115" class="cls-1" x="720" y="240" width="120" height="120"/><rect id="Rectangle_116" data-name="Rectangle 116" x="840" y="240" width="120" height="120"/><rect id="Rectangle_117" data-name="Rectangle 117" class="cls-1" x="840" y="360" width="120" height="120"/><rect id="Rectangle_118" data-name="Rectangle 118" x="720" y="360" width="120" height="120"/><rect id="Rectangle_119" data-name="Rectangle 119" class="cls-1" x="600" y="360" width="120" height="120"/><rect id="Rectangle_120" data-name="Rectangle 120" x="480" y="360" width="120" height="120"/><rect id="Rectangle_121" data-name="Rectangle 121" class="cls-1" x="360" y="360" width="120" height="120"/><rect id="Rectangle_122" data-name="Rectangle 122" x="240" y="360" width="120" height="120"/><rect id="Rectangle_123" data-name="Rectangle 123" class="cls-1" x="120" y="360" width="120" height="120"/><rect id="Rectangle_124" data-name="Rectangle 124" y="360" width="120" height="120"/><rect id="Rectangle_125" data-name="Rectangle 125" class="cls-1" y="480" width="120" height="120"/><rect id="Rectangle_126" data-name="Rectangle 126" x="120" y="480" width="120" height="120"/><rect id="Rectangle_127" data-name="Rectangle 127" class="cls-1" x="240" y="480" width="120" height="120"/><rect id="Rectangle_128" data-name="Rectangle 128" x="360" y="480" width="120" height="120"/><rect id="Rectangle_129" data-name="Rectangle 129" class="cls-1" x="480" y="480" width="120" height="120"/><rect id="Rectangle_130" data-name="Rectangle 130" x="600" y="480" width="120" height="120"/><rect id="Rectangle_131" data-name="Rectangle 131" class="cls-1" x="720" y="480" width="120" height="120"/><rect id="Rectangle_132" data-name="Rectangle 132" x="840" y="480" width="120" height="120"/><rect id="Rectangle_133" data-name="Rectangle 133" class="cls-1" x="840" y="600" width="120" height="120"/><rect id="Rectangle_134" data-name="Rectangle 134" x="720" y="600" width="120" height="120"/><rect id="Rectangle_135" data-name="Rectangle 135" class="cls-1" x="600" y="600" width="120" height="120"/><rect id="Rectangle_136" data-name="Rectangle 136" x="480" y="600" width="120" height="120"/><rect id="Rectangle_137" data-name="Rectangle 137" class="cls-1" x="360" y="600" width="120" height="120"/><rect id="Rectangle_138" data-name="Rectangle 138" x="240" y="600" width="120" height="120"/><rect id="Rectangle_139" data-name="Rectangle 139" class="cls-1" x="120" y="600" width="120" height="120"/><rect id="Rectangle_140" data-name="Rectangle 140" y="600" width="120" height="120"/><rect id="Rectangle_141" data-name="Rectangle 141" class="cls-1" y="720" width="120" height="120"/><rect id="Rectangle_142" data-name="Rectangle 142" x="120" y="720" width="120" height="120"/><rect id="Rectangle_143" data-name="Rectangle 143" class="cls-1" x="240" y="720" width="120" height="120"/><rect id="Rectangle_144" data-name="Rectangle 144" x="360" y="720" width="120" height="120"/><rect id="Rectangle_145" data-name="Rectangle 145" class="cls-1" x="480" y="720" width="120" height="120"/><rect id="Rectangle_146" data-name="Rectangle 146" x="600" y="720" width="120" height="120"/><rect id="Rectangle_147" data-name="Rectangle 147" class="cls-1" x="720" y="720" width="120" height="120"/><rect id="Rectangle_148" data-name="Rectangle 148" x="840" y="720" width="120" height="120"/><rect id="Rectangle_149" data-name="Rectangle 149" class="cls-1" x="840" y="840" width="120" height="120"/><rect id="Rectangle_150" data-name="Rectangle 150" x="720" y="840" width="120" height="120"/><rect id="Rectangle_151" data-name="Rectangle 151" class="cls-1" x="600" y="840" width="120" height="120"/><rect id="Rectangle_152" data-name="Rectangle 152" x="480" y="840" width="120" height="120"/><rect id="Rectangle_153" data-name="Rectangle 153" class="cls-1" x="360" y="840" width="120" height="120"/><rect id="Rectangle_154" data-name="Rectangle 154" x="240" y="840" width="120" height="120"/><rect id="Rectangle_155" data-name="Rectangle 155" class="cls-1" x="120" y="840" width="120" height="120"/><rect id="Rectangle_156" data-name="Rectangle 156" y="840" width="120" height="120"/><rect id="Rectangle_157" data-name="Rectangle 157" class="cls-1" y="960" width="120" height="120"/><rect id="Rectangle_158" data-name="Rectangle 158" x="120" y="960" width="120" height="120"/><rect id="Rectangle_159" data-name="Rectangle 159" class="cls-1" x="240" y="960" width="120" height="120"/><rect id="Rectangle_160" data-name="Rectangle 160" x="360" y="960" width="120" height="120"/><rect id="Rectangle_161" data-name="Rectangle 161" class="cls-1" x="480" y="960" width="120" height="120"/><rect id="Rectangle_162" data-name="Rectangle 162" x="600" y="960" width="120" height="120"/><rect id="Rectangle_163" data-name="Rectangle 163" class="cls-1" x="720" y="960" width="120" height="120"/><rect id="Rectangle_164" data-name="Rectangle 164" x="840" y="960" width="120" height="120"/></g></svg>