<?xml version="1.0" encoding="utf-8"?>
<!-- Generator: Adobe Illustrator 26.0.1, SVG Export Plug-In . SVG Version: 6.00 Build 0)  -->
<svg version="1.1" id="Calque_1" xmlns="http://www.w3.org/2000/svg" xmlns:xlink="http://www.w3.org/1999/xlink" x="0px" y="0px"
	 viewBox="0 0 960 1080" style="enable-background:new 0 0 960 1080;" xml:space="preserve">
<style type="text/css">
	.st0{clip-path:url(#SVGID_00000110448478215370708450000014314525113341279912_);}
	.st1{fill:#ED908E;}
</style>
<g id="Groupe_230">
	<g>
		<defs>
			<rect id="SVGID_1_" x="-0.6" y="-0.2" width="961.3" height="1080.5"/>
		</defs>
		<clipPath id="SVGID_00000053516394762517822030000008277271040893648014_">
			<use xlink:href="#SVGID_1_"  style="overflow:visible;"/>
		</clipPath>
		<g style="clip-path:url(#SVGID_00000053516394762517822030000008277271040893648014_);">
			<g id="Groupe_229">
				<g id="Groupe_228">
					<rect id="Rectangle_4" x="-336.4" y="-8.6" class="st1" width="1629.5" height="1097.3"/>
					<g id="Groupe_227">
						<path id="Tracé_895" d="M-336.4-8.5c540.1,0,1080.2-0.1,1620.3-0.2c10.2,0,12.4,1.5,12.4,8.4c-0.3,363-0.4,726-0.3,1089
							H-318.5c-17.8,0-17.9,0-17.9-12L-336.4-8.5z M-72.6,291.7l-2.2-0.1c-28.6,42.1-57.2,84.2-86.1,126.2c-3,4.3-0.8,7.5,1.7,11.1
							c17.7,25.9,35.3,51.8,52.9,77.6c10.5,15.4,21,30.9,31.6,46.3l2.2-0.5V291.7z M-72.8,580.7c-1.9,1.7-2.9,2.3-3.4,3
							c-28,41-55.8,82-84,123c-3.4,4.9-1.6,8.6,1.2,12.9c27.4,40.2,54.8,80.4,82.1,120.6c0.8,1.1,0.8,3.3,4,2.4L-72.8,580.7z
							 M-73,2.6c-2.6,1.4-3.6,1.6-3.9,2.1c-27.8,40.7-55.3,81.4-83.4,122c-3.4,4.9-1.4,8.7,1.5,12.8c21.9,32.1,43.9,64.3,65.8,96.5
							c5.8,8.6,11.8,17.1,17.6,25.6l2.4-0.5V2.6z M483,844c1.2-1,2.3-2,3.3-3.2c27.9-41,55.7-82,83.8-122.9c2.9-4.3,2.5-7.8-0.4-12
							c-14.5-20.8-28.6-41.8-42.8-62.7c-14-20.5-28-41-41.9-61.5l-1.9,0.3V844z M483.5,552.2c2.6-2.2,4-3,4.7-4
							c27.4-40.2,54.7-80.4,82.1-120.6c2.7-4,2.4-7.2-0.3-11.1c-21-30.5-41.6-61.1-62.4-91.6c-7.6-11.2-15.3-22.3-24.1-35.1
							L483.5,552.2z M483.5,261.6c1.9-1.1,2.8-1.4,3.2-1.9c28-40.9,55.8-81.9,84-122.8c2.9-4.2,1.6-7.5-0.9-11.1
							c-11.3-16.5-22.6-33-33.8-49.5c-17-24.9-34-49.7-52.4-76.8L483.5,261.6z M200.9,697.8V434c-30.4,44.6-59.2,87-88.1,129.2
							c-2.1,3-1.5,5.5,0.5,8.5c27.9,41,55.6,82,83.4,123C197.7,696,198,697.8,200.9,697.8z M201.4,144.7c-2.5,2.8-3.5,3.7-4.2,4.7
							c-27.8,40.7-55.4,81.5-83.4,122.1c-3.5,5.1-1.4,9.1,1.7,13.6c13.9,20,27.6,40.1,41.3,60.2c14.4,21.1,28.8,42.2,44.7,65.4
							L201.4,144.7z M201.5,727.3L199,727c-28.8,42.4-57.4,84.8-86.5,127.1c-2.7,3.9-0.1,6.4,1.8,9.3c21.5,31.7,43,63.4,64.6,95
							c6.8,10,13.8,19.9,20.6,29.8l1.9-0.5L201.5,727.3z M209.1,724.5v263.6c1.5-0.8,2.5-1.1,2.8-1.5
							c28.5-41.8,56.8-83.6,85.5-125.3c2.6-3.8,0.6-6.3-1.4-9.3l-44.4-65.2C238,766.8,224.3,746.9,209.1,724.5L209.1,724.5z
							 M209,407.2c2.8,0.1,3-1.3,3.6-2.3c28-41,56.1-81.9,84.2-122.8c2.5-3.7,1.9-6.7-0.6-10.3c-14.2-20.6-28.2-41.2-42.3-61.9
							c-14.4-21.1-28.7-42.1-43.2-63.1L209,147V407.2z M208.8,698c1.9-1.2,2.7-1.5,3.1-2c28.3-41.5,56.5-83,85-124.5
							c2.7-4,1.2-6.8-1.1-10.2c-16.7-24.4-33.5-48.9-50.1-73.4c-11.7-17.2-23.4-34.4-35-51.6l-1.8,0.4L208.8,698z M475.4,580.1
							c-2.7,3-3.7,3.9-4.4,4.9c-27.2,39.9-54.3,79.8-81.8,119.5c-4,5.8-3.5,10.6,0.4,16.2c26.5,38.4,52.6,77,79,115.4
							c1.4,2.1,2,5,6.8,6.2L475.4,580.1z M474.6,554.9V292.1c-1.6,0.9-2.6,1.2-2.9,1.7c-28.1,41.2-56.1,82.5-84.5,123.6
							c-2.9,4.1-1.5,7.4,1.1,11c19.3,28,38.5,56,57.5,84C455,525.8,464,539.1,474.6,554.9L474.6,554.9z M473,262.2l2.2-0.7V1.9
							c-3.3,0.3-3.5,2.1-4.3,3.3c-28,40.9-55.8,81.9-84,122.8c-2.8,4-0.8,6.9,1.5,10.2c13.1,19.3,26.2,38.5,39.3,57.8
							C442.7,217.9,457.8,240.1,473,262.2L473,262.2z M-62.6,292.5l-1.9,0.4v260.9c2.5-3.1,3.9-4.6,5-6.2l82.2-120.4
							c2.7-4,1.6-7.3-1-11.1c-12.2-17.5-24.1-35.2-36.1-52.8C-30.5,339.7-46.6,316.1-62.6,292.5L-62.6,292.5z M-64.7,841.9l2,0.3
							c28.5-41.8,57.1-83.6,85.6-125.4c2.9-4.2,0.7-7.6-1.8-11.2c-14.7-21.4-29.3-42.9-43.9-64.3c-13.5-19.7-26.9-39.4-40.2-59.1
							l-1.7,0.3V841.9z M-64.3-0.1v262.5c1-0.7,1.9-1.5,2.7-2.3c28.2-41.2,56.4-82.5,84.7-123.7c2.6-3.8,1.2-6.8-1.2-10.3
							C14.7,116,7.9,105.8,1,95.6C-20.2,64.6-41.4,33.5-64.3-0.1L-64.3-0.1z M1033.7,292.8l-2,0.2v261.2c2.3-3,2.9-3.7,3.5-4.5
							c27.7-40.7,55.5-81.4,83.3-122.1c2.7-4,2.3-7.3-0.4-11.1c-7.8-10.9-15.1-22-22.6-33L1033.7,292.8L1033.7,292.8z M1033.4,582.4
							l-1.7,0.5v259c1.4-0.5,2.5-0.7,2.8-1.1c28.1-41.3,56.1-82.6,84.3-123.8c2.6-3.8,1.9-6.7-0.6-10.2
							c-10.5-15.1-20.6-30.3-30.9-45.4C1069.3,635.1,1051.4,608.7,1033.4,582.4L1033.4,582.4z M1031.8,261.6
							c1.4-0.7,2.3-0.9,2.7-1.3c28.3-41.2,56.5-82.4,84.7-123.7c2.6-3.7,1.2-6.8-1.2-10.3c-11.4-16.4-22.4-33-33.6-49.5
							c-17-24.9-34.1-49.8-52.6-76.9L1031.8,261.6z M748.9,145.4c-2.5,2.9-3.7,4-4.5,5.2c-27.6,40.4-55,80.9-82.7,121.3
							c-3.1,4.5-1.5,7.9,1.2,12c15.4,22.2,30.4,44.6,45.6,66.9c12.8,18.8,25.7,37.6,38.5,56.5l1.8-0.5L748.9,145.4z M746.3,986.6
							l2.2-0.6V726.7c-1.9,1.7-2.9,2.4-3.4,3.1c-27.9,41-55.7,82.1-83.8,123c-2.6,3.8-1.7,6.7,0.7,10.2
							c15.6,22.5,30.9,45.1,46.3,67.7C721,949.4,733.7,968,746.3,986.6L746.3,986.6z M748.9,438.1l-2.3-0.3
							c-28.7,42-57.4,84.1-86.2,126.1c-2.3,3.3-0.5,5.7,1.3,8.4c17.2,25.3,34.2,50.7,51.5,76c11.1,16.3,22.4,32.6,33.7,48.9l2.1-0.5
							V438.1z M1023.5,0.8c-2.9,2.5-3.9,3.1-4.4,3.9c-27.6,40.5-55,81-82.8,121.3c-3.2,4.7-2.6,8.5,0.4,12.9
							c16.4,23.9,32.6,47.9,48.9,71.8c11.9,17.4,24,34.9,36,52.3l1.8-0.4L1023.5,0.8z M1021.7,553.2l1.8-0.6V290
							c-1.3,1.3-2.6,2.6-3.8,4c-28,41-55.8,82-84,122.9c-3.1,4.5-1.7,8.1,1,12c10.4,15.1,20.6,30.2,31,45.4
							C985.7,500.6,1003.7,526.9,1021.7,553.2L1021.7,553.2z M1023.6,582.9l-2.2-0.7c-1.2,1.1-2.3,2.3-3.3,3.6
							c-27.5,40.4-54.8,80.9-82.5,121.2c-3.1,4.5-1.4,8.1,1.3,12c16.1,23.6,32.1,47.3,48.2,71c12.1,17.7,24.3,35.4,36.5,53.1l2-0.4
							V582.9z M757.9,405.5l2.1,0.2c1.9-2.7,3.9-5.4,5.7-8.2c25.3-37.1,50.4-74.4,76.3-111.3c4.5-6.5,4.7-11.7,0.3-18
							c-16.4-23.2-32.3-46.7-48.3-70c-11.4-16.6-22.6-33.3-33.9-49.9l-2.2,0.5L757.9,405.5z M758.3,726.1V987c2.1-1.9,3-2.6,3.6-3.4
							c27.4-40.2,54.6-80.4,82.2-120.5c3.3-4.8,1.7-8.7-1.2-12.9c-18.7-27.2-37.3-54.5-55.8-81.8L758.3,726.1z M757.8,695.8l2.4,0.1
							C788.1,655,816,614.1,844,573.2c3.1-4.6,2.3-8.5-0.7-12.9c-19.5-28.2-38.7-56.6-58-84.9c-8.5-12.5-17.2-24.9-25.8-37.4
							l-1.7,0.5L757.8,695.8z M-72.2,872.8c-4-0.3-4,1.3-4.6,2.3C-104.8,916-132.6,957-160.8,998c-2.6,3.8-1.5,6.8,0.9,10.3
							c14,20.3,28.6,40.5,41.1,61.2c6.3,10.5,14.5,14.4,31.6,13.8c13.1-0.4,15.2-3.3,15.1-11c-0.4-57.9-0.2-115.7-0.2-173.6
							L-72.2,872.8z M483.6,870.8c-0.9,2.5-1.4,3.3-1.4,4.1c0,66.1,0.3,132.1-0.1,198.2c0,8.1,3.5,9.6,15.1,10.1
							c16.3,0.7,24.8-2.6,31.1-13.1c12.6-21,27.4-41.5,41.9-62c3.4-4.9,1.7-8.5-1.2-12.8c-23.1-33.8-46.1-67.7-69.2-101.6
							C494.8,886.5,489.6,879.3,483.6,870.8L483.6,870.8z M475.5,873.1l-2.8-0.4c-28.5,41.8-57,83.5-85.6,125.3
							c-2.5,3.7-1.4,6.8,1,10.3c13.9,20,28.9,39.8,40.8,60.3c6.6,11.6,15.4,15.6,33.4,14.5c10.5-0.7,13.4-2.2,13.4-9.3
							c-0.4-56.1-0.2-112.2-0.2-168.3V873.1z M-63.2,872.4c-1.3,1.5-2.1,2-2.1,2.4c-0.1,67.3-0.1,134.5-0.2,201.8
							c0,4.6,1.9,6.8,9.2,6.3c4.5-0.4,9-0.4,13.5,0c10.9,1.3,15.6-2.2,19.7-8.6c13.7-21.1,27.9-42,42.8-62.7
							c4.9-6.7,4.3-12.1-0.3-18.7c-17.3-24.6-33.8-49.5-50.7-74.2C-41.6,903.4-52.2,888.2-63.2,872.4L-63.2,872.4z M1033.5,873.1
							l-2.4,0.3v6.8c0,62.4,0,124.8,0,187.2c0,15.5,0,15,22.3,15.7c11,0.4,15.7-2.5,19.8-8.7c14.1-21.6,28.7-43,43.8-64.3
							c3.8-5.4,3.7-9.9-0.1-15.3c-15-21.3-29.3-42.9-43.9-64.3C1059.9,911.3,1046.6,892.2,1033.5,873.1L1033.5,873.1z M1023.8,871.6
							l-1.8-0.6c-28.8,42.3-57.7,84.6-86.6,126.9c-2.8,4.1-1.2,7.5,1.4,11.2c13.8,20.1,28.4,39.9,40.8,60.4
							c6.4,10.6,14.9,14.6,31.9,13.6c10.9-0.6,14.6-2.1,14.6-9.8C1023.7,1006.1,1023.8,938.8,1023.8,871.6L1023.8,871.6z
							 M464.7,855.4l1-1.8L218.5,722.7c26.7,42.8,55.2,84.2,83.1,125.9c3.5,5.3,7.9,7,16.2,6.9c25.2-0.3,50.5-0.1,75.8-0.1
							L464.7,855.4L464.7,855.4z M1017,275L766.5,142.4c27.2,43.3,56.2,85.6,84.7,128c3.3,4.8,8.3,4.6,14.2,4.6
							C914.6,275,963.7,275,1017,275L1017,275z M765.9,722.3c0.9,3.1,0.9,4,1.4,4.7c28,41.3,56.2,82.5,84,123.9
							c2.9,4.3,7.4,4.5,13,4.5c23-0.1,46,0,69,0h83.9L765.9,722.3z M1040.7,853.5l1.1,1.9c50.8,0,101.7-0.1,152.5,0.1
							c7,0,7.6-3.3,9.6-6.2c21.6-31.6,43.2-63.3,64.7-94.9c6.6-9.7,13-19.5,19.5-29.2l-2.7-1.3L1040.7,853.5z M492.7,273.1
							c0.2,0.6,0.4,1.3,0.6,1.9c50.7,0,101.4,0,152.1,0.1c6.6,0,8-3,10.1-6c20.4-29.9,40.9-59.9,61.4-89.8
							c8-11.7,15.9-23.4,23.8-35.1l-2.2-1.1L492.7,273.1L492.7,273.1z M193.1,723.9l-1.9-1.1l-247,130.8
							c51.4,1.7,101.3,1.6,151.2,1.8c7.4,0,9.8-2.5,12.4-6.4C136.1,807.3,164.5,765.6,193.1,723.9z M-79,855.4l-249.1-131.8
							c0.9,3.9,0.8,5.8,1.8,7.3c27.3,40.2,54.6,80.3,82,120.5c1.9,2.8,4.4,4.1,9.1,4.1C-184.4,855.4-133.6,855.4-79,855.4L-79,855.4
							z M1040.8,273.1c0.3,0.6,0.7,1.2,1,1.9c50.8,0,101.5-0.1,152.3,0.1c6.8,0,7.7-3,9.7-6c26.9-39.6,53.9-79.1,80.9-118.7
							c1.4-2,4.5-3.9,0.9-6.8L1040.8,273.1z M488.9,855.4c54.9,0,105.7-0.1,156.5,0.1c7.6,0,8.5-3.7,10.6-6.9
							c16.8-24.4,33.5-48.9,50.2-73.4c11.5-16.9,22.9-33.9,34.3-50.8l-2.3-1L488.9,855.4z M466.2,280.7c-2.3-0.8-3-1.3-3.8-1.3
							c-49.6,0-99.1,0-148.7-0.2c-6.3,0-8.5,2.1-10.7,5.3c-10.7,15.7-21.5,31.3-32.2,47c-18.1,26.5-36.1,53-54.1,79.6l1.6,0.9
							L466.2,280.7z M192.4,144.6l-2.1-1.6L-58.8,275c54.7,0,104.7-0.1,154.7,0.1c6,0,8.8-1.6,11.1-5
							C135.4,228.3,163.8,186.4,192.4,144.6L192.4,144.6z M-54.3,279.4l-1.2,1.8l246.9,130.7c-27.4-43.7-56.6-86.4-85.7-129.2
							c-2.2-3.2-5.8-3.2-10-3.2C45.7,279.4-4.3,279.4-54.3,279.4L-54.3,279.4z M218.7,142.5l-1.8,1C245,184.8,273,226,301,267.3
							c3.7,5.5,8.2,8.1,18,7.9c28.4-0.5,56.8-0.2,85.3-0.2h64.6C383.3,229.7,301,186.1,218.7,142.5L218.7,142.5z M-326.3,144.2
							c-2.3,4.2-0.1,6.6,1.6,9.1c26.3,38.5,52.7,77,78.7,115.6c3.4,5.1,7.9,6.2,15.6,6.2c46-0.2,92-0.1,138.1-0.2
							c3.1,0,7,1.3,10.4-1.4L-326.3,144.2z M1037.4,279.4l250.1,132.4c-0.4-3.1-0.1-4-0.6-4.8c-28.1-41.3-56.2-82.6-84.3-123.9
							c-2-3-4.8-3.8-9.3-3.8C1142.5,279.4,1091.6,279.3,1037.4,279.4L1037.4,279.4z M191.5,992.2l1.8-0.9
							c-28.7-42.1-57.5-84.1-85.8-126.2c-3.4-5.1-8.2-5.4-14.8-5.4c-32.5,0.1-65,0-97.4,0h-53.8L191.5,992.2z M489.4,859.8
							l249.1,131.7c-0.3-3,0-4-0.5-4.7c-27.8-41-55.7-82-83.6-123c-1.9-2.8-4.3-4.1-9.1-4.1C594.5,859.8,543.8,859.7,489.4,859.8
							L489.4,859.8z M765.6,990l2.6,1.3l248.4-131.6c-53.6,0-103.5,0.1-153.5-0.1c-8.2,0-10.7,2.9-13.4,7
							c-13.5,20.1-27.2,40.2-40.9,60.2C794.4,947.9,780,969,765.6,990L765.6,990z M1287.9,992.3c-0.8-3.4-0.7-4.4-1.2-5.2
							c-27.8-41-55.8-81.9-83.4-123c-3-4.4-7.4-4.4-12.8-4.4c-47.8,0-95.5,0-143.3,0c-2,0-4.6-0.6-6.1,1.8L1287.9,992.3z
							 M-326.3,410l246.9-130.6c-54,0-104,0.1-153.9-0.1c-7.3,0-10,2.4-12.7,6.3c-26.1,38.5-52.4,77-78.7,115.4
							C-326.3,403.5-328.7,405.8-326.3,410L-326.3,410z M465,861.7l-0.9-1.8c-50.4,0-100.8,0.1-151.1-0.1c-8.2,0-9.2,3.8-11.6,7.2
							c-25,36.6-49.9,73.2-74.8,109.8c-2.8,4.2-7.4,8.1-7.3,14.9L465,861.7z M764.8,411l1.6,1l247.1-130.9c-2-0.9-2.7-1.5-3.3-1.5
							c-49.6-0.1-99.2-0.1-148.8-0.3c-6.2,0-8.5,2.1-10.7,5.4C822.2,326.8,793.5,368.9,764.8,411L764.8,411z M738.5,411.3
							c2.5-2,0.9-3,0.2-4c-27.8-40.7-55.7-81.4-83.1-122.2c-3.6-5.4-9-5.7-16.1-5.7c-45.6,0.1-91.1,0-136.7,0.1
							c-3.2,0-7-1.3-10.3,1.6L738.5,411.3z M1015.1,578.8l-1.8-0.9L767.1,708.2c51.4,1.7,101.4,1.6,151.4,1.8c7.1,0,9.1-2.6,11.4-6
							c16-23.4,32.1-46.7,48-70.1C990.4,615.5,1002.7,597.1,1015.1,578.8L1015.1,578.8z M-326.6,990.5l247.1-130.8
							c-54.3,0-104.7,0.1-155.1-0.1c-8.1,0-9.4,3.6-11.8,7.1l-78.8,115.6C-326.8,984.5-328.6,986.6-326.6,990.5L-326.6,990.5z
							 M1015,557.7c-0.5-2.1-0.4-3-0.9-3.7c-28.1-41.3-56.4-82.6-84.3-123.9c-3-4.5-7.2-5.2-13.7-5.2c-41.9,0.2-83.9,0.1-125.8,0.1
							h-26L1015,557.7z M737.6,709.9l1.1-2L493.5,578.2c26.8,43.6,55.6,85.9,84.3,128.2c2.1,3.1,5.5,3.5,9.8,3.5
							C637.6,709.9,687.6,709.9,737.6,709.9L737.6,709.9z M-54.4,578.2l-2.1,1.6c28.5,41.8,57.1,83.5,85.3,125.3
							c3.2,4.7,8,4.8,14,4.8c33.3-0.1,66.7-0.1,100,0h51.4L-54.4,578.2z M189.3,129.4l0.9-2L-54.8-2.2c26.5,43.1,55,84.9,83.4,126.6
							c2,3,3.9,5.1,9.6,5C88.6,129.3,138.9,129.3,189.3,129.4L189.3,129.4z M1014.8-0.9l-2.2-1.2L764.1,129.4
							c53,0,101.6-0.2,150.1,0.2c9.3,0.1,13.5-2.2,17-7.6c14.2-21.6,29.1-42.9,43.7-64.4C988.3,38.1,1001.5,18.6,1014.8-0.9
							L1014.8-0.9z M1285,709.8l1.6-2l-244.8-129.6c26.6,43.5,55.3,85.5,83.9,127.5c2.3,3.4,5.6,4.1,10.6,4.1
							C1185.8,709.8,1235.4,709.8,1285,709.8L1285,709.8z M-80.8,578.5l-2-0.8l-245.4,130c51.2,2.1,100.3,2.1,149.5,2.2
							c5.5,0,9-0.8,11.5-4.5C-138.5,663-109.7,620.7-80.8,578.5L-80.8,578.5z M215.9,129.5c54.3,0,104.3-0.1,154.3,0.1
							c7,0,9.2-2.4,11.6-5.9c13.4-19.8,27.1-39.6,40.6-59.4c14.9-21.8,29.7-43.7,44.5-65.5l-2-1L215.9,129.5z M1284.7,129.5l1.7-1.9
							L1041.8-2.1c26.4,43.4,55.1,85.3,83.6,127.3c2.6,3.8,6.7,4.2,12,4.2C1186.5,129.4,1235.6,129.4,1284.7,129.5L1284.7,129.5z
							 M216.1,424.9l248.6,131.5c-26.6-43.3-55.2-85.2-83.6-127.3c-2.9-4.4-7.6-4.3-13.1-4.3c-22.5,0.1-45,0-67.6,0L216.1,424.9z
							 M466.9,579.1l-2-1.1L218.4,708.5c1.9,0.8,2.5,1.3,3.2,1.3c49.5,0,99.1,0,148.6,0.2c6.8,0,9.2-2.3,11.6-5.9
							c12.3-18.5,25-36.8,37.5-55.2L466.9,579.1L466.9,579.1z M490.8,555.9l1.4,1.2L739.9,426c-3.1-0.6-4.3-1-5.5-1
							c-48.7,0-97.4,0.1-146.1-0.2c-8.6-0.1-10.4,3.5-13,7.3C547.2,473.4,519,514.6,490.8,555.9z M492.4-2.7c-0.2,1.9-0.5,2.6-0.2,3
							c27.7,40.7,55.5,81.4,82.9,122.2c3.8,5.6,9.2,7,17.8,7c45.5-0.2,91.1-0.1,136.6-0.1c2.8,0,6.2,1.1,9.2-1.7L492.4-2.7z
							 M1039.4,555.1l2,1.5l245.2-129.9c-51.5-1.7-101.5-1.7-151.5-1.8c-6.3,0-8.3,2.4-10.6,5.6
							C1096.3,472,1067.9,513.6,1039.4,555.1L1039.4,555.1z M-82.7,556.8l1.8-0.9c-28.8-42.3-57.7-84.6-86.4-126.9
							c-3-4.4-8-4.1-13.5-4.1c-46,0-91.9,0-137.9,0c-2.8,0-6.4-1.1-8.6,2.5L-82.7,556.8z M-56.7,555.1l2.2,1.3l248.3-131.5
							c-54,0-103.5,0.1-153.1-0.1c-8.2,0-10.8,2.9-13.5,6.9c-18.2,27-36.6,54-55,81C-37.5,526.8-47.1,541-56.7,555.1L-56.7,555.1z
							 M-327.3,126.9l1.5,2.5h14.3c42.4,0,84.8-0.3,127.2,0.2c10.8,0.1,16.1-2.3,20.4-8.7c21.2-31.8,43.1-63.3,64.3-95.1
							C-93.8,17-86.2,8.5-81.6-3.2L-327.3,126.9z M192,435.3l-2.5-1.7l-243.5,129c49.8,1.8,98,1.6,146.1,2
							c9.2,0.1,13.6-1.9,17.2-7.4c13.6-20.8,27.8-41.3,41.8-62C164.7,475.2,178.3,455.2,192,435.3L192,435.3z M219.3,433l-1.9,1.5
							c28.3,41.5,56.7,83,84.7,124.6c3.4,5,8.3,5.4,15,5.4c45.5-0.1,91,0,136.5-0.2c3.2,0,7.2,1.2,10.4-1.9L219.3,433z
							 M1010.9,564.4l1.3-1.8L767.4,433c-0.5,2.1-1,2.8-0.7,3.2c28,41.3,56,82.5,84,123.7c2.4,3.6,6.1,4.5,11.7,4.5
							C911.9,564.4,961.4,564.4,1010.9,564.4L1010.9,564.4z M-326.4,434.2c-2.1,4.3,0,6.8,1.7,9.2c26.3,38.5,52.7,76.9,78.7,115.4
							c3.3,4.8,7.7,5.7,14.7,5.7c45-0.2,90.1-0.1,135.1-0.2c3.8,0,7.9,1,12.6-1.6L-326.4,434.2z M1041.9,562.7l1.3,1.8
							c49.6,0,99.2-0.2,148.8,0.2c8.4,0,10.4-3.2,13-7.1c22.1-32.5,44.5-64.8,66.3-97.4c5.6-8.3,12.9-16.3,16.7-27.7L1041.9,562.7z
							 M495.8,570.3l-1.1,2l244.1,129.2c-26.6-43.3-55.3-85.2-83.8-127.2c-1.9-2.8-4.7-4-9.4-4C595.7,570.3,545.8,570.3,495.8,570.3
							L495.8,570.3z M740.7,434.2l-2.2-1L493.8,562.7c51.3,1.7,101.2,1.6,151.1,1.8c8,0,9.6-3.6,11.9-7.1c19.1-28,38.2-56,57.3-84.1
							C723,460.3,731.8,447.2,740.7,434.2L740.7,434.2z M765.4,700.2l2.3,1.2l247.6-131.1c-53.7,0-102.8,0.1-151.9-0.1
							c-7.8,0-10.9,2.3-13.8,6.6c-18,26.7-36.3,53.4-54.6,80C785.1,671.2,775.2,685.7,765.4,700.2L765.4,700.2z M463.5,572.2
							l-1.5-1.9c-49.1,0-98.2,0.1-147.4-0.1c-8.1,0-10.8,2.7-13.6,6.9c-14.1,21-28.5,41.8-42.7,62.7c-13.9,20.4-27.7,40.7-41.5,61.1
							l1.9,0.9L463.5,572.2z M190.9,701.7c0-2.9,0.3-3.5,0-4c-27.7-40.7-55.6-81.4-83-122.2c-3.5-5.2-8.6-5.2-15.1-5.2
							c-42.4,0.1-84.8,0.1-127.1,0h-18.2l-0.8,2L190.9,701.7z M-326.3,700.2L-82.1,571c-4.9-0.4-6.5-0.6-8.2-0.6
							c-47.8,0-95.5,0.1-143.3-0.2c-7.2,0-10.1,2.2-12.8,6.2c-26.1,38.5-52.4,77-78.7,115.5C-326.5,694-328.8,696.1-326.3,700.2
							L-326.3,700.2z M1284.5,999.7l1.7-1.9l-245.1-129.7c26.6,43,55.1,84.8,83.3,126.6c2.7,4,6.8,5.1,12.8,5.1
							C1186.4,999.7,1235.4,999.7,1284.5,999.7L1284.5,999.7z M1285.9,701c1.8-2.6,0.9-3.9-0.1-5.3c-27.4-40.2-54.9-80.3-81.9-120.6
							c-3.2-4.7-7.9-4.8-14-4.8c-46,0.1-92,0.1-138,0.1c-2.8,0-6.4-1.1-8.6,2.3L1285.9,701z M218.8,998.5c4.1,0.8,5.3,1.2,6.5,1.2
							l144.6,0.1c6.3,0,9.3-1.6,11.9-5.6c8-12.5,16.9-24.7,25.4-37.1c20-29.3,39.9-58.5,59.8-87.8l-1.9-1.2L218.8,998.5z
							 M1284.5,419.3l1.2-2.1l-244.6-129.4c26.5,42.8,54.8,84.3,83,125.8c2.2,3.2,4.3,5.7,10.5,5.7
							C1184.6,419.2,1234.6,419.2,1284.5,419.3L1284.5,419.3z M768.1,997.7l1,2c50,0,100-0.1,150,0.1c7.8,0,9.5-3.6,12-7.2
							c18.4-27,36.8-53.9,55.2-80.9c9.4-13.9,18.7-27.8,28-41.7l-2.4-1.2C930.7,911.7,849.4,954.7,768.1,997.7L768.1,997.7z
							 M493.5,288c-1.3,3,0,4.5,1.1,6.2c27.2,39.9,54.5,79.7,81.4,119.7c3.3,4.9,8,5.6,14.9,5.5c44.6-0.1,89.3-0.1,133.9-0.1
							c3.8,0,8,0.7,12.9-2L493.5,288z M-81,288.7l-1.7-1.2l-246.5,130.6c4.9,0.7,6.4,1.2,8,1.2c47.4,0,94.7-0.1,142.1,0.1
							c7.9,0,10.8-2.6,13.7-6.8C-137.5,371.2-109.3,330-81,288.7L-81,288.7z M492,867.5c1.2,3.5,1.3,4.8,2,5.8
							c27.7,40.7,55.5,81.4,83,122.2c3,4.4,7.9,4.3,13.2,4.3c17.6,0,35.2,0,52.7,0h94.2l1.1-1.8L492,867.5z M-329.5,998.5
							c4.8,0.7,6.4,1.2,8,1.2c47.7,0.1,95.5,0.1,143.2,0.3c6.4,0,9.3-1.9,11.8-5.7c18.6-27.5,37.5-54.9,56.2-82.4
							c9.8-14.3,19.3-28.7,28.9-43.1l-1.9-0.7L-329.5,998.5z M-54.8,287.9L-57,289c28.7,41.9,57.5,83.9,85.9,125.9
							c3.3,4.9,8.8,4.4,14.5,4.4c42.8,0,85.6,0,128.4,0h16.8l0.9-2L-54.8,287.9z M-55,868.1l-1.9,1.3c28,40.9,56.2,81.8,83.7,122.9
							c3.7,5.6,7.9,7.7,17,7.7c45.1-0.3,90.2-0.1,135.2-0.2c3.3,0,7.1,0.9,11-2L-55,868.1z M1288.5,135.6c-5.9-0.3-8-0.6-10.2-0.6
							c-46.8,0-93.7,0.1-140.5-0.1c-8.5,0-11.7,2.7-14.7,7.2c-15.4,22.9-31.2,45.6-46.7,68.4c-12.5,18.3-24.8,36.6-37.1,54.9l1.9,1
							L1288.5,135.6z M467.1,288.7l-1.9-1.1L220.4,417.3c51.6,1.9,101.9,1.9,152.2,1.9c5.7,0,7.3-2.8,9.2-5.6
							c6.4-9.4,12.8-18.7,19.2-28C423,353.3,445,321,467.1,288.7L467.1,288.7z M190.9,136.3c-3.7-0.8-4.9-1.2-6.1-1.2
							c-48.2,0-96.5,0.1-144.8-0.1c-7.4,0-10,2.7-12.6,6.6c-22.8,33.6-45.8,67.1-68.7,100.7c-5.3,7.8-10.5,15.6-15.7,23.3l2,0.9
							L190.9,136.3z M222.1,135l-1.4,2.1l244.5,129.5c-26.9-43.3-55.8-85.6-84.5-127.9c-2-3-5.3-3.8-9.8-3.8
							C321.3,135,271.7,135,222.1,135L222.1,135z M221,717.6l244.6,129.5c0.3-1.6,0.7-2.2,0.4-2.6c-28.2-41.5-56.5-83.1-84.5-124.6
							c-2.8-4.2-7.5-4.5-13.2-4.5c-46.9,0-93.7,0-140.6,0C225.7,715.4,223.2,715,221,717.6L221,717.6z M1014.5,289.7l-2.8-1.2
							l-244,129.1c2.1,1,2.8,1.5,3.5,1.5c49.2,0,98.3,0,147.4,0.1c7,0,9.2-2.6,11.5-6.1c11.8-17.4,23.7-34.7,35.5-52
							C982,337.4,998.2,313.5,1014.5,289.7L1014.5,289.7z M490.8,265.7l2.1,0.8L737.7,137c-2.4-1-3.1-1.6-3.8-1.6
							c-49.1-0.1-98.2-0.2-147.2-0.3c-5.3,0-7.8,1.7-9.9,4.9C548.2,181.9,519.6,223.9,490.8,265.7L490.8,265.7z M-326.5,715.5
							l-1.1,1.9L-84.5,846c1.4-2.5,1-3.6,0.3-4.7c-27.4-40.2-54.9-80.2-81.9-120.5c-3.3-5-8.1-5.5-14.9-5.4
							c-26.1,0.2-52.3,0.1-78.4,0.1L-326.5,715.5L-326.5,715.5z M190.9,716.7c-3.7-0.7-4.9-1.2-6.1-1.2c-48.3-0.1-96.5,0-144.8-0.2
							c-8.2,0-10.5,3.2-13.2,7.3c-19.4,28.7-39.2,57.2-58.7,85.8c-8.5,12.5-16.6,25-24.9,37.6l1.7,0.8L190.9,716.7z M737.5,717.4
							c-5.5-2.8-10.1-2-14.3-2c-43.3,0-86.5,0.3-129.8-0.2c-10.4-0.1-15.4,2.3-19.3,8.2c-15.4,23.2-31.2,46.3-46.9,69.4l-36.2,53.3
							l1.8,0.8L737.5,717.4z M1011.7,265.8l2.2-1.3c-0.8-1.7-1.7-3.3-2.6-4.9c-27-39.6-54.2-79.1-80.9-118.8
							c-3.2-4.8-7.7-5.8-14.7-5.8c-41.9,0.1-83.8,0.1-125.7,0.1h-20.9c-0.2,0.6-0.5,1.2-0.7,1.8L1011.7,265.8z M1014.8,847.7
							c-1.3-3.4-1.5-4.6-2.2-5.6c-27.5-40.4-55.2-80.8-82.5-121.2c-3.3-4.9-8.1-5.5-14.9-5.5c-41,0.1-82,0-123,0H770l-0.9,2.2
							L1014.8,847.7z M1285.5,717.4l-1.3-1.9c-49.5,0-99,0.1-148.6-0.1c-7.7,0-9.8,3-12.3,6.8c-17.8,26.1-35.8,52.2-53.6,78.4
							c-10,14.7-19.9,29.5-29.8,44.2l2.4,1.4L1285.5,717.4z M-325.5,135l-1.4,2.4l242.7,128.5c-26.2-43.4-54.8-85.3-83.3-127.3
							c-2.4-3.5-6.5-3.6-11.1-3.6c-18,0-36,0-54,0L-325.5,135z M1287.3,451.9l-2-0.5c-25.4,37.4-50.8,74.7-76.4,112
							c-2.8,4-0.2,7,2,10.2c22.4,33,44.8,66,67.3,99c2.4,3.5,4.9,7,7.3,10.6l1.7-0.6L1287.3,451.9z M1287.3,740.8
							c-2.2,1.9-3.1,2.5-3.7,3.3c-24.6,36-49.1,72.1-73.9,108.1c-2.8,4-2.2,7.3,0.4,11.1c18.8,27.2,37.3,54.5,55.9,81.7
							c6.4,9.4,12.9,18.7,19.4,28.1l1.9-0.6V740.8z M1286.5,394.2V159.5c-26.1,38.4-50.4,74.5-75.2,110.4c-3.6,5.2-3.9,9.3-0.3,14.5
							c15.4,21.9,30.1,44,45.2,66C1265.8,364.5,1275.7,378.6,1286.5,394.2L1286.5,394.2z M738.6,121.2l2.2-1.2
							c-27-39.6-54-79.2-80.9-118.7c-2.1-3-5-3.9-9.5-3.9c-47.2,0-94.3,0-145.6,0L738.6,121.2z M765.5,119.6l2.2,1.5L1001.4-2.6
							c-51,0-97.3,0-143.7,0c-5.5,0-9.1,0.7-11.7,4.5C819.3,41.1,792.5,80.3,765.5,119.6L765.5,119.6z M191.2,121.6l2.2-0.8
							C166.2,81,138.9,41.3,111.9,1.4c-3-4.4-8-4.1-13.4-4.1c-25.7,0-51.4,0-77.1,0c-20.1,0-40.1,0-60.2,0l-0.9,1.9L191.2,121.6z
							 M1288,121.9c-1.1-3.6-1.1-4.7-1.8-5.7c-25.9-37.9-51.9-75.8-77.6-113.8c-3.1-4.6-8-5-14.2-5c-20.3,0.1-40.6,0-60.8,0h-76.3
							l-0.9,1.9L1288,121.9z M449.7-0.7l-0.9-1.9c-45.4,0-90.8,0.2-136.1-0.2c-9.2-0.1-13.6,2.1-17.2,7.5
							c-15.8,23.8-32.1,47.4-48.2,71c-10.2,15-20.2,30-30.3,45l1.7,0.8L449.7-0.7z M-325.8,119.7L-94.9-2.6
							c-51,0-97.8,0.1-144.5-0.1c-6.6,0-9.3,1.9-11.8,5.6c-24.4,36.1-49,72-73.5,108.1C-326.4,113.3-328.9,115.7-325.8,119.7z
							 M-326.8,452.2v230.1c26.3-38.6,51.1-74.9,75.9-111.2c1.8-2.7,1.8-5.1-0.1-7.8C-275.8,527-300.5,490.7-326.8,452.2
							L-326.8,452.2z M-327.6,390.2l1.7,0.5c23.8-34.8,47.2-69.7,71.5-104.4c4.8-6.8,4.3-12.2-0.3-18.7
							c-12.1-16.9-23.2-34.1-34.9-51.1c-12.1-17.6-24.3-35.2-38-55.2L-327.6,390.2z M-327.4,972.1c1.3-1.3,2.6-2.7,3.8-4.1
							c24-35.2,47.8-70.4,72-105.5c2.8-4.1,1.5-7.3-1.1-11.1c-21.4-31.3-42.4-62.7-63.8-94c-3-4.4-4.8-9.4-10.9-13.4L-327.4,972.1z
							 M738.1,1007.1l-1.2-1.8c-46,0-91.9,0.4-137.8-0.2c-14.1-0.2-21.6,2.4-27.1,11.5c-13.6,22-29.1,43.4-44.6,66.3
							c19.9,0,37.7-0.2,55.6,0.1c8.5,0.2,15.3-1.2,22-5c18.7-10.4,38.2-20.2,57.3-30.4C687.4,1034.1,712.7,1020.6,738.1,1007.1
							L738.1,1007.1z M189.7,1007.3c-0.4-0.7-0.8-1.3-1.2-2c-49.9,0-99.9,0-149.9-0.1c-5.5,0-7.9,1.6-10,4.7
							c-15,22.3-30.1,44.7-45.5,66.9c-3.6,5.1-1.3,5.9,6.2,6.1c55.8,1.4,55.8,1.5,98.7-21.7c3.5-1.9,7.1-3.7,10.7-5.6L189.7,1007.3
							L189.7,1007.3z M219.5,1005.3c1.7,2,2,2.6,2.6,3c45.3,24.1,90.6,48.1,135.9,72.1c3.5,1.8,7.3,2.7,11.2,2.5
							c17.1-0.1,34.3-0.2,51.4,0c7.6,0.1,9.7-1.1,6.2-6.1c-15.4-22.2-30.6-44.5-45.5-66.9c-2.1-3.2-4.7-4.7-10-4.7
							C321.3,1005.3,271.3,1005.3,219.5,1005.3L219.5,1005.3z M1286.3,1007l-1.4-1.7c-49.5,0-99,0-148.5,0c-4.7,0-8.6,0.3-10.9,3.8
							c-15.3,22.9-30.9,45.7-46.6,68.4c-3.7,5.4,0.8,5.3,6.5,5.3c17.1-0.1,34.2-0.2,51.3,0c5.5,0.1,9.2-1.6,13.2-3.7
							c36.7-19.5,73.5-38.9,110.3-58.3C1268.9,1016.2,1277.6,1011.6,1286.3,1007L1286.3,1007z M768.9,1005.3l-0.8,2
							c46.4,24.5,92.8,49,139.2,73.5c1.8,1.1,3.8,1.7,5.9,1.8c21.3,0.1,42.6,0.1,65.5,0.1c-17.3-25.3-33.6-49.3-49.8-73.2
							c-1.8-2.7-4.1-4.2-9-4.2C869.6,1005.4,819.3,1005.4,768.9,1005.3L768.9,1005.3z M-117.2,1082.8c-16.7-24.4-32.8-47.3-48-70.4
							c-3.8-5.7-8.6-7.3-17.5-7.2c-43.7,0.3-87.3,0.1-131,0.2c-4.5,0-9.6-1.1-14.7,1.8c46.9,24.8,93.1,49.3,139.2,73.8
							c3.1,1.7,6.4,1.9,10,1.9C-159.3,1082.8-139.5,1082.8-117.2,1082.8L-117.2,1082.8z M199.6,118.1l2.2-0.3c0-38.7,0-77.3,0-116
							c0-2.8-1.2-4.5-6.2-4.5c-25.4,0.1-50.8,0-78.3,0L199.6,118.1z M208.3,117.4l2.3,0.3L292.6-2.6c-27.2,0-52.2,0.1-77.2-0.1
							c-8-0.1-7,3.5-7,6.7C208.3,41.8,208.3,79.6,208.3,117.4L208.3,117.4z M746.7,116.7l2.7-0.6c0-37.3,0-74.6,0-111.8
							c0-2.9,1.2-6.7-5.7-6.8c-25.4-0.1-50.7-0.1-78.1-0.1L746.7,116.7z M757.2,115.6l2.6,0.5c25.8-37.8,51.5-75.6,77.3-113.4
							c3.6-5.3-0.5-5.4-6.3-5.3c-21.2,0.1-42.3,0.2-63.4-0.1C759.7-2.8,757.1-1,757.2,4C757.3,41.2,757.2,78.4,757.2,115.6z
							 M1285.3,102.9l2.1-0.2c0-32.7-0.2-65.4,0.2-98.1c0-5.3-1.7-7.5-10.4-7.3c-18,0.4-36,0.2-54.1,0c-7.4-0.1-8.6,1.7-5.7,5.9
							C1240.1,36.4,1262.7,69.6,1285.3,102.9L1285.3,102.9z M-327.7,99.3l2.5,0.6l69.6-102.5c-22.5,0-42.3,0.3-62.1-0.1
							c-9-0.2-10.2,2.6-10.2,7.6C-327.6,36.3-327.7,67.9-327.7,99.3L-327.7,99.3z M219.2,1013.3l-2,1.1
							c12.6,18.6,26.2,36.9,37.3,55.8c6.2,10.4,14.7,13.8,31,12.9c20.2-1.1,40.6-0.3,60.9-0.3c0.2-0.7,0.4-1.3,0.5-2L219.2,1013.3z
							 M767.3,1013.3l-2.7,0.2l45.2,66.4c1.5,2.2,4,3,7.5,3c25.9,0,51.7,0,81.3,0L767.3,1013.3z M191.9,1015.8l-2.9-1.5l-129.6,68.6
							h81.3c3.4,0,5.8-0.6,7.4-3C162.7,1058.4,177.3,1037.1,191.9,1015.8L191.9,1015.8z M611.1,1080.9l0.7,1.9c25.5,0,50.9,0,76.4,0
							c4.1,0,6.5-0.9,8.3-3.5c14.7-21.6,29.5-43.1,44.3-64.6l-2.3-1.3L611.1,1080.9L611.1,1080.9z M1288.4,1015.2l-2.8-1.2
							l-129.8,68.8c22,0,40.2-1.3,57.8,0.3c22.7,2,33.8-3.8,41.4-17.8C1264.2,1048.2,1277.1,1031.9,1288.4,1015.2L1288.4,1015.2z
							 M-327.6,1014c0,2.7-0.6,4,0.1,5c13.8,20.3,27.7,40.6,41.5,60.9c1.5,2.2,3.6,3,7.3,3c25.8-0.1,51.6,0,81.1,0L-327.6,1014z
							 M201.8,1017.4l-2.7-0.3l-44.8,65.9c15,0,27.8-0.1,40.7,0c6.8,0.1,6.8-2.7,6.8-5.9C201.8,1057.1,201.8,1037.2,201.8,1017.4
							L201.8,1017.4z M211.1,1017.5l-2.8,0.1c0,20.2,0.1,40.3-0.1,60.5c0,3.4,1.8,4.9,7.1,4.8c12.8-0.1,25.6,0,40.2,0L211.1,1017.5z
							 M702.4,1082.9c14.4,0,26.5,0,38.6,0c4.4,0,8.2-0.2,8.2-4.1c0-20.1,0-40.1,0-60.2l-2.7-0.3L702.4,1082.9z M759.8,1018.6
							l-2.6,0.4c0,19.3,0,38.7,0,58.1c0,3.3,0.5,6,7.1,5.9c12.4-0.2,24.9,0,39.3,0C788.5,1060.6,774.2,1039.6,759.8,1018.6
							L759.8,1018.6z M1287.4,1032.4l-2.2-0.6l-34.6,51c10.4,0,18.9-0.3,27.3,0.1c8.2,0.4,9.7-2,9.6-6.9
							C1287.2,1061.5,1287.4,1047,1287.4,1032.4L1287.4,1032.4z M-325.2,1034.8l-2.6,0.4v27.2c0,21.1,0,21.1,31,20.3
							c0.7,0,1.3-0.6,3-1.3L-325.2,1034.8z"/>
					</g>
				</g>
			</g>
		</g>
	</g>
</g>
</svg>
