<svg id="Calque_1" data-name="Calque 1" xmlns="http://www.w3.org/2000/svg" viewBox="0 0 99.52 102.02"><g id="Groupe_266" data-name="Groupe 266"><path id="Tracé_911" data-name="Tracé 911" d="M938.78,505.17h24c2.86,0,4.24,1.33,4.24,4.22q0,13.1,0,26.18c0,3-1.38,4.34-4.38,4.34H914.55c-2.9,0-4.3-1.4-4.31-4.29V509.55c0-3,1.39-4.38,4.44-4.38Zm-7,17.32c0,3.14,0,6.28,0,9.42,0,.86.28,1.17,1.14,1.15,1.94,0,3.87,0,5.81,0a7.06,7.06,0,0,0,6.87-4.67,16.84,16.84,0,0,0,.77-9.37c-.74-4.44-3.37-6.7-7.86-6.9-1.83-.08-3.66,0-5.48-.07-1,0-1.27.32-1.26,1.27.05,3.07,0,6.14,0,9.21ZM920.39,512h-4.21c-.66,0-1,.24-1,1q0,9.57,0,19.15c0,.66.27.92.92.91s1.6,0,2.4,0,1.23-.31,1.21-1.21c0-1.82,0-3.65,0-5.47,0-.87.31-1.28,1.22-1.24a16.85,16.85,0,0,0,3.82-.23,4.84,4.84,0,0,0,3.6-2.4,8.25,8.25,0,0,0,.53-6.68,4.91,4.91,0,0,0-3.92-3.56,27.47,27.47,0,0,0-4.53-.24Zm29.76,10.53c0,2.44,0,4.89,0,7.33.05,3.71-.62,3.07,3.18,3.17.89,0,1.24-.3,1.22-1.2,0-2.08,0-4.16,0-6.24,0-.73.24-1.06,1.05-1,1,.08,2,0,3.06,0,2.26,0,2.23,0,2.21-2.3,0-.88-.35-1.15-1.18-1.12-1.24,0-2.48,0-3.72,0-1,.05-1.48-.3-1.42-1.37a30.46,30.46,0,0,0,0-3.17c-.06-1,.3-1.46,1.37-1.42,1.83.06,3.65,0,5.48,0,.93,0,1.38-.29,1.27-1.26a4.82,4.82,0,0,1,0-.76c.09-.93-.26-1.32-1.23-1.3q-5,.06-10,0c-1,0-1.32.37-1.31,1.35,0,3.06,0,6.12,0,9.19Z" transform="translate(-910.24 -488.99)"/><path id="Tracé_912" data-name="Tracé 912" d="M974.2,552.4V540.46c0-2,.93-3,3-3,3.18,0,6.35,0,9.53,0s6.57,0,9.86,0c2.51,0,3.36.87,3.36,3.34,0,7.92,0,15.85,0,23.77,0,1,.29,1.4,1.36,1.38,2.48-.07,5,0,7.45,0,.34,0,.81-.18,1,.26s-.24.57-.45.81l-19.8,21.65c-.59.65-1.16,1.31-1.73,2s-.81.54-1.31,0q-6.42-7.11-12.89-14.17-4.38-4.81-8.74-9.65c-.19-.2-.56-.37-.43-.7s.52-.18.8-.18c2.59,0,5.18,0,7.77,0,.95,0,1.28-.28,1.27-1.25C974.18,560.57,974.2,556.49,974.2,552.4Z" transform="translate(-910.24 -488.99)"/><path id="Tracé_913" data-name="Tracé 913" d="M957.81,495H934a8.26,8.26,0,0,0-8.33,6.42,1.07,1.07,0,0,1-1.16,1h0c-1.28,0-2.56-.06-3.84,0-1,0-1.14-.4-1-1.26a14.45,14.45,0,0,1,10.81-11.69A15.93,15.93,0,0,1,934,489h47.55A14.25,14.25,0,0,1,996,503v.42c0,9.57,0,19.14,0,28.71,0,1-.28,1.28-1.23,1.22-1.24-.07-2.49,0-3.73,0-.77,0-1.06-.31-1-1,0-.36,0-.73,0-1.1q0-13.9,0-27.83a8.11,8.11,0,0,0-6.85-8.28,9.54,9.54,0,0,0-1.85-.13Z" transform="translate(-910.24 -488.99)"/><path id="Tracé_914" data-name="Tracé 914" d="M952.67,583.34H933.83a14.26,14.26,0,0,1-14.36-14.17v0c-.07-8.36,0-16.72,0-25.08,0-1.07.38-1.43,1.41-1.36s2,0,3.07,0c1.52,0,1.54,0,1.54,1.52q0,12.43,0,24.87a8.36,8.36,0,0,0,6.33,8.08,10.46,10.46,0,0,0,2.62.19c11,0,21.91,0,32.86,0a3.13,3.13,0,0,1,2.81,1.27c1,1.26,2.16,2.37,3.23,3.57.25.28.76.52.53,1s-.67.19-1,.19Z" transform="translate(-910.24 -488.99)"/><path id="Tracé_915" data-name="Tracé 915" d="M936.31,522.42c0-2,0-3.93,0-5.9,0-1,.4-1.26,1.33-1.15,2.32.25,3.35.92,3.88,3.18a15.16,15.16,0,0,1-.25,8.52c-.66,1.9-1.82,2.58-3.85,2.58-.8,0-1.11-.31-1.1-1.1C936.33,526.51,936.31,524.47,936.31,522.42Z" transform="translate(-910.24 -488.99)"/><path id="Tracé_916" data-name="Tracé 916" d="M921.43,521.74c-1.75,0-1.75,0-1.75-1.6,0-1.31,0-2.63,0-3.94,0-.68.3-1.07,1-1,1.22.07,2.59-.18,3.35,1.13a4.38,4.38,0,0,1,0,4.4C923.42,521.76,922.33,521.76,921.43,521.74Z" transform="translate(-910.24 -488.99)"/></g></svg>