<svg id="Calque_1" data-name="Calque 1" xmlns="http://www.w3.org/2000/svg" viewBox="0 0 94.58 93.69"><defs><style>.cls-1{fill:#61b397;}</style></defs><g id="Groupe_265" data-name="Groupe 265"><path id="Tracé_910" data-name="Tracé 910" class="cls-1" d="M960.13,493.15a47.14,47.14,0,0,1,47.16,46.77c.06,25.94-21.27,47-47.58,46.92a47.08,47.08,0,0,1-47-46.92C912.74,514,934,493.13,960.13,493.15Zm2.77,41.59c.53-3.71-1.66-4.11-4.48-3.85a25.25,25.25,0,0,1-4.26,0c-2.32-.19-3.2.7-3.17,3.09q.13,14.79,0,29.6c0,2.41,1,3.21,3.22,3.08a49.1,49.1,0,0,1,5.69,0c2.27.15,3-.85,2.94-3-.1-5.31,0-10.62,0-15.94a10.93,10.93,0,0,1,.85-4.72,6.51,6.51,0,0,1,6.4-3.85,6,6,0,0,1,5.36,5.11,30,30,0,0,1,.5,5.08c.07,4.84.08,9.68,0,14.52,0,2.07.74,3.08,2.85,2.75a21.56,21.56,0,0,1,6,0c1.74.21,2.68-.47,2.67-2.37-.07-7.3.18-14.62-.22-21.91-.28-5.09-2.63-9.38-7.79-11.27-5.35-2-10.45-1.77-14.65,2.77a2.06,2.06,0,0,1-1.83.92Zm-30.25,14c0,4.94.1,9.87,0,14.8-.08,2.61,1,3.37,3.41,3.1a26.1,26.1,0,0,1,4.24,0c3.47.2,3.82-.07,3.82-3.48,0-8,.08-15.94,0-23.91-.11-9.74,1.63-8.08-8.47-8.31-2.25,0-3,.86-3,3,.09,4.94,0,9.88,0,14.81Zm5.76-23.09c3.75,0,6.58-2.59,6.65-6s-2.94-6.26-6.77-6.18a6.43,6.43,0,0,0-6.52,6.21C931.75,523,934.67,525.65,938.41,525.63Z" transform="translate(-912.71 -493.15)"/></g></svg>