<svg id="Calque_1" data-name="Calque 1" xmlns="http://www.w3.org/2000/svg" viewBox="0 0 921.99 685.43"><defs><style>.cls-1{fill:#652327;}</style></defs><path id="Tracé_909" data-name="Tracé 909" class="cls-1" d="M1350.16,671c20,5.55,39.07,12.67,58.43,18.9,8.62,2.77,13.16,7.2,12.3,16.46-.35,3.81.36,7.87-.69,11.45-6.09,20.84-11.8,41.83-19.15,62.23-5.08,14.08-10.61,15-23.46,7.17a54.12,54.12,0,0,1-7.29-5.19c-56-48.75-149.42-47.18-207.57-6a64.72,64.72,0,0,1-7.5,4.89c-4.56,2.35-9.57,9.21-14.31,3.14-4.29-5.49,2.62-9.82,5.9-13.9,3.67-4.56,7.92-8.67,12.8-13.93-6.18-1.56-10.12,1.25-14.15,2.77-31.66,11.92-61.29,27.84-89.76,46-5.75,3.67-11.33,7.66-17.3,10.92-4.51,2.46-9.93,8.34-14.59,2.11s2.57-9.72,6.17-13.38c6.89-7,14-13.84,19.16-22.23,2.81-4.53,4-9.88.73-14.49-3-4.21-7.07-.45-10.6,0-39.92,5.27-71,27.2-100.13,53-4.81,4.25-10.52,14.55-17.5,7.91s2.45-13.65,6.42-19.46c6.5-9.5,14-18.3,17-29.8,2.48-9.76-.26-15.06-10.76-19.12-25.94-10-49.82-5.1-72.38,7.9-45.41,26.19-90.47,53-131.21,86.35-2.71,2.21-5.3,5-8.89,2.39-4-3-2.52-7.13-.74-10.45,6.68-12.42,8.37-25.61,8.23-39.54-.12-11.56-5.57-15.94-16.27-16.66-12.3-.82-23.68,2.46-34.85,6.79-54.59,21.13-107.59,45.43-157.06,77.06-5.94,3.8-13.67,14.08-20.56,4.33-5.68-8,5.82-11.43,10.32-16.24,29.88-31.91,66.6-55.84,99.29-84.48,15.6-13.68,27.49-30.27,37.09-48.5a42.21,42.21,0,0,0,4.24-13.27c.8-5.42,1.06-11-5-14.64-5.71-3.45-10.49-1.93-15.43,1.3C615,713.36,600.32,725.68,586,738.46c-4,3.53-7.7,9.88-13.89,5.48s-1.59-10.07.53-14.94c12.41-28.47,30.25-53.3,51.19-76,29-31.49,62.76-57.63,95.16-85.31,3.08-2.64,6.45-4.7,10.27-1.68,3.21,2.54,2.62,6,1.14,9.32a16.76,16.76,0,0,0-.9,2.39c-2,7.31-6.18,16.5,2.12,20.73,8,4.1,18.13,4.44,26.2-3,9.37-8.69,19.24-16.87,28.39-25.79,26.67-26,22.91-56.83,10.14-86.61-10.65-24.87-32.86-37.57-59.68-40.12-46.33-4.41-86.1,11.85-121.55,40.54-3.64,3-7.12,6.11-10.78,9.05-3.41,2.74-7.2,5.54-11.35,1.77-4.49-4.08-2.16-8.46.44-12.63,12-19.14,24.12-38.15,35.75-57.49,47.55-79.06,112.31-141,189.23-191,3.75-2.43,7.51-7.24,12.42-4.51,5.41,3,3.56,8.78,3.12,13.9-1.71,20.36,10.67,35.15,31.68,34.67,50.27-1.14,89.76-15.82,101.63-71.42,1.77-8.32,10.36-9,17.85-8.3,59.54,5.58,116.42,19.65,167.73,52,7.88,5,16.8,8.25,25.22,12.37,3.92,1.92,8,4.1,7,9.4-1.1,5.92-6.17,6.56-10.91,6.72-15.77.5-31.57.41-47.32,1.18-36.39,1.79-69.72,32.89-74.34,68.95q-.72,5.7-1.62,11.39c-3.44,21.9,9.44,34.53,31.55,31.19,19-2.87,38-5.44,55.69-13.54,3.74-1.72,7.58-2.43,10.17,1.71s0,7.25-2.87,10c-5.26,5-10.68,9.81-15.83,14.9a55.52,55.52,0,0,0-14.34,23.9c-7,23.3,2.86,37.72,26.82,36.67,52.71-2.31,101.66-15.1,141.2-53.32,14.73-14.24,19.5-12.46,29.08,5.95,14.14,27.17,18.54,56.36,19.25,86.51.16,6.59-2.71,10.49-7.54,13.66-14.24,9.37-28.21,19.23-42.94,27.78-21.64,12.57-35.66,31.4-46.19,53.27-6.45,13.39-3.94,20.53,9.95,26.46A270.58,270.58,0,0,0,1330,646c9.76.78,19.52,1.72,29.26,2.75,4.8.5,9.72,1.63,10.65,7.34s-3.72,8.11-8,10.1C1358.06,668,1354.08,669.42,1350.16,671Z" transform="translate(-499.01 -197.28)"/></svg>