<?xml version="1.0" encoding="utf-8"?>
<!-- Generator: Adobe Illustrator 26.0.1, SVG Export Plug-In . SVG Version: 6.00 Build 0)  -->
<svg version="1.1" id="Calque_1" xmlns="http://www.w3.org/2000/svg" xmlns:xlink="http://www.w3.org/1999/xlink" x="0px" y="0px"
	 viewBox="0 0 960 743" style="enable-background:new 0 0 960 743;" xml:space="preserve">
<style type="text/css">
	.st0{clip-path:url(#SVGID_00000120550620063613788730000008058938714878777014_);}
	.st1{clip-path:url(#SVGID_00000086656422700265562850000008259154971117054860_);}
	.st2{fill:#325C4B;stroke:#161615;stroke-miterlimit:10;}
	.st3{fill:#EDB344;stroke:#161615;stroke-miterlimit:10;}
	.st4{fill:none;stroke:#161615;stroke-miterlimit:10;}
	.st5{fill:#DC8631;stroke:#161615;stroke-miterlimit:10;}
	.st6{fill:#3C8851;stroke:#161615;stroke-miterlimit:10;}
</style>
<g>
	<defs>
		<rect id="SVGID_1_" width="960" height="743"/>
	</defs>
	<clipPath id="SVGID_00000101811610063819831580000007439128642223260806_">
		<use xlink:href="#SVGID_1_"  style="overflow:visible;"/>
	</clipPath>
	<g style="clip-path:url(#SVGID_00000101811610063819831580000007439128642223260806_);">
		<g id="Groupe_152">
			<g>
				<defs>
					<rect id="SVGID_00000083058195036361236760000010917800914710563765_" x="-171.4" width="1131.4" height="743"/>
				</defs>
				<clipPath id="SVGID_00000173865472082094302660000012688208724073575300_">
					<use xlink:href="#SVGID_00000083058195036361236760000010917800914710563765_"  style="overflow:visible;"/>
				</clipPath>
				<g style="clip-path:url(#SVGID_00000173865472082094302660000012688208724073575300_);">
					<g id="Groupe_151">
						<g id="Groupe_8">
							<g id="Groupe_6">
								<path id="Tracé_184" class="st2" d="M497.4,743.7l67-38.9l66.6,38.3l-66.7,39L497.4,743.7z"/>
								<path id="Tracé_185" class="st3" d="M564.7,860.2l67-38.9l-0.7-78.2l-66.7,39L564.7,860.2z"/>
								<path id="Tracé_186" class="st3" d="M496.5,821.2l68.3,38.9l-0.3-78.2l-67-38.3L496.5,821.2z"/>
								<path id="Tracé_187" class="st4" d="M547.9,791.9v58.4l-51.5-29l0.4-58.2L547.9,791.9z"/>
								<path id="Tracé_188" class="st5" d="M534.1,799.5l-0.7,43.2l-37-21.5l0.4-44L534.1,799.5z"/>
								<path id="Tracé_189" class="st4" d="M581.2,792.2l49.8-28.4l0.7,57.4l-50.2,28.7L581.2,792.2z"/>
								<path id="Tracé_190" class="st5" d="M594.1,799.5l37.3-21.5l0.3,43.2l-38,21.5L594.1,799.5z"/>
							</g>
							<g id="Groupe_7">
								<path id="Tracé_191" class="st3" d="M363.8,744.4l67-38.9l66.6,38.3l-66.6,38.9L363.8,744.4z"/>
								<path id="Tracé_192" class="st6" d="M430.5,861.3l67.3-38.5l-0.3-78.5l-67.3,38.1L430.5,861.3z"/>
								<path id="Tracé_193" class="st6" d="M363,822l68.6,39.1l-0.3-78.6L364,744.1L363,822z"/>
							</g>
						</g>
						<g id="Groupe_11">
							<g id="Groupe_9">
								<path id="Tracé_194" class="st2" d="M430,626.2l67-38.9l66.6,38.3L497,664.5L430,626.2z"/>
								<path id="Tracé_195" class="st3" d="M497.3,742.7l67-38.9l-0.7-78.2L497,664.5L497.3,742.7z"/>
								<path id="Tracé_196" class="st3" d="M429,703.7l68.3,38.9l-0.3-78.2l-67-38.3L429,703.7z"/>
								<path id="Tracé_197" class="st4" d="M480.5,674.4v58.4l-51.5-29l0.4-58.2L480.5,674.4z"/>
								<path id="Tracé_198" class="st5" d="M466.6,682l-0.6,43.2l-37-21.4l0.4-44L466.6,682z"/>
								<path id="Tracé_199" class="st4" d="M513.8,674.7l49.8-28.4l0.7,57.4l-50.1,28.7L513.8,674.7z"/>
								<path id="Tracé_200" class="st5" d="M526.7,682l37.3-21.5l0.3,43.2l-37.9,21.4L526.7,682z"/>
							</g>
							<g id="Groupe_10">
								<path id="Tracé_201" class="st3" d="M296.4,626.8l67-38.9l66.6,38.3l-66.6,38.9L296.4,626.8z"/>
								<path id="Tracé_202" class="st6" d="M363,743.8l67.3-38.5l-0.3-78.5L362.7,665L363,743.8z"/>
								<path id="Tracé_203" class="st6" d="M295.5,704.5l68.6,39.1l-0.3-78.6l-67.3-38.5L295.5,704.5z"/>
							</g>
						</g>
						<g id="Groupe_18">
							<g id="Groupe_14">
								<g id="Groupe_12">
									<path id="Tracé_204" class="st2" d="M765.9,743.6l67-38.9l66.6,38.3l-66.6,38.9L765.9,743.6z"/>
									<path id="Tracé_205" class="st3" d="M833.2,860l67-38.9l-0.7-78.2l-66.6,38.9L833.2,860z"/>
									<path id="Tracé_206" class="st3" d="M764.9,821.1l68.3,38.9l-0.3-78.2l-67-38.3L764.9,821.1z"/>
									<path id="Tracé_207" class="st4" d="M816.4,791.7v58.4l-51.5-29l0.4-58.2L816.4,791.7z"/>
									<path id="Tracé_208" class="st5" d="M802.5,799.3l-0.7,43.2l-37-21.5l0.4-44L802.5,799.3z"/>
									<path id="Tracé_209" class="st4" d="M849.7,792.1l49.8-28.4l0.7,57.4L850,849.8L849.7,792.1z"/>
									<path id="Tracé_210" class="st5" d="M862.6,799.3l37.3-21.5l0.3,43.2l-37.9,21.4L862.6,799.3z"/>
								</g>
								<g id="Groupe_13">
									<path id="Tracé_211" class="st3" d="M632.3,744.2l67-38.9l66.7,38.3l-66.6,38.9L632.3,744.2z"/>
									<path id="Tracé_212" class="st6" d="M698.9,861.2l67.3-38.5l-0.3-78.5l-67.3,38.1L698.9,861.2z"/>
									<path id="Tracé_213" class="st6" d="M631.4,821.8L700,861l-0.3-78.6L632.4,744L631.4,821.8z"/>
								</g>
							</g>
							<g id="Groupe_17">
								<g id="Groupe_15">
									<path id="Tracé_214" class="st2" d="M698.5,626l67-38.9l66.7,38.3l-66.7,38.9L698.5,626z"/>
									<path id="Tracé_215" class="st3" d="M765.8,742.5l67-38.9l-0.7-78.2l-66.6,38.9L765.8,742.5z"/>
									<path id="Tracé_216" class="st3" d="M697.5,703.6l68.3,38.9l-0.3-78.2l-67-38.3L697.5,703.6z"/>
									<path id="Tracé_217" class="st4" d="M749,674.2v58.4l-51.5-29l0.4-58.2L749,674.2z"/>
									<path id="Tracé_218" class="st5" d="M735.1,681.8l-0.7,43.2l-37-21.4l0.4-44L735.1,681.8z"/>
									<path id="Tracé_219" class="st4" d="M782.3,674.5l49.8-28.4l0.7,57.4l-50.2,28.7L782.3,674.5z"/>
									<path id="Tracé_220" class="st5" d="M795.2,681.8l37.3-21.4l0.3,43.2L794.8,725L795.2,681.8z"/>
								</g>
								<g id="Groupe_16">
									<path id="Tracé_221" class="st3" d="M564.9,626.7l67-38.9l66.6,38.3l-66.7,39L564.9,626.7z"/>
									<path id="Tracé_222" class="st6" d="M631.5,743.7l67.3-38.5l-0.3-78.5l-67.3,38.1L631.5,743.7z"/>
									<path id="Tracé_223" class="st6" d="M564,704.3l68.6,39.1l-0.3-78.6L565,626.4L564,704.3z"/>
								</g>
							</g>
						</g>
						<g id="Groupe_21">
							<g id="Groupe_19">
								<path id="Tracé_224" class="st2" d="M360.7,509.6l67-38.9l66.6,38.3l-66.6,38.9L360.7,509.6z"/>
								<path id="Tracé_225" class="st3" d="M428,626.1l67-38.9l-0.7-78.2l-66.6,38.9L428,626.1z"/>
								<path id="Tracé_226" class="st3" d="M359.7,587.2l68.3,38.9l-0.3-78.2l-67-38.3L359.7,587.2z"/>
								<path id="Tracé_227" class="st4" d="M411.2,557.8v58.4l-51.5-29l0.4-58.2L411.2,557.8z"/>
								<path id="Tracé_228" class="st5" d="M397.3,565.4l-0.7,43.2l-37-21.4l0.4-44L397.3,565.4z"/>
								<path id="Tracé_229" class="st4" d="M444.5,558.1l49.8-28.4l0.7,57.4l-50.1,28.7L444.5,558.1z"/>
								<path id="Tracé_230" class="st5" d="M457.4,565.4l37.3-21.4l0.3,43.2L457,608.6L457.4,565.4z"/>
							</g>
							<g id="Groupe_20">
								<path id="Tracé_231" class="st3" d="M227.1,510.3l67-38.9l66.6,38.3l-66.6,38.9L227.1,510.3z"/>
								<path id="Tracé_232" class="st6" d="M293.7,627.2l67.3-38.5l-0.3-78.5l-67.3,38.1L293.7,627.2z"/>
								<path id="Tracé_233" class="st6" d="M226.2,587.9l68.6,39.1l-0.3-78.6L227.2,510L226.2,587.9z"/>
							</g>
						</g>
						<g id="Groupe_24">
							<g id="Groupe_22">
								<path id="Tracé_234" class="st2" d="M293.3,392.1l67-38.9l66.6,38.3l-66.6,38.9L293.3,392.1z"/>
								<path id="Tracé_235" class="st3" d="M360.6,508.6l67-38.9l-0.7-78.2l-66.6,38.9L360.6,508.6z"/>
								<path id="Tracé_236" class="st3" d="M292.3,469.6l68.3,38.9l-0.3-78.2l-67-38.3L292.3,469.6z"/>
								<path id="Tracé_237" class="st4" d="M343.8,440.3v58.4l-51.5-29l0.4-58.2L343.8,440.3z"/>
								<path id="Tracé_238" class="st5" d="M329.9,447.9l-0.7,43.2l-37-21.5l0.4-44L329.9,447.9z"/>
								<path id="Tracé_239" class="st4" d="M377.1,440.6l49.8-28.4l0.7,57.4l-50.1,28.7L377.1,440.6z"/>
								<path id="Tracé_240" class="st5" d="M390,447.9l37.3-21.4l0.3,43.2l-38,21.5L390,447.9z"/>
							</g>
							<g id="Groupe_23">
								<path id="Tracé_241" class="st3" d="M159.7,392.8l67-38.9l66.6,38.3L226.6,431L159.7,392.8z"/>
								<path id="Tracé_242" class="st6" d="M226.3,509.7l67.3-38.5l-0.3-78.5L226,430.9L226.3,509.7z"/>
								<path id="Tracé_243" class="st6" d="M158.8,470.4l68.6,39.1l-0.3-78.6l-67.3-38.5L158.8,470.4z"/>
							</g>
						</g>
						<g id="Groupe_31">
							<g id="Groupe_27">
								<g id="Groupe_25">
									<path id="Tracé_244" class="st2" d="M629.2,509.5l67-38.9l66.6,38.3l-66.6,38.9L629.2,509.5z"/>
									<path id="Tracé_245" class="st3" d="M696.5,625.9l67-38.9l-0.7-78.2l-66.6,38.9L696.5,625.9z"/>
									<path id="Tracé_246" class="st3" d="M628.2,587l68.3,38.9l-0.3-78.2l-67-38.3L628.2,587z"/>
									<path id="Tracé_247" class="st4" d="M679.7,557.6V616l-51.5-29l0.4-58.2L679.7,557.6z"/>
									<path id="Tracé_248" class="st5" d="M665.8,565.2l-0.7,43.2L628.2,587l0.4-44L665.8,565.2z"/>
									<path id="Tracé_249" class="st4" d="M713,558l49.8-28.4l0.7,57.4l-50.2,28.7L713,558z"/>
									<path id="Tracé_250" class="st5" d="M725.9,565.2l37.3-21.4l0.3,43.2l-37.9,21.5L725.9,565.2z"/>
								</g>
								<g id="Groupe_26">
									<path id="Tracé_251" class="st3" d="M495.6,510.1l67-38.9l66.7,38.3l-66.6,38.9L495.6,510.1z"/>
									<path id="Tracé_252" class="st6" d="M562.2,627.1l67.3-38.5l-0.3-78.5l-67.3,38.1L562.2,627.1z"/>
									<path id="Tracé_253" class="st6" d="M494.7,587.8l68.6,39.1l-0.3-78.6l-67.3-38.5L494.7,587.8z"/>
								</g>
							</g>
							<g id="Groupe_30">
								<g id="Groupe_28">
									<path id="Tracé_254" class="st2" d="M561.8,392l67-38.9l66.6,38.3l-66.6,38.9L561.8,392z"/>
									<path id="Tracé_255" class="st3" d="M629.1,508.4l67-38.9l-0.7-78.2l-66.6,38.9L629.1,508.4z"/>
									<path id="Tracé_256" class="st3" d="M560.8,469.5l68.3,38.9l-0.3-78.2l-67-38.3L560.8,469.5z"/>
									<path id="Tracé_257" class="st4" d="M612.2,440.1v58.4l-51.5-29l0.4-58.2L612.2,440.1z"/>
									<path id="Tracé_258" class="st5" d="M598.4,447.7l-0.7,43.2l-37-21.4l0.4-44L598.4,447.7z"/>
									<path id="Tracé_259" class="st4" d="M645.6,440.5l49.8-28.4l0.7,57.4l-50.1,28.7L645.6,440.5z"/>
									<path id="Tracé_260" class="st5" d="M658.4,447.7l37.3-21.5l0.3,43.2l-37.9,21.4L658.4,447.7z"/>
								</g>
								<g id="Groupe_29">
									<path id="Tracé_261" class="st3" d="M428.1,392.6l67-38.9l66.6,38.3l-66.6,38.9L428.1,392.6z"/>
									<path id="Tracé_262" class="st6" d="M494.8,509.6l67.3-38.5l-0.3-78.5l-67.3,38.1L494.8,509.6z"/>
									<path id="Tracé_263" class="st6" d="M427.3,470.2l68.6,39.1l-0.3-78.6l-67.3-38.5L427.3,470.2z"/>
								</g>
							</g>
						</g>
						<g id="Groupe_58">
							<g id="Groupe_34">
								<g id="Groupe_32">
									<path id="Tracé_264" class="st2" d="M1032.7,742.8l67-38.9l66.6,38.3l-66.7,38.9L1032.7,742.8z"/>
									<path id="Tracé_265" class="st3" d="M1100,859.2l67-38.9l-0.7-78.2l-66.7,38.9L1100,859.2z"/>
									<path id="Tracé_266" class="st3" d="M1031.7,820.3l68.3,38.9l-0.3-78.2l-67-38.3L1031.7,820.3z"/>
									<path id="Tracé_267" class="st4" d="M1083.1,790.9v58.4l-51.5-29l0.4-58.2L1083.1,790.9z"/>
									<path id="Tracé_268" class="st5" d="M1069.3,798.5l-0.7,43.2l-36.9-21.5l0.4-44L1069.3,798.5z"/>
									<path id="Tracé_269" class="st4" d="M1116.5,791.3l49.8-28.4l0.7,57.4l-50.1,28.7L1116.5,791.3z"/>
									<path id="Tracé_270" class="st5" d="M1129.3,798.5l37.3-21.4l0.3,43.2l-37.9,21.4L1129.3,798.5z"/>
								</g>
								<g id="Groupe_33">
									<path id="Tracé_271" class="st3" d="M899,743.4l67-38.9l66.6,38.3L966,781.7L899,743.4z"/>
									<path id="Tracé_272" class="st6" d="M965.7,860.4l67.3-38.5l-0.3-78.5l-67.3,38.1L965.7,860.4z"/>
									<path id="Tracé_273" class="st6" d="M898.2,821.1l68.6,39.1l-0.3-78.6l-67.3-38.5L898.2,821.1z"/>
								</g>
							</g>
							<g id="Groupe_37">
								<g id="Groupe_35">
									<path id="Tracé_274" class="st2" d="M965.2,625.3l67-38.9l66.6,38.3l-66.6,38.9L965.2,625.3z"/>
									<path id="Tracé_275" class="st3" d="M1032.5,741.7l67-38.9l-0.7-78.2l-66.7,38.9L1032.5,741.7z"/>
									<path id="Tracé_276" class="st3" d="M964.2,702.8l68.3,38.9l-0.3-78.2l-67-38.3L964.2,702.8z"/>
									<path id="Tracé_277" class="st4" d="M1015.7,673.4v58.4l-51.5-29l0.4-58.2L1015.7,673.4z"/>
									<path id="Tracé_278" class="st5" d="M1001.8,681l-0.7,43.2l-37-21.4l0.4-44L1001.8,681z"/>
									<path id="Tracé_279" class="st4" d="M1049,673.8l49.8-28.4l0.7,57.4l-50.2,28.7L1049,673.8z"/>
									<path id="Tracé_280" class="st5" d="M1061.9,681l37.3-21.4l0.3,43.2l-37.9,21.4L1061.9,681z"/>
								</g>
								<g id="Groupe_36">
									<path id="Tracé_281" class="st3" d="M831.6,625.9l67-38.9l66.6,38.3l-66.6,38.9L831.6,625.9z"/>
									<path id="Tracé_282" class="st6" d="M898.2,742.9l67.3-38.5l-0.3-78.5L897.9,664L898.2,742.9z"/>
									<path id="Tracé_283" class="st6" d="M830.7,703.5l68.6,39.1l-0.3-78.6l-67.3-38.5L830.7,703.5z"/>
								</g>
							</g>
							<g id="Groupe_44">
								<g id="Groupe_40">
									<g id="Groupe_38">
										<path id="Tracé_284" class="st2" d="M1301.1,742.6l67-38.9l66.6,38.3l-66.6,38.9L1301.1,742.6z"/>
										<path id="Tracé_285" class="st3" d="M1368.4,859.1l67-38.9l-0.7-78.2l-66.6,38.9L1368.4,859.1z"/>
										<path id="Tracé_286" class="st3" d="M1300.2,820.2l68.3,38.9l-0.3-78.2l-67-38.3L1300.2,820.2z"/>
										<path id="Tracé_287" class="st4" d="M1351.6,790.8v58.4l-51.5-29l0.4-58.2L1351.6,790.8z"/>
										<path id="Tracé_288" class="st5" d="M1337.8,798.4l-0.7,43.2l-36.9-21.4l0.4-44L1337.8,798.4z"/>
										<path id="Tracé_289" class="st4" d="M1384.9,791.1l49.8-28.4l0.7,57.4l-50.2,28.7L1384.9,791.1z"/>
										<path id="Tracé_290" class="st5" d="M1397.8,798.4l37.3-21.5l0.3,43.2l-38,21.5L1397.8,798.4z"/>
									</g>
									<g id="Groupe_39">
										<path id="Tracé_291" class="st3" d="M1167.5,743.3l67-38.9l66.7,38.3l-66.7,38.9L1167.5,743.3z"/>
										<path id="Tracé_292" class="st6" d="M1234.2,860.2l67.3-38.5l-0.3-78.5l-67.3,38.1L1234.2,860.2z"/>
										<path id="Tracé_293" class="st6" d="M1166.6,820.9l68.6,39.1l-0.3-78.6l-67.3-38.4L1166.6,820.9z"/>
									</g>
								</g>
								<g id="Groupe_43">
									<g id="Groupe_41">
										<path id="Tracé_294" class="st2" d="M1233.7,625.1l67-38.9l66.6,38.3l-66.6,38.9L1233.7,625.1z"/>
										<path id="Tracé_295" class="st3" d="M1301,741.6l67-38.9l-0.7-78.2l-66.6,38.9L1301,741.6z"/>
										<path id="Tracé_296" class="st3" d="M1232.7,702.7l68.3,38.9l-0.3-78.2l-67-38.3L1232.7,702.7z"/>
										<path id="Tracé_297" class="st4" d="M1284.2,673.3v58.4l-51.5-29l0.4-58.2L1284.2,673.3z"/>
										<path id="Tracé_298" class="st5" d="M1270.3,680.9l-0.7,43.2l-37-21.4l0.4-44L1270.3,680.9z"/>
										<path id="Tracé_299" class="st4" d="M1317.5,673.6l49.8-28.4l0.7,57.4l-50.1,28.7L1317.5,673.6z"/>
										<path id="Tracé_300" class="st5" d="M1330.4,680.9l37.3-21.4l0.3,43.2l-38,21.5L1330.4,680.9z"/>
									</g>
									<g id="Groupe_42">
										<path id="Tracé_301" class="st3" d="M1100.1,625.8l67-38.9l66.6,38.3l-66.6,38.9L1100.1,625.8z"/>
										<path id="Tracé_302" class="st6" d="M1166.7,742.7l67.3-38.5l-0.3-78.5l-67.3,38.1L1166.7,742.7z"/>
										<path id="Tracé_303" class="st6" d="M1099.2,703.4l68.6,39.1l-0.3-78.6l-67.3-38.5L1099.2,703.4z"/>
									</g>
								</g>
							</g>
							<g id="Groupe_47">
								<g id="Groupe_45">
									<path id="Tracé_304" class="st2" d="M895.9,508.7l67-38.9l66.6,38.2l-66.7,39L895.9,508.7z"/>
									<path id="Tracé_305" class="st3" d="M963.2,625.2l67-38.9l-0.7-78.2l-66.7,39L963.2,625.2z"/>
									<path id="Tracé_306" class="st3" d="M894.9,586.2l68.3,38.9l-0.3-78.1l-67-38.3L894.9,586.2z"/>
									<path id="Tracé_307" class="st4" d="M946.4,556.9v58.4l-51.5-29l0.4-58.2L946.4,556.9z"/>
									<path id="Tracé_308" class="st5" d="M932.5,564.5l-0.7,43.2L895,586.2l0.4-44L932.5,564.5z"/>
									<path id="Tracé_309" class="st4" d="M979.7,557.2l49.8-28.4l0.7,57.4l-50.2,28.7L979.7,557.2z"/>
									<path id="Tracé_310" class="st5" d="M992.6,564.5l37.3-21.5l0.3,43.2l-37.9,21.4L992.6,564.5z"/>
								</g>
								<g id="Groupe_46">
									<path id="Tracé_311" class="st3" d="M762.3,509.4l67-38.9l66.7,38.3l-66.6,38.9L762.3,509.4z"/>
									<path id="Tracé_312" class="st6" d="M829,626.3l67.3-38.5l-0.3-78.5l-67.3,38.1L829,626.3z"/>
									<path id="Tracé_313" class="st6" d="M761.4,587l68.6,39.1l-0.3-78.6l-67.3-38.5L761.4,587z"/>
								</g>
							</g>
							<g id="Groupe_50">
								<g id="Groupe_48">
									<path id="Tracé_314" class="st2" d="M828.5,391.2l67-38.9l66.6,38.3l-66.6,38.9L828.5,391.2z"/>
									<path id="Tracé_315" class="st3" d="M895.8,507.6l67-38.9l-0.7-78.2l-66.6,38.9L895.8,507.6z"/>
									<path id="Tracé_316" class="st3" d="M827.5,468.7l68.3,38.9l-0.3-78.2l-67-38.3L827.5,468.7z"/>
									<path id="Tracé_317" class="st4" d="M879,439.3v58.4l-51.5-29l0.4-58.2L879,439.3z"/>
									<path id="Tracé_318" class="st5" d="M865.1,446.9l-0.7,43.2l-37-21.4l0.4-44L865.1,446.9z"/>
									<path id="Tracé_319" class="st4" d="M912.3,439.7l49.8-28.4l0.7,57.4l-50.2,28.7L912.3,439.7z"/>
									<path id="Tracé_320" class="st5" d="M925.2,446.9l37.3-21.5l0.3,43.2l-37.9,21.5L925.2,446.9z"/>
								</g>
								<g id="Groupe_49">
									<path id="Tracé_321" class="st3" d="M694.9,391.8l67-38.9l66.6,38.3l-66.6,38.9L694.9,391.8z"/>
									<path id="Tracé_322" class="st6" d="M761.5,508.8l67.3-38.5l-0.3-78.5l-67.3,38.1L761.5,508.8z"/>
									<path id="Tracé_323" class="st6" d="M694,469.5l68.6,39.1l-0.3-78.6L695,391.6L694,469.5z"/>
								</g>
							</g>
							<g id="Groupe_57">
								<g id="Groupe_53">
									<g id="Groupe_51">
										<path id="Tracé_324" class="st2" d="M1164.4,508.5l67-38.9l66.6,38.3l-66.6,38.9L1164.4,508.5z"/>
										<path id="Tracé_325" class="st3" d="M1231.7,625l67-38.9l-0.7-78.2l-66.6,38.9L1231.7,625z"/>
										<path id="Tracé_326" class="st3" d="M1163.4,586.1l68.3,38.9l-0.3-78.2l-67-38.3L1163.4,586.1z"/>
										<path id="Tracé_327" class="st4" d="M1214.9,556.7v58.4l-51.5-29l0.4-58.2L1214.9,556.7z"/>
										<path id="Tracé_328" class="st5" d="M1201,564.3l-0.7,43.2l-36.9-21.4l0.4-44L1201,564.3z"/>
										<path id="Tracé_329" class="st4" d="M1248.2,557l49.8-28.3l0.7,57.4l-50.1,28.7L1248.2,557z"/>
										<path id="Tracé_330" class="st5" d="M1261.1,564.3l37.3-21.4l0.3,43.2l-37.9,21.5L1261.1,564.3z"/>
									</g>
									<g id="Groupe_52">
										<path id="Tracé_331" class="st3" d="M1030.8,509.2l67-38.9l66.6,38.3l-66.6,38.9L1030.8,509.2z"/>
										<path id="Tracé_332" class="st6" d="M1097.4,626.2l67.3-38.5l-0.3-78.5l-67.3,38.1L1097.4,626.2z"/>
										<path id="Tracé_333" class="st6" d="M1029.9,586.8l68.6,39.1l-0.3-78.6l-67.3-38.5L1029.9,586.8z"/>
									</g>
								</g>
								<g id="Groupe_56">
									<g id="Groupe_54">
										<path id="Tracé_334" class="st2" d="M1097,391l67-38.9l66.6,38.3l-66.6,39L1097,391z"/>
										<path id="Tracé_335" class="st3" d="M1164.3,507.5l67-38.9l-0.7-78.2l-66.6,38.9L1164.3,507.5z"/>
										<path id="Tracé_336" class="st3" d="M1096,468.6l68.3,38.9l-0.3-78.2l-67-38.3L1096,468.6z"/>
										<path id="Tracé_337" class="st4" d="M1147.4,439.2v58.4l-51.5-29l0.4-58.2L1147.4,439.2z"/>
										<path id="Tracé_338" class="st5" d="M1133.6,446.8l-0.7,43.2l-37-21.4l0.4-44L1133.6,446.8z"/>
										<path id="Tracé_339" class="st4" d="M1180.8,439.5l49.8-28.4l0.7,57.4l-50.2,28.7L1180.8,439.5z"/>
										<path id="Tracé_340" class="st5" d="M1193.6,446.8l37.3-21.4l0.3,43.2l-37.9,21.4L1193.6,446.8z"/>
									</g>
									<g id="Groupe_55">
										<path id="Tracé_341" class="st3" d="M963.4,391.7l67-38.9L1097,391l-66.7,39L963.4,391.7z"/>
										<path id="Tracé_342" class="st6" d="M1030,508.6l67.3-38.5l-0.3-78.5l-67.3,38.1L1030,508.6z"/>
										<path id="Tracé_343" class="st6" d="M962.5,469.3l68.6,39.1l-0.3-78.6l-67.3-38.5L962.5,469.3z"/>
									</g>
								</g>
							</g>
						</g>
						<g id="Groupe_61">
							<g id="Groupe_59">
								<path id="Tracé_344" class="st2" d="M761.4,274.2l67-38.9l66.6,38.3l-66.6,38.9L761.4,274.2z"/>
								<path id="Tracé_345" class="st3" d="M828.7,390.7l67-38.9l-0.7-78.2l-66.6,38.9L828.7,390.7z"/>
								<path id="Tracé_346" class="st3" d="M760.4,351.7l68.3,38.9l-0.3-78.2l-67-38.3L760.4,351.7z"/>
								<path id="Tracé_347" class="st4" d="M811.9,322.4v58.4l-51.5-29l0.4-58.2L811.9,322.4z"/>
								<path id="Tracé_348" class="st5" d="M798,330l-0.7,43.2l-37-21.5l0.4-44L798,330z"/>
								<path id="Tracé_349" class="st4" d="M845.2,322.7l49.8-28.4l0.7,57.4l-50.1,28.7L845.2,322.7z"/>
								<path id="Tracé_350" class="st5" d="M858.1,330l37.3-21.4l0.3,43.2l-37.9,21.5L858.1,330z"/>
							</g>
							<g id="Groupe_60">
								<path id="Tracé_351" class="st3" d="M627.8,274.9l67-38.9l66.6,38.3l-66.6,38.9L627.8,274.9z"/>
								<path id="Tracé_352" class="st6" d="M694.4,391.8l67.3-38.5l-0.3-78.5L694.1,313L694.4,391.8z"/>
								<path id="Tracé_353" class="st6" d="M626.9,352.5l68.6,39.1l-0.3-78.6l-67.3-38.4L626.9,352.5z"/>
							</g>
						</g>
						<g id="Groupe_64">
							<g id="Groupe_62">
								<path id="Tracé_354" class="st2" d="M694,156.7l67-38.9l66.6,38.2L761,195L694,156.7z"/>
								<path id="Tracé_355" class="st3" d="M761.3,273.2l67-38.9l-0.7-78.2L761,195L761.3,273.2z"/>
								<path id="Tracé_356" class="st3" d="M693,234.2l68.3,38.9L761,195l-67-38.3L693,234.2z"/>
								<path id="Tracé_357" class="st4" d="M744.5,204.9v58.4l-51.5-29l0.4-58.2L744.5,204.9z"/>
								<path id="Tracé_358" class="st5" d="M730.6,212.5l-0.7,43.2l-37-21.4l0.4-44L730.6,212.5z"/>
								<path id="Tracé_359" class="st4" d="M777.8,205.2l49.8-28.4l0.7,57.4l-50.2,28.7L777.8,205.2z"/>
								<path id="Tracé_360" class="st5" d="M790.6,212.5l37.3-21.5l0.3,43.2l-37.9,21.4L790.6,212.5z"/>
							</g>
							<g id="Groupe_63">
								<path id="Tracé_361" class="st3" d="M560.4,157.4l67-38.9l66.6,38.3l-66.6,38.9L560.4,157.4z"/>
								<path id="Tracé_362" class="st6" d="M627,274.3l67.3-38.5l-0.3-78.5l-67.3,38.1L627,274.3z"/>
								<path id="Tracé_363" class="st6" d="M559.5,235l68.6,39.1l-0.3-78.6l-67.3-38.4L559.5,235z"/>
							</g>
						</g>
						<g id="Groupe_71">
							<g id="Groupe_67">
								<g id="Groupe_65">
									<path id="Tracé_364" class="st2" d="M1029.9,274.1l67-38.9l66.6,38.3l-66.6,38.9L1029.9,274.1z"/>
									<path id="Tracé_365" class="st3" d="M1097.2,390.5l67-38.9l-0.7-78.2l-66.6,38.9L1097.2,390.5z"/>
									<path id="Tracé_366" class="st3" d="M1028.9,351.6l68.3,38.9l-0.3-78.2l-67-38.3L1028.9,351.6z"/>
									<path id="Tracé_367" class="st4" d="M1080.4,322.2v58.4l-51.5-29l0.4-58.2L1080.4,322.2z"/>
									<path id="Tracé_368" class="st5" d="M1066.5,329.8l-0.7,43.2l-36.9-21.4l0.4-44L1066.5,329.8z"/>
									<path id="Tracé_369" class="st4" d="M1113.7,322.6l49.8-28.4l0.7,57.4l-50.2,28.7L1113.7,322.6z"/>
									<path id="Tracé_370" class="st5" d="M1126.6,329.8l37.3-21.4l0.3,43.2l-37.9,21.4L1126.6,329.8z"/>
								</g>
								<g id="Groupe_66">
									<path id="Tracé_371" class="st3" d="M896.3,274.7l67-38.9l66.6,38.3L963.2,313L896.3,274.7z"/>
									<path id="Tracé_372" class="st6" d="M962.9,391.7l67.3-38.5l-0.3-78.5l-67.3,38.1L962.9,391.7z"/>
									<path id="Tracé_373" class="st6" d="M895.4,352.4l68.6,39.1l-0.3-78.6l-67.3-38.5L895.4,352.4z"/>
								</g>
							</g>
							<g id="Groupe_70">
								<g id="Groupe_68">
									<path id="Tracé_374" class="st2" d="M962.5,156.6l67-38.9l66.6,38.3l-66.6,38.9L962.5,156.6z"/>
									<path id="Tracé_375" class="st3" d="M1029.8,273l67-38.9l-0.7-78.2l-66.6,38.9L1029.8,273z"/>
									<path id="Tracé_376" class="st3" d="M961.5,234.1l68.3,38.9l-0.3-78.2l-67-38.3L961.5,234.1z"/>
									<path id="Tracé_377" class="st4" d="M1012.9,204.7v58.4l-51.5-29l0.4-58.2L1012.9,204.7z"/>
									<path id="Tracé_378" class="st5" d="M999.1,212.3l-0.7,43.2l-37-21.4l0.4-44L999.1,212.3z"/>
									<path id="Tracé_379" class="st4" d="M1046.2,205.1l49.8-28.4l0.7,57.4l-50.2,28.7L1046.2,205.1z"/>
									<path id="Tracé_380" class="st5" d="M1059.1,212.3l37.3-21.4l0.3,43.2l-38,21.4L1059.1,212.3z"/>
								</g>
								<g id="Groupe_69">
									<path id="Tracé_381" class="st3" d="M828.8,157.2l67-38.9l66.6,38.3l-66.6,38.9L828.8,157.2z"/>
									<path id="Tracé_382" class="st6" d="M895.5,274.2l67.3-38.5l-0.3-78.5l-67.3,38.1L895.5,274.2z"/>
									<path id="Tracé_383" class="st6" d="M828,234.8l68.6,39.2l-0.3-78.6L829,156.9L828,234.8z"/>
								</g>
							</g>
						</g>
						<g id="Groupe_74">
							<g id="Groupe_72">
								<path id="Tracé_384" class="st2" d="M624.7,40.1l67-38.9l66.6,38.3l-66.6,38.9L624.7,40.1z"/>
								<path id="Tracé_385" class="st3" d="M692,156.6l67-38.9l-0.7-78.2l-66.6,38.9L692,156.6z"/>
								<path id="Tracé_386" class="st3" d="M623.7,117.7l68.3,38.9l-0.3-78.2l-67-38.3L623.7,117.7z"/>
								<path id="Tracé_387" class="st4" d="M675.2,88.3v58.4l-51.5-29l0.4-58.2L675.2,88.3z"/>
								<path id="Tracé_388" class="st5" d="M661.3,95.9l-0.7,43.2l-37-21.4l0.4-44L661.3,95.9z"/>
								<path id="Tracé_389" class="st4" d="M708.5,88.6l49.8-28.4l0.7,57.4l-50.2,28.7L708.5,88.6z"/>
								<path id="Tracé_390" class="st5" d="M721.3,95.9l37.3-21.4l0.3,43.2l-38,21.4L721.3,95.9z"/>
							</g>
							<g id="Groupe_73">
								<path id="Tracé_391" class="st3" d="M491.1,40.8l67-38.9l66.6,38.3l-66.6,38.9L491.1,40.8z"/>
								<path id="Tracé_392" class="st6" d="M557.7,157.7l67.3-38.5l-0.3-78.4l-67.3,38.1L557.7,157.7z"/>
								<path id="Tracé_393" class="st6" d="M490.2,118.4l68.6,39.1L558.5,79l-67.3-38.5L490.2,118.4z"/>
							</g>
						</g>
						<g id="Groupe_77">
							<g id="Groupe_75">
								<path id="Tracé_394" class="st2" d="M557.2-77.4l67-38.9L690.9-78l-66.6,38.9L557.2-77.4z"/>
								<path id="Tracé_395" class="st3" d="M624.5,39.1l67-38.9L690.9-78l-66.6,38.9L624.5,39.1z"/>
								<path id="Tracé_396" class="st3" d="M556.3,0.1l68.3,38.9l-0.3-78.2l-67-38.3L556.3,0.1z"/>
								<path id="Tracé_397" class="st4" d="M607.7-29.2v58.4l-51.5-29l0.4-58.2L607.7-29.2z"/>
								<path id="Tracé_398" class="st5" d="M593.9-21.6l-0.7,43.2l-37-21.5l0.4-44L593.9-21.6z"/>
								<path id="Tracé_399" class="st4" d="M641-28.9l49.8-28.4l0.7,57.4l-50.1,28.7L641-28.9z"/>
								<path id="Tracé_400" class="st5" d="M653.9-21.6l37.3-21.4l0.3,43.2l-37.9,21.5L653.9-21.6z"/>
							</g>
							<g id="Groupe_76">
								<path id="Tracé_401" class="st3" d="M423.6-76.7l67-38.9l66.6,38.3l-66.6,38.9L423.6-76.7z"/>
								<path id="Tracé_402" class="st6" d="M490.3,40.2l67.3-38.5l-0.3-78.5l-67.3,38.1L490.3,40.2z"/>
								<path id="Tracé_403" class="st6" d="M422.8,0.9L491.4,40L491-38.6L423.8-77L422.8,0.9z"/>
							</g>
						</g>
						<g id="Groupe_84">
							<g id="Groupe_80">
								<g id="Groupe_78">
									<path id="Tracé_404" class="st2" d="M893.2,40l67-38.9l66.6,38.3l-66.6,38.9L893.2,40z"/>
									<path id="Tracé_405" class="st3" d="M960.5,156.4l67-38.9l-0.7-78.2l-66.6,38.9L960.5,156.4z"/>
									<path id="Tracé_406" class="st3" d="M892.2,117.5l68.3,38.9l-0.3-78.2l-67-38.2L892.2,117.5z"/>
									<path id="Tracé_407" class="st4" d="M943.6,88.2v58.4l-51.5-29l0.4-58.2L943.6,88.2z"/>
									<path id="Tracé_408" class="st5" d="M929.8,95.7l-0.7,43.3l-37-21.4l0.4-44L929.8,95.7z"/>
									<path id="Tracé_409" class="st4" d="M977,88.5l49.8-28.4l0.7,57.4l-50.2,28.7L977,88.5z"/>
									<path id="Tracé_410" class="st5" d="M989.8,95.7l37.3-21.4l0.3,43.2L989.5,139L989.8,95.7z"/>
								</g>
								<g id="Groupe_79">
									<path id="Tracé_411" class="st3" d="M759.5,40.7l67-38.9L893.2,40l-66.6,38.9L759.5,40.7z"/>
									<path id="Tracé_412" class="st6" d="M826.2,157.6l67.3-38.5l-0.3-78.5l-67.3,38.1L826.2,157.6z"/>
									<path id="Tracé_413" class="st6" d="M758.7,118.3l68.6,39.1L827,78.8l-67.3-38.5L758.7,118.3z"/>
								</g>
							</g>
							<g id="Groupe_83">
								<g id="Groupe_81">
									<path id="Tracé_414" class="st2" d="M825.7-77.5l67-38.9l66.6,38.3l-66.6,38.9L825.7-77.5z"/>
									<path id="Tracé_415" class="st3" d="M893,38.9L960,0l-0.7-78.2l-66.6,38.9L893,38.9z"/>
									<path id="Tracé_416" class="st3" d="M824.7,0L893,38.9l-0.3-78.2l-67-38.3L824.7,0z"/>
									<path id="Tracé_417" class="st4" d="M876.2-29.4V29L824.7,0l0.4-58.2L876.2-29.4z"/>
									<path id="Tracé_418" class="st5" d="M862.3-21.8l-0.7,43.2L824.7,0l0.4-44L862.3-21.8z"/>
									<path id="Tracé_419" class="st4" d="M909.5-29l49.8-28.4L960,0l-50.1,28.7L909.5-29z"/>
									<path id="Tracé_420" class="st5" d="M922.4-21.8l37.3-21.5L960,0l-37.9,21.4L922.4-21.8z"/>
								</g>
								<g id="Groupe_82">
									<path id="Tracé_421" class="st3" d="M692.1-76.9l67-38.9l66.6,38.3l-66.6,38.9L692.1-76.9z"/>
									<path id="Tracé_422" class="st6" d="M758.7,40.1L826,1.6l-0.3-78.5l-67.3,38.1L758.7,40.1z"/>
									<path id="Tracé_423" class="st6" d="M691.2,0.8l68.6,39.1l-0.3-78.6l-67.3-38.5L691.2,0.8z"/>
								</g>
							</g>
						</g>
						<g id="Groupe_87">
							<g id="Groupe_85">
								<path id="Tracé_424" class="st2" d="M225.2,276l67-38.9l66.6,38.3l-66.6,38.9L225.2,276z"/>
								<path id="Tracé_425" class="st3" d="M292.5,392.4l67-38.9l-0.7-78.2l-66.6,38.9L292.5,392.4z"/>
								<path id="Tracé_426" class="st3" d="M224.2,353.5l68.3,38.9l-0.3-78.2l-67-38.3L224.2,353.5z"/>
								<path id="Tracé_427" class="st4" d="M275.7,324.1v58.4l-51.5-29l0.4-58.2L275.7,324.1z"/>
								<path id="Tracé_428" class="st5" d="M261.8,331.7l-0.7,43.2l-37-21.4l0.4-44L261.8,331.7z"/>
								<path id="Tracé_429" class="st4" d="M309,324.5l49.8-28.4l0.7,57.4l-50.1,28.7L309,324.5z"/>
								<path id="Tracé_430" class="st5" d="M321.9,331.7l37.3-21.5l0.3,43.2l-37.9,21.4L321.9,331.7z"/>
							</g>
							<g id="Groupe_86">
								<path id="Tracé_431" class="st3" d="M91.6,276.6l67-38.9l66.6,38.3l-66.6,38.9L91.6,276.6z"/>
								<path id="Tracé_432" class="st6" d="M158.2,393.6l67.3-38.5l-0.3-78.5l-67.3,38.1L158.2,393.6z"/>
								<path id="Tracé_433" class="st6" d="M90.7,354.2l68.6,39.1l-0.3-78.6l-67.3-38.4L90.7,354.2z"/>
							</g>
						</g>
						<g id="Groupe_90">
							<g id="Groupe_88">
								<path id="Tracé_434" class="st2" d="M157.8,158.5l67-38.9l66.6,38.3l-66.6,38.9L157.8,158.5z"/>
								<path id="Tracé_435" class="st3" d="M225.1,274.9L292,236l-0.6-78.2l-66.7,38.9L225.1,274.9z"/>
								<path id="Tracé_436" class="st3" d="M156.8,236l68.3,38.9l-0.3-78.2l-67-38.3L156.8,236z"/>
								<path id="Tracé_437" class="st4" d="M208.2,206.6V265l-51.5-29l0.4-58.2L208.2,206.6z"/>
								<path id="Tracé_438" class="st5" d="M194.4,214.2l-0.7,43.2L156.8,236l0.4-44L194.4,214.2z"/>
								<path id="Tracé_439" class="st4" d="M241.6,207l49.8-28.4L292,236l-50.1,28.7L241.6,207z"/>
								<path id="Tracé_440" class="st5" d="M254.4,214.2l37.3-21.4L292,236l-37.9,21.4L254.4,214.2z"/>
							</g>
							<g id="Groupe_89">
								<path id="Tracé_441" class="st3" d="M24.1,159.1l67-38.9l66.6,38.3l-66.6,38.9L24.1,159.1z"/>
								<path id="Tracé_442" class="st6" d="M90.8,276.1l67.3-38.5l-0.3-78.5l-67.3,38.1L90.8,276.1z"/>
								<path id="Tracé_443" class="st6" d="M23.3,236.7l68.6,39.1l-0.3-78.6l-67.3-38.5L23.3,236.7z"/>
							</g>
						</g>
						<g id="Groupe_97">
							<g id="Groupe_93">
								<g id="Groupe_91">
									<path id="Tracé_444" class="st2" d="M493.7,275.8l67-38.9l66.6,38.3l-66.6,38.9L493.7,275.8z"/>
									<path id="Tracé_445" class="st3" d="M561,392.3l67-38.9l-0.7-78.2l-66.6,38.9L561,392.3z"/>
									<path id="Tracé_446" class="st3" d="M492.7,353.4l68.3,38.9l-0.3-78.2l-67-38.3L492.7,353.4z"/>
									<path id="Tracé_447" class="st4" d="M544.2,324v58.4l-51.5-29l0.4-58.2L544.2,324z"/>
									<path id="Tracé_448" class="st5" d="M530.3,331.6l-0.7,43.2l-37-21.4l0.4-44L530.3,331.6z"/>
									<path id="Tracé_449" class="st4" d="M577.5,324.3l49.8-28.3l0.7,57.4l-50.1,28.7L577.5,324.3z"/>
									<path id="Tracé_450" class="st5" d="M590.3,331.6l37.3-21.4l0.3,43.2l-38,21.4L590.3,331.6z"/>
								</g>
								<g id="Groupe_92">
									<path id="Tracé_451" class="st3" d="M360.1,276.5l67-38.9l66.6,38.3L427,314.8L360.1,276.5z"/>
									<path id="Tracé_452" class="st6" d="M426.7,393.4l67.3-38.5l-0.3-78.5l-67.3,38.1L426.7,393.4z"/>
									<path id="Tracé_453" class="st6" d="M359.2,354.1l68.6,39.1l-0.3-78.6l-67.3-38.5L359.2,354.1z"/>
								</g>
							</g>
							<g id="Groupe_96">
								<g id="Groupe_94">
									<path id="Tracé_454" class="st2" d="M426.2,158.3l67-38.9l66.6,38.3l-66.6,38.9L426.2,158.3z"/>
									<path id="Tracé_455" class="st3" d="M493.5,274.8l67-38.9l-0.7-78.2l-66.6,38.9L493.5,274.8z"/>
									<path id="Tracé_456" class="st3" d="M425.2,235.8l68.3,38.9l-0.3-78.2l-67-38.3L425.2,235.8z"/>
									<path id="Tracé_457" class="st4" d="M476.7,206.5v58.4l-51.5-29l0.4-58.2L476.7,206.5z"/>
									<path id="Tracé_458" class="st5" d="M462.9,214.1l-0.7,43.2l-37-21.4l0.4-44L462.9,214.1z"/>
									<path id="Tracé_459" class="st4" d="M510,206.8l49.8-28.4l0.7,57.4l-50.1,28.7L510,206.8z"/>
									<path id="Tracé_460" class="st5" d="M522.9,214.1l37.3-21.4l0.3,43.2l-37.9,21.5L522.9,214.1z"/>
								</g>
								<g id="Groupe_95">
									<path id="Tracé_461" class="st3" d="M292.6,159l67-38.9l66.6,38.3l-66.6,38.9L292.6,159z"/>
									<path id="Tracé_462" class="st6" d="M359.2,275.9l67.3-38.5l-0.3-78.5l-67.3,38.1L359.2,275.9z"/>
									<path id="Tracé_463" class="st6" d="M291.8,236.6l68.6,39.1l-0.4-78.6l-67.3-38.4L291.8,236.6z"/>
								</g>
							</g>
						</g>
						<g id="Groupe_100">
							<g id="Groupe_98">
								<path id="Tracé_464" class="st2" d="M88.5,41.9l67-38.9l66.6,38.3l-66.6,38.9L88.5,41.9z"/>
								<path id="Tracé_465" class="st3" d="M155.8,158.4l67-38.9l-0.7-78.2l-66.6,38.9L155.8,158.4z"/>
								<path id="Tracé_466" class="st3" d="M87.5,119.4l68.3,38.9l-0.3-78.2l-67-38.3L87.5,119.4z"/>
								<path id="Tracé_467" class="st4" d="M139,90.1v58.4l-51.5-29L88,61.3L139,90.1z"/>
								<path id="Tracé_468" class="st5" d="M125.1,97.6l-0.7,43.2l-37-21.4l0.4-44L125.1,97.6z"/>
								<path id="Tracé_469" class="st4" d="M172.3,90.4L222.1,62l0.7,57.4l-50.1,28.7L172.3,90.4z"/>
								<path id="Tracé_470" class="st5" d="M185.1,97.6l37.3-21.4l0.3,43.2l-37.9,21.5L185.1,97.6z"/>
							</g>
							<g id="Groupe_99">
								<path id="Tracé_471" class="st3" d="M-45.1,42.5l67-38.9l66.6,38.3L21.9,80.8L-45.1,42.5z"/>
								<path id="Tracé_472" class="st6" d="M21.5,159.5L88.8,121l-0.3-78.5L21.2,80.7L21.5,159.5z"/>
								<path id="Tracé_473" class="st6" d="M-46,120.2l68.6,39.1l-0.3-78.6L-45,42.3L-46,120.2z"/>
							</g>
						</g>
						<g id="Groupe_103">
							<g id="Groupe_101">
								<path id="Tracé_474" class="st2" d="M21-75.6l67-38.9l66.6,38.3L88-37.4L21-75.6z"/>
								<path id="Tracé_475" class="st3" d="M88.3,40.8l67-38.9l-0.7-78.2L88-37.4L88.3,40.8z"/>
								<path id="Tracé_476" class="st3" d="M20,1.9l68.3,38.9L88-37.4L21-75.6L20,1.9z"/>
								<path id="Tracé_477" class="st4" d="M71.5-27.5v58.4l-51.5-29l0.4-58.2L71.5-27.5z"/>
								<path id="Tracé_478" class="st5" d="M57.7-19.9L57,23.3L20,1.9l0.4-44L57.7-19.9z"/>
								<path id="Tracé_479" class="st4" d="M104.8-27.1l49.8-28.4l0.7,57.4l-50.1,28.7L104.8-27.1z"/>
								<path id="Tracé_480" class="st5" d="M117.7-19.9L155-41.3l0.3,43.2l-37.9,21.4L117.7-19.9z"/>
							</g>
							<g id="Groupe_102">
								<path id="Tracé_481" class="st3" d="M-112.6-75l67-38.9L21-75.6l-66.6,38.9L-112.6-75z"/>
								<path id="Tracé_482" class="st6" d="M-45.9,42L21.3,3.5L21-75l-67.3,38.1L-45.9,42z"/>
								<path id="Tracé_483" class="st6" d="M-113.4,2.7l68.6,39.1l-0.3-78.6l-67.3-38.5L-113.4,2.7z"/>
							</g>
						</g>
						<g id="Groupe_110">
							<g id="Groupe_106">
								<g id="Groupe_104">
									<path id="Tracé_484" class="st2" d="M357,41.7l67-38.9l66.6,38.3L423.9,80L357,41.7z"/>
									<path id="Tracé_485" class="st3" d="M424.2,158.2l67-38.9l-0.7-78.2L423.9,80L424.2,158.2z"/>
									<path id="Tracé_486" class="st3" d="M356,119.3l68.3,38.9L424,80l-67-38.3L356,119.3z"/>
									<path id="Tracé_487" class="st4" d="M407.4,89.9v58.4l-51.4-29l0.4-58.2L407.4,89.9z"/>
									<path id="Tracé_488" class="st5" d="M393.6,97.5l-0.7,43.2l-37-21.4l0.4-44L393.6,97.5z"/>
									<path id="Tracé_489" class="st4" d="M440.8,90.2l49.8-28.4l0.7,57.4L441.1,148L440.8,90.2z"/>
									<path id="Tracé_490" class="st5" d="M453.6,97.5l37.3-21.4l0.3,43.2l-37.9,21.4L453.6,97.5z"/>
								</g>
								<g id="Groupe_105">
									<path id="Tracé_491" class="st3" d="M223.3,42.4l67-38.9L357,41.7l-66.6,38.9L223.3,42.4z"/>
									<path id="Tracé_492" class="st6" d="M290,159.4l67.3-38.5L357,42.4l-67.3,38.1L290,159.4z"/>
									<path id="Tracé_493" class="st6" d="M222.5,120l68.6,39.1l-0.3-78.6l-67.3-38.5L222.5,120z"/>
								</g>
							</g>
							<g id="Groupe_109">
								<g id="Groupe_107">
									<path id="Tracé_494" class="st2" d="M289.5-75.8l67-38.9l66.6,38.3l-66.6,38.9L289.5-75.8z"/>
									<path id="Tracé_495" class="st3" d="M356.8,40.7l67-38.9l-0.7-78.2l-66.6,38.9L356.8,40.7z"/>
									<path id="Tracé_496" class="st3" d="M288.5,1.8l68.3,38.9l-0.3-78.2l-67-38.3L288.5,1.8z"/>
									<path id="Tracé_497" class="st4" d="M340-27.6v58.4l-51.5-29l0.5-58.2L340-27.6z"/>
									<path id="Tracé_498" class="st5" d="M326.1-20l-0.6,43.2l-37-21.4l0.4-44L326.1-20z"/>
									<path id="Tracé_499" class="st4" d="M373.3-27.3l49.8-28.4l0.7,57.4l-50.1,28.7L373.3-27.3z"/>
									<path id="Tracé_500" class="st5" d="M386.2-20l37.3-21.4l0.3,43.2l-37.9,21.4L386.2-20z"/>
								</g>
								<g id="Groupe_108">
									<path id="Tracé_501" class="st3" d="M155.9-75.1l67-38.9l66.6,38.3l-66.6,38.9L155.9-75.1z"/>
									<path id="Tracé_502" class="st6" d="M222.5,41.8l67.3-38.5l-0.3-78.4L222.2-37L222.5,41.8z"/>
									<path id="Tracé_503" class="st6" d="M155,2.5l68.6,39.1l-0.3-78.6L156-75.4L155,2.5z"/>
								</g>
							</g>
						</g>
						<g id="Groupe_113">
							<g id="Groupe_111">
								<path id="Tracé_504" class="st2" d="M-38.1,743.1l67-38.9l66.7,38.3l-66.7,38.9L-38.1,743.1z"/>
								<path id="Tracé_505" class="st3" d="M29.2,859.6l67-38.9l-0.7-78.2l-66.6,38.9L29.2,859.6z"/>
								<path id="Tracé_506" class="st3" d="M-39.1,820.7l68.3,38.9l-0.3-78.2l-67-38.3L-39.1,820.7z"/>
								<path id="Tracé_507" class="st4" d="M12.4,791.3v58.4l-51.5-29l0.4-58.2L12.4,791.3z"/>
								<path id="Tracé_508" class="st5" d="M-1.5,798.9l-0.7,43.2l-37-21.4l0.4-44L-1.5,798.9z"/>
								<path id="Tracé_509" class="st4" d="M45.7,791.6l49.8-28.4l0.7,57.4l-50.1,28.7L45.7,791.6z"/>
								<path id="Tracé_510" class="st5" d="M58.6,798.9l37.3-21.4l0.3,43.2l-37.9,21.4L58.6,798.9z"/>
							</g>
							<g id="Groupe_112">
								<path id="Tracé_511" class="st3" d="M-171.7,743.8l67-38.9l66.7,38.3l-66.6,38.9L-171.7,743.8z"/>
								<path id="Tracé_512" class="st6" d="M-105,860.7l67.3-38.5l-0.3-78.5l-67.3,38.1L-105,860.7z"/>
								<path id="Tracé_513" class="st6" d="M-172.6,821.4l68.6,39.1l-0.3-78.6l-67.3-38.5L-172.6,821.4z"/>
							</g>
						</g>
						<g id="Groupe_116">
							<g id="Groupe_114">
								<path id="Tracé_514" class="st2" d="M-105.5,625.6l67-38.9L28.1,625l-66.6,38.9L-105.5,625.6z"/>
								<path id="Tracé_515" class="st3" d="M-38.2,742.1l67-38.9L28.1,625l-66.6,38.9L-38.2,742.1z"/>
								<path id="Tracé_516" class="st3" d="M-106.5,703.1l68.3,38.9l-0.3-78.2l-67-38.3L-106.5,703.1z"/>
								<path id="Tracé_517" class="st4" d="M-55,673.8v58.4l-51.5-29l0.5-58.2L-55,673.8z"/>
								<path id="Tracé_518" class="st5" d="M-68.9,681.4l-0.7,43.2l-37-21.5l0.4-44L-68.9,681.4z"/>
								<path id="Tracé_519" class="st4" d="M-21.7,674.1l49.8-28.4l0.7,57.4l-50.2,28.7L-21.7,674.1z"/>
								<path id="Tracé_520" class="st5" d="M-8.8,681.4l37.3-21.4l0.3,43.2l-37.9,21.4L-8.8,681.4z"/>
							</g>
							<g id="Groupe_115">
								<path id="Tracé_521" class="st3" d="M-239.1,626.3l67-38.9l66.6,38.3l-66.6,38.9L-239.1,626.3z"/>
								<path id="Tracé_522" class="st6" d="M-172.5,743.2l67.3-38.5l-0.3-78.5l-67.3,38.1L-172.5,743.2z"/>
								<path id="Tracé_523" class="st6" d="M-240,703.9l68.6,39.1l-0.3-78.6L-239,626L-240,703.9z"/>
							</g>
						</g>
						<g id="Groupe_123">
							<g id="Groupe_119">
								<g id="Groupe_117">
									<path id="Tracé_524" class="st2" d="M230.4,743l67-38.9l66.6,38.3l-66.6,38.9L230.4,743z"/>
									<path id="Tracé_525" class="st3" d="M297.7,859.4l67-38.9l-0.7-78.2l-66.6,38.9L297.7,859.4z"/>
									<path id="Tracé_526" class="st3" d="M229.4,820.5l68.3,38.9l-0.3-78.2l-67-38.3L229.4,820.5z"/>
									<path id="Tracé_527" class="st4" d="M280.9,791.1v58.4l-51.5-29l0.4-58.2L280.9,791.1z"/>
									<path id="Tracé_528" class="st5" d="M267,798.7l-0.7,43.3l-36.9-21.5l0.4-44L267,798.7z"/>
									<path id="Tracé_529" class="st4" d="M314.2,791.5l49.8-28.4l0.7,57.4l-50.1,28.7L314.2,791.5z"/>
									<path id="Tracé_530" class="st5" d="M327.1,798.7l37.3-21.4l0.3,43.2L326.7,842L327.1,798.7z"/>
								</g>
								<g id="Groupe_118">
									<path id="Tracé_531" class="st3" d="M96.8,743.6l67-38.9l66.6,38.3l-66.6,38.9L96.8,743.6z"/>
									<path id="Tracé_532" class="st6" d="M163.4,860.6l67.3-38.5l-0.3-78.5l-67.3,38.1L163.4,860.6z"/>
									<path id="Tracé_533" class="st6" d="M95.9,821.3l68.6,39.1l-0.3-78.6l-67.3-38.5L95.9,821.3z"/>
								</g>
							</g>
							<g id="Groupe_122">
								<g id="Groupe_120">
									<path id="Tracé_534" class="st2" d="M163,625.5l67-38.9l66.6,38.3L230,663.7L163,625.5z"/>
									<path id="Tracé_535" class="st3" d="M230.3,741.9l67-38.9l-0.7-78.2L230,663.7L230.3,741.9z"/>
									<path id="Tracé_536" class="st3" d="M162,703l68.3,38.9l-0.3-78.2l-67-38.3L162,703z"/>
									<path id="Tracé_537" class="st4" d="M213.4,673.6V732L162,703l0.4-58.2L213.4,673.6z"/>
									<path id="Tracé_538" class="st5" d="M199.6,681.2l-0.7,43.2L162,703l0.4-44L199.6,681.2z"/>
									<path id="Tracé_539" class="st4" d="M246.8,674l49.8-28.4l0.7,57.4l-50.1,28.7L246.8,674z"/>
									<path id="Tracé_540" class="st5" d="M259.6,681.2l37.3-21.5l0.3,43.2l-37.9,21.4L259.6,681.2z"/>
								</g>
								<g id="Groupe_121">
									<path id="Tracé_541" class="st3" d="M29.4,626.1l67-38.9l66.6,38.3l-66.7,38.9L29.4,626.1z"/>
									<path id="Tracé_542" class="st6" d="M96,743.1l67.3-38.5l-0.3-78.5l-67.3,38.1L96,743.1z"/>
									<path id="Tracé_543" class="st6" d="M28.5,703.7l68.6,39.1l-0.3-78.6l-67.3-38.5L28.5,703.7z"/>
								</g>
							</g>
						</g>
						<g id="Groupe_126">
							<g id="Groupe_124">
								<path id="Tracé_544" class="st2" d="M-174.8,509l67-38.9l66.6,38.3l-66.7,39L-174.8,509z"/>
								<path id="Tracé_545" class="st3" d="M-107.5,625.5l67-38.9l-0.7-78.2l-66.7,38.9L-107.5,625.5z"/>
								<path id="Tracé_546" class="st3" d="M-175.8,586.6l68.3,38.9l-0.3-78.2l-67-38.3L-175.8,586.6z"/>
								<path id="Tracé_547" class="st4" d="M-124.3,557.2v58.4l-51.5-29l0.4-58.2L-124.3,557.2z"/>
								<path id="Tracé_548" class="st5" d="M-138.2,564.8l-0.7,43.2l-36.9-21.5l0.4-44L-138.2,564.8z"/>
								<path id="Tracé_549" class="st4" d="M-91,557.5l49.8-28.4l0.7,57.4l-50.1,28.7L-91,557.5z"/>
								<path id="Tracé_550" class="st5" d="M-78.1,564.8l37.3-21.5l0.3,43.2L-78.5,608L-78.1,564.8z"/>
							</g>
							<g id="Groupe_125">
								<path id="Tracé_551" class="st3" d="M-308.4,509.7l67-38.9l66.6,38.2l-66.6,39L-308.4,509.7z"/>
								<path id="Tracé_552" class="st6" d="M-241.8,626.7l67.3-38.5l-0.3-78.5l-67.3,38.1L-241.8,626.7z"/>
								<path id="Tracé_553" class="st6" d="M-309.3,587.3l68.6,39.1l-0.3-78.6l-67.3-38.5L-309.3,587.3z"/>
							</g>
						</g>
						<g id="Groupe_129">
							<g id="Groupe_127">
								<path id="Tracé_554" class="st2" d="M-242.2,391.5l67-38.9l66.7,38.3l-66.7,38.9L-242.2,391.5z"/>
								<path id="Tracé_555" class="st3" d="M-174.9,508l67-38.9l-0.7-78.2l-66.6,38.9L-174.9,508z"/>
								<path id="Tracé_556" class="st3" d="M-243.2,469l68.3,39l-0.3-78.2l-67-38.3L-243.2,469z"/>
								<path id="Tracé_557" class="st4" d="M-191.8,439.7v58.4l-51.5-29l0.4-58.2L-191.8,439.7z"/>
								<path id="Tracé_558" class="st5" d="M-205.6,447.3l-0.7,43.2l-37-21.4l0.4-44L-205.6,447.3z"/>
								<path id="Tracé_559" class="st4" d="M-158.4,440l49.8-28.4l0.6,57.4l-50.1,28.7L-158.4,440z"/>
								<path id="Tracé_560" class="st5" d="M-145.6,447.3l37.3-21.5l0.3,43.2l-37.9,21.4L-145.6,447.3z"/>
							</g>
							<g id="Groupe_128">
								<path id="Tracé_561" class="st3" d="M-375.8,392.2l67-38.9l66.6,38.3l-66.6,38.9L-375.8,392.2z"/>
								<path id="Tracé_562" class="st6" d="M-309.2,509.1l67.3-38.5l-0.3-78.5l-67.3,38.1L-309.2,509.1z"/>
								<path id="Tracé_563" class="st6" d="M-376.7,469.8l68.6,39.1l-0.3-78.6l-67.3-38.5L-376.7,469.8z"/>
							</g>
						</g>
						<g id="Groupe_136">
							<g id="Groupe_132">
								<g id="Groupe_130">
									<path id="Tracé_564" class="st2" d="M93.7,508.9l67-38.9l66.6,38.3l-66.6,38.9L93.7,508.9z"/>
									<path id="Tracé_565" class="st3" d="M161,625.3l67-38.9l-0.7-78.2l-66.6,38.9L161,625.3z"/>
									<path id="Tracé_566" class="st3" d="M92.7,586.4l68.3,38.9l-0.3-78.2l-67-38.3L92.7,586.4z"/>
									<path id="Tracé_567" class="st4" d="M144.2,557.1v58.4l-51.5-29l0.4-58.2L144.2,557.1z"/>
									<path id="Tracé_568" class="st5" d="M130.3,564.6l-0.6,43.2l-37-21.4l0.4-44L130.3,564.6z"/>
									<path id="Tracé_569" class="st4" d="M177.5,557.4l49.8-28.4l0.7,57.4l-50.2,28.7L177.5,557.4z"/>
									<path id="Tracé_570" class="st5" d="M190.4,564.7l37.3-21.5l0.3,43.2l-38,21.4L190.4,564.7z"/>
								</g>
								<g id="Groupe_131">
									<path id="Tracé_571" class="st3" d="M-39.9,509.5l67-38.9l66.7,38.3L27,547.8L-39.9,509.5z"/>
									<path id="Tracé_572" class="st6" d="M26.7,626.5L94,588l-0.3-78.5l-67.3,38.1L26.7,626.5z"/>
									<path id="Tracé_573" class="st6" d="M-40.8,587.2l68.6,39.1l-0.3-78.6l-67.3-38.5L-40.8,587.2z"/>
								</g>
							</g>
							<g id="Groupe_135">
								<g id="Groupe_133">
									<path id="Tracé_574" class="st2" d="M26.2,391.4l67-38.9l66.6,38.3l-66.6,38.9L26.2,391.4z"/>
									<path id="Tracé_575" class="st3" d="M93.6,507.8l67-38.9l-0.7-78.2l-66.6,38.9L93.6,507.8z"/>
									<path id="Tracé_576" class="st3" d="M25.3,468.9l68.3,38.9l-0.3-78.2l-67-38.3L25.3,468.9z"/>
									<path id="Tracé_577" class="st4" d="M76.7,439.5v58.4l-51.5-29l0.4-58.2L76.7,439.5z"/>
									<path id="Tracé_578" class="st5" d="M62.9,447.1l-0.7,43.2l-37-21.5l0.4-44L62.9,447.1z"/>
									<path id="Tracé_579" class="st4" d="M110.1,439.9l49.8-28.4l0.7,57.4l-50.2,28.7L110.1,439.9z"/>
									<path id="Tracé_580" class="st5" d="M122.9,447.1l37.3-21.4l0.3,43.2l-37.9,21.4L122.9,447.1z"/>
								</g>
								<g id="Groupe_134">
									<path id="Tracé_581" class="st3" d="M-107.4,392l67-38.9l66.6,38.3l-66.6,38.9L-107.4,392z"/>
									<path id="Tracé_582" class="st6" d="M-40.7,509l67.3-38.5L26.3,392l-67.3,38.1L-40.7,509z"/>
									<path id="Tracé_583" class="st6" d="M-108.2,469.7l68.6,39.1l-0.4-78.6l-67.3-38.5L-108.2,469.7z"/>
								</g>
							</g>
						</g>
						<g id="Groupe_143">
							<g id="Groupe_139">
								<g id="Groupe_137">
									<path id="Tracé_584" class="st2" d="M-42,276.2l67-38.9l66.6,38.3L25,314.5L-42,276.2z"/>
									<path id="Tracé_585" class="st3" d="M25.4,392.7l67-38.9l-0.7-78.2L25,314.5L25.4,392.7z"/>
									<path id="Tracé_586" class="st3" d="M-42.9,353.8l68.3,38.9L25,314.5l-67-38.3L-42.9,353.8z"/>
									<path id="Tracé_587" class="st4" d="M8.5,324.4v58.4l-51.5-29l0.4-58.2L8.5,324.4z"/>
									<path id="Tracé_588" class="st5" d="M-5.3,332L-6,375.2l-37-21.4l0.4-44L-5.3,332z"/>
									<path id="Tracé_589" class="st4" d="M41.8,324.7l49.8-28.4l0.7,57.4l-50.2,28.7L41.8,324.7z"/>
									<path id="Tracé_590" class="st5" d="M54.7,332L92,310.5l0.3,43.2l-37.9,21.4L54.7,332z"/>
								</g>
								<g id="Groupe_138">
									<path id="Tracé_591" class="st3" d="M-175.6,276.9l67-38.9l66.6,38.3l-66.6,38.9L-175.6,276.9z"/>
									<path id="Tracé_592" class="st6" d="M-108.9,393.8l67.3-38.5l-0.3-78.5l-67.3,38.1L-108.9,393.8z"/>
									<path id="Tracé_593" class="st6" d="M-176.4,354.5l68.6,39.1l-0.3-78.6l-67.3-38.5L-176.4,354.5z"/>
								</g>
							</g>
							<g id="Groupe_142">
								<g id="Groupe_140">
									<path id="Tracé_594" class="st2" d="M-109.4,158.7l67-38.9l66.6,38.3L-42.4,197L-109.4,158.7z"/>
									<path id="Tracé_595" class="st3" d="M-42.1,275.2l67-38.9l-0.7-78.2L-42.4,197L-42.1,275.2z"/>
									<path id="Tracé_596" class="st3" d="M-110.4,236.2l68.3,38.9l-0.3-78.2l-67-38.3L-110.4,236.2z"/>
									<path id="Tracé_597" class="st4" d="M-58.9,206.9v58.4l-51.5-29l0.4-58.2L-58.9,206.9z"/>
									<path id="Tracé_598" class="st5" d="M-72.8,214.5l-0.7,43.2l-37-21.4l0.4-44L-72.8,214.5z"/>
									<path id="Tracé_599" class="st4" d="M-25.6,207.2l49.8-28.4l0.7,57.4l-50.1,28.7L-25.6,207.2z"/>
									<path id="Tracé_600" class="st5" d="M-12.7,214.5L24.5,193l0.3,43.2l-37.9,21.5L-12.7,214.5z"/>
								</g>
								<g id="Groupe_141">
									<path id="Tracé_601" class="st3" d="M-243,159.4l67-38.9l66.6,38.3l-66.6,38.9L-243,159.4z"/>
									<path id="Tracé_602" class="st6" d="M-176.4,276.3l67.3-38.5l-0.3-78.5l-67.3,38.1L-176.4,276.3z"/>
									<path id="Tracé_603" class="st6" d="M-243.9,237l68.6,39.1l-0.3-78.6l-67.3-38.4L-243.9,237z"/>
								</g>
							</g>
						</g>
						<g id="Groupe_150">
							<g id="Groupe_146">
								<g id="Groupe_144">
									<path id="Tracé_604" class="st2" d="M-178.7,42.1l67-38.9L-45,41.5l-66.6,38.9L-178.7,42.1z"/>
									<path id="Tracé_605" class="st3" d="M-111.4,158.6l67-38.9L-45,41.5l-66.6,38.9L-111.4,158.6z"/>
									<path id="Tracé_606" class="st3" d="M-179.7,119.7l68.3,38.9l-0.3-78.2l-67-38.3L-179.7,119.7z"/>
									<path id="Tracé_607" class="st4" d="M-128.2,90.3v58.4l-51.5-29l0.4-58.2L-128.2,90.3z"/>
									<path id="Tracé_608" class="st5" d="M-142.1,97.9l-0.7,43.2l-36.9-21.4l0.4-44L-142.1,97.9z"/>
									<path id="Tracé_609" class="st4" d="M-94.9,90.6l49.8-28.4l0.7,57.4l-50.1,28.7L-94.9,90.6z"/>
									<path id="Tracé_610" class="st5" d="M-82,97.9l37.3-21.5l0.3,43.2l-37.9,21.4L-82,97.9z"/>
								</g>
								<g id="Groupe_145">
									<path id="Tracé_611" class="st3" d="M-312.3,42.8l67-38.9l66.6,38.3l-66.6,38.9L-312.3,42.8z"/>
									<path id="Tracé_612" class="st6" d="M-245.7,159.8l67.3-38.5l-0.3-78.5L-246,80.9L-245.7,159.8z"/>
									<path id="Tracé_613" class="st6" d="M-313.2,120.4l68.6,39.1l-0.3-78.5l-67.3-38.5L-313.2,120.4z"/>
								</g>
							</g>
							<g id="Groupe_149">
								<g id="Groupe_147">
									<path id="Tracé_614" class="st2" d="M-246.1-75.4l67-38.9l66.6,38.3l-66.6,38.9L-246.1-75.4z"/>
									<path id="Tracé_615" class="st3" d="M-178.8,41.1l67-38.9l-0.7-78.2l-66.6,38.9L-178.8,41.1z"/>
									<path id="Tracé_616" class="st3" d="M-247.1,2.2l68.3,38.9l-0.3-78.2l-67-38.3L-247.1,2.2z"/>
									<path id="Tracé_617" class="st4" d="M-195.6-27.2v58.4l-51.5-29l0.4-58.2L-195.6-27.2z"/>
									<path id="Tracé_618" class="st5" d="M-209.5-19.6l-0.7,43.2l-37-21.4l0.4-44L-209.5-19.6z"/>
									<path id="Tracé_619" class="st4" d="M-162.3-26.9l49.8-28.4l0.7,57.4L-162,30.9L-162.3-26.9z"/>
									<path id="Tracé_620" class="st5" d="M-149.4-19.6l37.3-21.4l0.3,43.2l-37.9,21.4L-149.4-19.6z"/>
								</g>
								<g id="Groupe_148">
									<path id="Tracé_621" class="st3" d="M-379.7-74.7l67-38.9l66.6,38.3l-66.6,38.9L-379.7-74.7z"/>
									<path id="Tracé_622" class="st6" d="M-313.1,42.2l67.3-38.5l-0.3-78.4l-67.3,38.1L-313.1,42.2z"/>
									<path id="Tracé_623" class="st6" d="M-380.6,2.9L-312,42l-0.3-78.6L-379.6-75L-380.6,2.9z"/>
								</g>
							</g>
						</g>
					</g>
				</g>
			</g>
		</g>
	</g>
</g>
</svg>
