<?xml version="1.0" encoding="utf-8"?>
<!-- Generator: Adobe Illustrator 26.0.1, SVG Export Plug-In . SVG Version: 6.00 Build 0)  -->
<svg version="1.1" id="Calque_1" xmlns="http://www.w3.org/2000/svg" xmlns:xlink="http://www.w3.org/1999/xlink" x="0px" y="0px"
	 viewBox="0 0 549.3 308.7" style="enable-background:new 0 0 549.3 308.7;" xml:space="preserve">
<style type="text/css">
	.st0{fill:#DB0D1F;}
	.st1{fill:#0D0D0D;}
	.st2{fill:#0D0D0D;stroke:#FFFFFF;stroke-width:2;stroke-miterlimit:10;}
	.st3{fill:#0D0D0D;stroke:#FFFFFF;stroke-width:2;stroke-linecap:round;stroke-linejoin:round;}
	.st4{fill:#161615;}
</style>
<g id="Groupe_5">
	<g id="Groupe_3">
		<path id="Tracé_138" class="st0" d="M399.7,65.1c0,0-4.1-0.3-3.5,2.1c0.3,1.6-0.1,3.3-1,4.7l-3,18.2l-11.5-6.7l-8-17l21.6-3.5
			L399.7,65.1z"/>
		<path id="Tracé_139" class="st1" d="M248.8,10.2c5.5,0.2,10.8-1.7,16.4-1.2c1.1,0,2.3,0.1,3.4,0.4c-4.4,0.5-8.8,1-13.2,1.4
			c-5.8,0.6-11.5,1.6-17.1,3c-0.6,0.1-1.2,0.1-1.8,0.1c3-1.6,6.3-2.2,9.6-3C247,10.7,248.1,11.4,248.8,10.2L248.8,10.2z"/>
		<path id="Tracé_140" class="st1" d="M244.6,28.1c5.5-2.4,11.5-2.9,17.3-3.7c3.3-0.4,6.7-1,10.2-0.5c-2,0.9-4.5-0.4-6,1.6
			c-6.3,0.2-12.6,1-18.7,2.4C246.4,28.1,245.5,28.2,244.6,28.1z"/>
		<path id="Tracé_141" class="st1" d="M231.5,31.3l-1.2,1.2l-13.6,5.7C221.4,35.3,226,32.3,231.5,31.3z"/>
		<path id="Tracé_142" class="st0" d="M391.6,85.5c2.5,3.1,3.9,6.7,5.3,10.3c-2.5-2.4-3.6-5.7-5.4-8.6
			C391.5,86.6,391.5,86,391.6,85.5z"/>
		<path id="Tracé_143" class="st0" d="M377.3,68.8l-3.6-5.4c2.9,1.3,3.8,3.5,5.3,5.1L377.3,68.8z"/>
		<path id="Tracé_144" class="st1" d="M248.8,10.2c-0.7,1.2-1.9,0.5-2.8,0.6C246.7,10.2,247.8,9.9,248.8,10.2z"/>
		<path id="Tracé_145" class="st0" d="M148.6,226.4c0.5-0.1,0.7,0.1,0.7,0.6C148.8,227.1,148.7,226.7,148.6,226.4z"/>
		<path id="Tracé_146" class="st0" d="M380.9,260.8c0.1-0.3,0.2-0.5,0.6-0.3c-0.1,0.2-0.2,0.4-0.3,0.7L380.9,260.8z"/>
		<path id="Tracé_147" class="st1" d="M321.8,21.2c-8.5-2.2-17.6-1.7-25.7-6.5C305.3,14.8,313.6,18.2,321.8,21.2z"/>
		<path id="Tracé_148" class="st1" d="M278.5,21.6c12-2.3,23.5,0.7,34.9,3.9C301.9,23.2,290.2,21.9,278.5,21.6z"/>
		<path id="Tracé_149" class="st1" d="M334.5,26.4l-1-0.5c0.3-0.3,0.9-0.3,1.2,0c0,0,0,0,0,0l0.1,0.1L334.5,26.4z"/>
		<path id="Tracé_150" class="st1" d="M369.8,58.4c-0.3-0.1-0.6-0.2-0.4-0.5s0.5,0,0.6,0.3L369.8,58.4z"/>
		<path id="Tracé_151" class="st1" d="M383.9,99.5l0.3-0.4c0,0,0,0.1,0,0.1S384,99.4,383.9,99.5C383.9,99.5,383.9,99.5,383.9,99.5z
			"/>
		<path id="Tracé_152" class="st0" d="M392.8,61.4c-1.6,0.1-3.1-0.8-3.8-2.2c-3-6.2-8.1-10.5-13.1-15c-1.8-1.6-3.5-3.2-5.3-5
			c2.4-1.3,3.7,0.9,5.7,0.5c-2.2-1.7-4.8-2.9-7.5-3.6c-3.2-1-6.3-2.3-9.3-4c-10.2-5.6-20.4-11.4-31.2-15.4
			c-20.9-7.8-42.6-12.1-65.1-9.5c-4.9,0.5-9.9,0.9-14.5,3c5.5,0.2,10.8-1.7,16.4-1.2c1.1,0,2.3,0.1,3.4,0.4c-4.4,0.5-8.8,1-13.2,1.4
			c-5.8,0.6-11.5,1.6-17.1,3c-0.6,0.1-1.2,0.1-1.8,0.1c-6.1,1.5-11.6,4.4-17.3,6.9c-3.6,1.6-7,3.4-10.3,5.5
			c-14.7,9.3-26.7,21.6-38.7,33.9c-0.2,0.2-0.4,0.4-0.5,0.7c-2.3,2.7-4.3,5.5-6.2,8.5l0,0l-0.1,0.2l0,0c-0.4,0.7-0.7,1.4-1,2.1
			c-1.4,3.1-2.4,6.3-2.9,9.6l9.1-11.7c1.6-2.3,3.2-4.5,5.1-6.6c7.2-7.5,14.8-14.5,22.8-21c6.4-5,13.3-9.2,20.8-12.5
			c11.2-5.1,22.6-9.8,34.5-13c6.5-1.7,13.1-3.1,20-2.5c-18.8,1.3-35.1,9.8-51.8,17.3c17.4-7.5,35.3-12.8,54.6-12.3
			c-9.2,4-19.3,3.8-28.8,6.5c-4.8,1.8-9.5,3.8-14.1,6.1l-1.2,1.2l14.2-4.3c5.5-2.4,11.4-2.9,17.3-3.7c3.3-0.4,6.7-1,10.2-0.5
			c-2,0.9-4.5-0.5-6,1.5l0.8,0.4c8.7-1.2,17.4-1,26.2-1.2c-3.2-0.2-6.4-1.1-9.6-1c9.3-0.6,26.1,1.6,30.6,3.7c-0.9,0.5-2-0.3-3.1,0.6
			c23.7,5,43.9,16,60.5,33.6l0.4-0.8l-1.9-2.4c-0.3-0.1-0.6-0.2-0.4-0.5s0.5,0,0.6,0.3c3.6,3.2,7.6,5.9,10.3,10
			c2.6,0.2,4.9-1,7.3-1.9c-7.4-8.4-16.3-15.1-25-22.1s-18.7-11.8-28-17.8l-1-0.5c0.3-0.3,0.9-0.3,1.2,0c0,0,0,0,0,0l0.1,0.1
			c9.9,4,19.5,8.8,27.9,15.3c9.5,7.2,18.2,15.3,26.2,24.1c3.3-2.3,6.8,0,10.8-0.4C397.4,63.1,395.8,61.1,392.8,61.4z M278.5,21.6
			c12-2.3,23.5,0.7,34.9,3.9C301.9,23.2,290.2,21.9,278.5,21.6z M296.1,14.7c9.2,0.1,17.4,3.5,25.7,6.5
			C313.3,19,304.2,19.4,296.1,14.7L296.1,14.7z"/>
		<path id="Tracé_153" class="st1" d="M219.9,30.9c16.7-7.5,33-16,51.8-17.3c-6.9-0.5-13.5,0.8-20,2.5c-11.9,3.2-23.3,8-34.5,13
			c-7.4,3.3-14.4,7.5-20.8,12.5c-8,6.5-15.7,13.5-22.8,21c0,0-9,10.8-11.1,16.1c0,0,8-9.8,14.7-14.6c1.5-1.4,8.3-7.9,11.4-10.9
			c7-5.9,14.6-11.2,22.6-15.6c7.9-4.3,16.4-7.3,24.8-10.3c3.1-1.1,6.2-2.6,9.7-2.3c9.5-2.8,19.6-2.5,28.8-6.5
			C255.2,18.1,237.3,23.4,219.9,30.9z"/>
		<path id="Tracé_154" class="st0" d="M422,120c-0.4-4-2-7.4-2.5-11.3c-0.9-7.1-4.7-13.2-7.2-19.8c-0.5-1.4-0.8-3.1-2.2-4.1
			c-0.9,0.9,0.7,1.8-0.4,2.5c-2.9-3.2-4.9-7-7-10.7c-1.7-2.8-3.1-5.9-7.4-4.7c-0.5,0.1-1.2-0.2-1.8-0.4l1.9,2.8
			c2.2,2.1,3.7,4.7,4.5,7.6c-1.7-2.4-3.3-4.7-5-7.1l-2.3-2.4c-0.2,3.5-0.5,7.1-0.7,10.6c5.7,7.8,9,16.6,12.1,25.6
			c1.5,4.4,1.2,9.2,2.9,13.4c2,5.1,2.8,10.4,4.1,15.6c1.2,4.5-3.3,1.8-4.1,3.8c-0.2,0.6-1.1-1.5-1.5-2.3c-2.1-4.6-4-9.2-5.9-13.9
			c-0.1,1.2,0.1,2.5,0.7,3.6c1.4,3.4,2.2,6.7-0.4,10.1c-1.2,1.6-1.9,1.5-3.1,0.5v13c2.7,5.8,1.1,11.3-1.2,17.3c0,3.4,1.8,7,1.8,10.5
			c1.3-0.4,1.3-2.6,2.7-1.9c1.1,0.5,0.3,2.1,0.3,3.1c0,2.8-1.7,3.7-4.5,3.5c1,2.8,1.7,5.4,4.4,6.9c1.9,1.1,2.6,2.4,0.8,4.4
			c-1.2,1.5-2.3,3.1-3.2,4.8l-7.9,15c-1.1,1.7-1.1,3.7-1.5,5.6c-0.1,0.7-0.4,1.4-0.7,2c-0.6,1-1.2,2.7-2.4,2.4
			c-1.5-0.4,0.2-2-0.6-3.2c-1.8,2.7-5.5,3.1-7.2,6.4c-1-1.8,0-3.6-1.3-5.1c-0.9,1.3-1.7,2.6-2.5,3.8c-0.4,0.6-0.8,1.6-1.3,1.6
			c-4.8,0.6-4.5,5.3-6.4,8.1c-2.6,3.6-5.4,7-8.5,10.1c-2.2,2.4-4.5,4.8-6.7,7.1c-1.2-0.3-0.7-1.8-1.9-2c-1.4,3-4,4.8-6.7,6.5
			c-3.8,2.4-6.9,5.7-10.3,8.5c-3.2,2.6-5.7,5.8-8.8,8.3c-1.1,1.1-2.9,1.1-4,0c-0.2-0.2-0.4-0.4-0.5-0.7c-0.8-1.2-1.4-1-2.4-0.6
			c-6.8,3.1-13.7,5.4-21.3,5.1c-0.6-0.1-1.2,0.2-1.5,0.7c-2.5,4-6.6,4.9-10.9,5.2c-29.5,1.8-57.2-3.9-82.3-19.9
			c-7.2-4.5-14-9.7-20.2-15.5c-2.3-2.2-5.1-3.2-8-4.2l12.4,10.5c-3.4-0.6-5.8-2.7-8.2-4.5c-8-6-15.2-12.9-21.4-20.6
			c-1.4-1.9-3.1-3.5-5.1-4.8c0.2,2.2,2.4,3.4,2.6,5.7c0.3,2,0.5,4.1,0.5,6.1c0,2.2,0.3,4.3,1,6.4c0.4-2,0.7-3.5,1-5.2
			c5.2,3.1,5.3,10.2,12,12.4c-2.6,0.5-4,0.5-5.5,1.3c5.3,2.6,7.2,7.7,9.8,12.4c0.2-1.2,0.3-2.3,0.2-3.5c0-0.9,0-2,1.2-2.2
			c1-0.1,1.3,0.9,1.6,1.6c1.5,3.6,3.9,6.7,5.8,10.1c0.6,1.1,1,2.2,1.7,3.5l0.5-2.4c3.4,3.4,7.5,5.6,11.3,8.3c0.9,0.7,2,1.3,2.1,2.5
			s-1.8,1-2.3,2c2.7,0.2,5.5-0.4,7.8,1.5c-1.2,1.2-2.7,2.1-4.4,2.5c0.5,0.6,1.2,0.9,2,1c4.4,1.1,8.6,2.7,12.7,4.5
			c1,0.5,2.7,1,2.3,2.5c-0.3,1.3-1.9,0.8-3,0.9c-1.3,0.1-2.7-0.4-4.4,0.4c3,0.9,5.7,1.8,8.5,2.5c3.8,0.9,7.1,0.3,9.2-3.5
			c1-1.7,2.7-2.9,4.6-3.2c2.7-0.6,5.1,0.2,7.8,0.4c-0.7,1.3-2.3,1-2.8,2.2c1.2,0.2,2.3-0.2,3.4-0.3c2-0.1,4.6-1.8,5.9-0.6
			c3.3,3.1,6.4,2.7,9.9,1c0.3-0.1,0.6,0,0.9-0.1c5.2-1,10.3,0,15.4,0.3c6.4,0.4,12.8,0.7,18.9-1.5c3-1.1,6.2-1.5,9.4-1.3
			c2.4,0.2,4.7,0.2,7.1,0.1c4.3-0.2,8.2-1.6,12.4-2.9c-1.1-1.2-2.8-0.4-3.3-1.5c14.7-2.1,28.6-7.7,44.3-8.3c-1.7-1.2-3-0.3-3.7-1.6
			c2.3-1.4,3.9-3.6,5.8-5.4c2.8-2.8,6.1-5.1,9.9-5.9c5.1-0.9,9.5-4.1,12-8.6l-0.3-0.3c-2.7,0.8-3.8,3.9-6.6,4.6
			c-0.3,0.4-0.8,0.8-1.2,0.4c-0.5-0.6,0.4-0.6,0.7-0.9c4.2-3.8,7.5-8.6,9.6-13.9c1.5-3.4,4.3-5.9,6.6-8.9c0.8-1.1,2.1,0.4,2.7-1.2
			c2.6-6.5,6.7-12.2,9.9-18.4c0.2-0.3,0.5-0.7,0.5-1.1c1.9-3.8,4.1-8.7,5.6-12c0.2-0.3,0.4-0.7,0.6-1.1c0.2-0.4,0.3-0.8,0.5-1.2
			l0.7-1.5h-0.1c2-5.5,3.6-11.1,5.4-16.7C423.2,166.4,424.1,143.4,422,120z"/>
		<path id="Tracé_155" class="st1" d="M399.8,81.9c-0.8-2.9-2.4-5.5-4.5-7.6l-1.9-2.8l0,0c-1.9-2.8-4.4-6-4.4-6
			c-8-8.8-16.7-16.9-26.2-24.1c-8.4-6.5-18-11.3-27.9-15.3l-0.3,0.4c9.3,6,19.3,10.8,28,17.8c8.6,6.9,17.3,13.5,24.7,21.7
			c0.1,0.1,0.2,0.3,0.4,0.4c1.8,1.9,3.4,4,4.9,6.2l2.3,2.4l0,0C396.4,77.2,398.1,79.6,399.8,81.9z"/>
		<path id="Tracé_156" class="st1" d="M410.9,137.7c-1.3-5.2-2.1-10.5-4.1-15.6c-1.7-4.2-1.3-9-2.8-13.4c-3.1-9-6.4-17.8-12.1-25.6
			c-2.9-5.6-6.8-10.6-11.4-14.9c-2.7-4.1-6.7-6.8-10.3-10l-0.2,0.2l1.9,2.4l-0.4,0.8c-16.6-17.6-36.8-28.6-60.5-33.6
			c1.1-0.9,2.2-0.1,3.1-0.6c-4.5-2.1-21.3-4.2-30.6-3.7c3.3-0.1,6.4,0.8,9.6,1c-8.7,0.3-17.5,0-26.2,1.2c-2.5,3-6.5,3.2-9.6,5.1
			l0.9,1.4c-2.2-0.4-4,0.5-5.9,0.7c-1.9,0.3-3.7,0.8-5.5,1.3c13.7-2.1,27.6-2.8,41.5-1.9c-1.7-1.3-2.9-0.4-3.9-1.4l4.6-0.2
			c-1.3-1-2.8,0-4.1-1c3.3-0.5,6.4,0.1,9.9,0.8c-1.6,0.6-3-0.2-4.4,0.7c3.7,0.6,7.5,0.1,10.1,3.3c9.4,1.8,18.4,4.9,26.9,9.2
			c12.2,6.2,23.5,13.5,32.1,24.4c2.7-0.2,4.3,1.4,5.7,3.4c1.4,0.4,2.4,1.4,2.9,2.8l0.2,0c2.1,0.9,2.4,3.2,1.8,4
			c-1,1.2-0.3,1.6,0.2,2.2c2.5,3.5,5.1,7,7.6,10.5c0.6-0.7-0.3-1.4,0.2-2.6c2.2,3.3,4.1,6.8,5.9,10.5l0.1,0.2c0,0,5.2,7.7,6.8,20.9
			c0,0.1,0,0.3,0,0.4c0.2,4.7,1.1,9.3,4.8,13.2c1.2,1.2,0.3,2.1-1.2,2.1c-0.8-0.1-1.6-0.2-2.4-0.5c0.1,1.2,0.2,2.2,0.2,3.2
			c0,0.6,0.3,1.2-0.6,1.5s-1.3-0.2-1.7-0.9c-0.3-0.4-0.5-0.9-0.6-1.4c-0.3-1.6-1.4-1.6-2.7-1.8c-1.7-0.3-1.9,0.9-2.3,1.8
			c-0.7,2-1.6,2.5-3,0.5c-0.9,3.4,0,5.2,3.7,5.7c4.9,3-4.9,6.1-2,8.2s8.3,7.9,4.5,7.9s-3.5,2.1-3.5,2.1c0.4-1.6,9.4,1.4,6.5,2.5
			s-4.5,3.4-2.4,7s0.3,7.8,0.3,7.8c-0.5,0.5-1.1,0.9-1.7,1.3c-1.9,0.8-1.6,1.9-0.7,3.3c0.3,0.5,0.6,1,0.9,1.6
			c0.5,1.1,0.1,2.5-0.9,3.2c-2.5,2.1-4.8,1.2-5,4.6s-1.7,3.4-1.7,3.4c0.3,1.1,0.5,2.2,0.7,3.3c-0.6,0.9-1.3,1.8-2.1,2.6l-4.2,3.6
			c0.3,0.7,0.9,0.5,1.3,0.7s0.8,0.5,1.3,0.8c-2.1,1.4-2.2,1.5-2.7,2.8c0.8-0.5,1,0,1.2,0.7l-0.1-0.1c1.9,2.9,1.5,4.6-1.1,4.3
			c-4.8-0.7-8,1.3-10.9,4.8c-0.8,1-2,1.8-2.9,2.8c-1.3,1.5-2.6,1.8-4,0c-1.1,3.7-3,7.1-5.5,10c-3.4,3.9-6.9,7.8-10.2,11.8
			c-1.4,1.7-2.3,2.3-3.2-0.4c-1.6,2.7-4,5-6.8,6.5c-5.1,3.2-9.7,7-13.9,11.3c-1.2,1.2-2.1,2.7-3.3,3.9s-3,1.4-4,0
			c-1.2-1.6-2.1-1.2-3.5-0.6c-5.3,2.2-10.7,4.2-16.5,4.3c-2.1,0.1-3.7,0-5.2,2.2c-1.2,1.8-3.5,2.7-5.9,2.9c-11,1.1-22,0.9-32.9-0.8
			c-12.1-2-23.8-5.1-34.7-11.1c-13.9-7.6-27.1-16.3-39.6-26c-4-3.2-8.3-6.1-12-9.6c-1.1-1.1-2.3-1.9-3.6-2.5
			c-4-3.6-7.8-7.4-11.4-11.5c-0.9-1-1.8-2-2.7-3l-0.5,0.4c0.6,1.1,1.1,2.2,1.5,3.4c0,0.2,0.1,0.4,0.2,0.5c1.5,3.6,3.3,6.9,5.6,10.1
			c0,0.4,0.7,0.8,1,1.3h0.1c0.2,0.2,0.3,0.4,0.5,0.5l0,0l0,0c0.5,0.5,1.1,0.9,1.7,1.3c1.2,1.1,2.3,2.3,3.3,3.5
			c6.3,7.7,13.5,14.7,21.5,20.6c2.5,1.9,4.8,3.9,8.2,4.5l-12.4-10.5c2.9,1,5.7,2.1,8,4.2c6.2,5.8,13,11,20.2,15.5
			c25.1,16,52.8,21.7,82.3,19.9c4.3-0.3,8.4-1.2,10.9-5.2c0.3-0.5,0.9-0.8,1.5-0.7c7.6,0.4,14.5-2,21.3-5.1c1-0.5,1.7-0.6,2.4,0.6
			c0.8,1.4,2.5,1.9,3.9,1.2c0.2-0.1,0.4-0.3,0.6-0.5c3.1-2.5,5.6-5.7,8.8-8.3c3.4-2.8,6.5-6.1,10.3-8.5c2.7-1.7,5.3-3.5,6.7-6.5
			c1.2,0.2,0.7,1.8,1.9,2l6.7-7.1c3.1-3.1,5.9-6.5,8.5-10.1c1.9-2.8,1.6-7.5,6.4-8.1c0.5-0.1,0.9-1,1.3-1.6c0.8-1.2,1.6-2.5,2.5-3.8
			c1.3,1.5,0.3,3.3,1.3,5.1c1.7-3.3,5.4-3.7,7.2-6.4c0.8,1.2-0.9,2.8,0.6,3.2c1.2,0.3,1.8-1.4,2.4-2.4c0.3-0.6,0.6-1.3,0.7-2
			c0.4-1.9,0.4-3.9,1.5-5.6c0,0,5.5-10.4,7.9-15l0,0c1-1.7,2-3.3,3.2-4.8c1.8-2,1.1-3.3-0.8-4.4c-2.7-1.5-3.4-4.1-4.4-6.9
			c2.8,0.2,4.5-0.7,4.5-3.5c0-1.1,0.8-2.6-0.3-3.1c-1.3-0.7-1.3,1.5-2.7,1.9v-9c0-0.2,0-0.5,0-0.7c-0.2-6,1.8-7.3,1.9-11.2
			c-0.1-2.5-1-5-2.6-6.9v-13c1.2,1,1.9,1.1,3.1-0.5c2.7-3.5,1.8-6.7,0.4-10.1c-0.5-1.1-0.8-2.4-0.7-3.6c2,4.6,3.8,9.3,5.9,13.9
			c0.4,0.8,1.2,2.9,1.5,2.3C407.6,139.5,412,142.2,410.9,137.7z M377.3,68.8l-3.6-5.4c2.9,1.3,3.8,3.5,5.3,5.1c0,0,0.3,0.5,0.8,1.3
			C379.6,70.4,379,71.1,377.3,68.8z M391.5,87.2c0,0-6.5-10.1-4.2-9.3c1.6,2.4,3.1,5,4.3,7.6l0,0c2.5,3.1,3.9,6.7,5.3,10.3
			C394.4,93.4,393.3,90.1,391.5,87.2z"/>
	</g>
	<path id="Tracé_157" class="st2" d="M367.4,76.8c-1.3,0-2.6,0.1-4,0.2c-0.4,0-0.8-0.3-0.8-0.7c0,0,0,0,0,0c0-0.1,0-0.2,0-0.3
		c0.5-0.8,1.3-1.4,2.2-1.6c3.1-1.1,6.3-2.2,9.5-3.2c0.8-0.3,1.3-0.4,1.6-1.4c1.4-4.7,5.6-6.5,9.5-8.4c0.7-0.3,0.8,0.2,0.9,0.7
		c0.4,1.3,0.3,2.8-0.4,4c-1.4,2.9-3.8,5-6.1,7.1C379.7,73.2,375.5,77,367.4,76.8z"/>
	<path id="Tracé_158" class="st1" d="M309.6,128.4c-0.2-3.5,0.2-7,1.4-10.3c0.9-2.5,2.5-4.6,4.6-6.1c1.9-1.4,3.8-2.6,5.8-3.7
		c3.7-1.9,7.4-1.4,10.9,0.8c1.3,0.9,2.8,1.5,4.2,2.5c8,5.9,10.9,21.8-1.4,29.1c-3.6,2.2-6.9,3-10.9,1.6c-3.1-1.1-6.4-1.8-9.6-2.6
		c-0.8-0.2-1.8-0.5-1.9-1.3C311.9,134.8,308.2,132.1,309.6,128.4z M318.7,127.4c0.1,2.7,0.4,5.4,1.2,8c0.8,3.1,1.6,3.6,4.8,3.6
		c1.4,0,2.8-0.1,4.1,0c1,0.1,2.1-0.4,2.5-1.4c5.3-7.7,4.1-15.5,0.7-23.5c-0.9-2.6-3.5-4.3-6.3-4c-3,0.1-4.4,2.1-5.5,4.4
		C318.6,118.2,318.5,122,318.7,127.4L318.7,127.4z"/>
	<path id="Tracé_159" class="st2" d="M374.4,91.2c1.3,2.8,1.2,4.9-1.2,6.7c-1.4,1.1-1.7,2.9-2.1,4.6c-0.7,2.9-1.1,5.9-3.5,8.2
		c8.7,2.2,12.9-0.7,13.3-8.8c0-1.2,0-2.4,0-3.6c0-0.8,0.3-1.3,1.1-1.4s1.6,0,1.8,1.1c1.1,4.4,1.1,9,0,13.5c0,0.3-0.1,0.5-0.3,0.7
		c-2.8,2-2.7,2-2.2,4.9c0.5,3.6,2.6,7,1.8,11.5c-2-3.9-2.2-7.8-3.8-11.3s-3.9-3.1-6.6-2.7s-4.8,1.1-4.1,4.6c0.3,1.5-0.1,3.2,0.1,4.8
		c0.1,0.8-1.2,3,1.7,2.1c1.1-0.4,0.6,1.2,0.6,1.8c-0.2,2.6,0.7,5.1,2.4,7c2.8,3.1,6.4,3.1,9.2,0.1c2.4-2.5,4.8-5,7.6-7.9
		c-0.3,4.1-4.5,6.2-3.5,10.6c6.2-4.9,11.2-9.9,10.9-18.3c1.7,2.2,0.9,4.4,0.6,6.4c-0.6,4.1-2.3,8-0.7,12.4c0.7,1.7-1.9,1.9-3.1,2
		c-3.3,0.4-6.7,0.7-10,0.8c-4,0.1-7.9,1.7-11.7,1.9c-5.4,0.4-10.8,0.3-16.1-0.4c-1.6-0.2-3.2-0.4-4.7-0.7c-0.9-0.2-2.1-0.2-2.3-1.2
		c-0.2-1.1,0.6-2.1,1.7-2.3c0,0,0,0,0.1,0h0.1c6.9-0.6,6.5-5.4,6.4-10.4c-0.2-7.1-0.1-14.2,0-21.2c-0.1-2.5,0.2-5,1.1-7.4
		c1.5-3.6-0.3-7.1-3.9-9.5c-2.1-1.3-5.6-2.5-5-4.9c0.5-1.9,4.2-0.6,6.5-0.7c7.1-0.1,14.2,0,21.3,0.1c1.2-0.1,2.4-0.1,3.6,0.2
		c6,2.3,10.3,1,12.3-5.6c0.1-0.8,0.9-1.4,1.8-1.3c1.1,0.2,1.4,1.2,1.4,2.1c0.1,4.3,1,8.8-0.1,12.8c-0.8,3.2-4.1,5.7-5.5,9.2v-6.7
		c-1.3-0.5-2.4,3.1-3.1,0c-1-3.9-3.6-4-6.7-3.8C379.3,91.3,377.2,91.2,374.4,91.2z"/>
	<path id="Tracé_160" class="st1" d="M274.8,121.1c0.2,3,0,5.9-0.6,8.8c-0.9-5.4-1.2-10.9-0.9-16.3c0.3-1.9-0.9-3.7-2.8-4.1
		c-1-0.4-2-0.9-3-1.5c-0.7-0.4-1.2-1.2-0.9-1.8s1.3-0.5,1.9-0.2c3.3,1.8,6.8,1,10.2,1.3c2.5,0.3,4.3-1.8,6.7-1.8
		c1.3-0.1,2.5-0.2,3.8-0.1c-0.2,2.6-1.8,4-4,4.9c-1.1,0.4-1.8,1.3-1.9,2.4c-1,5.5-2.2,10.9-2.7,16.5c-0.4,5.6,4,11.1,9.1,11.3
		c3.2,0.2,5.2-1.3,6-4.4c0.8-2.9,1.2-6,3.9-8.6c0,3.1,0,5.8,0,8.5c0,1.2,0,1.2,1.5,1.3c-1.7,5.1-1.7,5.1-7,5.1
		c-8.6,0.1-17.2,0.3-25.8,0.4c-0.7,0-1.9,0.5-2.1-0.4c-0.3-1.3,1.1-1.4,1.9-1.8c0.8-0.3,1.7-0.6,2.5-0.7c1.7-0.4,3-1.7,3.6-3.3
		c2-4.6,1.7-9.4,1.7-14.3C275.8,121.7,275.4,121.2,274.8,121.1z"/>
	<path id="Tracé_161" class="st1" d="M203.5,138.3c-7.4,4.4-14.1,6.2-22.3,3.3c-6.4-2.2-13.1-3.6-19.7-5.3c-1.7-0.4-3.7-1-4-2.6
		c-1.5-7.4-9.2-13-6.4-20.7c-0.3-7.9,0.4-14.6,2.9-21.1c1.8-5,5.1-9.4,9.5-12.6c3.8-2.8,7.8-5.3,12-7.5c7.7-3.9,15.1-2.9,22.3,1.7
		c0,0-2.5-7-1-7.6s4.3,2.8,4.4,7.8s0,11.9,1.6,15.4s-6.3,2.5-5.5-5.1c0.5-5.9-6.5-8.6-12.9-8.3c-6.1,0.3-9.1,4.3-11.4,9.1
		c-3.4,7.3-3.7,15.1-3.1,26.2c0.1,5.6,0.9,11.1,2.4,16.4c1.7,6.3,3.3,7.5,9.8,7.5c2.8,0,5.7-0.2,8.5,0c2.5,0.2,3.8-0.8,5.2-2.8
		c0,0-0.7-3.7-4.9-1.8s-0.9-3.8,1.6-3.8s6,4.7,8.2,4.7s2,1.7,2.1,2.1c0,0.2,2.5-0.9,4.7,0.5C210.6,136.1,214.6,143.5,203.5,138.3z"
		/>
	<path id="Tracé_162" class="st1" d="M259.5,109.5c-0.3-0.7-1-0.4-1.5-0.3c-5.5,0.8-11.2,0.8-16.7,0c-0.2,0-0.5-0.1-0.5,0.5
		c0.2,0.5,0.5,0.8,1,1c2.6,0.6,2.3,2.2,1.7,4.2l2,3c0.8,0.1,0.9,0.8,1.1,1.4c0.6,1.6,0.9,3.3,0.8,5c-0.2,0.4-0.4,0.8-0.7,1.1
		c-3.7,3.3-8.3,1.1-8.3,1.1s9.9-1.2-1.9-1.4c-7.7-0.1-9-1.1-9.3-1.4c0-2.4,0.1-4.7,0.1-7.1c1-0.2,1.5-1.2,1.3-2.2v-0.1
		c-0.4-2,3-2,5.2-3s1.8-3.9-0.4-2.1c-1.1,1-2.6,1.4-4,0.9c-1.7-1-3-2.9-5.3-3.3c0.7,2.9-0.9,3.1-3,2.9c-1.4-0.1-2.8,0-4.6,0
		c1.2,1.8,2.6,1.5,3.9,1.5c3.6,0,4.2,0.5,4.3,4.2c0.1,2.8,0.1,5.5,0.2,8.3c-0.4,1.9-2,3.3-4,3.4c-0.6,0.1-1.1,0.6-1.1,1.2
		c0,1.6,0.6,3.9,3.8,1.1c0.5-0.4,0.9-0.9,1.3-1.4c0,2.6,0,5.2-0.1,7.8c0.1,2-1.2,3.8-3.2,4.4c-0.6,0.2-1.2,0.4-1.8,0.6
		c-0.5,0.1-0.8,0.6-0.7,1.1c0,0,0,0,0,0l0,0c0.1,0.5,0.3,1,0.9,1h12.5l0.3-0.6c-3.2-0.9-5.3-3.9-5.3-7.2c-0.2-2.9-0.2-5.7-0.2-8.6
		c1.5,0.2,4.8,0.5,7.3,1.1c3.2,0.7,1.9,2.6,5.6,1.7c2.7-0.4,5.4-0.4,8,0.1c0,0.4-0.1,0.9-0.2,1.3c-0.3,1.2-0.8,2.6-0.5,3.6
		c1.5,4.1-0.5,5.7-4,6.5c-0.6,0.2-1.7,0.4-1.4,1.3c0.2,0.6,1.2,0.7,1.9,0.7c4.3-0.3,8.6-0.5,12.9-0.7c1.4-0.1,1.4-0.8,1.2-1.8
		c-0.2-1.3-1-0.3-1.5-0.2c-0.8,0.1-2.2,0.8-2.2-0.3c0-1.7-1.1-2.8-1.2-4.3c-0.4-5-0.4-10.1,0.1-15.1c0.5-3.8-0.1-8.5,5.3-9.7
		c0.6-0.1,0.9-0.7,0.8-1.2L259.5,109.5z"/>
	<path id="Tracé_163" class="st1" d="M222.7,159.1c3,1,3.4,3.4,3.8,5.5s0.7,4.1,3.3,4.8c1.1,0.3,0.7,1.3,0.4,2.1
		c-1.3,3.1-0.6,6.6,1.9,8.9c1,0.9,1.3,2.3,0.7,3.5c-0.6,1-0.3,2.4,0.7,3c3.7,2.3,4.2,6.7,6.4,10c0.9,1.3,2.1,2.4,2.9,3.8
		c-1.4,0.9-3.3,1.1-4.8,0.3c-1.5-0.5-2.9-0.9-4.4,0.2c-0.6,0.5-1.5,0.7-2-0.4c-0.6-1.5-1.5-1.4-2.6-0.5c-0.4,0.3-0.8,0.6-1.2,0.8
		c-0.5,0.4-1.3,0.4-1.8,0c-0.5-0.5-0.2-1.1,0-1.6c0.8-2,1.5-4.1,2.3-6.1c0.6-1.1,0.2-2.5-0.8-3.1h-0.1c-2.5-1.8-5.7-1.1-8.4-2
		c-0.5-0.2-0.6,0.5-0.7,0.8c-0.3,1.1-0.5,2.2-0.9,3.3c-0.6,1.7-0.2,2.8,1.6,3.3c0.9,0.3,2,0.8,1.7,2s-1.3,1-2.2,1.1
		c-1.9,0.2-3.9,0.4-5.8,0.7c-0.7,0.2-1.5,0-2-0.6c-1-1.1-2-1.6-3.3-0.4c-0.5,0.5-1.2,0.3-1.9,0.2c0.4-1.5,1.7-2.5,3.2-2.7
		c6.2-1.2,6.3-1.3,6.3-7.7c-2.4,1.7-2.8,0-3.2-1.8c0.1-0.1,0.2-0.2,0.3-0.2c4.9-0.5,4.9-0.5,6.4-5.4c0.7-2.2,1.1-4.6,2.4-6.6
		c0.3-0.4,0.5-1,0.3-1.4c-1.3-2.5,0-4.5,1.1-6.6C223.4,164.2,223.6,161.5,222.7,159.1z M222.4,185.5c3.8,0,3.8,0,2.8-3.7
		c-0.4-1.2-0.9-2.4-1.6-3.5c-0.5-0.9-1.1-1-1.8-0.1c-0.9,1.2-1.5,2.5-1.8,3.9C219.2,185.7,218.3,185.5,222.4,185.5L222.4,185.5z"/>
	<path id="Tracé_164" class="st1" d="M260.9,174.9c0.2,3,0,5.9-0.6,8.8c-0.9-5.4-1.2-10.9-0.9-16.3c0.3-1.9-0.9-3.7-2.8-4.1
		c-1-0.4-2.1-0.9-3-1.5c-0.7-0.4-1.2-1.2-0.9-1.8s1.3-0.5,1.9-0.2c3.3,1.8,6.8,1,10.2,1.3c2.5,0.3,4.3-1.8,6.7-1.8
		c1.3-0.1,2.5-0.2,3.8-0.1c-0.2,2.6-1.8,4-4,4.9c-1.1,0.4-1.8,1.3-1.9,2.4c-1,5.5-2.2,10.9-2.7,16.5s4,11,9,11.3
		c3.2,0.2,5.2-1.3,6-4.4c0.8-2.9,1.2-6,3.9-8.6c0,3.1,0,5.8,0,8.5c0,1.2,0,1.2,1.5,1.3c-1.7,5.1-1.7,5-7,5.1
		c-8.6,0.1-17.2,0.3-25.8,0.4c-0.7,0-1.9,0.5-2.1-0.4c-0.3-1.3,1.1-1.4,1.9-1.8c0.8-0.3,1.7-0.6,2.6-0.7c1.7-0.4,3-1.7,3.6-3.3
		c2-4.6,1.7-9.4,1.7-14.3C261.8,175.5,261.4,175,260.9,174.9z"/>
	<path id="Tracé_165" class="st3" d="M411.1,188.4c-0.9,0.4-1.7,0.9-2.3,1.6c-1.1,0.9-3.8,0.9-2.6,3.4c1.1,2.3,2.6,4.4,3.9,6.6
		c0.2,0.7-0.1,0.9-0.7,0.7s-1.2-1-2.3-0.8c0.6,1.6,1.6,3.1,2.9,4.3c0.2,0.6,0.7,1.2,1.2,1.5c0.7,1.1,1.2,2.8,2.9,1.2
		c0.7-0.6,1-0.1,1.3,0.5s0.5,0.8,0.7,1.3c2.1,4.8,5.7,7.3,11,7.3c1.6,0,3.3,0.2,3.4,2.5c0,0.9-0.2,1.1-0.9,1.2c-1.4,0-2.8,0-4.2,0.1
		s-2.8-0.3-3.6,1.6c-0.4,1.1-3.5,0.6-4-0.5c-0.7-1.7-2.4-2.6-4.2-2.4c-1.7-0.1-3.4-0.1-5.1,0c-2.2,0.3-3.1-0.8-3.8-2.6
		c-2.8-7-5.2-14-8.6-20.7c-0.4-0.8-0.6-1.7-1.6-2c-2-0.6-2.9,0.1-2.9,2.2c0,5.3,0.2,10.6,0,15.8c-0.1,2.1,0.7,3,2.6,3.3l3.3,0.6v0
		c0.1,0.6,0.4,1,1,0.5l-0.1-0.1c0,1.6-0.6,2-2.3,2.1c-3.6,0.3-7.1,0.8-10.6,1.6c-4.5,0.9-9.1,0.8-13.8,0.8c1.4-3.5,4.4-4,7.4-4.3
		c1.6-0.2,1.7-0.7,1.8-2c1.6-14.2-0.5-28.4-0.5-42.6c0-0.6-0.2-1.3-0.2-1.9c0.1-3.7-0.9-6.3-5.3-6c-0.2,0-0.5-0.1-0.7-0.2
		c-1.5-0.8-4.1-1.3-3.6-3.1c0.3-1,3.4-0.5,5.2,0c3.3,0.8,6.6,1.8,9.8,2.9c2.7,0.9,3.5,0.1,3.8-2.8c7.5,2.9,16.3,1.1,23.2,6.3
		c0.4,0.3,0.7,0.6,1,1c4.2,6.6,4.1,13-0.4,19.3C412.6,187.2,411.9,187.9,411.1,188.4z M407.9,180.2c0.9-3.6-1-6.5-1.8-9.6
		c-0.3-1.3-1.4-2.4-2.7-2.8c-2.9-1.1-6-1.2-9-1.7c-1.9-0.3-2.5,0.3-1.8,2.2c1.9,4.3,1.4,9.3-1.2,13.1c-0.5,1-0.8,2.1-0.9,3.2
		c-0.3,1.4,0.5,2.8,1.8,3.4c4.1,1.8,8.1,0.9,11.9-1C407.2,185.7,408.6,183.4,407.9,180.2L407.9,180.2z"/>
	<path id="Tracé_166" class="st1" d="M353.2,167.4c0.8,1.7,0.8,3-0.7,4c-0.9,0.7-1,1.8-1.3,2.8c-0.4,1.8-0.7,3.6-2.1,5
		c5.3,1.3,7.9-0.4,8.1-5.3c0-0.7,0-1.5,0-2.2c0-0.5,0.2-0.8,0.7-0.8s1,0,1.1,0.7c0.7,2.7,0.7,5.5,0,8.2c0,0.2-0.1,0.3-0.2,0.4
		c-1.7,1.2-1.6,1.2-1.4,3c0.3,2.2,1.6,4.3,1.1,7c-1.2-2.4-1.4-4.8-2.3-6.9s-2.4-1.9-4-1.7s-2.9,0.7-2.5,2.8c0.2,0.9,0,2,0.1,2.9
		c0,0.5-0.7,1.8,1,1.2c0.6-0.2,0.4,0.7,0.3,1.1c-0.1,1.6,0.4,3.1,1.5,4.2c1.2,1.6,3.4,1.9,5,0.7c0,0,0,0,0,0
		c0.2-0.2,0.5-0.4,0.7-0.6c1.4-1.5,2.9-3,4.6-4.8c-0.2,2.5-2.7,3.7-2.2,6.5c3.8-3,6.8-6,6.6-11.2c1,1.4,0.6,2.7,0.4,3.9
		c-0.3,2.5-1.4,4.9-0.4,7.6c0.4,1-1.1,1.1-1.9,1.2c-2,0.3-4,0.4-6.1,0.5c-2.4,0.1-4.8,1-7.1,1.1c-3.3,0.2-6.6,0.2-9.8-0.2
		c-1-0.1-1.9-0.2-2.9-0.4c-0.5-0.1-1.3-0.1-1.4-0.8c-0.1-0.7,0.4-1.3,1.1-1.4h0.1c4.2-0.4,3.9-3.3,3.9-6.3c-0.1-4.3,0-8.6,0-12.9
		c-0.1-1.5,0.1-3.1,0.7-4.5c0.9-2.2-0.2-4.3-2.4-5.8c-1.3-0.8-3.4-1.5-3-3c0.3-1.2,2.6-0.4,4-0.4c4.3,0,8.6,0,12.9,0.1
		c0.7-0.1,1.5,0,2.2,0.1c3.7,1.4,6.3,0.6,7.5-3.4c0.1-0.5,0.6-0.8,1.1-0.8c0.7,0.1,0.8,0.7,0.9,1.3c0.1,2.6,0.6,5.3,0,7.8
		c-0.5,1.9-2.5,3.5-3.3,5.6v-4.1c-0.8-0.3-1.4,1.9-1.9,0c-0.6-2.4-2.2-2.4-4.1-2.3C356.2,167.5,354.9,167.4,353.2,167.4z"/>
	<path id="Tracé_167" class="st2" d="M159.6,159.1c-3.1,6.3,0.5,13.7-2.6,19.6c-2.4-3.6-2.7-3.6-4,0.5c-2.6,8.1-5.2,16.2-7.8,24.2
		c-0.4,1.1-0.4,2.5-1.7,3.2c-6.8-15.5-9.6-23.4-11.2-34.5c0.2-5.5,0.6-8.4,5.7-10.4l-0.4-1c-5.8,0-11.7,0-17.5,0
		c-0.8,0-1.1,0.9-1.3,1.7c-0.2,0.8,0.2,1.6,1,1.9c0.8,0.4,1.7,0.7,2.6,1.1c2.8,1.3,3.2,3.1,4.4,7.7c3.5,13.6,5.2,24,9.7,35.7
		c2.2,5.7,2.3,7.2-2.8,7.3c-1.8,0-3.8-0.4-5.5,2.7c2.1,0.1,4.3,0.1,6.5,0c3-0.3,5.3,0,4.3,5c3.3-0.7,5-3.9,7.5-5.7
		c0.7-0.5,1.1-1.5,2.2-0.2c2.2,2.6,4.1,2.2,5.8-1c1-1.9,1.6-4.1,1.7-6.3c0.3-10.9,4.3-20.2,7.9-30c2.1,2,1.2,6.3,1.9,8.8
		c2.2,7.1,4.1,13.8,5.8,21.2c0.8,3.5,2.2,5.4-1.5,6.4c-0.8,0.2-1.2,1.2-1.5,1.7c0,1,0.5,1,0.7,0.9c7.7-1.4,15.7-1.4,23.4,0
		c0.7,0.1,1.7,0.6,2.1-0.6c0.3-0.9-0.1-2-1.1-2.3c-7.6-2.1,3-10.2,2.3-16.8c-0.7-8.8-0.8-17.5-0.2-26.3c0.1-2.5,1.8-4.5,1.7-7.4
		c0-1.8,2-0.8,3.1-0.5c0.7,0.1,1.7,1.8,2-0.4c0.2-1.6,0.2-3-1.7-3.1c-6-0.3-12.1-0.8-18.1-1.2c-1.1-0.1-2.4,0.1-2.7,1.2
		c-0.4,1.6,1.1,2.1,1.9,2.3c5,1.5,7.8,4.3,5.7,11.4c-0.5,1.7,0.2,4.2,0.7,6.2c0.5,2.3,0.5,4.3-1.1,6c-0.6,0.5-0.8,1.4-0.4,2.2
		c1.8,4-1.2,8.4-3.8,11.2c-1.7,1.3-3.7,2.3-5.8,3c-1.3,0.2-3.1-3.8-3.5-4.8c-2.3-6.8-2.2-12-3.9-19c-1.3-5.6-4.7-10.5-7-15.7
		C162.5,162.7,161.3,160.7,159.6,159.1z"/>
	<path id="Tracé_168" class="st1" d="M306.1,170.9c-0.1,1.5,0.2,3.1,0.7,4.5c1,3.1-0.5,6-0.3,9.7c0.2,2.9-0.6,5-3,8.2
		c-1.2,1.6-2.1,2.7-4.3,3c-1,0.1-2,0.4-2.9,0.9c-0.5,0.3-0.8,0.6-0.6,1.1s0.8,0.3,1.2,0.3c2.9,0,5.9-0.2,8.7,0.6c0.2,0,0.4,0,0.6,0
		c3.5-1.2,7.3-1.3,10.9-0.3c0.4,0.2,1,0.2,1.4-0.1c0.2-0.2,0-0.6-0.2-0.8c-0.8-1.5-2.5-2.3-4.4-2.7c-0.7-0.2-1.5-0.2-1.5-1
		c0-3.9-1.4-7.8,1.4-11.6c1.9-1.9-0.7-7.5-0.7-7.5s2,4.6,2,2.9s-1.8-4-2.6-9.2s4.2-6.2,4.2-6.2c0.2-1,1.6-1.2,4.1-0.9
		c3,0.4,6,0.4,9,0.2c1.6,0,3.2-0.5,4.4-1.4c0.4-0.3,0.2-0.8-0.8-1c-1.7-0.5-17.1-0.9-18.5-0.4c-5.4,1.9-13.3,1.5-20.1,2.1
		c-1.5,0.1-3.5,0-4.5,0.5c-2.1,0.8,0.8,4.8,3.9,5.6c1.1-1,2.2-2,3.2-3c0.8-0.6,1.8-0.9,2.8-0.8c1.8-0.1,4.7,0.2,5.3,0.5
		c1.4,0.7,1.9,2.3,1.3,3.7C306.4,168.8,306.2,169.9,306.1,170.9z"/>
	<g id="Groupe_4">
		<path id="Tracé_169" class="st4" d="M221.3,229.9c-0.7,0.4-1.5,0.6-2.3,0.6c-1.1,0.1-2.2-0.4-3-1.2c-0.8-0.8-1.2-2-1.1-3.1
			c-0.1-1.3,0.4-2.5,1.2-3.4c0.9-0.9,2-1.4,3.3-1.3c0.7,0,1.4,0.1,2,0.4v1.4c-0.6-0.4-1.3-0.7-2.1-0.7c-0.8,0-1.6,0.3-2.2,0.9
			c-0.6,0.7-0.9,1.6-0.8,2.5c0,0.9,0.2,1.7,0.8,2.4c0.5,0.6,1.3,0.9,2.1,0.9c0.8,0,1.5-0.3,2.1-0.8L221.3,229.9z"/>
		<path id="Tracé_170" class="st4" d="M230.4,230.3H229v-1.4l0,0c-0.5,1-1.5,1.6-2.7,1.6c-2,0-3.1-1.2-3.1-3.7v-5.2h1.4v4.9
			c0,1.8,0.7,2.7,2.1,2.7c0.6,0,1.2-0.3,1.7-0.8c0.5-0.5,0.7-1.2,0.7-2v-5h1.4L230.4,230.3z"/>
		<path id="Tracé_171" class="st4" d="M237.6,223c-0.3-0.2-0.6-0.3-1-0.3c-0.6,0-1.2,0.3-1.5,0.8c-0.4,0.7-0.6,1.5-0.6,2.3v4.4
			h-1.4v-8.6h1.4v1.7l0,0c0.2-0.5,0.5-1,0.9-1.4c0.4-0.3,0.9-0.5,1.3-0.5c0.3,0,0.6,0,0.8,0.1L237.6,223z"/>
		<path id="Tracé_172" class="st4" d="M243.6,223c-0.3-0.2-0.7-0.3-1-0.3c-0.6,0-1.2,0.3-1.5,0.8c-0.4,0.7-0.6,1.5-0.6,2.3v4.4
			h-1.4v-8.6h1.4v1.7l0,0c0.2-0.5,0.5-1,0.9-1.4c0.4-0.3,0.9-0.5,1.3-0.5c0.3,0,0.6,0,0.8,0.1L243.6,223z"/>
		<path id="Tracé_173" class="st4" d="M245.8,219.4c-0.2,0-0.5-0.1-0.6-0.2c-0.2-0.2-0.3-0.4-0.3-0.6c0-0.5,0.4-0.9,0.9-0.9
			c0,0,0,0,0,0l0,0c0.2,0,0.5,0.1,0.7,0.3c0.3,0.4,0.3,0.9,0,1.3l0,0C246.3,219.3,246.1,219.4,245.8,219.4z M246.5,230.2h-1.4v-8.6
			h1.4V230.2z"/>
		<path id="Tracé_174" class="st4" d="M255.2,229.9c-0.7,0.4-1.5,0.6-2.3,0.6c-1.1,0.1-2.2-0.4-3-1.2c-0.8-0.8-1.2-2-1.1-3.1
			c-0.1-1.3,0.4-2.5,1.2-3.4c0.9-0.9,2-1.4,3.3-1.3c0.7,0,1.4,0.1,2,0.4v1.4c-0.6-0.4-1.3-0.7-2-0.7c-0.8,0-1.6,0.3-2.2,0.9
			c-0.6,0.7-0.9,1.6-0.8,2.5c-0.1,0.9,0.2,1.7,0.8,2.4c0.5,0.6,1.3,0.9,2.1,0.9c0.8,0,1.5-0.3,2.1-0.8L255.2,229.9z"/>
		<path id="Tracé_175" class="st4" d="M264.2,230.3h-1.4v-1.4l0,0c-0.5,1-1.5,1.6-2.7,1.6c-2.1,0-3.1-1.2-3.1-3.7v-5.2h1.4v4.9
			c0,1.8,0.7,2.7,2.1,2.7c0.6,0,1.2-0.3,1.7-0.8c0.5-0.5,0.7-1.2,0.7-2v-5h1.4L264.2,230.3z"/>
		<path id="Tracé_176" class="st4" d="M268.4,230.2H267v-12.8h1.4V230.2z"/>
		<path id="Tracé_177" class="st4" d="M278.2,230.3h-1.4v-1.4l0,0c-0.5,1-1.5,1.6-2.7,1.6c-2,0-3.1-1.2-3.1-3.7v-5.2h1.4v4.9
			c0,1.8,0.7,2.7,2.1,2.7c0.6,0,1.2-0.3,1.7-0.8c0.5-0.5,0.7-1.2,0.7-2v-5h1.4L278.2,230.3z"/>
		<path id="Tracé_178" class="st4" d="M293.2,230.3h-1.4v-5c0.1-0.7-0.1-1.4-0.5-2.1c-0.3-0.5-0.9-0.7-1.5-0.6
			c-0.6,0-1.2,0.3-1.5,0.8c-0.4,0.6-0.6,1.2-0.6,1.9v4.9h-1.4v-5.1c0-1.7-0.7-2.5-2-2.5c-0.6,0-1.2,0.3-1.5,0.8
			c-0.4,0.6-0.6,1.3-0.6,2v4.9h-1.4v-8.6h1.4v1.4l0,0c0.5-1,1.6-1.6,2.7-1.6c1.1,0,2.1,0.7,2.4,1.8c0.5-1.1,1.6-1.8,2.9-1.8
			c1.9,0,2.8,1.2,2.8,3.5L293.2,230.3z"/>
		<path id="Tracé_179" class="st4" d="M307.3,221.6l-3.4,8.6h-1.4l-3.3-8.6h1.5l2.2,6.3c0.1,0.4,0.2,0.8,0.3,1.2l0,0
			c0-0.4,0.1-0.8,0.3-1.2l2.3-6.3L307.3,221.6z"/>
		<path id="Tracé_180" class="st4" d="M309.5,219.4c-0.2,0-0.5-0.1-0.6-0.2c-0.2-0.2-0.3-0.4-0.3-0.6c0-0.5,0.4-0.9,0.9-0.9
			c0,0,0,0,0,0l0,0c0.2,0,0.5,0.1,0.6,0.3c0.4,0.3,0.4,0.9,0,1.3c0,0,0,0,0,0l0,0C309.9,219.3,309.7,219.4,309.5,219.4z
			 M310.1,230.2h-1.4v-8.6h1.4V230.2z"/>
		<path id="Tracé_181" class="st4" d="M316.9,230.2c-0.4,0.2-0.8,0.3-1.3,0.3c-1.5,0-2.3-0.8-2.3-2.5v-5.1h-1.5v-1.2h1.5v-2.1
			l1.4-0.5v2.5h2.2v1.2h-2.2v4.8c0,0.4,0.1,0.9,0.3,1.2c0.3,0.3,0.6,0.4,1,0.4c0.3,0,0.6-0.1,0.9-0.3L316.9,230.2z"/>
		<path id="Tracé_182" class="st4" d="M324.9,230.3h-1.4v-1.3l0,0c-0.5,1-1.5,1.6-2.7,1.5c-0.7,0-1.4-0.2-2-0.7
			c-0.5-0.5-0.8-1.1-0.7-1.8c0-1.6,1-2.5,2.8-2.8l2.6-0.4c0-1.5-0.6-2.2-1.8-2.2c-1,0-2,0.4-2.8,1.1v-1.4c0.9-0.5,1.9-0.8,2.9-0.8
			c2,0,3,1.1,3,3.2L324.9,230.3z M323.6,225.9l-2.1,0.3c-0.5,0-1,0.2-1.4,0.5c-0.4,0.3-0.5,0.7-0.5,1.2c0,0.4,0.2,0.7,0.5,1
			c0.3,0.3,0.8,0.4,1.2,0.4c0.6,0,1.3-0.2,1.7-0.7c0.4-0.5,0.7-1.1,0.7-1.8L323.6,225.9z"/>
		<path id="Tracé_183" class="st4" d="M334.5,226.3h-6.1c0,0.8,0.2,1.6,0.8,2.2c0.5,0.5,1.3,0.8,2,0.8c1,0,1.9-0.4,2.7-1v1.3
			c-0.9,0.6-1.9,0.9-3,0.8c-1.1,0.1-2.1-0.4-2.9-1.2c-0.7-0.9-1.1-2.1-1-3.3c-0.1-1.2,0.4-2.4,1.1-3.3c0.7-0.8,1.7-1.3,2.8-1.3
			c1-0.1,2,0.3,2.6,1.1c0.7,0.9,1,1.9,0.9,3L334.5,226.3z M333.1,225.1c0-0.7-0.2-1.3-0.6-1.9c-0.4-0.4-1-0.7-1.6-0.7
			c-0.6,0-1.2,0.2-1.7,0.7c-0.5,0.5-0.8,1.1-0.8,1.8L333.1,225.1z"/>
	</g>
</g>
</svg>
