<svg id="Calque_1" data-name="Calque 1" xmlns="http://www.w3.org/2000/svg" viewBox="0 0 549.3 308.73"><defs><style>.cls-1{fill:#a0d6e5;}.cls-2{fill:#06415d;}.cls-3{fill:#25769d;}.cls-4{fill:#286a87;}.cls-5{fill:#5abbdb;}</style></defs><g id="Groupe_2" data-name="Groupe 2"><path id="Tracé_1" data-name="Tracé 1" class="cls-1" d="M1056.55,633.23c-2.56-2.24-5.09-2.28-8-.38-1.76,1.16-3.93,1.7-5.91,2.51-9,1-19-1-25.2,8.56-.7,1.1-2.45,1.52-3.72,2.25-11.83,3-24,4.62-36,3-9-1.2-18.1-1.68-27.09-3-4.34-1-8.65-2-13-2.8-2.76-.48-5.09-1-6.21-4.1-.83-2.21-3.14-3.35-4.71-5-4.93-5.24-12.3-7.83-15.44-15.17-1.25-2.94-5.11-4.39-8.49-4.31-2,.05-4.59,1.75-4.52,4,.17,5.13-3.28,4.8-6.28,4.45-7.1-.81-12.52-5-17.48-9.76a3.83,3.83,0,0,1-.65-3.79c1.14-4.63-1.6-6-5.37-6.32-5.56-.49-10.6,2-15.88,3-2.87-.39-4.74-2.5-7-4-1-3.28-2.24-6.27-6.58-6.23-1.74,0-3.05-1.58-3.94-2.81s1-.56,1.41-1c1.76.38,3.52.74,5.28,1.14.9.21,2,.91,1.85-.94-.1-1.12.5-1.46,1.48-1.27s1.72.84,1.33,1.69c-1.14,2.52.95,2.56,2.24,3,3.93,1.44,8.06,1.71,12.19,2,1.82.11,3.63.37,5.44.38,2.3,0,4.58,4,7.1-.67,1.07-2,13.36,1.91,15.61,4.46-.94.3-1.9.56-2.82.92-1.63.63-4.76,0-3.77,3.1.73,2.25,3,3.4,5.64,3.1,1.94-.22,2.4-2.15,3.8-3,4.52,2.23,8,.54,11-3,2-2.05,1.68,0,2.1,1.13,3.47,9.07,14.37,12.72,20.68,7l5,5-1.9,2c0,2.53,2.08,3.58,3.65,5,9.39,8.56,22.74,10.56,32,19.32a4,4,0,0,0,1.83.75c13.24,3,26.49,4.2,38.73-3.14,12.83-7.7,26.25-13.07,41.23-15a45.19,45.19,0,0,0,27.46-14,113.39,113.39,0,0,1,10.48-9.23c6.93-5.64,14.89-10.07,20.48-17.31a4,4,0,0,1,3.6-1.37c8.38.69,13.41-4.67,18.4-10.12,5.37-4.86,8.61-11.38,13.14-16.9,10.59-16,16.53-34.1,23.13-51.9,3.87-8.95,7.41-18,9.22-27.62.83-4.42,2.33-9,.54-13.59-.86-2.7.1-6.1-3-7.95l-1.36-.54c-1.76-4.11-3.51-4.61-6.69-1.41a76.76,76.76,0,0,0-11,13.93c-4.89,6.68-9.88,13.28-14.64,20.06-10.08,14.32-21.73,26.79-37.88,34.53-5.59,2.68-9.73,7.4-13.26,12.53q-8.65,11.26-17.28,22.54a11.89,11.89,0,0,0-1.66,3.05c-.86,2.34-.28,3.5,2.51,3a65.24,65.24,0,0,0,12.37-3.79c9.93-4,20.38-7,29-13.84v0l2-.94c2.57-.24,4.65-1.68,6.85-2.79,16.59-8.3,26.32-22.88,35.07-38.35,1,.8.9,2,1,3.06.1,2.57-1.85,4.47-2.22,6.88l0-.13a81,81,0,0,1-16,18.78c-3.71,3.3-7.4,6.62-10.09,10.87-2,3.08-3.39,6.85-1.43,9.73s.06,3.72-1.33,5a35.18,35.18,0,0,1-4,2.86c-11.3,6.48-22.21,13.63-33.86,19.5l-.1-1.31a81.57,81.57,0,0,0,22.16-21.07c1.38-2,3.56-4.82,2.21-6.62-1.63-2.18-4.79-.28-6.81.82-9.17,5-18.84,8.8-28.52,12.62-12.83,7.22-28,9.81-40.28,19,2.9,2.28,5.28-1.55,7.88,1.65-10.13,1.26-18.63,6.67-28.22,8.3-8,1.36-16.17,1.53-24.26,2.23-5,.47-10.12.28-15,1.67-4.74-.3-9.21,1-13.61,2.5a14.54,14.54,0,0,1-7.32.39c-10-1.64-19.83-1.3-28.77,4.4-1.73-.55-3.5-1-5.19-1.69-4.72-1.88-7.22-6.49-5.6-10.18,2.84-6.47,2.22-7.51-4.86-8.09a1.59,1.59,0,0,1-.61-.13,98.57,98.57,0,0,0-13.32-6.36c-8.86-3.7-17.19-10.19-27.83-7.64l-.72,0c-1.93-.1-3.87-.11-5.79-.31-2.27-.23-4.67-2-6.6.73l-9.81-3.68c-8.25-3.84-17.7-2.66-26.56-5.58,6.31-7.55,13.32-11.49,22.66-10.35,1.61.2,4,.94,4.7-1.49s-1.18-3.87-2.88-4.77c-4.55-2.42-9.23-4.77-14.65-2.74a10.79,10.79,0,0,1-8.2-.41c-3.69-1.49-7.59-2.53-11.16-4.25-3.9-1.88-9-.86-12-4.13-4.11-4.48-9.31-6.16-14.79-7.6s-8.86,1.64-7.85,7.26a21.48,21.48,0,0,0,1.78,5.65c.88,1.79.22,2.41-1.34,2.83a58.83,58.83,0,0,1-12.68-2.36l-1.93-2.9c-3.94-3.86-9.28-5.89-13-10,4.06,0,6.84,3.18,10.51,4.15,1.45.38,3,1.28,4.17,0s-.3-2.47-.83-3.55c-2.05-4.25-5.5-6.82-9.89-8.53-7-2.74-14.88-4.85-20.61-9.14-7.67-5.72-13.24-14.25-19.67-21.6-1.15-1.31-.8-2.08,1-1.95.29.34.61.62.95.1,0-.05-.32-.37-.5-.56q-4.09-7.78-8.2-15.58l-1.45-5.4c-2,.3-3.3,2.53-4.86,1.25-1.33-1.08-.64-3.13-.6-4.76a10.91,10.91,0,0,1,2.33-5.95c6-8.46,14-13.13,24.74-12.54a28.91,28.91,0,0,0,14-3c1.43-.68,3.43-1.06,3.56-3.07.15-2.46-2.75-1.3-3.6-2.69,3.8-1.5,7.06.78,10.52,1.57,2.74.62,5.38,2.07,8.25,1.52,10.1-1.94,19.39.73,28.59,4.52,4.27,1.76,8.5,3.69,13.06,4.76a15.57,15.57,0,0,0,6.89.26c6.63-1.42,11.43,3,10.72,9.55a42.12,42.12,0,0,0,2.21,19.65c4.57,12.08,15.59,15.74,28.1,14.63a26.47,26.47,0,0,0,3.41-.71c6.81-.61,11.53,4.7,18.26,6.86-3-4.64-6.83-8.18-3.62-13.54.67-1.13-.74-2.38-1.43-3.5-3.14-5.13-8.42-4.16-13.18-4.7-4.74-3-8.53-6.69-10.42-12.15-.83-2.41-3-3.82-5.18-5.25,5.89-.53,8.86,1.89,11.56,7.17,1.31,2.55,3,6.55,7.68,5a2.1,2.1,0,0,1,1.84.52c3.66,4.51,8.46,3.22,13.17,2.82,8.64-.72,14,4.34,18.07,11,2.42,3.93,4,8.37,6.6,12.18,7.81,11.6,18,20.09,32.17,22.69a4.09,4.09,0,0,1,3.69,4,59.46,59.46,0,0,1-.09,6c-1.11-.59-.95-2.87-2.74-2.36-6.62,1.84-10.44-2.59-14.55-6.34-3.87-3.53-7.77-6.77-13.55-4.57l-.16-.19c.39-1-.3-1.25-1.07-1.41C885,506.4,873,500.65,858.77,502.67a13.45,13.45,0,0,1-6.37-.81,46.32,46.32,0,0,0-29.23-.54c-8.65,2.57-12.48,8.19-12,17-.45-.44-1.11-.8-1.31-1.34-2.53-6.68.22-12.82,7.65-17.37,1.45-.88,4.2-.83,3.77-3.2-.37-2-3-2.15-4.59-2.34-7.09-.81-12.14-4.64-16.62-9.86a38.09,38.09,0,0,0-8.34-7.79,29.6,29.6,0,0,0-2.79-2.81c-5.91-4.65-11.13-10.39-19-12-1.63-.33-3.43-1-4.7.32s-.32,3.09.29,4.62c1.15,2.9,2.25,5.82,3.36,8.74-.26,2.34,2.85,3.87,1.55,6.53l-5.71-7.43-1-.1.1.05c.25-4.25-4.38-4.22-6.06-6.9-3.76-6-12.5-8.69-18-1.45-3.15,4.12-4.89,8.09-3.38,13.2.7,2.36,1.21,4.78,1.8,7.17-3.62-1.42-4,.31-3.12,3.23,3.81,13,13.59,19.48,25.75,23.24a10,10,0,0,0,4.44.35c11.15-1.84,21.83-1.94,30.35,7.72-4.42-7-9-13.59-14.8-19.15a22.79,22.79,0,0,1-6.88-15.15c.31.1.76.1.9.31,7.1,10.63,15.62,20.27,22,31.4.79,1.37,1.52,4,3.16,3.32,3.65-1.44,8.15,0,11.16-3.31,4.36,3.46,9.54,3,14.62,3l11.33,4a42.91,42.91,0,0,1-5.28-11.08c5.34-.69,8.58,3,11.77,6.14,5.16,5.12,10.58,8.51,18.36,7.89,6.82-.55,13,2.46,19.44,4.71,8.68,3,18.07.91,27.14,1.21,7.45.44,14.85.61,21.38-4,7-3.39,13.65-7.4,21.24-9.25,4.54-1.11,9.23-2.2,12.3,3.11,1.18,2,3.36,1.16,5,.92,15.35-2.25,30.7-4.63,45.68-8.69a39.34,39.34,0,0,0,17.44-10.15c2.88-2.87,5.66-5.53,10-5.85,2-.15,3.53-1.74,5.2-2.8,6.93-4.43,14.24-7.78,22.65-8.08a20.14,20.14,0,0,1,10.59,2.15c1.69.92,3,1.17,4.31-.46a5.25,5.25,0,0,0,4.93-1.7c2.14-2.59,2.16-6.1,3.32-9.13l.36-.82.73-.9,1-1.18,0,.05c3.8-2.23,4-8.71,9.92-8.47.2,0,.49-.42.6-.7,1-2.58,1-2.58,3.45-2.83-2.35,4.06.83,7.54,1.21,11.31.1,1,1,1,1.86,1,6,.11,8.3-2.66,7-8.34,3.58-3.66,8.75-6.05,9.72-12.27-2.88.61-4.34-.61-4.83-3.35-1.68-9.23.58-12.59,10-14.56,3.36,3.09,5.63,6.56,5.14,11.49-.28,2.83,1.63,2.28,3.29,1.38,5.68-3.08,5.64-8.76,5.88-14,.1-2.16.35-3.16,2.32-4.17,6.15-3.12,7.76-15.22,2.32-19.63-2.3-1.87-2.82-3.58-3-6.17-.23-3.94-3.58-6.94-6.56-5.4-3.54,1.84-5.51.19-7.8-1.65a15.79,15.79,0,0,0-6.15-2.87c-6.39-1.7-12.67-2.46-19.17-.93-1,.24-2.65.3-2.73-1.32s1.47-1.43,2.59-1.56c2.61-.3,5.33.65,7.84-.74,13.4-1.38,24.69,4.13,35.57,10.93,1.51.94,2.6,2.59,4.58,2.73l3,0-.06,0c5.82,10.13,9.65,20.88,10,32.68,0,1.55,1.1,2.3,2.15,3.12,5.34,4.21,7.25,10.09,7.76,16.53.17,2.21.28,4.27,2.09,5.82-.74,8.92-3.76,17.23-7.8,25-5.93,11.5-11.07,23.35-16.42,35.12-4.43,9.73-9.55,19-12.38,29.55-4.46,16.55-15.18,27.75-32.36,32a67.34,67.34,0,0,0-6.77,2.43c.8,2.62,3.19,3.34,5,4.6,13.77,9.71,28.66,15.93,46,15.08,7.89-.38,14.49,4.38,21.79,6.44,1.4,1.33,3.63,0,5,1.51a96.93,96.93,0,0,1-11.43-.47c-10-.79-19.26-5.16-29.2-6.12-7.44-.72-14.1-3.6-20.68-6.86-2.66-1.32-5.44-2.4-8.17-3.59l-1.38-.73-1-.24c-13.75-7.31-12.55-6.83-21.37.55,8.48,5.87,18.47,6.18,28.2,7.53,5.2,2.64,11.22,3.4,16,7,0,.33,0,.65,0,1-4.89.08-9-3.43-13.94-3.1a31,31,0,0,0-4.28-.9c-1.58-.13-3.52-.69-4.52,1.09s.73,2.71,1.51,3.87c3,4.37,6,8.68,9,13,4.47,13.26,17.3,20.1,24.28,31.73,4.6,7.68,13.83,12.06,21.4,17.44,5,3.58,10.06,5.87,16.15,4.83,8.29-1.41,15.37,1.27,22,5.8,2.33,1.58,4.77,3,7.16,4.51a.37.37,0,0,0,.06.54.3.3,0,0,0,.16.08h-27c-1.13-1.2-2-2.81-3.42-3.55-10-5.28-19.75-11.14-31-13.24a18,18,0,0,1-12.24-7.78c-2.71-4-6.52-5.63-12-6.87,2.6,7.43,5.91,13.63,11.69,17.19,4.5,2.77,5.33,6.2,5.68,10.52-.4-.3-.8-.58-1.18-.89-7.1-5.74-11.18-15-20.92-17.72-1.13-.32-2.06-2.13-2.66-3.43a96.53,96.53,0,0,1-3.7-9.23c-1.67-4.84.3-8.61,5.31-10.13a59.79,59.79,0,0,1,6.91-1.21c-4.81-8-9.28-15.9-15-23-1-3.31-1.88-6.64-4.21-9.33a3.81,3.81,0,0,0-2.21-2.35c-3-3.13-6.69-5.38-10.2-7.86-.9-.64-2.6-1.75-3-.65-1.84,4.68-5.46,2.49-8.45,2.53-8.18.09-13.75,8.82-10.34,16.12,2.25,4.8,6.16,8.12,9.76,11.74-1.67,2-.1,3.38,1,4.76,3.17,4.09,6.6,7.91,11.22,10.44l.33,1.8c-4-1.19-7.24-3.73-11-5.59-1.73,8.76-.52,13.93,5.45,19.55,8.5,8,17.56,15.15,30.26,14.7a8,8,0,0,1,3.2,1.15c6.45,3,12.35,6.9,18.41,10.55.66.4,1.51,1.19,2,.2.22-.44-.59-1.41-.93-2.15l10.25,3.7h-50c-5.6-5-12.54-8.55-17-14.9.43-2.64-2.68-4.44-1.9-7,2-6.5-1.51-10.27-6.67-12.61-3.36-1.52-3.66-3.33-3.68-6.68,0-4.15,3-8.63-.31-12.49-5.34-6.21-5.82-13.46-5.25-21.06.07-.9,1-2-.29-2.62-1-.47-1.93.33-2.66.94-3.17,2.66-6,5.77-9.46,8C1056.39,627.85,1055.62,630,1056.55,633.23Zm-141.49-68c.93,3.5,1.2,7.22,3.6,10.2h0c.85,9.15,7.05,11.18,15,12.68,22.19,4.2,44.41,5.8,66.83,3,5.52-.68,12.42.52,14.93-7.12.28-.88,1.81-1.37,2.78-2,2.34-1.53,4.68-3,7-4.56l1.66-.84c7-3,13.8-6.48,21.18-8.48a17.59,17.59,0,0,0,9.66-6.55c4.63-2.24,5.51-7.89,9.25-10.63,7.13-5.24,10.77-12.33,12.88-20.53,1.16-4.53-.14-6.16-5-5.86-4.48.28-8.6,2-12.8,3.53-9.78,3.44-18.92,8.69-29.29,10.5a10.54,10.54,0,0,1-.77-2.86c.15-4.84-2.1-4.78-5.8-3.4-5.43,2-11.1,3.39-16.55,5.35-8.33,3-17.26,3.45-25.56,6.13-6.47,2.08-12.69,1.21-19.08,1.35-8.58.19-16.34,3.79-24.17,6.88-.09,0-.08.31-.11.47l-1.12,2.89-12.84,3.13h-4.16a31.3,31.3,0,0,1-9.55-3.87l-2.46-.23c-4.11-1.68-7.51-4.92-12.1-5.59-3-1.1-6,.09-9,.28-6.32.4-6.89.92-4.55,7.15,5.19,12.06,14.12,13.21,24.64,12.78a4.33,4.33,0,0,0,4.16-3.67ZM787.72,460.47c.15,2,.46,3.89,2.73,5.43,0-2.79-1-4.33-2.67-5.48-.28-4.4-3.85-9.26,2-12.82,1-.61.36-2-.92-2-4.52.14-8.37-1.95-12.43-3.37-1.06-.38-2.32-1.15-3.15.15s.13,2.36,1,3.08C779.47,449.83,783.44,455.29,787.72,460.47Zm-62,24c1.72,2.82,3.58,5.49,7,7.27a12,12,0,0,0-1.81-7.35c4.64-3.31,2.77-8.06,2.74-12.4a36.27,36.27,0,0,1,.86-8.88c1.72-7.2-2-15.33-8.57-18.25a6.71,6.71,0,0,0-8.17,1.68,16.37,16.37,0,0,0-4.1,10.93C713.35,468.37,719.06,476.64,725.68,484.48Zm363.31,31c2.35,0,4.59.3,6.5-1,6.74-4.5,13.42-9.11,18.8-15.29,1.67-1.91,3.18-4.06,1.63-6.71s-4.21-3.59-7.29-2.89a12.3,12.3,0,0,0-6.9,4.5c-3.62,4.36-6.27,9.56-12.35,11.77-3.18,1.15-4,5.55-4.55,8.81C1084.62,515.94,1087.68,515.12,1089,515.45ZM739.06,461c3.45-2.16,4.9-5.84,8.82-5.69.33,0,1-.68,1-.8-1.79-4.34,2.26-8.14,1.49-11.88-.9-4.35-5.27-2.73-8.24-2.1-2.71.58-7.76.4-6.42,4.63A70.43,70.43,0,0,1,739.06,461Zm144.26,80.24c-4.51-1.2-8.33-5-10.93-1.54-2.75,3.62,2,6.66,3.42,10.07A17.27,17.27,0,0,1,883.32,541.28Zm-33.27,9.21c-1.55,0-2.36.84-2.22,2.2a3.72,3.72,0,0,0,3.83,3.59h.14c1.48,0,2-1.07,1.79-2.37A3.88,3.88,0,0,0,850.05,550.49ZM762.16,442.25c.29-1.53-.75-1.66-1.75-1.72-2-.13-4.27,0-4.8,2.35-.31,1.36,1.22,2.2,2.61,2.4C760.54,445.61,761.17,443.66,762.16,442.25Zm-28.87,50.36-.15.28.25,0Z" transform="translate(-685.35 -385.63)"/><path id="Tracé_2" data-name="Tracé 2" class="cls-2" d="M1214.37,693.69c-2.38-1.5-4.82-2.93-7.15-4.51-6.67-4.54-13.76-7.21-22-5.8-6.1,1-11.12-1.26-16.15-4.83-7.57-5.39-16.8-9.76-21.41-17.44-7-11.63-19.8-18.47-24.27-31.73,4.19-.84,8.16,1.27,12.32.89,6,3.26,11.87,6.87,19,7.07,2.65,1.39,6.66.9,7.25,5.23,0,.17,1.47.5,1.73.23,2.11-2.11,3.42-.26,5,.76,2.19,1.37,4.42,2.78,7.16,2.85a1.86,1.86,0,0,0,1.08,2.4l.06,0c6.85,3.67,13.42,8.32,20.71,10.55,3.9,1.19,8,1.84,11.72,3.82,6.83,3.65,13.18,8.34,21,9.89l.17.33c-.08,6.21-2,11.51-7,15.63-1.82,1.5-4.24,2.67-5,5.26h-2C1216.2,692.87,1215.61,692.12,1214.37,693.69ZM1212.9,669c-2.77-2-4.82-3.75-8.54-3.68,2.33,3,4.49,4.56,8.55,3.68Z" transform="translate(-685.35 -385.63)"/><path id="Tracé_3" data-name="Tracé 3" class="cls-3" d="M1135.53,614.43c-4.77-3.62-10.79-4.39-16-7-.13-2.18-2-1.74-3.25-2a9.32,9.32,0,0,1-5.4-3.28c-2-2.52,0-2.62,1.82-2.76l1,.24,1.38.73c2.72,1.19,5.5,2.27,8.16,3.59,6.58,3.26,13.25,6.13,20.68,6.86,10,1,19.18,5.33,29.2,6.12a99.21,99.21,0,0,0,11.43.47,38.2,38.2,0,0,0,3.87-.7c15.27-4.49,30.65-4.41,46.12-1.28v14c-8.46-.92-16.66-3.09-24.87-5.2a18,18,0,0,0-10.32,0,31.59,31.59,0,0,1-18.69.15c-14.39-4.07-29.73-3.94-43.7-9.85A3.88,3.88,0,0,0,1135.53,614.43Z" transform="translate(-685.35 -385.63)"/><path id="Tracé_4" data-name="Tracé 4" class="cls-4" d="M1175.87,646.41c-2.74-.07-5-1.48-7.16-2.85-1.62-1-2.94-2.87-5-.76-.27.27-1.72-.06-1.74-.23-.59-4.33-4.59-3.84-7.25-5.23-3.89-6.67-10.59-7.73-17.34-8.8-1.66-.27-2.72-.42-1.67,1.73-4.16.38-8.13-1.73-12.32-.89-3-4.34-6-8.65-9-13-.78-1.16-2.44-2.21-1.51-3.87s2.94-1.22,4.52-1.09a32.53,32.53,0,0,1,4.28.9c-.71,1-2,1.68-2,3.15-.33,0-.92,0-.94.07-.68,3,3.57,7.64,8.38,7.57-3.77-1.84-5.58-4-6.71-6.71,5.68.26,9.41,6.84,15.8,4.91.11,0,.38,1,.75,1.18,5.55,3.18,10.54,8.1,17.87,5.85.73.34,1.8.48,2.15,1.06,3.81,6.13,10.14,8.8,16.16,11.9a22.24,22.24,0,0,0,18.77,1.1c5-2.11,9.93-4,15-5.83,3.2-1.13,6.7-2.55,6.65-7,7.13.22,14.06,1.87,21.09,2.82v28c-.87,0-1.76,0-2.08-1.06-.15-5.39-.36-10.77-.42-16.16,0-3.08-1-7.87-2.8-7.71-3.19.28-5.53,3.71-5.58,7.64-8,.06-15.72.94-22.88,5-2.4,1.36-5.39,1.44-8.23,1.19l.08,0C1187.29,647.08,1181.51,647.14,1175.87,646.41Zm-12.51-6-.2-.36c-.09.1-.25.2-.26.3s.12.24.19.35Z" transform="translate(-685.35 -385.63)"/><path id="Tracé_5" data-name="Tracé 5" class="cls-5" d="M1146.34,690.58c-.34-4.33-1.17-7.75-5.67-10.53-5.78-3.55-9.09-9.75-11.69-17.19,5.45,1.25,9.26,2.88,12,6.87a18,18,0,0,0,12.24,7.79c11.25,2.1,21,8,31,13.24,1.38.73,2.29,2.34,3.42,3.55h-31l-10.25-3.7.26-.26Z" transform="translate(-685.35 -385.63)"/><path id="Tracé_6" data-name="Tracé 6" class="cls-5" d="M1234.59,632.34c-7-.94-14-2.6-21.09-2.81-3.49-1.55-7.56-3.4-10.71-1.1-3,2.18-6.1,2.87-9.36,3.73-7-1-14-1.16-20.56-4.47a29.88,29.88,0,0,0-13.85-3.24c-1.67.55-2.85-.93-4.36-1.06l-19.09-8c0-.33,0-.65,0-1a4.09,4.09,0,0,1,1.48,0c14,5.91,29.3,5.79,43.7,9.86a31.67,31.67,0,0,0,18.69-.15,18,18,0,0,1,10.32,0c8.21,2.12,16.41,4.29,24.87,5.2Z" transform="translate(-685.35 -385.63)"/><path id="Tracé_7" data-name="Tracé 7" class="cls-5" d="M1232.5,659.27c.33,1.07,1.22,1.05,2.09,1.06v13l-4,.1-.16-.33c-4.82-4.17-9.84-8.27-15.84-10.38-4.27-1.5-8.49-2.75-11.95-5.77-.76-.65-1.69-1.67-2.58-1-3.38,2.59-6,.17-8.65-1.23-2.22-1.18-6.5-1.74-5.9-4.27s4.66-.66,7.14-1.15l-.08,0c6,3.16,12.05,5.46,18.93,3.25C1218.62,654.44,1225.14,658.17,1232.5,659.27Z" transform="translate(-685.35 -385.63)"/><path id="Tracé_8" data-name="Tracé 8" class="cls-5" d="M1234.59,615.35c-15.47-3.13-30.85-3.2-46.12,1.28a34.13,34.13,0,0,1-3.87.7c-1.33-1.54-3.56-.17-5-1.51a16.08,16.08,0,0,0,10.16-1.49c11.38-5.15,23.41-4.93,35.44-5.08,3.12,0,6.25-1,9.35.1Z" transform="translate(-685.35 -385.63)"/><path id="Tracé_9" data-name="Tracé 9" class="cls-4" d="M1230.61,673.42l4-.1c0,6.33-.08,12.66.06,19,0,1.74-.32,2.11-2.06,2.05-4.66-.16-9.33-.05-14-.05.77-2.6,3.2-3.77,5-5.26C1228.66,684.93,1230.53,679.63,1230.61,673.42Z" transform="translate(-685.35 -385.63)"/><path id="Tracé_10" data-name="Tracé 10" class="cls-4" d="M1214.38,693.69c1.23-1.57,1.82-.82,2.22.62h-2a.39.39,0,0,1-.3-.46A.3.3,0,0,1,1214.38,693.69Z" transform="translate(-685.35 -385.63)"/><path id="Tracé_11" data-name="Tracé 11" class="cls-5" d="M1117.55,393.75c-2.51,1.39-5.23.44-7.84.74-1.12.13-2.66-.06-2.58,1.57s1.69,1.55,2.73,1.31c6.5-1.53,12.77-.76,19.16.93a15.6,15.6,0,0,1,6.15,2.88c2.29,1.84,4.27,3.48,7.8,1.65,3-1.55,6.33,1.45,6.56,5.4.16,2.58.67,4.3,3,6.17,5.43,4.41,3.83,16.5-2.33,19.63-2,1-2.22,2-2.32,4.16-.24,5.26-.2,10.93-5.88,14-1.66.9-3.57,1.45-3.29-1.39.49-4.93-1.78-8.4-5.14-11.49a10.24,10.24,0,0,1,6.13-1.68c3.3.26,4.36-1.71,4.75-4.48.76-5.45-5.44-16.83-10.67-17.83-7.44-1.42-14.65-4.73-22.47-3.69-9.5,1.27-19,2.58-28.45,4.12-2.4.39-5,.12-7.17,1.73-12.58,1.66-23.49,7.4-34.09,13.89-3.14,1.32-6.26,2.68-9.41,4-1.86.76-3.73,1.42-3.49,4-9.73.94-19.58,1.25-29.17,3-10.25,1.84-20.3,4.91-28.25,12.34A49.21,49.21,0,0,1,956,464.74a23,23,0,0,0-10,7.81c-2.24-3.62-1.6-6.43,1.5-9.55,3.9-3.94,9.52-5.61,12.85-10,6.68-8.84,15-14.43,26.4-14.5a5.75,5.75,0,0,0,4.4-1.93c2.74-2.9,5.72-5.61,8.18-8.72,2-2.5,4.08-4.25,7.37-4.46,3.57-.22,5.78-2.24,6.71-5.65.69-2.49,2.18-3.69,4.78-4.38,5.17-1.36,9.28-5.11,13.09-8.41a8.46,8.46,0,0,1,8-2.16c3.25.62,3.35,3.71,3.47,6.4.08,1.83,0,3.66,0,5.49s.63,2.92,2.73,2.33c6.33-1.78,13-2.56,18.37-7,3.3-2.7,7.2-4.69,10.94-6.81a9.65,9.65,0,0,1,7.17-1.4c5.26,1.27,10.14-.51,15-1.94.87-.26,2.21-.36,1.66-1.87a1.75,1.75,0,0,0-2.12-1.28,1.77,1.77,0,0,0-.71.36c-2.28,1.36-4.44,3-7.16,3.37-4.84.7-6.59-1-5.83-5.83.22-1.41,1.32-2.82-.16-4.15,5.85-5.84,15.72-6.67,21-.63C1107.9,394.55,1112.75,393.2,1117.55,393.75Zm-112.83,41.77c3.2-1.28,6.36-2.69,9.62-3.8,4.91-1.67,4.94-1.58,4.49-6.43-6.32,1-11.6,3.74-14.27,10l-.89.63Z" transform="translate(-685.35 -385.63)"/><path id="Tracé_12" data-name="Tracé 12" class="cls-5" d="M774.4,541.67c1.56-.42,2.22-1,1.34-2.83a21.48,21.48,0,0,1-1.78-5.65c-1-5.62,2.35-8.7,7.85-7.26s10.68,3.11,14.79,7.6c3,3.27,8.11,2.25,12,4.13,3.57,1.72,7.47,2.76,11.16,4.26a10.84,10.84,0,0,0,8.2.4c5.42-2,10.1.33,14.65,2.74,1.7.9,3.53,2.47,2.88,4.77s-3.09,1.69-4.7,1.49c-9.34-1.13-16.35,2.8-22.66,10.35,8.86,2.92,18.31,1.75,26.56,5.58-10.42,1.25-21.12-.74-31.35,2.51-1.89.6-5.81.63-2.77,4.65.82,1.08-.47,1.8-1.45,1.91-6.16.71-11.76,2.1-18.49-.5-9.93-3.82-19-9.13-28.62-13.4-3.8-1.68-6.44-4.54-9-7.55l.85-.55c6.75,4.87,14.5,5.31,22.42,5.07,2-.07,3.87-.11,5.61-1.55s1.43-3.64,1.48-5.93c2.93,2.05,4.6,3.8,1.46,6.51-1.55,1.33-1.67,3,.76,2.78,6.65-.5,13.28-1.52,18.31-6.54,3.06-3.06,2.36-4.93-2-6.22a31.42,31.42,0,0,0-10.88-.9Zm27.17,30c-1.84-2.08-3.44-3.7-5.91-3.56-.9,0-.86,1.27-.36,2,1.45,2.18,3.34,2.8,6.27,1.54Z" transform="translate(-685.35 -385.63)"/><path id="Tracé_13" data-name="Tracé 13" class="cls-1" d="M1082.68,390.42c1.48,1.33.38,2.74.16,4.15-.76,4.79,1,6.53,5.83,5.83,2.72-.39,4.88-2,7.16-3.37a1.75,1.75,0,0,1,2.47.22,1.55,1.55,0,0,1,.36.71c.55,1.5-.8,1.61-1.66,1.86-4.91,1.43-9.79,3.21-15,1.94a9.65,9.65,0,0,0-7.17,1.4c-3.73,2.12-7.64,4.11-10.94,6.81-5.42,4.46-12,5.25-18.37,7-2.1.6-2.7-.53-2.73-2.33s0-3.66,0-5.48c-.12-2.7-.22-5.79-3.47-6.4a8.46,8.46,0,0,0-8,2.15c-3.81,3.3-7.92,7.05-13.09,8.42-2.6.68-4.1,1.89-4.78,4.37-.93,3.41-3.14,5.43-6.71,5.65-3.29.2-5.38,1.95-7.37,4.46-2.46,3.11-5.44,5.82-8.18,8.72a5.75,5.75,0,0,1-4.4,1.93c-11.41.07-19.72,5.66-26.4,14.5-3.33,4.41-9,6.08-12.85,10-3.1,3.12-3.74,5.93-1.5,9.56-.77,1.41-2.49,2.37.12,4.25s2.59,5,.32,7.49c-1.68,1.83-4.15,2.12-5.71.17-1.88-2.34-4.26-5.24-.42-8,1-.74,1.44-1,.35-2.1-3-2.94-1.73-5.78.61-8.3,5-5.34,9.55-11.07,15.33-15.64,4.46-3.53,8.58-7.3,9.92-13.28.69-3.07,2.93-4.13,6.11-3.39,5.93,1.39,12.4-3.68,11.85-9.66-.47-5.12,1.43-8.51,5.51-11.28,12.51-8.52,26.1-15.17,41-17.05,5.61-.71,11.7-2.54,17.66-1.13a42.94,42.94,0,0,1-.32,5.44c-.52,2.94-1.9,6.36,1.11,8.26,2.8,1.76,4.91-1.55,7.32-2.65,2.93-.37,5.87-.71,8.8-1.14s4.88-2.23,4.94-5.27c0-2,.94-3.28,2.55-3.41C1077.16,395.51,1079.77,392.76,1082.68,390.42Z" transform="translate(-685.35 -385.63)"/><path id="Tracé_14" data-name="Tracé 14" class="cls-5" d="M737.81,433.56c.85,1.4,3.76.23,3.6,2.69-.12,2-2.13,2.4-3.56,3.08a29,29,0,0,1-14,3c-10.76-.59-18.7,4.09-24.74,12.55a10.85,10.85,0,0,0-2.33,5.95c0,1.62-.73,3.67.6,4.75,1.56,1.28,2.9-.95,4.86-1.24l1.45,5.39c-3,3.38-4.15,10.75-2.24,14.55,1.5,3,2.4,6.55,4.65,8.74,4.31,4.18,6.89,10.18,13.13,12.44,3,1.08,5.63,3,6.62,6.66-5.42-4.29-11.08-7.91-18.06-8.67-8.46-10.22-10.22-11.74-15.12-12.85,1.43,2.82,2.91,5.39,4.1,8.1,4.57,10.4,13.09,16.7,22.58,22l.15.11a12.88,12.88,0,0,0,12.3,5.44l9,1.19c-.27,2-2.88.26-3.2,1.6,1,4.19,5.2,4.61,7.13,7.4-1.75.22-1.73,1.1-.83,2.27,1.7,2.2,3.41,4.38,5.12,6.57-1,2.29.72,1.83,1.9,1.94l-.07-.07.21,4.87-.24.22a47.6,47.6,0,0,1-18.15-19c-1.33-2.54-2.89-3.94-6.8-4-5.61-.1-11.42-1.46-17.11-2.46a5.53,5.53,0,0,1-4.18-3.2c-1.5-3.14-4-6-4.66-9.29-2.31-11.64-10-21.22-12.12-32.9-.64-3.58-1.45-7.14-2.35-10.67-1-3.75,2.51-5.52,3.5-8.39,4.35-1.11,6.51-3.74,5.78-8.36.4-5.21,4.51-8.73,6.21-13.4.84-2.3,4.1-2.64,6.63-2.55,6.63.22,13.27.62,19.82-.67,2-.4,3.11,1.26,4.81,1.42C736.17,439.18,735.22,434.52,737.81,433.56Z" transform="translate(-685.35 -385.63)"/><path id="Tracé_15" data-name="Tracé 15" class="cls-5" d="M852.62,606.39c5.28-1.07,10.32-3.5,15.89-3,3.77.33,6.5,1.68,5.37,6.31a3.78,3.78,0,0,0,.65,3.79c5,4.78,10.37,8.95,17.47,9.77,3,.34,6.45.67,6.29-4.46-.08-2.26,2.47-4,4.52-4,3.38-.08,7.23,1.37,8.49,4.31,3.13,7.35,10.5,9.93,15.43,15.17,1.58,1.68,3.89,2.82,4.71,5,1.13,3,3.45,3.61,6.21,4.1,4.37.76,8.69,1.85,13,2.8-7.76-.42-15.68.4-23.12-2.54-1.1-.44-5.38,1-2.85-3.39.58-1-2.44-1.56-3.93-1.92a269.45,269.45,0,0,1-37.55-11.82c-5.13-2.11-8.8-5.2-10.93-10.18-1.18-2.75-2.37-4.19-6.09-4.25C861.3,612,857.14,608.41,852.62,606.39Z" transform="translate(-685.35 -385.63)"/><path id="Tracé_16" data-name="Tracé 16" class="cls-3" d="M1028.68,439.33c-.24-2.56,1.63-3.23,3.49-4,3.15-1.28,6.27-2.64,9.41-4,2.63,1.83,5.82,1.75,9.81,2.53l-6.4,2.28c6,.26,9.23,4,13.33,6.09,6.64,3.37,12.79,7.55,19.48,10.86,9,4.47,11.34,14.66,16.7,22.26l.17,2.09,0-.05-1,1.18-.73.89c-.13.05-.36.08-.38.15a3.08,3.08,0,0,0,0,.68c-1.16,3-1.18,6.54-3.33,9.13a5.24,5.24,0,0,1-4.93,1.7c.74-3.7-2.24-7.42.06-11.12.65-5.76.16-11.6-3.83-15.87-6.08-6.51-12.9-12.35-21.94-14.63l-2.2-.11-.4.08-.34-.22-1.11-.87.07.1-1.14-1,.15.11a1.94,1.94,0,0,0-2.15-1l.1.07a9.26,9.26,0,0,0-8.1-3.16C1039,440.51,1033.46,441.31,1028.68,439.33Z" transform="translate(-685.35 -385.63)"/><path id="Tracé_17" data-name="Tracé 17" class="cls-5" d="M1056.55,633.23c-.93-3.19-.15-5.38,2.88-7.36,3.43-2.23,6.29-5.34,9.45-8,.73-.61,1.66-1.41,2.67-.94,1.28.6.36,1.72.29,2.62-.58,7.6-.09,14.85,5.24,21.06,3.32,3.86.3,8.34.32,12.49,0,3.35.32,5.16,3.68,6.68,5.16,2.34,8.65,6.11,6.67,12.61-.78,2.58,2.32,4.38,1.89,7-3.49-2.73-7.06-5.36-10.45-8.22a20.78,20.78,0,0,1-8-14.93C1070.24,646.78,1065.06,638.61,1056.55,633.23Z" transform="translate(-685.35 -385.63)"/><path id="Tracé_18" data-name="Tracé 18" class="cls-5" d="M854.51,570.92c1.93-2.72,4.33-.95,6.6-.72,1.92.2,3.86.21,5.79.31a1.65,1.65,0,0,0,1.39,1.88,1.36,1.36,0,0,0,.45,0l0,0,1,1,0,0c1.16,2,3.09,2.06,5,2l0,0c5.08,2,8.85,6.12,14.56,7.63,4.74,1.25,8.52,6,12.9,8.92,1.61,1.08,4.1,3.55,5.48,1.43,1.5-2.32,4.82-5.16,1.74-8.73,7.08.58,7.7,1.62,4.86,8.09-1.62,3.69.89,8.3,5.61,10.18,1.69.67,3.46,1.13,5.19,1.69a10.58,10.58,0,0,0,.6,6.86c-6.31,5.75-17.2,2.1-20.68-7-.43-1.11-.07-3.18-2.1-1.13.07-4-4.27-9.22-9.4-11.28-1.53-.61-3.3-.94-4.52-1.94C878.6,581.65,866.23,576.88,854.51,570.92Z" transform="translate(-685.35 -385.63)"/><path id="Tracé_19" data-name="Tracé 19" class="cls-5" d="M1182.63,465.59c-1.8-1.55-1.92-3.6-2.09-5.82-.5-6.44-2.41-12.31-7.76-16.52-1-.83-2.1-1.58-2.15-3.12-.37-11.8-4.2-22.55-10-32.69,5.62,1.2,9.84,4.49,13.14,9,2.71,3.73,4.56,8,7.65,11.53a4.71,4.71,0,0,1,1.18,2.68c.55,11.18,2.38,22.35.62,33.57A6.22,6.22,0,0,1,1182.63,465.59Z" transform="translate(-685.35 -385.63)"/><path id="Tracé_20" data-name="Tracé 20" class="cls-5" d="M849.58,474.44c4.76.54,10-.44,13.19,4.7.69,1.12,2.1,2.37,1.42,3.5-3.21,5.36.62,8.9,3.63,13.54-6.73-2.17-11.46-7.48-18.26-6.86C849.07,484.36,852.38,479.4,849.58,474.44Z" transform="translate(-685.35 -385.63)"/><path id="Tracé_21" data-name="Tracé 21" class="cls-5" d="M929.9,530.28c-6.52,4.58-13.93,4.41-21.38,4,3.1-1.53,6.71-.06,10.24-1.87-4.78-.15-3.13-5.91-6.25-6.67-6.47-1.58-10.36-6.3-14.67-10.62,5.77-2.19,9.68,1,13.55,4.58,4.1,3.74,7.93,8.18,14.54,6.33,1.8-.5,1.64,1.78,2.75,2.36Z" transform="translate(-685.35 -385.63)"/><path id="Tracé_22" data-name="Tracé 22" class="cls-1" d="M1058.62,449.56c9,2.29,15.86,8.12,21.94,14.63,4,4.27,4.48,10.11,3.83,15.88-.44-.16-1.24-.26-1.27-.48-2.08-14.14-12.39-21.41-23.37-28.15a12,12,0,0,1-1.13-.9C1058.63,450.21,1058.63,449.88,1058.62,449.56Z" transform="translate(-685.35 -385.63)"/><path id="Tracé_23" data-name="Tracé 23" class="cls-5" d="M1013.75,646.17c1.26-.73,3-1.15,3.71-2.25,6.17-9.6,16.19-7.53,25.2-8.56C1033.61,640.55,1024.62,645.86,1013.75,646.17Z" transform="translate(-685.35 -385.63)"/><path id="Tracé_24" data-name="Tracé 24" class="cls-5" d="M1056.73,405.67c-2.41,1.09-4.51,4.4-7.32,2.64-3-1.89-1.63-5.31-1.11-8.25a45.17,45.17,0,0,0,.33-5.45C1055.77,395,1055.58,400.85,1056.73,405.67Z" transform="translate(-685.35 -385.63)"/><path id="Tracé_25" data-name="Tracé 25" class="cls-1" d="M960.4,516.63c2.4-3.92,13.55-8.84,17.06-8,1.25.3,2,1.1.95,1.93A93.18,93.18,0,0,1,968,518c-1.4.84-2-2.75-4.21-1.91A17.58,17.58,0,0,1,960.4,516.63Z" transform="translate(-685.35 -385.63)"/><path id="Tracé_26" data-name="Tracé 26" class="cls-1" d="M832.92,591.12c-.28-.12-.69-.43-.81-.34-2.13,1.54-4.38,2.88-6.37.08-1.63-2.28-.49-4.64,1.31-6.12,2.79-2.27,4.77-.62,6.22,2,.05.11.6,0,.92-.09l-.09-.43c-.28.15-.66.22-.83.45a1.25,1.25,0,0,0-.19.92c.27,1.2-1.16,2.29-.22,3.52Z" transform="translate(-685.35 -385.63)"/><path id="Tracé_27" data-name="Tracé 27" class="cls-5" d="M836.54,592.36c-.44.45-2.25-.16-1.41,1s2.2,2.83,4,2.81c4.33,0,5.53,3,6.58,6.24a16.28,16.28,0,0,0-5.22-1.3c-5.46-.65-8.22-4.5-7.52-10l-.06,0C833.76,592.58,835.44,591.58,836.54,592.36Z" transform="translate(-685.35 -385.63)"/><path id="Tracé_28" data-name="Tracé 28" class="cls-5" d="M891.9,606.3c-1.39.82-1.85,2.75-3.8,3-2.67.3-4.91-.85-5.63-3.1-1-3.08,2.14-2.48,3.76-3.1.92-.36,1.89-.62,2.83-.92Z" transform="translate(-685.35 -385.63)"/><path id="Tracé_29" data-name="Tracé 29" class="cls-1" d="M859.6,594c2.12-1.75,4.54-1.85,6.95-1.79,2.75.07,2.56,2.26,2.27,4-.46,2.6-1.93.49-2.88.3C863.75,596,861.42,595.79,859.6,594Z" transform="translate(-685.35 -385.63)"/><path id="Tracé_30" data-name="Tracé 30" class="cls-1" d="M694.8,454c.72,4.62-1.44,7.25-5.79,8.37C690.36,459.18,692.77,456.73,694.8,454Z" transform="translate(-685.35 -385.63)"/><path id="Tracé_31" data-name="Tracé 31" class="cls-1" d="M986.78,403.67a3.24,3.24,0,0,1-2.64,2.87c-.92.16-1.58-.52-1.19-1.57.5-1.35.73-3.09,2.5-3.34C986.33,401.51,986.79,402.44,986.78,403.67Z" transform="translate(-685.35 -385.63)"/><path id="Tracé_32" data-name="Tracé 32" class="cls-5" d="M1043.51,443.51a9.24,9.24,0,0,1,8.1,3.16C1048.47,446.74,1046,445,1043.51,443.51Z" transform="translate(-685.35 -385.63)"/><path id="Tracé_33" data-name="Tracé 33" class="cls-5" d="M1160.67,407.46l-3,0C1158.71,406.5,1159.7,406.3,1160.67,407.46Z" transform="translate(-685.35 -385.63)"/><path id="Tracé_34" data-name="Tracé 34" class="cls-5" d="M752.25,554l-1.35-1.77.24-.22,1.67,1.3C752.61,553.56,752.43,553.79,752.25,554Z" transform="translate(-685.35 -385.63)"/><path id="Tracé_35" data-name="Tracé 35" class="cls-5" d="M1058.62,449.56c0,.33,0,.65,0,1a2.58,2.58,0,0,1-2.2-1.09Z" transform="translate(-685.35 -385.63)"/><path id="Tracé_36" data-name="Tracé 36" class="cls-5" d="M1051.51,446.6a1.93,1.93,0,0,1,2.14,1C1052.54,448.12,1051.79,447.86,1051.51,446.6Z" transform="translate(-685.35 -385.63)"/><path id="Tracé_37" data-name="Tracé 37" class="cls-5" d="M1054.57,448.44l1.11.87a.93.93,0,0,1-1.09-.76S1054.58,448.48,1054.57,448.44Z" transform="translate(-685.35 -385.63)"/><path id="Tracé_38" data-name="Tracé 38" class="cls-5" d="M1053.5,447.5l1.14,1C1054.08,448.4,1053.16,448.65,1053.5,447.5Z" transform="translate(-685.35 -385.63)"/><path id="Tracé_39" data-name="Tracé 39" class="cls-5" d="M753,554.86l-.74-.83c.18-.24.36-.47.56-.69l1,1Z" transform="translate(-685.35 -385.63)"/><path id="Tracé_40" data-name="Tracé 40" class="cls-3" d="M1026.86,576.59l-1.65.84c-6.46,1.05-11.64,4.47-16.06,9a7.78,7.78,0,0,1-3.73,2c-3.73,1.16-7.86-.13-11.29,1.2-8,3.1-16.1,1.9-24,1.32-12.62-.92-25.15-3.09-37.73-4.66a10.15,10.15,0,0,1-4.82-2.18c-3.46-2.47-5.16-6.64-8.89-8.75h0c.16-1,.69-2.08.4-2.9-1.08-3.13,2-6.78-1.25-9.55-.72-.62-1.92-1-1.41-2.23.42-1.06,1.48-1.22,2.49-1.3,1.29-.12,2.67.14,3.73-.93h4.16c5,2,9.23.62,12.85-3.13l1.12-2.89c20.83,1.14,40.58-4.53,60.53-9.31,8.94-2.14,17.94-5,27.42-3.63.54,2.28-3,2.77-2.44,4.38,1.44,4.45-1.56,6.63-3.81,9.45-1.09,1.37-3.46,3.51.17,5l0,0c2,5.29,3.82,10.59,2.73,16.41C1025.21,575.74,1026.18,576.16,1026.86,576.59Z" transform="translate(-685.35 -385.63)"/><path id="Tracé_41" data-name="Tracé 41" class="cls-2" d="M1126.62,573.38c-5,5.45-10,10.81-18.4,10.12a4,4,0,0,0-3.6,1.37c-5.6,7.24-13.56,11.67-20.49,17.31a113.39,113.39,0,0,0-10.48,9.23,45.11,45.11,0,0,1-27.46,14c-15,1.9-28.4,7.26-41.23,15-12.24,7.34-25.49,6.15-38.73,3.14a4,4,0,0,1-1.83-.75c-9.28-8.75-22.63-10.75-32-19.32-1.57-1.43-3.62-2.47-3.65-5,2.85-1.1,5.22,1.57,8,1l-.09-.06c3.62,2.6,8,2.87,12.11,3.71,8.23,1.81,16.55,1.6,24.88,1.1,16.83-.61,33.14-3.68,48.65-10.44,4.7-1.15,9-3.37,13.22-5.53,12.8-6.56,25.54-13.26,37.15-21.85a64.68,64.68,0,0,0,13.08-6.39c11.65-5.87,22.56-13,33.85-19.49C1121.59,565,1126.57,567.82,1126.62,573.38Z" transform="translate(-685.35 -385.63)"/><path id="Tracé_42" data-name="Tracé 42" class="cls-4" d="M811.14,518.34c-3,3.35-7.51,1.87-11.16,3.31-1.63.64-2.37-1.95-3.15-3.32-6.4-11.13-14.92-20.77-22-31.4-.14-.21-.59-.21-.89-.31a22.74,22.74,0,0,0,6.87,15.15c5.79,5.56,10.39,12.13,14.81,19.15-8.53-9.65-19.2-9.56-30.36-7.69a10,10,0,0,1-4.44-.35c-12.16-3.76-21.94-10.21-25.75-23.24-.86-2.92-.5-4.65,3.12-3.23l1.35-.09c0,2.16.08,4.34,2.13,5.71a1.16,1.16,0,0,0,1.61-.25l.09-.15a6.2,6.2,0,0,0,.36-4.32c-.41-2.33-2.22-1.95-3.87-1.76-.42-3.2,1.54-5.06,3.66-7,6-5.58,13.08-5.17,20.35-4.11l-.1-.06c.29.49.62.48,1,.1l5.71,7.43c1.3-2.66-1.81-4.19-1.55-6.53,7.49,2.78,15.28-.63,22.81,1.11a37.86,37.86,0,0,1,8.34,7.79c4.48,5.22,9.54,9.05,16.63,9.86,1.61.19,4.21.34,4.58,2.34.44,2.37-2.32,2.32-3.76,3.2-7.44,4.55-10.18,10.69-7.66,17.37.2.54.86.9,1.31,1.34Z" transform="translate(-685.35 -385.63)"/><path id="Tracé_43" data-name="Tracé 43" class="cls-4" d="M1084.79,534.52c3.53-5.12,7.68-9.85,13.26-12.53,16.15-7.74,27.81-20.2,37.88-34.53,4.76-6.77,9.76-13.38,14.65-20.06,5.68-.86,9.65,1,11,7,.35,1.58,1.51,2,3,2-.51,4.91-3.79,9.06-3.9,14.1l0-.07c-2,1.17-2.33,3-2,5.07l0-.07c-1.25.21-1.16,1.12-1.07,2l.05-.05c-1.17.27-1.09,1.17-1,2.06l0-.06c-1,.09-2,.12-3,.3-1.25.22-3.35-1.25-3.51,1.27-.15,2.29,1.77,2.41,3.5,2.45-8.75,15.47-18.48,30.05-35.07,38.35-2.21,1.1-4.28,2.55-6.85,2.79-1.47-1.41-2-.74-2,.93v0c-8,.3-16,0-23.78,2.26l-.56-.65c.94-1.57,3.52-2.72,2.25-4.88C1086.19,539.74,1086.17,536.9,1084.79,534.52Z" transform="translate(-685.35 -385.63)"/><path id="Tracé_44" data-name="Tracé 44" class="cls-2" d="M1094.67,477.5c-.06-.69-.11-1.39-.17-2.09,2.81-5.16,1.45-11.52,4.46-16.53,4.88-8.1,5.36-16.07,2.36-25.16-1.43-4.35-2.9-7.83-6.5-10.41a17.13,17.13,0,0,0-6.76-2.94c-4.16-.81-8.26-1.9-12.39-2.87,2.13-1.61,4.77-1.35,7.16-1.73,9.46-1.54,19-2.85,28.46-4.12,7.82-1,15,2.27,22.47,3.69,5.23,1,11.43,12.37,10.66,17.82-.38,2.78-1.45,4.75-4.74,4.49a10.17,10.17,0,0,0-6.13,1.68c-9.41,2-11.68,5.34-10,14.56.5,2.74,2,4,4.84,3.35-1,6.22-6.15,8.61-9.73,12.27-3.14-1.83-5.77-4.95-10-4-2.46.25-2.45.26-3.45,2.83-.11.28-.4.7-.6.7C1098.65,468.79,1098.47,475.27,1094.67,477.5Z" transform="translate(-685.35 -385.63)"/><path id="Tracé_45" data-name="Tracé 45" class="cls-2" d="M1146.36,690.61c.35.73,1.16,1.7.93,2.14-.5,1-1.34.2-2-.2-6-3.65-12-7.59-18.41-10.54a8,8,0,0,0-3.19-1.15c-12.71.44-21.77-6.7-30.27-14.71-6-5.62-7.17-10.79-5.44-19.55,3.71,1.86,7,4.41,11,5.59,3,.8,6.1,1.71,9.23-.35l-9.56-1.45c-4.63-2.53-8.06-6.35-11.23-10.43-1.07-1.39-2.64-2.77-1-4.76,5.74-1.66,11.16-3.43,12.3-10.69a3.61,3.61,0,0,1,5.18-2.62c3.55,1.88,7.34,2.54,11.2,3.11,5.76,7.06,10.24,14.93,15,23a61.61,61.61,0,0,0-6.91,1.21c-5,1.52-7,5.29-5.32,10.13,1.08,3.13,2.32,6.22,3.7,9.23.6,1.31,1.53,3.11,2.67,3.43,9.73,2.73,13.82,12,20.92,17.72.38.31.78.6,1.17.9l.28-.23Z" transform="translate(-685.35 -385.63)"/><path id="Tracé_46" data-name="Tracé 46" class="cls-4" d="M989.78,595.6c8.1-.7,16.28-.86,24.26-2.22,9.59-1.63,18.09-7,28.22-8.3-2.6-3.2-5,.62-7.88-1.65,12.33-9.22,27.46-11.81,40.29-19a21.36,21.36,0,0,0,1.14,2.65c3.21,5.55,2.5,9.88-1.84,14.64-2,2.18-5.87,1.89-6.67,5.4-3.56,2.25-8.32,1.79-11.54,4.25-7.73,5.94-16.68,9.56-25.1,14.19-3.8,2.09-7.58,4.15-10.25,7.72-7.8,2.64-15.6,5.33-23.84,6.31.1-.13.19-.27.3-.4,4.06-5,4.23-12.4,10.63-16.15,2-1.15-1-2.15-2.16-2.45-1.87-.5-4.75.27-5.43-1.63-1.21-3.37-3.58-2.44-5.81-2.55C992.62,596.3,991.09,596.58,989.78,595.6Z" transform="translate(-685.35 -385.63)"/><path id="Tracé_47" data-name="Tracé 47" class="cls-4" d="M925.64,611.43a10.58,10.58,0,0,1-.6-6.86c8.94-5.7,18.72-6,28.77-4.4a14.62,14.62,0,0,0,7.31-.39c4.4-1.49,8.87-2.8,13.62-2.5,1.56.6,1.28,1.43,0,1.84-2.39.78-4.86,1.3-7.29,1.94,2.76,1.41,5.78,2.15,8.11.84,6.17-3.45,11.38-.71,16.23,2.28,6.35,3.91,6.56,6.75,2.05,12.93a5.15,5.15,0,0,0-1.19,3.16c-6.26,1.7-12.73,2-19.13,2.71-8.23-3.64-16.53-2-24.83-.33a60.83,60.83,0,0,0-12.08-3.29l.09,0a13.84,13.84,0,0,0-6.1-3Z" transform="translate(-685.35 -385.63)"/><path id="Tracé_48" data-name="Tracé 48" class="cls-2" d="M1032.8,538.57c10.36-1.81,19.5-7.06,29.28-10.51,4.21-1.48,8.32-3.24,12.8-3.52,4.82-.3,6.12,1.33,5,5.86-2.11,8.2-5.75,15.29-12.88,20.53-3.73,2.74-4.62,8.39-9.25,10.63-2.31-3.33-5.73-4-9.48-4.2-8.57-.42-17,1.82-25.58,1.07l0,0a11.43,11.43,0,0,1,3.2-5.53,18.2,18.2,0,0,0,5-13.11Z" transform="translate(-685.35 -385.63)"/><path id="Tracé_49" data-name="Tracé 49" class="cls-4" d="M740.87,527.45l-9-1.18c.5-2,1-4.71-1.81-4.4-3.69.41-6.94-1.44-10.49-1l-.15-.12c.29-4-4.65-4-5.5-7.06a22.32,22.32,0,0,0-6.06-10.22c7,.77,12.64,4.38,18,8.67-1-3.64-3.62-5.58-6.61-6.66-6.24-2.26-8.82-8.26-13.13-12.44-2.25-2.19-3.16-5.77-4.65-8.74-1.91-3.8-.77-11.16,2.23-14.55l8.21,15.59-.46.45c-1.82-.13-2.17.64-1,1.95,6.43,7.36,12,15.89,19.67,21.61,5.73,4.28,13.58,6.4,20.61,9.13,4.39,1.71,7.84,4.28,9.89,8.53.52,1.08,2,2.23.83,3.55s-2.72.43-4.17.05c-3.67-1-6.45-4.18-10.51-4.15l-3-1c-.61.1-1.12.28-1,1.06l.05-.05c-1-.15-1.74,0-2.06,1.06Z" transform="translate(-685.35 -385.63)"/><path id="Tracé_50" data-name="Tracé 50" class="cls-2" d="M725.68,484.48c-6.62-7.84-12.33-16.11-12.1-27a16.32,16.32,0,0,1,4.09-10.93,6.71,6.71,0,0,1,8.18-1.68c6.54,2.91,10.29,11.05,8.56,18.25a36.72,36.72,0,0,0-.85,8.87c0,4.35,1.9,9.1-2.74,12.4C729.11,484.66,727.38,483.48,725.68,484.48Z" transform="translate(-685.35 -385.63)"/><path id="Tracé_51" data-name="Tracé 51" class="cls-4" d="M1126.62,573.38c0-5.56-5-8.43-7-12.92a36.46,36.46,0,0,0,4-2.86c1.39-1.29,3.38-2,1.33-5s-.52-6.66,1.43-9.74c2.7-4.25,6.38-7.57,10.09-10.86a81.24,81.24,0,0,0,16-18.78c1.12,3.21-2.16,5.48-1.82,8.55s-1.31,5-4,6.13c-1.54.64-3.33,1.06-2.48,3.43,1,2.8-.48,5.09-1.42,7.57-2.15,5.64-7.56,10.8-2.94,17.59C1135.22,562,1132,568.52,1126.62,573.38Zm1.73-20.19,1,.77c3.22-3.06,6.44-6.13,7.24-11.09Z" transform="translate(-685.35 -385.63)"/><path id="Tracé_52" data-name="Tracé 52" class="cls-4" d="M1115.06,625c-3.86-.57-7.65-1.22-11.2-3.11a3.63,3.63,0,0,0-4.86,1.63,4,4,0,0,0-.32,1c-1.13,7.27-6.56,9-12.29,10.69-3.6-3.62-7.51-6.94-9.76-11.75-3.41-7.3,2.15-16,10.34-16.12,3,0,6.61,2.16,8.44-2.52.43-1.1,2.13,0,3,.65,3.52,2.47,7.2,4.72,10.2,7.86-7.42-1.78-14,.33-20.13,4.41a3.09,3.09,0,0,1-2.88.12c-2-.71-3.7-.46-4.44,1.74-.7,2-1.35,4.5.36,6.1s3.32-.37,4.86-1.2,3.5-1.42,4.78-2.63c4.34-4.11,9.06-5.29,14.86-3.46,1.65.52,4.4.27,4.8-2.73C1113.19,618.36,1114.12,621.68,1115.06,625Z" transform="translate(-685.35 -385.63)"/><path id="Tracé_53" data-name="Tracé 53" class="cls-2" d="M1067.3,587.09c.8-3.51,4.68-3.22,6.67-5.4,4.34-4.76,5-9.09,1.84-14.64a21.36,21.36,0,0,1-1.14-2.65c9.68-3.82,19.35-7.62,28.51-12.62,2-1.1,5.19-3,6.82-.83,1.35,1.81-.83,4.64-2.22,6.63a81.5,81.5,0,0,1-22.15,21.06l-13,6.66Z" transform="translate(-685.35 -385.63)"/><path id="Tracé_54" data-name="Tracé 54" class="cls-2" d="M1085.92,547.71c7.78-2.28,15.81-2,23.78-2.25-8.59,6.84-19,9.81-29,13.85a65.21,65.21,0,0,1-12.37,3.78c-2.79.53-3.37-.64-2.51-3a11.78,11.78,0,0,1,1.66-3.06q8.61-11.29,17.28-22.54c1.38,2.38,1.4,5.22,2.83,7.66,1.26,2.17-1.32,3.32-2.25,4.89l-1.09.82C1084.9,548.53,1085.41,548.15,1085.92,547.71Z" transform="translate(-685.35 -385.63)"/><path id="Tracé_55" data-name="Tracé 55" class="cls-4" d="M1022.64,558.43c8.58.75,17-1.49,25.59-1.07,3.75.19,7.17.87,9.48,4.2a17.59,17.59,0,0,1-9.66,6.55c-7.39,2-14.2,5.46-21.19,8.48-.68-.43-1.65-.85-1.48-1.75C1026.47,569,1024.66,563.71,1022.64,558.43Z" transform="translate(-685.35 -385.63)"/><path id="Tracé_56" data-name="Tracé 56" class="cls-5" d="M1032.79,538.57l-1.94,1.19-2.15-.21c-9.47-1.37-18.48,1.48-27.42,3.62-19.95,4.78-39.7,10.45-60.53,9.32,0-.17,0-.44.11-.48,7.83-3.08,15.59-6.69,24.17-6.87,6.39-.14,12.61.73,19.08-1.35,8.3-2.68,17.23-3.15,25.56-6.14,5.45-1.95,11.12-3.32,16.55-5.35,3.71-1.38,6-1.43,5.8,3.4A10.51,10.51,0,0,0,1032.79,538.57Z" transform="translate(-685.35 -385.63)"/><path id="Tracé_57" data-name="Tracé 57" class="cls-2" d="M749.09,545.3c-1.7-2.19-3.42-4.38-5.11-6.57-.9-1.17-.93-2.05.82-2.27l-.1-.09a7,7,0,0,0,6.12,2.06l-.13,0c3.54,1.86,7.32,1,11,.93a58.81,58.81,0,0,0,12.69,2.36L791,547.53c-3.45.84-7.2,1.09-10.31,2.63-10.69,5.29-20.38,3.05-29.8-3l.07.07Z" transform="translate(-685.35 -385.63)"/><path id="Tracé_58" data-name="Tracé 58" class="cls-5" d="M1089,515.45c-1.32-.33-4.38.49-4.15-.78.58-3.26,1.36-7.66,4.54-8.81,6.08-2.21,8.73-7.41,12.36-11.77a12.16,12.16,0,0,1,6.9-4.5c3.07-.7,5.66.11,7.28,2.89s0,4.8-1.63,6.71c-5.38,6.18-12.06,10.78-18.8,15.29C1093.58,515.76,1091.34,515.42,1089,515.45Z" transform="translate(-685.35 -385.63)"/><path id="Tracé_59" data-name="Tracé 59" class="cls-4" d="M913.79,565.35a4.33,4.33,0,0,1-4.16,3.67c-10.53.44-19.45-.72-24.65-12.77,6,.27,10.68-1.94,13.54-7.43,4.58.67,8,3.9,12.1,5.59a16,16,0,0,0,3.1,6l0-.06C913.72,562,913.76,563.69,913.79,565.35Z" transform="translate(-685.35 -385.63)"/><path id="Tracé_60" data-name="Tracé 60" class="cls-3" d="M1139.75,556.48c-4.62-6.78.79-11.94,2.94-17.58.94-2.48,2.43-4.77,1.42-7.57-.85-2.37.94-2.79,2.48-3.43,2.72-1.13,4.37-3,4-6.14s2.94-5.33,1.82-8.55l0,.13c4.3-2.33,5.52-6.06,4-12.35l.12-1.6,0,.06,1-2.07-.05.05a4,4,0,0,1,.77-.09c4.7.42,2.93,4.89,4.54,7.24C1156.29,522.38,1150.35,540.46,1139.75,556.48Z" transform="translate(-685.35 -385.63)"/><path id="Tracé_61" data-name="Tracé 61" class="cls-2" d="M763.85,474.4c-7.27-1.06-14.36-1.47-20.35,4.11-2.12,2-4.08,3.84-3.66,7a1.47,1.47,0,0,1-.32.77l-1.35.09c-.59-2.4-1.1-4.81-1.8-7.17-1.51-5.11.23-9.08,3.38-13.2,5.54-7.24,14.28-4.52,18,1.45C759.47,470.17,764.1,470.14,763.85,474.4Z" transform="translate(-685.35 -385.63)"/><path id="Tracé_62" data-name="Tracé 62" class="cls-3" d="M992.67,620.27a5.1,5.1,0,0,1,1.2-3.16c4.5-6.18,4.29-9-2.06-12.93-4.85-3-10.06-5.73-16.23-2.28-2.33,1.31-5.35.57-8.11-.84,2.44-.64,4.9-1.16,7.29-1.94,1.27-.41,1.55-1.24,0-1.84,4.92-1.39,10-1.21,15-1.68,1.31,1,2.84.7,4.31.78,2.23.11,4.6-.82,5.81,2.55.69,1.9,3.56,1.13,5.43,1.63,1.14.3,4.13,1.3,2.16,2.45-6.4,3.75-6.57,11.16-10.63,16.15-.11.13-.2.27-.3.4Z" transform="translate(-685.35 -385.63)"/><path id="Tracé_63" data-name="Tracé 63" class="cls-2" d="M791.71,476.45c-7.53-1.75-15.32,1.67-22.8-1.11-1.12-2.92-2.22-5.84-3.37-8.74-.61-1.54-1.62-3.21-.29-4.62s3.07-.66,4.7-.33c7.86,1.59,13.08,7.34,19,12A29.59,29.59,0,0,1,791.71,476.45Z" transform="translate(-685.35 -385.63)"/><path id="Tracé_64" data-name="Tracé 64" class="cls-4" d="M1162.89,504.58c-1.61-2.35.16-6.82-4.54-7.24.1-.65.2-1.3.29-1.95l0,.07a6.53,6.53,0,0,0,2-5.07l0,.07c5.31-8.26,6.34-17.81,8.22-27.11,1.27-.1,2.55-.89,3.82,0,1.79,4.59.3,9.16-.53,13.58C1170.3,486.55,1166.75,495.64,1162.89,504.58Z" transform="translate(-685.35 -385.63)"/><path id="Tracé_65" data-name="Tracé 65" class="cls-4" d="M918.66,575.42c3.73,2.11,5.43,6.28,8.89,8.75a10.17,10.17,0,0,0,4.82,2.19c12.58,1.57,25.11,3.74,37.73,4.65,7.93.58,16.07,1.78,24-1.31,3.43-1.34,7.56,0,11.3-1.2a7.81,7.81,0,0,0,3.72-2c4.42-4.56,9.6-8,16.06-9-2.34,1.51-4.69,3-7,4.55-1,.64-2.5,1.12-2.78,2-2.51,7.65-9.41,6.44-14.93,7.13-22.41,2.79-44.64,1.2-66.83-3C925.71,586.6,919.51,584.58,918.66,575.42Z" transform="translate(-685.35 -385.63)"/><path id="Tracé_66" data-name="Tracé 66" class="cls-2" d="M1164.5,476.37c-1.44,0-2.61-.41-3-2-1.32-6-5.3-7.84-11-7a77.1,77.1,0,0,1,11-13.93c3.18-3.2,4.93-2.7,6.69,1.41a7.65,7.65,0,0,0-.41,4.79C1168.12,465.51,1165.54,470.79,1164.5,476.37Z" transform="translate(-685.35 -385.63)"/><path id="Tracé_67" data-name="Tracé 67" class="cls-3" d="M1135.57,615.41l19.09,8,.09,4.94c-7.33,2.25-12.32-2.67-17.87-5.85-.37-.21-.63-1.22-.74-1.19-6.39,1.93-10.12-4.65-15.8-4.91l-.74-.93c0-1.46,1.31-2.12,2-3.14C1126.58,612,1130.68,615.49,1135.57,615.41Z" transform="translate(-685.35 -385.63)"/><path id="Tracé_68" data-name="Tracé 68" class="cls-5" d="M739.06,461a70.43,70.43,0,0,0-3.37-15.84c-1.34-4.23,3.71-4.05,6.43-4.63,3-.63,7.34-2.25,8.23,2.1.77,3.74-3.28,7.54-1.49,11.88,0,.12-.65.81-1,.8C744,455.2,742.52,458.88,739.06,461Z" transform="translate(-685.35 -385.63)"/><path id="Tracé_69" data-name="Tracé 69" class="cls-3" d="M909.38,584.61c3.08,3.57-.23,6.4-1.74,8.73-1.38,2.12-3.87-.35-5.48-1.43-4.37-2.94-8.15-7.67-12.9-8.92-5.71-1.51-9.48-5.6-14.56-7.63,1.88-.21,3.52.58,5.24,1.15,9.47,3.15,18.83,6.74,28.83,8A1.63,1.63,0,0,0,909.38,584.61Z" transform="translate(-685.35 -385.63)"/><path id="Tracé_70" data-name="Tracé 70" class="cls-4" d="M1112.71,599.33c-1.8.14-3.78.24-1.82,2.76a9.32,9.32,0,0,0,5.4,3.28c1.25.3,3.12-.14,3.25,2-9.72-1.35-19.72-1.67-28.2-7.54C1100.16,592.5,1099,592,1112.71,599.33Z" transform="translate(-685.35 -385.63)"/><path id="Tracé_71" data-name="Tracé 71" class="cls-3" d="M1110.86,615.67c-.41,3-3.16,3.25-4.8,2.73-5.8-1.83-10.52-.65-14.86,3.46-1.28,1.21-3.18,1.76-4.78,2.63s-3.17,2.79-4.86,1.2-1.06-4.05-.37-6.1c.75-2.2,2.46-2.45,4.45-1.74a3.09,3.09,0,0,0,2.88-.12c6.14-4.08,12.71-6.2,20.13-4.41A3.81,3.81,0,0,1,1110.86,615.67Z" transform="translate(-685.35 -385.63)"/><path id="Tracé_72" data-name="Tracé 72" class="cls-2" d="M743.78,525.41l3,1c3.75,4.1,9.09,6.13,13,10,0,1.87-1.28,2-2.68,2l-6.41-.06.12,0a7.73,7.73,0,0,0-6.11-2.06l.1.09c-1.93-2.79-6.15-3.21-7.13-7.4.32-1.35,2.93.35,3.2-1.6l-.1,0c1.09.43,1.61-.24,2.05-1.06l-.05,0a1,1,0,0,0,1-1Z" transform="translate(-685.35 -385.63)"/><path id="Tracé_73" data-name="Tracé 73" class="cls-5" d="M908.77,584.48c-10-1.23-19.36-4.82-28.83-8-1.71-.57-3.36-1.36-5.24-1.15l0,0c-1.17-2-3-2.18-5.06-2l0,0-1-1,0,0-1.12-1.92c10.64-2.55,19,3.94,27.83,7.64A97.83,97.83,0,0,1,908.77,584.48Z" transform="translate(-685.35 -385.63)"/><path id="Tracé_74" data-name="Tracé 74" class="cls-5" d="M787.72,460.47c-4.27-5.18-8.25-10.64-13.45-15-.86-.72-1.74-1.88-1-3.08s2.08-.53,3.14-.15c4.06,1.42,7.92,3.51,12.43,3.37,1.28,0,1.93,1.38.92,2-5.85,3.56-2.28,8.42-2,12.82Z" transform="translate(-685.35 -385.63)"/><path id="Tracé_75" data-name="Tracé 75" class="cls-5" d="M1108.63,465.5c4.26-.94,6.89,2.18,10,4,1.34,5.68-1,8.45-7,8.34-.9,0-1.76,0-1.86-1C1109.47,473,1106.29,469.56,1108.63,465.5Z" transform="translate(-685.35 -385.63)"/><path id="Tracé_76" data-name="Tracé 76" class="cls-2" d="M898.52,548.82c-2.85,5.49-7.51,7.7-13.53,7.43-2.34-6.24-1.77-6.76,4.55-7.16C892.54,548.9,895.47,547.71,898.52,548.82Z" transform="translate(-685.35 -385.63)"/><path id="Tracé_77" data-name="Tracé 77" class="cls-5" d="M883.33,541.28a17.17,17.17,0,0,0-7.51,8.53c-1.44-3.41-6.18-6.45-3.43-10.07C875,536.31,878.82,540.08,883.33,541.28Z" transform="translate(-685.35 -385.63)"/><path id="Tracé_78" data-name="Tracé 78" class="cls-4" d="M922.62,558.5c-1.06,1.06-2.44.81-3.74.93-1,.08-2.06.24-2.48,1.3-.51,1.27.69,1.61,1.41,2.23,3.26,2.77.17,6.42,1.25,9.55.29.82-.24,1.92-.4,2.9-2.4-3-2.67-6.71-3.6-10.2-.41-1.63.58-3.66-1.37-4.85l0,0c1-2.06-1-3.79-.65-5.78A31.26,31.26,0,0,0,922.62,558.5Z" transform="translate(-685.35 -385.63)"/><path id="Tracé_79" data-name="Tracé 79" class="cls-5" d="M825.77,521.36c.94-3.27,1.38-7,6-7.06a43.36,43.36,0,0,0,5.29,11.07Z" transform="translate(-685.35 -385.63)"/><path id="Tracé_80" data-name="Tracé 80" class="cls-4" d="M725.68,484.48c1.7-1,3.43.18,5.14-.08a12.12,12.12,0,0,1,1.82,7.35C729.26,490,727.4,487.3,725.68,484.48Z" transform="translate(-685.35 -385.63)"/><path id="Tracé_81" data-name="Tracé 81" class="cls-5" d="M850.05,550.49a3.88,3.88,0,0,1,3.54,3.41c.23,1.3-.31,2.39-1.79,2.37a3.71,3.71,0,0,1-4-3.45.71.71,0,0,0,0-.14C847.69,551.33,848.5,550.54,850.05,550.49Z" transform="translate(-685.35 -385.63)"/><path id="Tracé_82" data-name="Tracé 82" class="cls-5" d="M1156.62,499.39l-.12,1.6c-1.57,1.5-.57,3.85-1.8,5.47-.14-1.09-.06-2.26-1-3.06-1.73,0-3.65-.16-3.5-2.45.16-2.52,2.26-1.05,3.51-1.27C1154.65,499.51,1155.64,499.48,1156.62,499.39Z" transform="translate(-685.35 -385.63)"/><path id="Tracé_83" data-name="Tracé 83" class="cls-5" d="M762.16,442.25c-1,1.41-1.62,3.36-3.94,3-1.39-.2-2.92-1-2.61-2.4.53-2.35,2.75-2.48,4.8-2.35C761.41,440.59,762.45,440.72,762.16,442.25Z" transform="translate(-685.35 -385.63)"/><path id="Tracé_84" data-name="Tracé 84" class="cls-5" d="M1072.62,585.3l13-6.66c0,.44.06.88.1,1.31a64.86,64.86,0,0,1-13.07,6.39C1072.64,586,1072.63,585.65,1072.62,585.3Z" transform="translate(-685.35 -385.63)"/><path id="Tracé_85" data-name="Tracé 85" class="cls-4" d="M939.63,555.38c-3.63,3.75-7.83,5.09-12.85,3.13Z" transform="translate(-685.35 -385.63)"/><path id="Tracé_86" data-name="Tracé 86" class="cls-4" d="M1154.7,506.46c1.23-1.62.23-4,1.8-5.47,1.5,6.29.29,10-4,12.35C1152.85,510.93,1154.8,509,1154.7,506.46Z" transform="translate(-685.35 -385.63)"/><path id="Tracé_87" data-name="Tracé 87" class="cls-2" d="M1172.64,463.38c-1.27-.92-2.55-.13-3.82,0l.42-3.59c.13-1.45.25-2.89.38-4.34C1172.74,457.27,1171.78,460.67,1172.64,463.38Z" transform="translate(-685.35 -385.63)"/><path id="Tracé_88" data-name="Tracé 88" class="cls-3" d="M1098.59,650.39l9.56,1.45c-3.13,2.06-6.18,1.15-9.23.35Z" transform="translate(-685.35 -385.63)"/><path id="Tracé_89" data-name="Tracé 89" class="cls-5" d="M750.7,538.38l6.41.06c1.4,0,2.69-.16,2.68-2l1.93,2.9C758,539.35,754.24,540.24,750.7,538.38Z" transform="translate(-685.35 -385.63)"/><path id="Tracé_90" data-name="Tracé 90" class="cls-5" d="M930.63,616.43a13.79,13.79,0,0,1,6.1,3c-2.78.54-5.15-2.14-8-1Z" transform="translate(-685.35 -385.63)"/><path id="Tracé_91" data-name="Tracé 91" class="cls-5" d="M913.07,554.63c-.39,2,1.65,3.72.65,5.79a16,16,0,0,1-3.1-6Z" transform="translate(-685.35 -385.63)"/><path id="Tracé_92" data-name="Tracé 92" class="cls-5" d="M787.78,460.42c1.71,1.15,2.67,2.69,2.68,5.48-2.28-1.54-2.59-3.43-2.73-5.43Z" transform="translate(-685.35 -385.63)"/><path id="Tracé_93" data-name="Tracé 93" class="cls-4" d="M1169.62,455.42c-.13,1.45-.26,2.89-.38,4.34l-1.39-.09a7.65,7.65,0,0,1,.42-4.79Z" transform="translate(-685.35 -385.63)"/><path id="Tracé_94" data-name="Tracé 94" class="cls-5" d="M913.69,560.36c1.95,1.19,1,3.22,1.37,4.85l-1.27.14C913.76,563.69,913.72,562,913.69,560.36Z" transform="translate(-685.35 -385.63)"/><path id="Tracé_95" data-name="Tracé 95" class="cls-2" d="M1109.69,545.48c.06-1.67.58-2.35,2-.94Z" transform="translate(-685.35 -385.63)"/><path id="Tracé_96" data-name="Tracé 96" class="cls-3" d="M867.63,570.48l1.12,1.92A1.66,1.66,0,0,1,866.9,571a1.69,1.69,0,0,1,0-.45C867.14,570.49,867.38,570.48,867.63,570.48Z" transform="translate(-685.35 -385.63)"/><path id="Tracé_97" data-name="Tracé 97" class="cls-5" d="M897.68,514.9a1.37,1.37,0,0,1-1.07-1.41C897.38,513.65,898.06,513.87,897.68,514.9Z" transform="translate(-685.35 -385.63)"/><path id="Tracé_98" data-name="Tracé 98" class="cls-4" d="M733.3,492.61l.1.31-.26,0Z" transform="translate(-685.35 -385.63)"/><path id="Tracé_99" data-name="Tracé 99" class="cls-4" d="M711.92,485.3c.18.19.54.5.5.55-.35.52-.66.24-1-.1Z" transform="translate(-685.35 -385.63)"/><path id="Tracé_100" data-name="Tracé 100" class="cls-4" d="M1092.59,480.35a3.08,3.08,0,0,1,0-.68c0-.07.25-.1.38-.15Z" transform="translate(-685.35 -385.63)"/><path id="Tracé_101" data-name="Tracé 101" class="cls-4" d="M1093.68,478.63l1-1.18Z" transform="translate(-685.35 -385.63)"/><path id="Tracé_102" data-name="Tracé 102" class="cls-2" d="M764.74,474.44c-.37.38-.7.39-1-.1Z" transform="translate(-685.35 -385.63)"/><path id="Tracé_103" data-name="Tracé 103" class="cls-4" d="M1115.13,600.3l-1.38-.73Z" transform="translate(-685.35 -385.63)"/><path id="Tracé_104" data-name="Tracé 104" class="cls-1" d="M1192.68,649.3c-2.48.49-6.52-1.43-7.14,1.15s3.67,3.09,5.9,4.27c2.64,1.4,5.27,3.82,8.64,1.23.89-.68,1.83.34,2.58,1,3.47,3,7.69,4.27,12,5.77,6,2.11,11,6.21,15.84,10.38-7.83-1.55-14.18-6.24-21-9.89-3.72-2-7.82-2.63-11.72-3.82-7.3-2.23-13.86-6.88-20.71-10.55a1.87,1.87,0,0,1-1.17-2.36.14.14,0,0,0,0-.06C1181.51,647.14,1187.29,647.08,1192.68,649.3Z" transform="translate(-685.35 -385.63)"/><path id="Tracé_105" data-name="Tracé 105" class="cls-1" d="M1135.67,630.27c-1.05-2.14,0-2,1.67-1.73,6.75,1.07,13.45,2.13,17.34,8.8C1147.54,637.14,1141.67,633.53,1135.67,630.27Z" transform="translate(-685.35 -385.63)"/><path id="Tracé_106" data-name="Tracé 106" class="cls-1" d="M1212.91,669c-4.06.88-6.22-.65-8.55-3.68C1208.09,665.2,1210.13,667,1212.91,669Z" transform="translate(-685.35 -385.63)"/><path id="Tracé_107" data-name="Tracé 107" class="cls-2" d="M1154.75,628.33l-.09-4.94c1.51.13,2.69,1.61,4.36,1.05,10.85,5.34,21.66,10.85,34.41,7.71,3.26-.85,6.37-1.54,9.36-3.73,3.15-2.3,7.22-.44,10.71,1.1,0,4.48-3.46,5.9-6.65,7-5.08,1.79-10,3.72-15,5.83a22.23,22.23,0,0,1-18.78-1.1c-6-3.09-12.34-5.76-16.15-11.9C1156.55,628.81,1155.49,628.67,1154.75,628.33Z" transform="translate(-685.35 -385.63)"/><path id="Tracé_108" data-name="Tracé 108" class="cls-2" d="M1232.5,659.27c-7.36-1.1-13.88-4.83-21-6.76-.74-.56-2-1.1-.77-2.17,3.1-2.68,6.23-5.45,10.77-5.13,1.62.11,3,.09,2.18-2.17,0-3.93,2.39-7.36,5.58-7.65,1.75-.15,2.77,4.63,2.8,7.72C1232.14,648.49,1232.36,653.88,1232.5,659.27Z" transform="translate(-685.35 -385.63)"/><path id="Tracé_109" data-name="Tracé 109" class="cls-1" d="M1223.71,643c.81,2.26-.56,2.28-2.18,2.17-4.54-.32-7.66,2.45-10.77,5.13-1.24,1.07,0,1.61.77,2.17-6.88,2.21-13-.09-18.94-3.25,2.85.24,5.84.17,8.23-1.2C1208,644,1215.73,643.1,1223.71,643Z" transform="translate(-685.35 -385.63)"/><path id="Tracé_110" data-name="Tracé 110" class="cls-5" d="M1119.61,615.45l.74.93c1.12,2.7,2.93,4.88,6.7,6.71-4.81.07-9.06-4.61-8.38-7.56C1118.69,615.44,1119.28,615.48,1119.61,615.45Z" transform="translate(-685.35 -385.63)"/><path id="Tracé_111" data-name="Tracé 111" class="cls-2" d="M1163.36,640.4l-.27.29c-.06-.12-.2-.24-.18-.35s.16-.2.25-.3Z" transform="translate(-685.35 -385.63)"/><path id="Tracé_112" data-name="Tracé 112" class="cls-1" d="M1193.43,632.15c-12.75,3.14-23.56-2.37-34.41-7.71a30,30,0,0,1,13.85,3.24C1179.39,631,1186.47,631.17,1193.43,632.15Z" transform="translate(-685.35 -385.63)"/><path id="Tracé_113" data-name="Tracé 113" class="cls-4" d="M1075.67,417.5c4.13,1,8.23,2.06,12.39,2.87a17.17,17.17,0,0,1,6.77,2.94c3.6,2.58,5.06,6.06,6.5,10.41,3,9.09,2.52,17.06-2.37,25.16-3,5-1.65,11.37-4.45,16.53-5.37-7.6-7.66-17.79-16.71-22.26-6.69-3.31-12.84-7.49-19.48-10.86-4.1-2.08-7.35-5.83-13.32-6.09l6.4-2.28c-4-.78-7.19-.7-9.82-2.53C1052.18,424.89,1063.1,419.15,1075.67,417.5Z" transform="translate(-685.35 -385.63)"/><path id="Tracé_114" data-name="Tracé 114" class="cls-3" d="M1004.56,435.33c2.67-6.31,8-9,14.27-10.05.46,4.85.42,4.76-4.48,6.44-3.27,1.11-6.43,2.52-9.63,3.8Z" transform="translate(-685.35 -385.63)"/><path id="Tracé_115" data-name="Tracé 115" class="cls-3" d="M1004.72,435.52l-1.05.45c.3-.21.6-.42.89-.64Z" transform="translate(-685.35 -385.63)"/><path id="Tracé_116" data-name="Tracé 116" class="cls-1" d="M750.93,547.17c9.42,6,19.11,8.28,29.8,3,3.11-1.54,6.85-1.79,10.31-2.63a31.46,31.46,0,0,1,10.89.9c4.31,1.3,5,3.17,2,6.22-5,5-11.66,6-18.31,6.54-2.43.18-2.31-1.44-.76-2.77,3.15-2.7,1.48-4.47-1.46-6.51-.05,2.28.41,4.36-1.48,5.93-1.73,1.44-3.61,1.48-5.61,1.54-7.91.25-15.66-.2-22.41-5.07l-1-1-1.68-1.3Z" transform="translate(-685.35 -385.63)"/><path id="Tracé_117" data-name="Tracé 117" class="cls-1" d="M801.57,571.62c-2.94,1.26-4.82.64-6.27-1.54-.5-.75-.54-2,.36-2C798.13,567.92,799.73,569.54,801.57,571.62Z" transform="translate(-685.35 -385.63)"/><path id="Tracé_118" data-name="Tracé 118" class="cls-3" d="M707.81,503.43a22.34,22.34,0,0,1,6.07,10.22c.85,3.09,5.78,3,5.5,7.06-9.49-5.33-18-11.64-22.58-22-1.19-2.7-2.67-5.28-4.1-8.1C697.59,491.69,699.36,493.22,707.81,503.43Z" transform="translate(-685.35 -385.63)"/><path id="Tracé_119" data-name="Tracé 119" class="cls-3" d="M719.53,520.82c3.55-.39,6.8,1.46,10.49,1,2.79-.31,2.32,2.43,1.81,4.4A12.87,12.87,0,0,1,719.53,520.82Z" transform="translate(-685.35 -385.63)"/><path id="Tracé_120" data-name="Tracé 120" class="cls-1" d="M749.09,545.3l1.9,1.94C749.81,547.13,748.05,547.59,749.09,545.3Z" transform="translate(-685.35 -385.63)"/><path id="Tracé_121" data-name="Tracé 121" class="cls-3" d="M869.69,573.36c2-.15,3.89.08,5.06,2C872.78,575.42,870.85,575.35,869.69,573.36Z" transform="translate(-685.35 -385.63)"/><path id="Tracé_122" data-name="Tracé 122" class="cls-3" d="M868.7,572.35l1,1Z" transform="translate(-685.35 -385.63)"/><path id="Tracé_123" data-name="Tracé 123" class="cls-4" d="M1028.69,539.55l2.15.22a18.2,18.2,0,0,1-5,13.11,11.43,11.43,0,0,0-3.2,5.53c-3.64-1.52-1.26-3.66-.17-5,2.25-2.82,5.25-5,3.81-9.45C1025.73,542.32,1029.24,541.83,1028.69,539.55Z" transform="translate(-685.35 -385.63)"/><path id="Tracé_124" data-name="Tracé 124" class="cls-1" d="M1072.62,585.3l0,1c-11.61,8.59-24.35,15.29-37.15,21.85-4.24,2.17-8.53,4.38-13.22,5.53l-1.88-.47c2.68-3.57,6.46-5.63,10.26-7.72,8.42-4.63,17.37-8.25,25.1-14.19,3.21-2.46,8-2,11.54-4.25Z" transform="translate(-685.35 -385.63)"/><path id="Tracé_125" data-name="Tracé 125" class="cls-5" d="M1020.4,613.25l1.88.47c-15.51,6.76-31.82,9.83-48.65,10.44l-.09-1.18c6.4-.72,12.87-1,19.13-2.71l3.89-.71C1004.81,618.58,1012.6,615.89,1020.4,613.25Z" transform="translate(-685.35 -385.63)"/><path id="Tracé_126" data-name="Tracé 126" class="cls-1" d="M973.54,623l.09,1.18c-8.33.5-16.65.72-24.88-1.1l0-.41C957,621,965.31,619.34,973.54,623Z" transform="translate(-685.35 -385.63)"/><path id="Tracé_127" data-name="Tracé 127" class="cls-5" d="M948.72,622.65l0,.41c-4.16-.83-8.5-1.1-12.12-3.7A61.11,61.11,0,0,1,948.72,622.65Z" transform="translate(-685.35 -385.63)"/><path id="Tracé_128" data-name="Tracé 128" class="cls-1" d="M739.52,486.32a1.47,1.47,0,0,0,.32-.77c1.65-.19,3.46-.57,3.87,1.76a6.2,6.2,0,0,1-.36,4.32,1.16,1.16,0,0,1-1.55.49l-.15-.09C739.6,490.66,739.54,488.48,739.52,486.32Z" transform="translate(-685.35 -385.63)"/><path id="Tracé_129" data-name="Tracé 129" class="cls-5" d="M1167.85,459.67l1.39.09-.42,3.58c-1.87,9.3-2.9,18.86-8.22,27.12.11-5,3.39-9.18,3.9-14.1C1165.54,470.79,1168.12,465.51,1167.85,459.67Z" transform="translate(-685.35 -385.63)"/><path id="Tracé_130" data-name="Tracé 130" class="cls-5" d="M1160.64,490.39a6.53,6.53,0,0,1-2,5.07C1158.3,493.38,1158.68,491.57,1160.64,490.39Z" transform="translate(-685.35 -385.63)"/><path id="Tracé_131" data-name="Tracé 131" class="cls-5" d="M1158.64,495.39c-.09.65-.19,1.3-.29,1.95a3.31,3.31,0,0,0-.77.09C1157.49,496.52,1157.4,495.61,1158.64,495.39Z" transform="translate(-685.35 -385.63)"/><path id="Tracé_132" data-name="Tracé 132" class="cls-5" d="M1157.63,497.38l-1,2.07C1156.54,498.56,1156.45,497.65,1157.63,497.38Z" transform="translate(-685.35 -385.63)"/><path id="Tracé_133" data-name="Tracé 133" class="cls-5" d="M742.83,526.42c-.44.83-1,1.5-2.06,1.06C741.09,526.41,741.88,526.27,742.83,526.42Z" transform="translate(-685.35 -385.63)"/><path id="Tracé_134" data-name="Tracé 134" class="cls-5" d="M743.78,525.41a1,1,0,0,1-1,1.06h0C742.66,525.69,743.17,525.5,743.78,525.41Z" transform="translate(-685.35 -385.63)"/><path id="Tracé_135" data-name="Tracé 135" class="cls-1" d="M1128.34,553.19l8.25-10.32c-.8,5-4,8-7.25,11.09Z" transform="translate(-685.35 -385.63)"/><path id="Tracé_136" data-name="Tracé 136" class="cls-4" d="M1085.92,547.71c-.51.44-1,.82-1.64.18l1.09-.82C1085.55,547.28,1085.73,547.5,1085.92,547.71Z" transform="translate(-685.35 -385.63)"/><path id="Tracé_137" data-name="Tracé 137" class="cls-5" d="M744.71,536.37a7.73,7.73,0,0,1,6.11,2.06A6.93,6.93,0,0,1,744.71,536.37Z" transform="translate(-685.35 -385.63)"/></g></svg>