<svg id="Calque_1" data-name="Calque 1" xmlns="http://www.w3.org/2000/svg" xmlns:xlink="http://www.w3.org/1999/xlink" viewBox="0 0 1080 1080"><defs><style>.cls-1{fill:none;}.cls-2{clip-path:url(#clip-path);}.cls-3{fill:#fadc48;}.cls-4{fill:#63bca1;}</style><clipPath id="clip-path"><rect class="cls-1" y="0.32" width="1080" height="1079.68"/></clipPath></defs><g class="cls-2"><g id="Groupe_161" data-name="Groupe 161"><g id="Groupe_160" data-name="Groupe 160"><path id="Tracé_703" data-name="Tracé 703" class="cls-3" d="M1000.81,538.1c0,254.16-205.4,460.44-458.77,460.44S83.23,792.38,83.23,538.1,288.63,77.75,542,77.75s458.77,206.12,458.77,460.44"/><path id="Tracé_704" data-name="Tracé 704" class="cls-4" d="M743.53,518.28h49.1c4.69,0,9.42.51,11.12-6.06,6.38-24.27-18.15-60.66-43.89-64.68-38-5.93-74.77,27-72.51,64.39.39,6.39,4,6.35,8.68,6.35h47.76M644.5,682.55c-20.19-23.89-29.09-52.23-33-82.31-6.51-51.12-1.69-100.6,24.35-146.6,32-56.46,95.78-81.75,158.34-61.34,47.76,15.59,69.81,52.49,79.1,98.07a220,220,0,0,1,1,70.4c-1.09,8.93-5.56,11.73-14,12.7-22.14,2.12-44.37,1.78-66.56,1.91-31.82.21-63.69.34-95.51,0-10.55,0-12.72,3.3-11.81,13.26,1.78,19.14,10.33,36,16.89,53.5-14.59,9.32-26.44,20.67-31.78,37.61a7.93,7.93,0,0,1-9.73,4.24c-4.34-1.78-1.08-5.55-.43-8.47s2.21-8.48-3.39-8.86c-4.73-.42-4.34,4.24-4.34,7.29a8.54,8.54,0,0,1-8.13,9h-.9"/><path id="Tracé_705" data-name="Tracé 705" class="cls-4" d="M265.05,614.69c14.67-51.21,29.22-102.42,44-153.59q20.85-72,42.2-144A123.16,123.16,0,0,0,357,282.3c0-7.07,2.7-10,10.34-9.83q38.42.51,76.8,0c8.16,0,10.51,3.9,12.5,10.59C470.23,328.77,484.17,374.34,498,420l43.41,144a38.84,38.84,0,0,1,1,5.46l-5.21,2.8c-3.69-17-11.33-32.79-14.41-50-1.52-8.47-2.17-19.82-16.63-19.74-3.52,0-3.6-5.29-1.56-8.26,10.81-15.29-7.91-26.43-6-40.62.39-2.75-4.35-3.56-6.95-1.65-5.91,4.78-13.63,4.23-20.06,7.11-7.16,3.31-16.24,8.82-14.46,15.42,2.61,9.66-2.91,16.14-4,24.11h-3.26c-16.58-50.84-27.7-103-43.42-154.15-14.93,59.64-30,118.61-47.54,177.27l-7.38-.5c-3.3-9.54-10.76-5.81-16.67-4.24s-11.2,4.24-8.29,12c1.69,4.23.43,7.5-4.34,8.47-3.47.81-5.25-1.44-5.52-4.74-.43-5.13-.6-12.37-7.72-10.51a13.63,13.63,0,0,0-11.2,15.55c.56,3.22,2.3,8.77,0,9.1-13.51,2.29-10.38,14.32-13.29,21.82-6.12,15.76-9.77,32.4-14.46,48.67l-5.42-2.75"/><path id="Tracé_706" data-name="Tracé 706" class="cls-4" d="M318,561.66c.83.33,1.78,1.1,2.39.89s.74-1.45,1.09-2.25c-.83-.34-1.78-1.1-2.35-.85s-.78,1.4-1.13,2.21m169.32-98.74c-.34.76-1.13,1.73-.91,2.28s1.48.77,2.3,1.11c.35-.81,1.13-1.74.91-2.33s-1.47-.72-2.3-1.06M298.52,643.66c0-6.18,3.3-10.5-3.64-14.36-.65,4.87-3,8.47,3.64,14.36M267,661.16a6.85,6.85,0,0,0-2.17,6.82c0,2.92.87,5.8,4.78,5.29s3.73-3.64,3.47-6.44a5.87,5.87,0,0,0-6-5.67h0m22.7,12.92c-3.86,0-9,.21-9,4.78,0,5.42,6.34,4.92,10,5.34a6.6,6.6,0,0,0,7.24-5.84.62.62,0,0,0,0-.13,8.68,8.68,0,0,0,0-1c-.43-4.49-5.21-2.58-8.25-3.13m43.94-118.61c5.82,2,9.55,3.69,13.46,4.66,3.17.76,7.34,6.06,9.46,0,1.78-5.08-2.91-7.5-7.68-7.67a22.24,22.24,0,0,0-15.2,2.84M470.1,511.71c4.91-16.94,4.34-23.72-2-32.7,0,10.89-1.65,20,2,32.7M269.65,720.54a12.76,12.76,0,0,0,9.47-12.7c.43-4.66-.66-8.73-6.73-8.09-7.12.76-9.21,6.52-10,11.94a8.15,8.15,0,0,0,7.25,8.81M522.37,573.35A38.19,38.19,0,0,1,507.79,600a19.2,19.2,0,0,0-5.17,17c.43,4.23,2.21,6.73,6.34,3.47,9.12-7.24,11.29-19.61,21.27-27.07,3.34-2.5-3.12-13.38-7.86-20.12m-251.81,44c4.65-16.26,8.34-32.95,14.46-48.71,2.91-7.5,0-19.53,13.29-21.81,2.12-.34.43-5.89,0-9.11a13.72,13.72,0,0,1,11.24-15.55c7.12-1.86,7.25,5.38,7.69,10.51.3,3.3,2,5.5,5.55,4.74,4.65-1,5.95-4.23,4.35-8.47-2.91-7.62,2.73-10.59,8.33-12s13.33-5.29,16.59,4.24a5.16,5.16,0,0,0,4.67,5.63h1.06v5.42c2.12,6.06,1.6,16.1,13,7.75,3.08-2.28,5.47.77,6.73,3.26,3.13,6.4,8.68,6.66,14.76,6.19,10.51-.89,22.4.63,31.09-3.81,10.72-5.51,24.05-3.82,33-12.71h.43c5.69-.42,14.11-.25,9.73-8.47s-5.56-18.73-13.25-25.42c1.13-8,6.65-14.44,4-24.1-1.78-6.65,7.34-12.16,14.46-15.42S486,457,491.9,452.29c2.43-2,7.33-1.15,6.94,1.65-1.91,14.19,16.85,25.41,6,40.62-2.09,2.92-2,8.47,1.52,8.47,14.45,0,15.11,11.18,16.62,19.7,3.09,17.24,10.73,33,14.46,50,0,6.23,1.17,11.23,9.12,11.1h0a5.65,5.65,0,0,0,2.17,5.93,15.08,15.08,0,0,0,.61,2.75c-5.69.64-6.6,4.24-5.47,8.81,1.39,5.21,4.34,9.07,10.72,8.48.26,1.27.52,2.58.83,3.85-3.74,5.34,5.86,13.85-9.21,18.17s-34.17,6.91-46.32,20.42c-3.3-3-6-6.82-11.42-5.68V643.7c7.73-14.48-6.95-26.51-4.95-40.53.26-1.95-4.91-1.57-7.73-1.53l-16.37-1.14c-13.89-10.85-29.87-2.42-44.76-4.58-2.6-.38-3.95,2.16-4.34,4.58h-5.82c-.6-2.46-1.86-4.66-4.64-4.66H343.46c-5.12,0-6.64,3.77-8.94,7.71-6.69,11.56-8.69,24.57-13.68,36.55a34.79,34.79,0,0,0-.35,29.19c-.43,1.86-.87,3.77-1.34,5.63h-7.38c-.27-4.23.52-9-5.3-10.16-.74,0-2.61,1.39-2.74,2.37-.65,4.66,2.39,6.65,8,7.75a38.69,38.69,0,0,1-4.35,19.44,22.82,22.82,0,0,0-.69,23.6l.3.38a14.69,14.69,0,0,1-7.94-5.59c-2.26-3-.26-11.23-8.69-7.63-7.64,3.35-3.9,8.47-1.64,12.71,2.77,5.63.78,7.84-5.21,7.75h-13c-27.92,0-27.92,0-28.91-27a29.23,29.23,0,0,1,.69-4.24c6.86.34,9.81-2.54,11.68-9.36,2.47-9.11-1.82-17.45-.78-26.22l-.39-.68.52-.55c10.16-3.17,12.11-10,6-20.71l2.09-3.18c0-1.61.3-3.26.43-4.87v.3c3.91-3.09,8.47-5.64,9.29-11.14"/><path id="Tracé_707" data-name="Tracé 707" class="cls-4" d="M644.24,682.67a8.6,8.6,0,0,0,9-8.12v-.86c0-3.13-.3-7.7,4.34-7.28,5.6.55,4.34,5.21,3.39,8.85-.65,3-3.78,6.82.43,8.47a7.93,7.93,0,0,0,9.73-4.23c5.34-17,17.36-28.34,31.78-37.62,1.43.3,3.25,0,4.34.93,39.07,35.08,84,29.4,129.55,17,15.89-4.24,15.8-5,15.76,11.14,0,11.73-.39,23.55,0,35.28,0,7.54-2.26,13-9.77,15.38-60.35,19.27-119.39,22.07-174.7-14.74a68.43,68.43,0,0,1-23.66-24.31"/><path id="Tracé_708" data-name="Tracé 708" class="cls-4" d="M499.58,651.46c12.2-13.56,30.83-16,46.32-20.42s5.52-12.71,9.21-18.17c13.59,34.69,21.71,71,33.6,106.19,2.13,6.48,0,9.62-7.47,9.57q-31.12-.37-62.21,0A9.26,9.26,0,0,1,508.65,721c-2.95-11.82-6-23.64-9-35.46,5.77-11.35,2.6-22.62,0-33.88"/><path id="Tracé_709" data-name="Tracé 709" class="cls-4" d="M319.84,668.44a34.73,34.73,0,0,1,.35-29.23c4.86-12,6.94-25,13.67-36.51,2.31-3.94,3.78-7.71,8.95-7.71h56.44c2.78,0,4,2.2,4.64,4.66-17.84.21-35.64,1-53.44.42-9.12-.25-12.5,3-14.55,11.36-4.73,19.1-10.63,38.12-16.06,56.93"/><path id="Tracé_710" data-name="Tracé 710" class="cls-4" d="M241.13,698.05c1,27,1,27,29,26.94h13c5.95,0,8-2.12,5.17-7.75-2.26-4.49-6-9.49,1.65-12.71,8.38-3.64,6.42,4.62,8.68,7.63a15,15,0,0,0,8,5.55c0,8.47-4.34,11.35-12.5,11.14-16.68-.43-33.43-.56-50.15,0-10,.25-13-3-9.42-12.33,2.43-6,2.56-12.71,6.69-18.26"/><path id="Tracé_711" data-name="Tracé 711" class="cls-4" d="M499.58,651.46c2.69,11.31,5.86,22.62,0,33.88A25.35,25.35,0,0,1,496,670.22a6.49,6.49,0,0,0-2.6-7.54A34.87,34.87,0,0,1,488,645.74c5.43-1.19,8.16,2.71,11.42,5.63"/><path id="Tracé_712" data-name="Tracé 712" class="cls-4" d="M409.67,599.74c.6-2.42,1.95-5,4.34-4.58,14.85,2.16,30.87-6.31,44.72,4.58H409.67"/><path id="Tracé_713" data-name="Tracé 713" class="cls-4" d="M475.35,600.84c2.78,0,8-.38,7.69,1.56-2,14,12.72,26,4.95,40.54-6-13.51-8.68-28-12.64-42.1"/><path id="Tracé_714" data-name="Tracé 714" class="cls-4" d="M306.17,717.37a22.8,22.8,0,0,1,.69-23.6,38.15,38.15,0,0,0,4.34-19.52h7.38a227.7,227.7,0,0,1-12.41,43.12"/><path id="Tracé_715" data-name="Tracé 715" class="cls-4" d="M252.72,658.36c-1,8.73,3.26,16.94.78,26.18-1.86,6.82-4.82,9.7-11.68,9.36a134.69,134.69,0,0,1,10.9-35.54"/><path id="Tracé_716" data-name="Tracé 716" class="cls-4" d="M258.84,636.38c6.12,10.71,4.34,17.53-6,20.71a46.62,46.62,0,0,1,6-20.71"/><path id="Tracé_717" data-name="Tracé 717" class="cls-4" d="M554.28,609c-6.47.76-9.29-3.09-10.68-8.47-1.17-4.49-.26-8.18,5.47-8.81h0c0,3.17-.73,6.56,2.7,8.68a10.16,10.16,0,0,1,2.56,8.47"/><path id="Tracé_718" data-name="Tracé 718" class="cls-4" d="M546.38,583.3c-7.9,0-9.33-4.87-9.12-11.1l5.21-2.75a26.54,26.54,0,0,1,3.91,13.85"/><path id="Tracé_719" data-name="Tracé 719" class="cls-4" d="M270.48,617.48c-.83,5.51-5.39,8.09-9.25,11.14a24.94,24.94,0,0,1,3.82-13.93l5.43,2.79"/><path id="Tracé_720" data-name="Tracé 720" class="cls-4" d="M551.72,600.46c-3.43-2.16-2.82-5.51-2.69-8.69a10.5,10.5,0,0,1,2.69,8.69"/><path id="Tracé_721" data-name="Tracé 721" class="cls-4" d="M493.55,662.68a6.69,6.69,0,0,1,2.6,7.58,7.74,7.74,0,0,1-2.6-7.58"/><path id="Tracé_722" data-name="Tracé 722" class="cls-4" d="M548.47,589.1a5.52,5.52,0,0,1-2.17-6,5.7,5.7,0,0,1,2.17,6"/><path id="Tracé_723" data-name="Tracé 723" class="cls-4" d="M261.4,628.41l-.39,4.87c-2.82-1.86-1.3-3.34.39-4.87"/><path id="Tracé_724" data-name="Tracé 724" class="cls-4" d="M456.64,532.81c.48-11.9-6.21-22.45-6.73-34.14h3.26c7.68,6.82,8.68,16.94,13,25.41s-4,8.22-9.76,8.69"/><path id="Tracé_725" data-name="Tracé 725" class="cls-4" d="M359.09,521.8l-1.69,5a5.27,5.27,0,0,1-5.74-4.66,4.27,4.27,0,0,1,0-1Z"/><path id="Tracé_726" data-name="Tracé 726" class="cls-4" d="M357.57,532.3l98.64.68c-8.95,8.94-22.27,7.2-33,12.71-8.68,4.23-20.62,2.92-31.08,3.77-5.91.5-11.64.25-14.76-6.19-1.26-2.46-3.65-5.5-6.73-3.26-11.46,8.47-10.94-1.65-13-7.75"/><path id="Tracé_727" data-name="Tracé 727" class="cls-4" d="M522.29,573.35c4.73,6.73,11.15,17.62,7.85,20.07-10,7.5-12.15,19.83-21.27,27.07-4.34,3.31-5.9.72-6.34-3.43a19.22,19.22,0,0,1,5.21-16.94,38.13,38.13,0,0,0,14.55-26.65"/><path id="Tracé_728" data-name="Tracé 728" class="cls-4" d="M269.61,720.67a8.22,8.22,0,0,1-7.29-8.81c.82-5.46,2.86-11.23,10-12,6.12-.63,7.21,3.43,6.77,8.09a12.74,12.74,0,0,1-9.46,12.71"/><path id="Tracé_729" data-name="Tracé 729" class="cls-4" d="M470.06,511.8c-3.69-12.71-2-21.82-2-32.74,6.51,9,6.94,15.67,2,32.74"/><path id="Tracé_730" data-name="Tracé 730" class="cls-4" d="M333.65,555.39a22.11,22.11,0,0,1,15.24-2.84c4.77,0,9.46,2.58,7.64,7.67-2.09,5.88-6.3.59-9.42,0-3.91-1-7.65-2.63-13.46-4.66"/><path id="Tracé_731" data-name="Tracé 731" class="cls-4" d="M289.67,674.08c3,.55,7.81-1.36,8.25,3.13a6.63,6.63,0,0,1-6.21,7h-1c-3.65-.42-9.95,0-10-5.34,0-4.57,5.12-4.61,9-4.78"/><path id="Tracé_732" data-name="Tracé 732" class="cls-4" d="M267,661.16a5.79,5.79,0,0,1,6,5.54s0,.09,0,.13h0c.3,2.8.34,5.93-3.48,6.44s-4.34-2.33-4.77-5.29a7.07,7.07,0,0,1,2.17-6.82"/><path id="Tracé_733" data-name="Tracé 733" class="cls-4" d="M298.52,643.66c-6.64-5.72-4.34-9.49-3.64-14.4,6.9,3.94,3.64,8.22,3.64,14.4"/><path id="Tracé_734" data-name="Tracé 734" class="cls-4" d="M310.94,674.29c-5.69-1.23-8.68-3.22-8.07-7.92,0-.94,2-2.5,2.73-2.33,5.82,1.18,5,5.93,5.34,10.25"/><path id="Tracé_735" data-name="Tracé 735" class="cls-4" d="M487.21,462.92c.78.34,2,.51,2.25,1.1s-.56,1.48-.91,2.29c-.78-.39-2-.56-2.3-1.11s.61-1.52,1-2.28"/><path id="Tracé_736" data-name="Tracé 736" class="cls-4" d="M318,561.66c.35-.81.57-2,1.13-2.25s1.57.55,2.35.89c-.35.8-.52,2-1.09,2.25s-1.56-.56-2.39-.89"/><path id="Tracé_737" data-name="Tracé 737" class="cls-4" d="M1075.57,522.52v12.24c.13,294.86-239.3,534.18-534.31,534.18S7,829.62,7,534.55,246.12.32,541.26.32h6l1,76.75h-5.69C289,77.07,83.49,283.19,83.49,537.51s205.74,460.4,459.07,460.4,459.08-206.16,459.08-460.4q0-12.71-.7-25.16h74.15Z"/><rect id="Rectangle_32" data-name="Rectangle 32" class="cls-1" x="-15.89" y="-1521.21" width="3345.28" height="5467.12"/></g></g></g></svg>