<svg id="Calque_1" data-name="Calque 1" xmlns="http://www.w3.org/2000/svg" viewBox="0 0 1080 1080"><defs><style>.cls-1{fill:#59b190;}.cls-2{fill:#ffd42f;}</style></defs><g id="Groupe_157" data-name="Groupe 157"><path id="Tracé_689" data-name="Tracé 689" class="cls-1" d="M1004.93,543c0,256.9-207.52,465.43-463.56,465.43S78,800.06,78,543,285.56,77.54,541.55,77.54,1004.93,285.94,1004.93,543"/><path id="Tracé_690" data-name="Tracé 690" class="cls-2" d="M421.54,382.84c-13.16,64.22-29.39,124.77-46.81,185-2.37,8.22,2,9.33,8.78,9.29,24.38,0,48.77-.81,73.07.22,14.79.6,15.53-4.07,12.07-16.49-16.06-58.4-31.15-117-47.2-178m96.5,364c-8.42-31.77-17-63.54-25.13-95.4-1.63-6.29-5.27-7.79-11.19-7.79-38.95,0-77.9.34-116.85,0-9,0-11,4.28-12.86,11.52-8.77,34.25-18.73,68.51-27.15,102.76-2.72,11-7.59,14.77-19,14-15.53-.9-31.15-.25-46.72,0-8.77,0-14.43.65-10.09-12.33,13.51-40.55,26-81.35,36.72-122.8,8.33-31.9,19.17-63,27.46-94.84l57-191.87a35.86,35.86,0,0,0,1.05-7.49c2.37-27.49,2.37-27.45,31.59-27.53,19.65,0,39.47-.35,59-.56,8.78.64,9.79,7.49,11.76,13.53,2.89,8.91,5.57,17.9,8.38,26.85,1.36,4,2.67,8,4,12a19.78,19.78,0,0,0,3.69,11.86,11.13,11.13,0,0,0,2.76,9.37q27.19,92.23,54.39,184.51c9.21,31,18.86,61.83,28.34,92.74s18.11,63,28,94.2c3.07,9.68,1.32,12.85-9.12,12.42a436,436,0,0,0-49.83,0c-14,1.2-21.45-3-22.94-16.83a39,39,0,0,0-3.11-8.56"/><path id="Tracé_691" data-name="Tracé 691" class="cls-2" d="M681.39,570.51c0-35.71.52-71.42.66-107,0-26,0-26,25.92-28q17,1.08,34.13.47c12.59-1,15.61,3.64,15.52,15.42-.48,91-.26,182-.26,273,0,5.57.44,11.09.66,16.66a54.31,54.31,0,0,0-.53,12c2.55,14.47-2.89,21.4-18.33,19.86-14.48-.25-28.95-1.24-43.38-.6-11.06.52-14-3.42-13.91-13.83.4-59.09,0-118.17,0-177.22,0-3.55-.39-7.07-.61-10.58"/><path id="Tracé_692" data-name="Tracé 692" class="cls-2" d="M714.2,389.43c-34.79-7.79-49.52-39.95-31.19-67.74,11.36-17.13,29.08-16.78,46.8-16.7,26.32,8.18,35.1,22.83,31.45,52.46-2.54,20.25-16.27,29.54-47.06,32"/><path id="Tracé_693" data-name="Tracé 693" class="cls-2" d="M800.74,157.14c128.74,88.16,205.08,232.29,204.32,385.79,0,256.91-207.65,465.44-463.82,465.44S77.42,800,77.42,542.93,285.07,77.54,541.24,77.54H547L546,0h-6C241.69,0,0,241.79,0,540s241.69,540,540,540,540-241.79,540-540c.79-178.38-88.21-345.76-238.1-447.79Z"/></g></svg>