<svg id="Calque_1" data-name="Calque 1" xmlns="http://www.w3.org/2000/svg" viewBox="0 0 1920 1080"><defs><style>.cls-1{fill:#fafafa;}</style></defs><rect id="Rectangle_68" data-name="Rectangle 68" class="cls-1" width="80" height="1080"/><rect id="Rectangle_69" data-name="Rectangle 69" x="80" width="80" height="1080"/><rect id="Rectangle_70" data-name="Rectangle 70" class="cls-1" x="160" width="80" height="1080"/><rect id="Rectangle_71" data-name="Rectangle 71" x="240" width="80" height="1080"/><rect id="Rectangle_72" data-name="Rectangle 72" class="cls-1" x="320" width="80" height="1080"/><rect id="Rectangle_73" data-name="Rectangle 73" x="400" width="80" height="1080"/><rect id="Rectangle_74" data-name="Rectangle 74" class="cls-1" x="480" width="80" height="1080"/><rect id="Rectangle_75" data-name="Rectangle 75" x="560" width="80" height="1080"/><rect id="Rectangle_76" data-name="Rectangle 76" class="cls-1" x="640" width="80" height="1080"/><rect id="Rectangle_77" data-name="Rectangle 77" x="720" width="80" height="1080"/><rect id="Rectangle_78" data-name="Rectangle 78" class="cls-1" x="800" width="80" height="1080"/><rect id="Rectangle_79" data-name="Rectangle 79" x="880" width="80" height="1080"/><rect id="Rectangle_80" data-name="Rectangle 80" class="cls-1" x="960" width="80" height="1080"/><rect id="Rectangle_81" data-name="Rectangle 81" x="1040" width="80" height="1080"/><rect id="Rectangle_82" data-name="Rectangle 82" class="cls-1" x="1120" width="80" height="1080"/><rect id="Rectangle_83" data-name="Rectangle 83" x="1200" width="80" height="1080"/><rect id="Rectangle_84" data-name="Rectangle 84" class="cls-1" x="1280" width="80" height="1080"/><rect id="Rectangle_85" data-name="Rectangle 85" x="1360" width="80" height="1080"/><rect id="Rectangle_86" data-name="Rectangle 86" class="cls-1" x="1440" width="80" height="1080"/><rect id="Rectangle_87" data-name="Rectangle 87" x="1520" width="80" height="1080"/><rect id="Rectangle_88" data-name="Rectangle 88" class="cls-1" x="1600" width="80" height="1080"/><rect id="Rectangle_89" data-name="Rectangle 89" x="1680" width="80" height="1080"/><rect id="Rectangle_90" data-name="Rectangle 90" class="cls-1" x="1760" width="80" height="1080"/><rect id="Rectangle_91" data-name="Rectangle 91" x="1840" width="80" height="1080"/></svg>