<svg id="Calque_1" data-name="Calque 1" xmlns="http://www.w3.org/2000/svg" viewBox="0 0 1080 1080"><defs><style>.cls-1{fill:#59b190;}.cls-2{fill:#ffd42f;}</style></defs><g id="Groupe_159" data-name="Groupe 159"><path id="Tracé_699" data-name="Tracé 699" class="cls-1" d="M1004.5,543.72C1004.5,800.54,797,1009,540.94,1009S77.33,800.71,77.33,543.72,284.87,78.45,540.94,78.45,1004.5,286.77,1004.5,543.72"/><path id="Tracé_700" data-name="Tracé 700" class="cls-2" d="M321.15,773.06q0-189.84-.35-379.71c0-10.87-.35-21.74-.52-32.62,0-16.77.48-33.55.48-50.37,0-6.08,1.45-9.76,8.77-9.68,20.93.26,41.85,0,62.74,0a10.39,10.39,0,0,1,9.25,4.75,51,51,0,0,0,.22,22c-.66,28.9-1.53,57.87,0,86.77-2.54,25.68-.48,51.36-.39,77.34.26,77.39-1.41,154.78.92,232.12,0,1.76-.22,3.51-.35,5.22v9.64l-.79,30.86c-.4,1-.79,2-1.23,3h0c-8.78,0-17.2,0-25.75.47-15.4.86-30.71-2.22-46.2,1.72L321.07,773"/><path id="Tracé_701" data-name="Tracé 701" class="cls-2" d="M650.65,486.7c-6.18-.85-11.58,2-17.19,3.64-36.19,9-63.35,51.37-63.31,95.45a92.11,92.11,0,0,0,.53,32.15,5.38,5.38,0,0,0,.7,6.85c.31,1.71.57,3.38.88,5l1,3.51c2.41,46.17,42.73,81.71,90.06,79.36h.09a84.12,84.12,0,0,0,17.29-2.61c6.36-1.63,13.16-3.77,10.79-12.84a1.27,1.27,0,0,0,0-1.82l0,0h0v-8a18,18,0,0,0,0-11.39v-7.83a1.27,1.27,0,0,0,0-1.82l0,0h0v-7.66a1.27,1.27,0,0,0,0-1.82l0,0h0q1.71-82.32,0-164.62c-12.63-9.29-26.63-8.14-40.89-5.14M773.22,700.55v6.59c-.65,3-1.62,6,1.1,8.56-4.12,5.82-2.19,12.12-1.27,18.28a35.39,35.39,0,0,0,.61,15c0,1.46-.22,2.91-.35,4.28a240.12,240.12,0,0,1-89.75,26.62c-4.39.47-9.09-.38-13.16,1.89l-14.66.43h-2.5l-14.69-.43a28.46,28.46,0,0,0-15-1.54l-9.74-1.07a8.9,8.9,0,0,0-7.76-1.93c-47.73-12.84-82.12-41-102.61-85.05a1.32,1.32,0,0,0-.59-1.79h-.33c-.57-1.8-1.14-3.64-1.76-5.48-15.09-46.4-18.47-93.44-5.09-140.56,23.21-81.63,91.73-128.88,181.71-125.16,13.82.56,15.35-3.85,15.18-15.15-.4-34.24.31-68.49.61-102.73l76.38-.43,2.81,2.53q.25,186.24.57,372.39c0,2.31.22,4.62.35,6.93a45.46,45.46,0,0,0,0,17.55"/><path id="Tracé_702" data-name="Tracé 702" class="cls-2" d="M1080,527.8v12.37C1080,838.33,838.24,1080,540,1080S.08,838.33.08,540.17,241.79.33,540.1.33h6.06l1,77.56h-5.74c-256.2,0-463.87,208.28-463.87,465.27s207.67,465.23,463.87,465.23,463.74-208.32,463.74-465.23c0-8.56,0-17.12-.66-25.42h74.93Z"/></g></svg>