<svg id="Calque_1" data-name="Calque 1" xmlns="http://www.w3.org/2000/svg" viewBox="0 0 1080 1080"><defs><style>.cls-1{fill:#fadc48;}.cls-2{fill:#63bca1;}</style></defs><path id="Tracé_738" data-name="Tracé 738" class="cls-1" d="M1080,542.83c0,256.89-223,465.41-498.1,465.41S83.8,799.9,83.8,542.83s223-465.42,498.1-465.42S1080,285.8,1080,542.83"/><path id="Tracé_739" data-name="Tracé 739" class="cls-2" d="M580.2,1080C259.7,1080,0,838.26,0,540S259.75,0,580.2,0h6.51l1,77.54h-6.18C306.32,77.54,83.19,285.93,83.19,543s223.13,465.42,498.38,465.42Z"/><path id="Tracé_740" data-name="Tracé 740" class="cls-2" d="M693,777a12,12,0,0,1-2.54-8.14q.27-53.05.37-106.06a23.41,23.41,0,0,0,12.4-3.64,635.49,635.49,0,0,0,73.9-40.67c4.34-2.91,8.49-7,14.8-6.38q.42,44.15.8,88.2c0,22.61-.56,45.26,0,67.91,0,7.19-2.35,9.42-10.27,9.25-29.74-.43-59.48-.3-89.22-.43"/><path id="Tracé_741" data-name="Tracé 741" class="cls-2" d="M838.11,431.16a92.06,92.06,0,0,1,55.57-12.84c6.93.42,10.75,2.82,10.42,10.14-.47,12,0,24,.28,36a257.74,257.74,0,0,0,0,30.7C905.47,505.58,899,508,890.24,508a161.28,161.28,0,0,0-40.34,4.71,124.66,124.66,0,0,0-52.18,25.43,14.54,14.54,0,0,0-5.37,12.42c0,20.5,0,41-.33,61.44-6.32-.65-10.46,3.47-14.8,6.38a624.43,624.43,0,0,1-73.86,40.67A23.17,23.17,0,0,1,691,662.71V583.33c5.93.81,9.94-3,13.85-5.78a569.48,569.48,0,0,0,75.42-60.93,299.11,299.11,0,0,0,57-77.07c1.27-2.57,5.42-5.39.7-8.56"/><path id="Tracé_742" data-name="Tracé 742" class="cls-2" d="M690.07,576.78c.38-24.23,1.37-48.47-.56-72.79-.76-21.88,0-43.8-3.35-65.55a16.26,16.26,0,0,1,1.93-13.79,7.22,7.22,0,0,0,2.36-.3h7.3c21.31,0,42.42.69,63.92,0,10.46-.25,15.69,3.6,18,12.21l8.68,32.54c14.61-16,29.31-30.28,49.81-38.11,4.72,3.12.62,6-.7,8.56a298.08,298.08,0,0,1-57,77.07A579.13,579.13,0,0,1,705,577.55c-4,2.74-8,6.59-13.9,5.74-.28-2.19-.57-4.28-.8-6.55"/><path id="Tracé_743" data-name="Tracé 743" class="cls-2" d="M396.53,649.48l.85,39.74q-.44,12.06-.81,24.19a324.5,324.5,0,0,1-41.71,2.31,159.13,159.13,0,0,0-27.52,1,68.65,68.65,0,0,1-29.51-1.07c-.28-11.77-.56-23.5-.8-35.28q.42-13.14.85-26.46a723.76,723.76,0,0,0,98.65-4.28"/><path id="Tracé_744" data-name="Tracé 744" class="cls-2" d="M297.83,715.63a69.28,69.28,0,0,0,29.51,1.12,151.08,151.08,0,0,1,27.48-1,316.36,316.36,0,0,0,41.75-2.35c0,18.58,0,37.16.43,55.66a12,12,0,0,1-2.55,8.22,6.67,6.67,0,0,0-2.26.34c-28.28,0-56.56-.51-84.55-.26-7.73,0-10.61-1.71-10.37-9.12.66-17.55.42-35.11.56-52.66"/><path id="Tracé_745" data-name="Tracé 745" class="cls-2" d="M297.88,459.93q-.42-25.31-.8-50.65c0-27.14.56-54.29,0-81.35,0-8.13,3-10.7,11.83-11,52.83-1.63,105.67-4.28,158.51-2.14,5.65.26,11.21,1,16.82,1.54l-.28.69c0,9.76,4,19.26,2.54,29.11-2.21,15.41-6,30.23-19.56,41.23a314.35,314.35,0,0,0-56.56-1.84c-9.89.56-14.7,2.61-14.14,13.19,1.09,18.15,0,36.44,0,54.68a436,436,0,0,1-98.69,6.63"/><path id="Tracé_746" data-name="Tracé 746" class="cls-2" d="M297.88,459.93a437.71,437.71,0,0,0,98.69-6.59v92.57c-33,3.34-66,2-98.64,2.18-.29-8.56-.52-17.6-.81-26.37.29-20.64.52-41.19.81-61.79"/><path id="Tracé_747" data-name="Tracé 747" class="cls-2" d="M297.88,548.09c33,0,66,1.16,98.65-2.18-.95,8.56,2.92,12.84,13,11.3a36.3,36.3,0,0,1,9.43,0C463.31,562,499,550.28,520.2,512.3c3.44,4.58,7.22,1.67,10.56,0,37.71-17.56,71.78-39,96.81-70.78a184.87,184.87,0,0,1,0,57.89c0,2.18-.23,4.28-.37,6.55a2.3,2.3,0,0,0-.48,1.89c-7.77,23-17.06,45.12-34.36,64.22-26.77,29.33-61.27,46.33-101.47,54.8a273.18,273.18,0,0,1-86.21,3.43c-6.6-.69-8.77,1.28-8.25,7.06a101.48,101.48,0,0,1-.33,12.08,730.16,730.16,0,0,1-98.65,4.28q-.42-28.61-.8-57.24.33-24.29.8-48.52"/><path id="Tracé_748" data-name="Tracé 748" class="cls-2" d="M627.81,441.78C602.73,473.55,568.56,495,531,512.55c-3.35,1.55-7.12,4.29-10.56,0,2.12-9.24,5-18.28,6.22-27.78,4.34-35.28-4.33-83.07-59.57-97.32,13.57-11,17.39-25.69,19.6-41.28,1.42-9.85-2.31-19.35-2.54-29.11,36.3,3.24,70.5,17,97.61,39.13,2.07,1.67,4.24,3.25,6.36,4.92l4.72,4.5a10.32,10.32,0,0,0,4.71,6.34c16.26,21.1,27.71,43.93,30,70"/></svg>