<svg id="Calque_1" data-name="Calque 1" xmlns="http://www.w3.org/2000/svg" viewBox="0 0 1080 1080"><defs><style>.cls-1{fill:#59b190;}.cls-2{fill:#ffe23a;}.cls-3{fill:#ffd42f;}</style></defs><g id="Groupe_158" data-name="Groupe 158"><path id="Tracé_694" data-name="Tracé 694" class="cls-1" d="M1005.12,543.14c0,256.81-207.59,465.25-463.61,465.25S78.08,800.12,78.08,543.14,285.66,77.88,541.68,77.88s463.44,208.32,463.44,465.26"/><path id="Tracé_695" data-name="Tracé 695" class="cls-2" d="M1080,527.77v12.37C1080,838.3,838.24,1080,540,1080S.08,838.3.08,540.14,241.79.33,540.1.33h6.06l1,77.55h-5.74c-256.2,0-463.87,208.28-463.87,465.26s207.67,465.25,463.87,465.25,463.74-208.31,463.74-465.25c0-8.56-.27-17.12-.66-25.43h74.88Z"/><path id="Tracé_696" data-name="Tracé 696" class="cls-3" d="M724.75,548.1c20.79,11.13,41.85,21.83,62.38,33.43,62.21,35.06,78.44,77,56.11,143-22.64,38.52-58.3,54.92-102.3,56.63-31.9,1.24-63.39,0-93.27-12.84-7.41-3.17-14.74-6.17-15.57-15.5.26-17.12,1-33.94.66-50.85,0-11.21,2.28-13.78,13.16-7.7,31.1,17.12,64.44,25,100.24,19.05,13.68-2.27,25.22-7.92,29-22.47s-3.07-25.68-14.3-35c-17.54-14.29-38.29-23.41-58-34.24-11.88-6.46-24.12-12.62-33.34-22.94,7-11,17.55-19,26.76-27.69s14.92-20.07,28.43-22.9"/><path id="Tracé_697" data-name="Tracé 697" class="cls-3" d="M356.73,455.22c0,23.67.31,47.38,0,71,0,9.12,2.63,13.36,12.46,12.84,11.1-.51,22.2.22,33.25,0,64.14-1.84,97.39-41.3,87.3-103-4.91-30-21.93-49.09-51.54-58.3-22.64-7.1-45.85-5.43-69.05-4.92-9.57,0-12.64,3.64-12.42,12.84.53,23.16,0,46.36,0,69.51m-77.3,86.63c0-72.76.27-145.52-.26-218.28,0-12.85,3.77-17.13,17-17.13,43.38.56,86.86-2.14,130.07.6,96.51,6.12,150.51,61.3,143.58,161.37-6.58,95.27-79,133-157.49,138.59a193,193,0,0,1-36.45,0c-15-1.8-20,2-19.57,17.68,1.19,44.85,0,89.88.66,134.65,0,11.73-2.54,16.78-15.62,15.79a289.15,289.15,0,0,0-46,0c-13.91,1.07-16.32-4.28-16.23-16.65.57-72.25.26-144.45.26-216.7"/><path id="Tracé_698" data-name="Tracé 698" class="cls-3" d="M724.75,548.1C711.28,551,705.27,562.83,696.32,571s-19.74,16.7-26.76,27.7C627.08,564.58,621,503.29,656,461.85l.06-.08c.93-1.11,1.89-2.22,2.9-3.29a98.43,98.43,0,0,1,52.64-30.26,245.43,245.43,0,0,1,112.92,3.25,15.65,15.65,0,0,1,13.56,17.62h0c-.57,14.94-.53,30,0,44.9.35,11.3-3.47,13.7-14,8.95a162.72,162.72,0,0,0-81.86-13.61c-19.83,1.79-33,13.35-34.22,28.46-1.1,13.7,8.42,21.4,16.72,30"/></g></svg>