<svg id="Calque_1" data-name="Calque 1" xmlns="http://www.w3.org/2000/svg" viewBox="0 0 952.59 865.42"><defs><style>.cls-1{fill:#d1e7db;}.cls-2{fill:#fadc48;}.cls-3{fill:#63bca1;}.cls-4{fill:#1d1d1b;}</style></defs><polygon class="cls-1" points="476.43 12.2 473.68 854.64 522.75 863.81 556.68 865.19 589.24 861.52 621.35 849.14 639.69 834.92 652.07 817.04 672.71 773.01 709.85 715.68 730.49 684.5 758.01 641.85 780.02 613.88 819.46 560.22 864.86 504.27 912.55 446.95 941.45 401.55 946.49 337.34 940.53 295.61 922.18 250.21 885.96 186.46 849.73 138.31 803.87 91.07 730.95 26.87 698.85 5.32 616.3 9.44 476.43 12.2"/><polygon class="cls-1" points="474.82 10.59 477.57 853.04 428.5 862.21 394.57 863.58 362.01 859.91 329.9 847.53 311.56 833.32 299.18 815.43 278.54 771.4 241.4 714.08 220.76 682.9 193.24 640.25 171.23 612.27 131.79 558.62 86.39 502.67 38.7 445.34 9.8 399.94 4.76 335.74 10.72 294 29.06 248.6 65.29 184.86 101.52 136.7 147.38 89.47 220.3 25.27 252.4 3.71 334.95 7.84 474.82 10.59"/><path class="cls-2" d="M683.46,188s-57.07,87.76-35,120.9,62-6.75,62-6.75l9.2-38.66Z" transform="translate(-483.7 -107.29)"/><path class="cls-3" d="M1236.4,187.78s57.07,87.76,35,120.9-62-6.75-62-6.75l-9.2-38.66Z" transform="translate(-483.7 -107.29)"/><path class="cls-4" d="M1090,284.06c-.12-4.53.31-8.9,5.11-11,4.35-1.91,8,.51,11,3,14.38,12.07,23.23,27.41,26.08,46,.68,4.41.24,9-3.85,11.72-3.8,2.52-7.67.87-11.25-1.33C1104.2,324.64,1089.78,298.89,1090,284.06Z" transform="translate(-483.7 -107.29)"/><path class="cls-4" d="M984.9,780.33a44.74,44.74,0,0,1-7.78,26.7c-6.55,10-26.43,11.55-33.13,2-12.61-18.07-16.12-41.31,8.78-55.92,4.9-2.88,8.72-3.27,13.75-.29C979,760.16,984.86,768.79,984.9,780.33Z" transform="translate(-483.7 -107.29)"/><path class="cls-4" d="M830.18,285.71c-3.32,17.66-11.62,34.6-27.85,47-3,2.29-6.71,3.42-10.33,1.5-4-2.13-5.32-6.23-4.7-10.28,3-19.84,11.49-36.91,28-48.82C823.57,269.13,830.18,273.38,830.18,285.71Z" transform="translate(-483.7 -107.29)"/><path class="cls-4" d="M1435.57,442.15c-4.36-48.48-22.88-91.86-48.51-132.44-48.89-77.44-114.12-139.38-186.18-194.79a34,34,0,0,0-23.06-7.46q-79.21,2.07-158.45,3.43c-91.65,1.44-183.25-2.07-274.27-2.67-11.9-3.08-20.48,2-29,8.65-23.7,18.58-47,37.67-69,58.19-49,45.58-93.23,95.09-125.81,154-26.91,48.61-43.84,99.81-35.39,156.45,2.36,15.77,3.82,32.56,14.72,45.13,46,53.07,90.4,107.47,132.59,163.62,53.48,71.17,104.86,143.8,145,223.59,13.34,26.53,33.67,42.53,61.85,49.59,34.19,8.56,68.3,5.62,102.27-1.29,10.57-2.15,20.68-3.28,31.59-.81,27.78,6.29,56,9.34,84.53,6.07,37.42-4.3,67.29-19.28,84.35-55.57,19.24-40.92,43.79-78.92,68.89-116.46,58.27-87.12,122.75-169.49,190.68-249.24,7.54-8.85,17.53-16.2,21.79-27.27A177.92,177.92,0,0,0,1435.57,442.15Zm-214-298.84c19.47,15.83,38,32.78,56.49,49.67,4.6,4.19,3.7,6.4-.79,10-14.91,11.82-14.84,12-23.38-4.64-6.74-13.17-14.08-25.86-25.92-35.26-7.23-5.74-9.13-5.27-10.33,3.86-3.46,26.18-7.37,52.25-15.17,77.57a23.54,23.54,0,0,1-4.92,9.62q-5.61-43.72-11.23-87.46l-3.65.08c0,27.66-3.25,55.82.91,82.84,4.25,27.64,19.05,52.58,35.2,75.85-32.83-32-55.84-68.88-59.38-115.87a272,272,0,0,0-5-33.66c-1.19-5.86.76-8.64,5.71-10.92,16.39-7.56,32.77-15.14,48.94-23.16C1214,139.34,1217.39,139.87,1221.61,143.31Zm144.52,319.41c-1.23-18.06-5.36-35.61-10.77-52.86a277.07,277.07,0,0,0-19.2-47.27c-3.23-6.07-2.31-8.4,4.64-10.21,14.79-3.86,14.69-4.3,21.1,9.26,15.79,33.38,28.07,67.88,32.29,104.79,2.52,22,.28,43.23-11.64,62.76-10.33,16.93-26.24,19.42-45.92,18.85C1362,523.81,1368.32,494.57,1366.13,462.72Zm-9.82,6c1.36,28.64-5.08,55.28-29.11,74.52-7.34,5.87-33.38,5.55-39.86-.32-2.3-2.08-.9-3.49.29-5C1329.45,484,1318,430,1288,376c-6.9-12.43-7.24-12.32,6.7-14,4.63-.58,9.32-.65,16.65-1.12,10.13-3.25,15.65,3.29,20.44,14.42C1344.7,405.24,1354.75,436.05,1356.31,468.74Zm-72.92-82.09c13,23.37,22,47.93,21.74,78.06,1.43,24.34-9.32,47.16-25.58,68.08-3.81,4.9-7.76,6.61-13.76,3.89-8.21-3.71-16.61-7-25.06-10.15-7.42-2.75-9.83-5.95-3-12.27,5.41-5,9.7-11,13.83-17.11,21.79-32.41,18.59-67.07,9.57-102.29-1.58-6.13-3.79-12.11-5.45-18.23-1-3.54-5.38-8.68-.93-10.47,5.3-2.13,12.7-3.91,17.35,2.71A195.57,195.57,0,0,1,1283.39,386.65Zm-26.86,36c.9,6.95,1.5,13.94,2.22,20.88-1.56,26.47-12,49.09-28.72,69.2-4,4.77-7.91,4.93-13,1.88q-18.1-10.75-36.57-20.88c-5.55-3.05-6.28-5-1-9.71,31.51-28.27,44.47-64.12,42.21-106-.2-3.66-3.76-10,3.43-10.29,6.51-.25,15.22-4.89,18.94,5.48C1249.8,389.27,1254.34,405.67,1256.53,422.64Zm-150.76,67.12c2.9,3.93,4.8,8.05,4.2,13-2.19,17.84-4.12,35.62-8.06,53.32-3.32,14.89-5.29,30.12-10.39,44.61-6,17-13,33.57-26.54,49.51,6.49-26.9,9.21-51.83,8-77.14-1.29-28.1-3.9-56.08-11.35-83.25-2.73-10-.79-15.72,8.71-19.54,3.1-1.25,7.23-2.07,8.45-7.65-7.63,1.5-14.84,2.38-21.71,4.41-5.59,1.66-9.7.17-13.77-3.31-3-2.61-6.61-4.68-9.33-7.57a62.81,62.81,0,0,0-40.73-20.07c37.72.89,74.5,8.21,111.06,17.19,3.78.93,6.61,3.16,9.45,5.46,31.58,25.53,65.41,47.55,102,65.19,4.34,2.09,9.4,3.76,11,12.26-48.37-13.6-92.12-33-130.25-64.43l-1.86,2.05C1098.42,479.13,1101.93,484.57,1105.77,489.76Zm-298-6.35c-19.19,15.64-41.75,25-63.88,35.26-3.94,1.82-7.28,2.46-10.72-1.48-3.63-4.16-4.36-6.34,1.38-9.57a485.89,485.89,0,0,0,71.8-49.34c7.93-6.58,17.85-7.15,27.18-9.25,30.61-6.86,61.37-12.39,87.52-13.56-13.92,3-28.49,13-41.85,26-5.78,5.65-12,7.55-20,4.9-5.86-1.95-12.14-2.61-20-4.22,4,6.56,9.43,7.81,13.81,10,6.19,3.14,7.7,7,5.95,13.64-9.43,35.77-13.13,72.16-12,109.17.53,18.09,3.6,35.72,6.68,53.36-21.56-27.71-31-59.93-37-93.38-2.5-13.78-4.32-27.69-6.19-41.58-1.43-10.58-.36-20.56,7.28-29.11,2.44-2.73,5.27-5.87,5.49-11.22C816.32,475.27,812.19,479.79,807.73,483.41ZM556.44,503.09C560.52,520,569,534.6,583.13,547.6c-28.45.81-36.92-2.1-49.11-24.36-13.11-23.93-10.34-49.81-5.69-75.3,5.8-31.73,17.5-61.53,31.4-90.5,3.8-7.92,19.53-9.58,24.68-2.61,2.58,3.47-.55,6.31-1.89,9.13-13,27.26-23,55.51-27.45,85.44C552.41,467.29,552.17,485.34,556.44,503.09Zm17.52,18c-12.68-24-12.56-49.55-8.08-75.29,4.78-27.47,14-53.59,25.94-78.79,2.31-4.87,5-7,10.77-6.39,11.57,1.28,23.41-.26,36.22,3.65-12.93,20.42-23.41,41.15-29.21,64.05-10,39.37-4.55,75.6,21.4,107.64,4.74,5.86,3,7.19-3.22,8.83C601.08,551.91,587.05,545.93,574,521.13Zm40.13-60.07c.91-32.59,13.66-63,32.63-91.34,4.89-7.3,12-5.12,18.16-3.84,3.88.8,1.13,5.08.25,7.68-6.88,20.32-11.73,40.95-13.24,62.52a91.15,91.15,0,0,0,12.87,54.61c3.36,5.62,3.85,9.22-2.9,12.71a36,36,0,0,0-17.93,20.78c-3,8.92-5.75,6.65-9.78.8C621.28,506.3,614.3,485.74,614.09,461.06Zm37,68.45a45.09,45.09,0,0,1,18.59-18.87c4.12-2.21,7.34-2.56,10.18,1.84s-.54,6.19-3.33,7.69c-4.92,2.65-7.14,7.8-11.13,11.13-2.69,2.26-6.47,3.22-7.51,3.71-4.58,1.42-6.32.76-7.62-1S650.26,531,651.06,529.51ZM679.49,497C664.39,477.83,660,455.62,662,432c1.69-19.33,6.73-38,12.61-56.55,3.49-11,11.35-8.48,18.56-8,8,.57,5.43,7.35,5.18,11.72-2.14,36.82,8.27,69.22,33.24,96.66.9,1,1.78,2,2.73,2.94,11.24,11.1,11.12,10.9-2,19.07-15.56,9.71-31.44,8.31-47.64,2.26C681,502.36,680.2,499.75,679.49,497Zm94.73-260.12c3.07,4.35,3.4,9.38,2.56,14.43-4.91,29.34-13.47,57.34-33.34,80.3-14.57,16.85-32.24,27.7-57.73,23.1a384.44,384.44,0,0,0,41-42.28c22.83-27.73,38.31-58.69,42.5-94.67A28.35,28.35,0,0,0,774.22,236.87Zm-43,130c18.63-.22,18.47-.21,19.81,18.84,1.3,18.59,11.56,33.09,22.68,47A185.88,185.88,0,0,0,790,450.32c3.58,3.44,3.86,5.63-.27,8.53C779.34,466.13,769,473.46,758.83,481c-5.51,4.09-8.8-.15-12.08-3-23.88-20.77-35.94-47.51-38.8-78.65a150.72,150.72,0,0,1,0-19c.43-12.32,1.66-13.4,14.28-13.49C725.23,366.84,728.23,366.86,731.24,366.86Zm-55.09-56.25c-10.93-3.52-18.78-10.34-20.45-22.3-1.94-13.88,1.33-27.25,4.91-40.51,4.4-16.31,13.24-30.36,23.09-45.71a240.75,240.75,0,0,0,24.83,73.81c5.61,10.8-2.44,19.21-8.26,27S685.88,313.75,676.15,310.61ZM1169,375.79c-.5-7.56,2.3-10.12,9.84-9.26a97.49,97.49,0,0,0,20,.2c8.42-.79,12.54,2.37,12.85,10.81.15,4.32.65,8.63,1.07,13.84-2.32,34.15-13.54,64.87-41.36,88-4.29,3.57-7.59,4.16-12.22.59-9.23-7.14-18.75-13.93-28.37-20.53-4.91-3.36-5-6-.62-10a160.57,160.57,0,0,0,21.35-23.82C1162.46,410.84,1170.21,394.83,1169,375.79Zm95.63-94.2c.34,16.85-11.74,29.77-27,30.06-12.91.25-27.38-14.8-28-29.3a13.63,13.63,0,0,1,1.49-6.68,218.82,218.82,0,0,0,24.64-73.31C1253.62,227.08,1264,252.68,1264.58,281.59Zm-168.7-163.45c29.94,0,59.87-.26,89.8.17,7.75.12,12.68,6.91,18.22,11.52,3.1,2.58-.53,4-2.35,4.88-17.15,8.17-34.37,16.2-51.55,24.3-3,1.41-5.68,1.43-8.37-.73q-23.31-18.74-46.67-37.4C1095.27,120,1095.57,119.05,1095.88,118.14Zm-103.54,2.25c22.62-.15,45.25,0,67.87,0l0,1.47q-43.92,16.56-87.81,33.18c-5.83,2.21-7.82.4-7.65-5.66C965.65,118.37,959.09,120.61,992.34,120.39ZM978.1,163c31.82-11.26,63.36-23.35,94.78-35.7,7.19-2.82,12.23-2.27,18.11,2.66,14.59,12.26,29.4,24.29,44.68,35.67,6.86,5.12,9.59,11.27,10.58,19.33,1.92,15.58,4.33,31.1,6.81,46.59,6.08,38,27.63,67.58,52.53,95.19,6.71,7.45,14.19,14.19,21.25,21.32,1.58,1.59,4.47,2.92,3.54,5.53s-3.9,2-6.19,2.21c-16.31,1.27-29.24-6.22-40.52-16.67-24.54-22.74-33.91-52.89-40.4-84.44-1.52-7.36-1-13.69,3.37-19.83,4-5.6,3.62-11.84,1.23-21.73-2.49,3.8-3.84,5.34-4.62,7.12-7.33,16.7-20.86,19.54-37.11,17.19-3.38-.49-9.06-2.84-9.59,3.49-.55,6.7,5.41,5.53,9.45,5.75,24.8,1.38,24.71,1.35,30.79,24.95,8.42,32.71,21.55,62.65,51,83.35-16.24,0-31.75-.93-47.11.23-21,1.57-35.9-8.1-50.15-21.77-12.77-12.25-26.82-23.18-40.57-34.35-4.64-3.77-5.28-6.56-1.36-11.43,10.7-13.27,20.57-27.22,31.42-40.37,5.75-7,3.24-9.09-3.9-11.34-33.15-10.43-66.13-21.42-99.36-31.62-7.64-2.34-11.34-6.17-11.39-13.93a46.44,46.44,0,0,0-.54-8C962.86,171.48,968,166.6,978.1,163Zm-13.25,81.7c0-9,.17-18,0-27.06-.12-5.2,1.8-6.4,6.65-4.82,30.46,9.93,60.92,19.85,91.48,29.44,6.15,1.93,5.45,4.23,2.25,8.27-9.11,11.52-18.2,23.07-27,34.83-3.1,4.15-6.94,4.83-11.45,4.22-17.83-2.43-35.63-5.24-53.51-7.24-7.19-.8-8.7-4.29-8.46-10.59C965.11,262.76,964.85,253.73,964.85,244.71Zm35.25,51c3.32.23,6.6,1.09,9.92,1.33,17,1.21,32.11,5.6,45,18.34,15,14.74,31.68,27.74,48.07,41,5.48,4.41,5.92,8.79,4,14.78a299.05,299.05,0,0,1-18,45.65c-1.21,2.38-2.33,4.82-3.57,7.18-1.81,3.44-1.71,6.66,1.83,8.69,3.93,2.26,5.4-1.56,6.89-3.81,11-16.54,20.07-34,23.17-53.92,1.36-8.75,4.25-13.53,14.14-10.46,3.4,1.06,7.3.58,11,.68,16.27.43,16.27.41,16.22,16.74-.51,28.72-19,47.38-37.32,66.08-1.55,1.58-3.31,1.2-5.45.34C1071,430.2,1024.15,418,976.59,408.86c-17.84-3.42-36-.6-53.68,3.66-36.73,8.82-73,19.23-109,30.8a47.91,47.91,0,0,0-9.06,4.09c-2.61,1.51-4.84,2.1-7.21-.23-20.39-20-38.72-40.9-37.75-72.23.23-7.42,2.48-10,9.88-9.88,9.31.17,20.27-4.05,27.53-.41,7.65,3.83,5,16.72,8.36,25.29C811,403.4,816.94,416.4,825,428.36c1.7,2.51,3.05,6.83,7.54,4.08,4.19-2.56,2.93-6,1.06-9.56a322.78,322.78,0,0,1-20.65-50c-2.41-7.42-1.83-12.5,5-18,19.63-15.59,38.69-31.93,57.46-48.55,9.54-8.45,21.33-6.84,32.21-8.95,14.4-2.78,29-4.32,43.63-6.11C967.87,289.28,983.82,294.53,1000.1,295.68ZM954,245.86c0,9-.16,18,0,27.05.13,5.6-1.84,8.58-7.77,9.33-17.85,2.26-35.66,4.87-53.48,7.38-5.09.72-8.87-.85-12.06-5.14Q868.49,268,855.57,252c-4.19-5.17-4.66-8,2.78-10.31q43.49-13.54,86.68-28c7.89-2.66,9.34,0,9.05,7.07C953.74,229.16,954,237.52,954,245.86ZM944,120.52c7,0,10.41,3.18,10,10.45-.3,6.33-.13,12.67-.08,19,0,4.71-1.45,7-6.6,5-29.8-11.28-59.62-22.49-91.51-34.5ZM842.84,126q51.95,19.84,104.06,39.27c5.2,1.94,6.92,5.23,7.18,10.57,1.17,24.42,1.3,24.42-21.92,31.85q-43.89,14.06-87.78,28.12c-10.2,3.29-10.38,4-3.84,12.55,9.77,12.72,19.42,25.54,29.55,38,4.21,5.16,4.65,8.58-.89,13.15-19.84,16.37-39.35,33.15-59,49.74-2.81,2.37-5.73,4.42-9.74,4.61-22.33,1.05-44.63,3.09-68.69,2,7.66-6.94,15.1-12.33,20.87-19.49,18.35-22.77,27.9-49.33,32.76-77.61,1.4-8.16,4.61-10.72,12-10.82,6.67-.08,13.33-.8,20-1.31,3.62-.28,6.87-1.33,6.22-5.92-.61-4.27-4.07-3.6-7-3.49a21.39,21.39,0,0,0-3,.19c-16.16,2.72-29.53-.57-37.21-16.8-1.25-2.64-3.22-5.17-6.91-4.59,1.6-11.89,3.26-23.76,4.78-35.66a18.3,18.3,0,0,1,7.36-12.57q24.78-19.58,49.37-39.39C834.65,125.35,838.07,124.18,842.84,126Zm-122.92,0c7.16-5.68,14.45-8.43,23.79-8.16,23.69.68,47.41.41,71.12.56,3.23,0,6.45.28,12.52.57-18.16,14.37-34.25,27.1-50.32,39.86-2.87,2.28-5.63,1.31-8.41,0-16-7.63-31.82-15.47-47.91-22.83C713.6,132.74,714.22,130.54,719.92,126ZM641.13,193.7q28.32-27,58.62-51.77c3.4-2.79,6.52-2.25,10.15-.49,16.55,8,33.12,16,49.81,23.69,4.71,2.18,6.27,4.94,5.43,10.15-3.38,20.76-5.36,41.79-9.76,62.31-8,37.45-32.12,65.3-57.69,91.68,35.67-45,48.88-102,35.64-161.81-3.74,29.07-7.48,58.14-11.53,89.71-8.48-21.45-12.25-41.58-15.74-61.76-1.65-9.53-2.78-19.16-4.09-28.75-1.27-9.32-2.08-9.57-10.06-3.78-12.39,9-19,22.18-26,35.12-9.28,17.15-10.83,17.34-24.7,3.89C637.87,198.68,638.14,196.55,641.13,193.7ZM500.59,508.46c-14.85-51.77-5.54-100.6,15.58-148.27,19.71-44.48,48.16-83.24,80.06-119.61,7.7-8.77,15.7-17.29,23.55-25.93l1.36.73c-4.89,12.75-10,25.4-14.55,38.28-1.84,5.27-4.62,5.07-9.17,4.39-11.77-1.78-15,.54-17.52,12.2a138.87,138.87,0,0,0-1.07,51.8c1.86,11.65,7.22,15.59,18.75,14.43a211,211,0,0,0,21.72-3.72c2.81-.59,6.35-1.43,4.88-5.83-1.35-4-3.72-6.22-8.35-4.24-5.53,2.38-11.16,4.52-17.24,5-4.89.4-8.36-.82-9.45-6.45-3-15.6-2.73-31.28-1.25-46.95.58-6.13,5-8.18,10.91-7.44,8.05,1,15.56,3.82,23,6.89,4.48,1.86,8.11,1.45,9.64-3.51,1.61-5.26-3.51-5.44-6.13-5.8-10.78-1.49-10.67-6.73-6.82-15.07,4.61-10,8.23-20.46,12.09-30.79,1.82-4.87,3.8-5.61,7.65-1.65,6.65,6.86,10.56,13,5.76,23.71-9,20.16-14.12,41.74-17.08,63.7-4.52,33.54,18.67,52.61,51.17,42.4-3.73,4.43-7.1,9.68-14.22,8.85-25.19-2.95-50.66-3.89-75.34-10.44-14.27-3.78-28.28-8.23-40.37-17.14-3-2.21-5.81-3.67-8.53.14-2.59,3.62.73,5.21,2.56,7.47,3.43,4.24,12.26,3.6,11.7,10.55-.4,5-4.26,9.67-6.48,14.54-13.2,29-24.38,58.59-29.77,90.17-5.3,31.09-4.69,61.13,15.83,90.34C517.41,532.8,505.44,525.39,500.59,508.46Zm66.17,93.2L519.9,545.8c11,4.18,19.71,7.43,28.37,10.86a38,38,0,0,1,6,3.47C577.34,574.67,577.34,574.67,566.76,601.66ZM578.26,616c-4.14-5.34-3.06-27.43.72-32.87,2.19-3.15,3.86-1.53,5.63,0A499.6,499.6,0,0,1,622,620.7c2,2.22,2.59,4.55,1,7.28-5.34,9.44-6.84,20.07-9.33,32.69C601,644.63,589.44,630.44,578.26,616Zm46.51,59.24c-6.45-8.77-3.32-18.6-1.8-28,.94-5.82.33-14.85,5.29-16.18,5.27-1.42,8.55,7.05,12.12,11.62,13.73,17.65,27.08,35.6,40.8,53.27,3.72,4.79,4.8,8.63.69,14.08-5.89,7.82-6,18.14-10,28.39C655.43,716.42,640,695.92,624.77,675.23Zm58.41,77.46c-5.54-13.85.32-29.37,5.31-46.63,12.33,18.68,23.39,35.4,34.39,52.16,1.23,1.87.71,3.92-.54,5.62-6.46,8.76-8.43,19.24-11.3,32.07C700.7,780.38,689.15,767.65,683.18,752.69Zm41.67,63.93c-5.46-8.84-4-35.71,3.08-51.44,14.14,22.45,27.49,43.61,40.81,64.8,1.26,2,2,4.15,1.07,6.64a104,104,0,0,0-7.45,39.85C749.26,855.6,736.93,836.19,724.85,816.62ZM823,908.14c-6.85,14.7-3.89,30-2.79,45.16-30-5.36-64-71.1-45.75-113.93,6.17,9.32,12,18.14,17.82,26.94,8.12,12.25,16.37,24.38,27.44,34.28C822,902.57,824.71,904.55,823,908.14Zm261.49,45.07c-1.84,6.53-5.27,9.88-12.18,11.28-35.54,7.18-70.4,2.7-105-5.5a30.3,30.3,0,0,0-14.57,0c-35,8-70.2,12.81-106.07,5.36-6.1-1.27-9.25-4.26-11.08-9.91-4.68-14.41-5.47-29.35-7.66-46.41,17.13,12.62,33.81,21.83,52.33,27.52,23.12,7.09,46.54,9.49,70.1,3.75,11.12-2.71,21.13,1.31,31.57,2.3,36.56,3.46,69.33-6.45,99.58-26.35l8.94-5.93A151.48,151.48,0,0,1,1084.52,953.21Zm-68.61-28.47a9.2,9.2,0,0,1-1.94.49c-38.81-.78-78.17,5.35-116.33-2.28-42.87-8.57-76.18-32.89-100-71.05-44-70.3-89.32-139.75-139.42-205.94-22.18-29.3-44.91-58.16-76.37-82.7,17.41,5.09,29.35,14.09,40.79,23.65,41.14,34.39,73.66,76.5,105.54,119.1,32.87,43.93,62.18,90.32,93.15,135.55,20.23,29.55,45.69,54.29,81.07,65.94,13.79,4.54,27.86,6.91,42.41,3.94a77.47,77.47,0,0,1,28.73-.38c37.76,6.33,67.59-10.31,94.32-34.46C1084,862,1097.16,844.72,1109,826.33c42.38-65.83,86.47-130.46,138-189.66,18.88-21.71,38.88-42.41,62.45-59.26,7.6-5.43,15.6-10.1,23.78-12.76-84.79,82.8-144.6,184.74-208.38,283.49C1098.16,889.38,1063.05,914.6,1015.91,924.74Zm174.94-101.63c-11.4,16.69-21.56,34.22-32.93,52.43a135.83,135.83,0,0,0-4.51-28.52c-1.07-4.11-1.64-8.7-6.49-10.57,3.4,17.83,6.3,36.13,1,53.59-8,26.66-20,51.36-48.64,65.31.76-7.88,1.54-14.07,1.88-20.28.24-4.32,1.27-9.37-.47-12.89-6.94-14,0-22.37,9.21-32.36,14.7-15.94,25.17-35.27,36.88-53.54l44.27-69.88C1197.71,785.9,1203.64,804.39,1190.85,823.11Zm45.9-68.8c-9.21,13.44-18.34,26.93-28.14,41.36-2.86-11.74-4.14-22.79-11.3-31.65-2.8-3.46-.46-6.29,1.37-9q13.6-20.46,27.34-40.83c1.23-1.81,2.12-4.86,5-4,2.44.69,2.85,3.59,3.2,5.81,1.53,9.56,3,19.13,4.16,28.73C1238.76,747.88,1238.82,751.28,1236.75,754.31Zm58.93-80q-22.71,30.58-45.49,61.14c-.52.7-1.52,1-2.91,2-3.43-11.12-5.07-22.51-11.93-31.87-1.72-2.35-.13-4.51,1.19-6.41a865,865,0,0,1,55-71.24c5,13.65,7.17,25.65,7.15,38.11A13.64,13.64,0,0,1,1295.68,674.32Zm38.53-48.72c-10.11,9.9-18,22.1-28.25,35.1-2.64-13-3.83-23.7-9.65-33-1.78-2.82-.31-5,1.59-7.12,11.31-12.73,22.83-25.22,35.83-36.33,5.2-4.45,6.87-3,8.33,2.77C1345.62,601.22,1346.15,613.9,1334.21,625.6Zm18.39-23.55c-2.7-8.49-5-15.69-7.28-22.88-1.56-4.87,2.61-6.36,5.2-8.63,13.36-11.7,29.59-17.86,49.17-24.58Zm72.71-126.57c-1.27,14.42-4.12,28.53-9.56,41.85-4.84,11.87-16.25,16.77-28.53,23.76,28.13-45.07,17.48-89.17,4-133.09a301.82,301.82,0,0,0-23.1-55.46c-3.46-6.37-3.25-10.41,3.82-13.17a10,10,0,0,0,3.31-2.24c2.48-2.52,8.55-3.56,4.88-9-3.55-5.22-6.95-1-10.12,1.06-23.18,15-49.68,18.94-76.21,22.57-11.89,1.63-23.94,2.18-35.84,3.8-10.62,1.44-14.67-7.88-21.7-12.43,5.65,1.81,10.63,5.29,16.7,6,26.21,2.92,42.62-14.3,40-42-2.29-24.54-9.82-47.69-18.35-70.59-2.62-7,2.6-18.8,9.38-21.63,3.43-1.43,4.07,1.06,4.91,3.19,4.85,12.45,9.57,25,14.5,37.38,2.42,6.09-2.41,6.24-5.83,8.09s-11.38-.09-8.76,7.41,8.27,2.56,12.71,1.34c6.11-1.67,12.13-3.75,18.29-5.22,7.34-1.76,11.91,1.55,12.5,8.94,1.19,15,1.38,30-1.55,45-1.18,6-5.1,7.2-10.33,6.75-6.11-.52-11.55-3.22-17.23-5.15-4.25-1.43-6.36,1.1-7.68,4.39-1.73,4.3,1.7,5.19,4.65,5.85,4.55,1,9.17,1.81,13.79,2.51,22,3.32,27.54-1,28.09-22.91.35-14,1.36-28.1-2-42-2.68-11.1-6.51-14-17.67-12.42-3.91.57-7,1.49-8.8-3.44-4.81-13.09-9.95-26.06-14.95-39.07,40.2,40,75.08,83.43,100,134C1418.22,389.23,1429.23,430.78,1425.31,475.48Z" transform="translate(-483.7 -107.29)"/></svg>