<svg id="Calque_1" data-name="Calque 1" xmlns="http://www.w3.org/2000/svg" viewBox="0 0 1080 1080"><defs><style>.cls-1{fill:#fadc48;}.cls-2{fill:#63bca1;}</style></defs><path id="Tracé_753" data-name="Tracé 753" class="cls-1" d="M1005.16,543.15c0,256.88-207.53,465.39-463.58,465.39S78,800.16,78,543.15,285.57,77.75,541.58,77.75s463.58,208.34,463.58,465.4"/><path id="Tracé_754" data-name="Tracé 754" class="cls-2" d="M800.92,157.3C929.66,245.47,1006,389.6,1005.25,543.1c0,256.89-207.67,465.4-463.85,465.4S77.56,800.12,77.56,543.1,285.22,77.71,541.4,77.71h5.79L546.05,0h-6C241.7,0,0,241.77,0,540s241.75,540,540,540,540-241.77,540-540c.8-178.36-88.21-345.73-238.1-447.75Z"/><path id="Tracé_755" data-name="Tracé 755" class="cls-2" d="M222.45,768.69c-5.71-9.33,2.67-15.41,6.14-22,31.23-59.13,62.29-118.34,95-176.66,11-19.56,12.46-36.22,1.67-56.3C291.1,450.24,258.24,386,225,322a44.81,44.81,0,0,1-2.68-10.66c28.73-1.16,57.46-2.44,86.2.64,26.58,56.3,53.21,112.56,81.19,171.82l84.14-173.23,77.64.38c-21.93,51.38-51.28,99-76.28,148.83-12.37,24.57-35.09,48.85-35.09,73.25s21.93,49.11,35.09,73.43c24.74,46.75,49.88,93.34,74.57,140.13,3.6,6.9,10.66,13.4,6.15,22.61l-77.78.73c-7.28-4.71-10.35-12.12-14-19.48-21.94-44.66-44.09-89.1-66.2-133.67-3.24-6.55-5.66-15.5-14-15.67s-8.12,9.59-10.84,15.15c-21.93,44.75-43,89.66-64.52,134.49-3.16,6.59-5.31,14-12.64,17.89H222.4"/><path id="Tracé_756" data-name="Tracé 756" class="cls-2" d="M767.14,704.82c4,0,8,0,6.84-5.91V498.53c0-8.13-6.27-5.95-11-6.29-37.2-6-69,7.24-87.73,37.89-23.16,38.32-23.3,79.42-10.4,120.61,14.26,45.51,53.74,65.64,102.17,54.08m6.93-389.62c.74-1.54,1.45-3.12,2.15-4.67l73.17-.59,4.38,4.62V748.23a267.31,267.31,0,0,1-121.95,29.63c-69.52.38-127.87-45.86-144.76-111.79-19.34-75.61-11.58-146.34,52.64-201.79,36.28-31.47,80.68-39.34,127.48-38.53,12.06-.3,7.24-9.46,7.28-14.82.35-31.89,0-63.75,0-95.64"/></svg>