<?xml version="1.0" encoding="utf-8"?>
<!-- Generator: Adobe Illustrator 26.0.1, SVG Export Plug-In . SVG Version: 6.00 Build 0)  -->
<svg version="1.1" id="Calque_1" xmlns="http://www.w3.org/2000/svg" xmlns:xlink="http://www.w3.org/1999/xlink" x="0px" y="0px"
	 viewBox="0 0 404 373.5" style="enable-background:new 0 0 404 373.5;" xml:space="preserve">
<style type="text/css">
	.st0{fill:#FFFFFF;}
</style>
<g>
	<g id="Calque_1_00000173872563764912410500000002336153333053811082_">
		<path class="st0" d="M100.6,159.7c-9.8-12.7-6.1-25,1.5-37c3.2-5.1,2-10-1-14.5c-8-11.9-8.5-23.7-0.3-35.7
			c4.1-5.9,3.9-11.8,0.1-17.8c-1.9-3.1-3.4-6.4-4.4-9.9c-0.9-2.9,0.7-5.3,3.5-6.7c3-1.5,5.3-0.2,7.3,1.9c10,10.7,12.1,25.7,4.5,38.8
			c-4.4,7.6-5.4,14.4-0.3,21.9c7,10.4,6.6,20.8,0.2,31.6c-5.9,10.1-4.8,17.3,2.8,26.5c3.9,4.7,8.8,1.9,15.1,2.3
			c-9.8-14.1-6.7-26.7,1.2-39c3-4.5,1.7-9.5-1.2-13.8c-8.3-12.2-8.5-24.3-0.1-36.6c3.9-5.6,3.5-11.3-0.1-17.1
			c-1.8-2.9-3.2-5.8-4.5-8.9c-1.4-3.3,0.1-5.9,3-7.6c3.2-1.9,5.8-0.6,8,2c9.9,11.5,11.8,25.6,4.1,38.8c-4.5,7.8-4.8,14.5,0.1,22
			c6.7,10.1,6.9,20.9,0,30.7c-7.2,10.1-2.5,18.4,2.5,26.8c3.1,5.1,8.8,3.5,12.3,2.1c3.9-1.7-0.3-5.1-1.3-7.4
			c-3.7-7.9-3-17.2,2.1-24.3c5.5-8.3,6.1-15.9,0.3-24.3c-6.4-9.4-6.4-19.6,0-29.1c5.3-8,6.1-15.5,0.1-23.6c-1.4-2-2.3-4.2-2.9-6.6
			c-0.9-3.3,0.4-5.9,3.7-7.4c2.5-1.3,5.7-0.3,7,2.3l0,0c7.7,13.9,14.5,22.1,4.3,38.8c-4.7,7.6-5.2,14.4-0.1,21.9
			c6.8,10,6.5,20.3,0.4,30.8s-5.1,18.6,2.6,27.3c3.9,4.4,8.8,1.9,14.8,1.7c-9.4-13.5-6.8-25.9,1.1-38c3.5-5.3,1.7-10.6-1.4-15.4
			c-7.4-11.3-7.9-22.7-0.3-34.1c4.4-6.6,4.4-12.9,0-19.5c-1.4-2.3-2.6-4.8-3.6-7.4c-1.7-3.7-0.3-6.5,3.1-8.4
			c3.4-1.9,5.8-0.1,7.9,2.4c10,12.3,11.3,25.2,3.2,39.7c-3.9,6.8-4.4,13.1,0,19.6c7.4,11,7.2,21.9,0.3,33.3
			c-5.3,8.6-3.9,19.7,3.5,26.5c3.7,3.5,8.6,1.5,14.8,1.2c-10.5-13.8-6.6-26.3,1.1-38.7c3.2-5.1,1.3-10.1-1.7-14.5
			c-7.8-11.7-7.9-23.2-0.1-34.9c4.2-6.3,4-12.3-0.1-18.7c-1.7-2.5-3-5.3-3.9-8.2c-1.2-3,0.1-6.4,3.1-7.7l0,0
			c2.5-1.5,5.9-0.8,7.5,1.8c0.1,0.2,0.2,0.4,0.3,0.7c7.8,14,14.3,22,3.9,38.8c-4.8,7.7-4.5,14.5,0.3,21.9c6.5,9.8,7.2,20.4,0.2,29.9
			c-7.6,10.4-3.3,18.9,2.4,27.5c3.4,5.2,8.7,2,15.5,2.8c-10.4-14.3-7.2-26.8,0.8-39.1c3.2-5,1.5-10-1.4-14.5
			c-7.7-11.7-8-23.2-0.3-34.9c4.2-6.3,4.1-12.3,0.1-18.6c-1.5-2.6-2.9-5.3-4.1-8.2c-1.4-3.3-0.1-5.9,2.9-7.7c3.2-2,5.8-0.6,8,1.9
			c9.8,11.1,11.7,25.6,4.1,38.8c-4.5,7.7-5,14.5,0.1,22c6.9,10.5,6.2,20.9-0.1,31.7c-5.5,9.5-4.1,18.7,3.1,26.7c2.8,3.1,6.2,2,9.4,2
			c41.3,0.1,82.7,0.1,124,0.1c12.6,0,14.1,1.1,13.3,13.4c-4.1,69.3-34.7,123.6-92.4,162.1c-5.7,3.9-8.4,7.3-8,14.3
			c0.6,13.8-3.9,17.6-17.8,17.6c-55.4,0-110.7,0-166.1,0c-14,0-17.7-3.6-17.5-18c0.1-6.1-1.5-9.7-6.8-13.2
			C35.9,299.1,5.1,244.7,0.5,175.1c-1.1-12.1,0.6-13.9,12.7-13.9c25.6,0,51.1,0,76.7-0.1C93,161.3,96.4,162,100.6,159.7z"/>
		<path class="st0" d="M203.2,22.9C140,24.3,76.9,25.7,13.7,27.1c-4.7,0.1-12.3,0.6-12.6-4.3c-0.3-6.3,7.5-5.7,12.3-5.9
			c60.1-2.8,120.2-5.2,180.3-7.8C260,6.2,326,3.2,392.2,0c8.3-0.4,11.2,1.5,10.9,10.4c-0.2,7.3-3.3,8.3-9.5,8.4
			c-61,1.1-122.2,2.5-183.2,3.9c-2.4,0-4.8,0-7.3,0L203.2,22.9z"/>
		<path class="st0" d="M263.9,46.7c27.1,0,54.4-0.1,81.6,0c16.7,0.1,33.4,1,50.1,0.9c9.3,0,6.7,6.3,7.3,11.3
			c0.7,6.2-2.1,7.8-7.9,7.6c-37.9-1.8-75.8-3.2-113.8-4.8C267.3,60.9,267.3,60.7,263.9,46.7z"/>
		<path class="st0" d="M89.5,53.2c-28.2-1.4-54.3-2.5-80.4-4c-3.3-0.2-8.6-0.4-8.3-5.1C1.2,39.8,6.4,40,9.8,40
			c23.7,0.2,47.4,0.8,71.2,0.9C89.8,41,85.8,48.4,89.5,53.2z"/>
	</g>
</g>
</svg>
