<svg id="Calque_1" data-name="Calque 1" xmlns="http://www.w3.org/2000/svg" xmlns:xlink="http://www.w3.org/1999/xlink" viewBox="0 0 1920 1080"><defs><style>.cls-1{fill:none;}.cls-2{clip-path:url(#clip-path);}.cls-3{clip-path:url(#clip-path-2);}.cls-4{fill:url(#Dégradé_sans_nom_2);}.cls-5{fill:#e6f0e8;}</style><clipPath id="clip-path"><rect class="cls-1" width="1920" height="1080"/></clipPath><clipPath id="clip-path-2"><rect class="cls-1" x="-685.95" y="-0.81" width="3291.89" height="1081.63"/></clipPath><linearGradient id="Dégradé_sans_nom_2" x1="960" y1="124.64" x2="960" y2="1083.2" gradientTransform="matrix(1, 0, 0, -1, 0, 1082)" gradientUnits="userSpaceOnUse"><stop offset="0" stop-color="#f08e9a"/><stop offset="0.33" stop-color="#d1e7db"/><stop offset="0.62" stop-color="#f9fafa"/><stop offset="0.99" stop-color="#fafafa"/></linearGradient></defs><g class="cls-2"><g class="cls-3"><rect class="cls-4" x="-1212.74" y="-1.2" width="4345.48" height="958.56"/><path d="M2041.13,578.14v-9.59c-17.77-5.92-35.7-11.38-53.2-18-5.67-2.15-10.72-6.83-15.12-11.28-8.29-8.4-16.17-17.24-23.65-26.37-2.87-3.5-5.73-8.23-5.88-12.5-.42-11.12-.3-22.45,1.36-33.42,3.84-25.41,8.73-50.67,13.19-76l-2.06-.44c-7.28,35.09-14.56,70.19-21.9,105.63-3.25-5.23-7.27-10.31-9.83-16-13-29.12-25.89-58.26-38.19-87.66-9.78-23.36-19.53-46.42-39.93-63.12-5.42-4.45-10.81-10.23-13.39-16.55-4-9.85-7.14-20.58-7.92-31.15a396.15,396.15,0,0,1,0-50.64c1.63-30,11.42-57.4,28.51-82.1,7.61-11,10.58-11,16.62,1.24q19.1,38.59,37.15,77.7c4.51,9.76,9.6,18.38,19,24.52,4.24,2.78,7.08,8,9.87,12.61,7.62,12.46,15.15,25,22.24,37.78,18.3,33,50.48,46.17,83.21,58.61v-7.67c-10.23-4.31-20.55-8.42-30.66-13-20-9-36-22.71-46.87-42.07-7.94-14.09-15.86-28.23-24.59-41.84-7.27-11.34-9.55-23.24-8.25-36.43,2.7-27.29,5-54.62,7.48-81.93.15-1.62,1.08-3.18,1.92-5.51,2.21,1.72,4,2.61,5.09,4,31.7,40.48,65.69,79.14,95.88,120.82V240.54c-22.2-26.24-44.61-52.3-66.49-78.8C1964.19,149,1953.35,136.19,1945,122c-12.7-21.38-12.93-46.43-16.82-70.29-.31-1.92.79-4.06,1.32-6.51,1.9.33,3.31.19,4.24.79,13.78,8.78,26.87,5.25,39.69-2.19,10.76-6.25,21.36-12.78,32.14-19,11-6.35,22.77-10,35.68-8.73V-1.16H2022l11.53,7c-14.83,6.86-30,13.57-44.86,20.88-7.68,3.78-14.66,9-22.26,12.92-19.12,10-36.36,3-42.83-17.63-2.36-7.51-3.46-15.42-5.13-23.15h-7.68c3.6,19.07,7.74,38.06,10.66,57.23,5.28,34.64,13.09,69.06,8.49,104.62-2.74,21.21-4,42.61-6.12,63.9-.32,3.26-1.66,6.41-3,11.3-2.68-3.06-4.48-4.4-5.32-6.19-14.56-31.24-29.27-62.43-43.36-93.88-6.51-14.53-12-29.54-17.48-44.5a146.83,146.83,0,0,1-6.75-23.72c-4.28-22.86-8-45.83-11.92-68.76h-7.67c.57,1.49,1.21,3,1.69,4.46,11.83,37.24,7.52,78.31,26.93,113.79a7.43,7.43,0,0,1,.71,4.68c-1,4.84-1,10.69-3.75,14.22-25.94,32.73-37,70.28-37,111.43,0,19.44,2.81,39,1.37,58.29-2,27.33-6.83,54.44-10.44,81.64l-2.4,17.87a26.25,26.25,0,0,1-8.56-9.33c-14.2-24-29.13-47.74-50.45-65.91-18.09-15.41-23.11-34.55-24.32-56.83-2.89-53.21-6.11-106.42-10.62-159.51-2.34-27.61.5-53.1,15.87-76.86,7.77-12,13.65-25.25,20.38-37.94h-26.85c5.53,11.83,7.85,23.64,0,35.48-9.51,14.34-14.75,30.23-17.38,47.15-1.38,8.85-5.44,11.27-12.29,6-15.78-12.21-31.39-24.8-45.86-38.51-12.66-12-23.69-25.75-35.4-38.75-3.36-3.73-6.59-7.56-9.89-11.34h-19.17c-.59,10.19-1.5,20.38-1.69,30.58-.84,45.65-1.44,91.32-2.27,137-.06,2.92-1.38,5.83-2.11,8.75-2.79-1.17-6.2-1.67-8.28-3.6-27.14-25.22-54.56-50.18-81-76.14-27-26.49-35.62-59.59-31.24-96.57h-7.67c.3,15,.71,30,.88,45,.56,50.14,1.45,100.28,1.42,150.42,0,39.28-1.93,78.56-1.71,117.84.3,52.38,2,104.75,2.66,157.14.09,8.13-.21,17.63-4.15,24.21-16.48,27.49-35,54.13-63.77,70-12.31,6.75-18.23,15.38-22,27.91-2.73,9.19-7.66,17.74-11.61,26.58l-4.09-.29c-1.58-5.44-3.88-10.78-4.62-16.32-7.76-57.57-14.29-115.32-23.19-172.71-5.44-35-2-68.67,8.79-101.74,35.83-109.38,77.62-216.8,107.92-328h-7.67c-8.45,29.37-18.67,58.37-24.85,88.21-6.3,30.43-26.89,43.69-52.82,53a143.3,143.3,0,0,1-14.56,4.66c-25.89,6.2-48.62,18.69-69.86,34.36-2.63,1.94-6.15,2.68-9.26,4-1-3.42-2.85-6.8-3-10.25-1.55-36-1.1-72.18-4.79-107.93-2.56-24.86-.71-46.78,16.14-66h-15.35c-19,24.79-40.76,46.93-63.83,67.78l-3.29-1V-1.16h-5.75c-1.1,27.44,3.35,55.23-5.57,85.56-4-5-6.57-8.5-9.49-11.65-13-14-25.6-28.39-39.31-41.64-9.73-9.42-19.48-18.31-22.34-32.27h-5.75c.92,11.66,5.56,21.4,14.48,29.16,7.23,6.29,14.19,12.89,21.19,19.43C1140,59.11,1151.37,71.65,1155.09,89c.77,3.58.54,8.49-1.38,11.33-6.06,9-12.41,18-20.06,25.59-6.31,6.27-14,12.77-22.22,15.09-9.86,2.79-14.59,7.53-16.87,16.86-5.28,21.67-9.72,43.68-17,64.68a87.91,87.91,0,0,1-20.46,32.54c-14.68,14.54-31.76,26.66-47.92,39.68-1.29,1.05-3.28,1.23-5.27,1.93-3.77-15.75-6.71-31.07-11.16-45.94C984,221.41,974.08,192.4,965.32,163c-2.22-7.44-4.27-16.27-2.36-23.38,9.48-35.32,19.41-70.61,31.35-105.15,2.88-8.35,13.77-14.13,21.43-20.55,6.5-5.45,13.66-10.12,20.53-15.13h-9.59c-7.1,3.13-14,7-21.33,9.23-15.89,4.92-30.79-1.3-45.79-5.39v7.67c7.38,1.83,14.77,3.65,22.14,5.51,8.8,2.21,9.85,4.93,6.68,13.42C982.48,45,976.9,60.91,971.47,76.82c-4.2,12.3-8,24.74-11.93,37.11v57.55c5.87,17.4,11.07,35.06,17.74,52.14,18.17,46.59,21,95.39,21.6,144.5.25,19.53-8.26,28.37-27,30.36-4.11.44-8.23.85-12.34,1.27v5.75c6.66-.23,13.35-.21,20-.76,8-.65,10.16,3,7.25,9.74-8.92,20.74-18.14,41.34-27.24,62v17.26c1.5-2.76,3.22-5.42,4.48-8.29,9.64-21.92,19.29-43.83,28.72-65.84,5.87-13.67,14.68-24.58,27.89-31.73,30.08-16.31,60.89-30.45,94.52-38.39,20.37-4.8,40-12.55,60-19.09,4.7-1.54,9.25-3.54,13.86-5.33.9,5.13,3,10.38,2.52,15.37-4.87,49.74-2.11,98.77,10.92,147.21,2.7,10.06,3.48,21-3,30.61-10.88,16.38-13.65,34.81-13.81,54-.22,25.55.24,51.15-1,76.66-3.27,67-6.84,134-11.23,200.94-1.9,28.92-6.35,57.66-9.21,86.52-1,9.67-4.72,13-14.94,12.88-58.79-.54-117.6-.25-176.4-.28-4.46,0-8.91-.37-13.37-.57v132.35H2041.13v-48c-5-6.62-12.24-12.53-14.65-20-4.22-13.09-5.81-27.09-7.72-40.82-.33-2.4,2.63-6.74,5.07-7.76,5.43-2.25,11.49-3,17.3-4.31V948.36h-60c4.72-14.21,9.1-27.16,13.32-40.16s8.3-26.07,12.84-40.36l33.85,26.81V883.14c-7.52-5.9-16.28-10.77-22.26-17.95-7.79-9.37-16.74-19.81-19.29-31.13-7.46-33.16-9.63-66.9-1.48-100.7,13.15-54.56,10.83-109.05-2.22-163.33-.56-2.35-.5-4.85-.81-8.09C2012.75,562.51,2026.78,570.79,2041.13,578.14ZM1733.4,743l-2.56,1c-1.77-1.24-4-2.13-5.22-3.78-12.3-17-25.85-33.3-36.21-51.42-11.41-20-21.86-40.15-37.65-57.39-15.47-16.89-29-35.51-43.77-53.1-1.91-2.28-7.4-4.88-8.29-4.08-2.64,2.39-5.2,6.34-5.35,9.79-1.27,30.82-9.55,59.53-23.16,87.18-9.39,19.09-16.78,39.17-24.91,58.87-3,7.19-5.47,14.57-8.18,21.86h-3.62c-2.33-8-4.88-16-7-24-4.89-19.12-7.76-39-14.71-57.3-12.22-32.2-27.34-63.29-40.36-95.21-8-19.73-15.79-39.74-15-61.83.4-11.47-.47-23-.5-34.47q-.44-147.57-.73-295.15a75.82,75.82,0,0,1,.73-7.81l3-1.61c1.07,2,2.11,3.92,3.22,5.85,9,15.79,18.51,31.37,26.93,47.49a36.49,36.49,0,0,1,4.15,18.38c-1.24,18.12,3.42,34.62,10.35,51,27.86,65.92,57.07,131.35,76.48,200.55-4.86-20.72-9.64-41.55-16.82-61.52-17.68-49.23-36.65-98-54.66-147.11-3.81-10.39-5.77-21.46-8.58-32.22l3.71-1.38c2,3,4.22,5.8,5.81,9,18.18,36.1,41.09,68.48,74,92.73,21,15.43,36.57,35.44,50.47,57,18.16,28.15,36.71,56.07,53.84,84.83,6.2,10.39,10.16,22.64,12.68,34.56,2.83,13.34,3.36,27.25,4,40.95,1.61,33.26,6.29,65.68,16.13,97.83C1728.65,695,1729.72,719.4,1733.4,743Zm6.73-20.83c4.49,2.2,6.81,3.2,9,4.42,25.39,14.13,51,27.48,79.78,33.95,16.27,3.65,27.48,14.12,30.86,31.56a255.63,255.63,0,0,0,6.44,26c3.17,10.41.54,19.21-5.21,28-21,32-41.59,64.29-62.71,96.21-2,3.1-6.71,6.27-10.21,6.33-29.38.5-58.78.17-88.17.38-5.54,0-8-2.12-9.1-7.33-2-9.34-4.57-18.57-6.73-27.89-5.74-24.84-12.62-49.5-16.65-74.61-2.55-15.92-7-30-16.36-43.14-22.49-31.77-44.29-64-66.25-96.18-5.78-8.47-9-17.68-5.41-28,9-25.71,18.16-51.41,27.34-77.38.71.43,3.75,1.38,5.36,3.44,21.77,27.75,50,50.42,64.86,83.66,5.71,12.76,12,25.72,20.41,36.7,14.36,18.68,30.81,35.73,46,53.76,4,4.75,8.31,10.16,9.85,16,5.68,21.58,10.63,43.36,15.17,65.21,3.92,18.92,6.92,38,10.32,57.06a15.45,15.45,0,0,0,1.51-8.59c-6-38.07-12-76.14-18.44-114.14-.87-5.09-3-10.88-6.56-14.42-9.92-10-12.26-22.79-15-35.48-.89-4.46-.1-9.21-.1-15.51ZM1298.86,398.79l3.68.64c2.12,7.49,5.17,14.85,6.21,22.48,8.13,59.73,17.25,119.39,22.93,179.36,1.79,18.87-3,39.81-10.09,57.74-10.08,25.64-24.3,49.77-38,73.85-32.81,57.68-66.33,115-99.61,172.39a27.31,27.31,0,0,1-3.26,3.78l-2.33-.56q.91-15,1.81-30c3-52,6.54-103.9,8.81-155.9,1.94-44.32,3.17-88.7,3.26-133,.06-28.71,2.89-56.06,20.52-80,18.54-25.13,36.81-50.46,55.77-75.26C1278,421.93,1288.72,410.58,1298.86,398.79Zm148,108.45c1.47,6.43,3.21,10.91,3.41,15.46,2.1,47.52-4.37,94.32-13.81,140.63-4.17,20.51-13.77,39.91-18,60.42-5.87,28.69-8,58.14-13.51,86.92-8.5,44.12-18.45,88-28.21,131.84-.57,2.56-4.84,5.89-7.58,6.08-10.17.72-20.46-.27-30.63.45-7.57.54-11.09-2.27-14.36-9-18.38-37.89-36.49-76-56.48-113-9.73-18-8.55-33.77.75-50.5,9-16.18,18-32.36,26.71-48.67,12.63-23.59,24.48-47.62,37.69-70.88,13.85-24.37,30.88-47,38.1-74.8a13.3,13.3,0,0,1,6.58-7.58c21-9.63,36.25-25.78,50.42-43.24,6.06-7.37,11.77-14.93,19-24.13Zm213.26-219.32,1.56-1.47c-20.63-27.07-41-54.38-62-81.09-10.28-13-16.49-26.43-15.8-43.67,1.17-29,.35-58.12.85-87.18q.49-28.71,2.44-57.39c.72-10.9,5.08-13,13-5.8,11.33,10.22,22.45,20.93,32,32.73,14.65,18,27.18,37.56,50.27,46.86,15,6,21.67,19.66,23,35.1,3.19,35.9,6.06,71.84,8.22,107.82,1.33,22.25,2.28,44.65,1.13,66.87-.6,11.76-7.79,23.08-9,34.91-4.71,45.71-8.18,91.55-12.21,137.34-.3,3.45-1.32,6.84-2,10.26l-3.21.94c-7.16-10.33-14.44-20.58-21.45-31-18.51-27.5-36.52-55.34-55.56-82.46-6.38-9.1-9.61-18-9.8-29.11-.5-29-1.79-58-3.32-86.91-.74-14.11-2.74-28.14-4.17-42.21l1.87-.67Zm90.21,293.43c-9.95-13.78-22.06-28.6-32-44.77-13.74-22.37-21-46.19-17.38-73.68,4.82-36.33,6.26-73.1,9.6-109.65,1-10.42,3.16-20.76,5.42-31,1.35-6.11,5.57-8.23,10.33-3.15,14.16,15.13,28.53,30.12,41.8,46,27.61,33.08,38.76,69.74,30.49,113.81-7.21,38.41-7.92,78-11.9,117.08-1.39,13.62,2.77,21.81,15.7,28.86a428.76,428.76,0,0,1,59.6,39.61c19.19,15.13,33.3,34.31,33.18,60.87a34.54,34.54,0,0,0,4.66,16.4c6.51,11.37,4,20.77-4.49,29.42A130,130,0,0,1,1882,783.4c-8.74,6.72-12.71,5.77-17.51-4.43-6.63-14.09-18.17-23.15-32.44-26.18-29.3-6.21-54.72-20.6-80.85-33.93-10.42-5.32-14.77-13.39-16.58-23.94-.49-2.83-.89-5.68-1.52-8.48-7.25-32.58-19.93-63.94-19.34-98.27.28-16.9-2.9-33.85-4.52-50.78,14.16,16.2,25.44,34,41.13,44ZM1458,564h1.66c10.92,26.15,21.62,52.39,32.83,78.41,9.85,22.86,21.27,45.07,24.44,70.29,1.3,10.42,4.06,20.66,5.77,31,1.79,10.81,4.61,21.75,4.32,32.55-.49,17.79-1.8,35.19,1.48,53.16C1535,865,1535.28,901,1530.72,937c-1.11,8.73-4.49,12.21-14,12.08-40.58-.59-81.16-.29-121.75-.31h-10.51c2.21-11.88,3.47-22.35,6.14-32.44,14.45-54.71,25.35-110,31.58-166.34,3-26.66,7.17-53.33,23.22-76.21a11.24,11.24,0,0,0,1.75-5.36c1.17-14.28,1.8-28.61,3.32-42.84C1452.69,605.1,1455.49,584.58,1458,564ZM1234.38,27c1.64,5.41,3.08,8.41,3.4,11.52,1.73,16.5,4.06,33,4.52,49.57.8,28.69,3.67,57.86-.26,86-6.63,47.36-29.08,89.27-53.67,129.94-10.18,16.82-24.32,26.15-42.67,31-24.66,6.49-49.22,13.37-73.76,20.28-7.37,2.07-11.79-1.51-12.61-7.78a59.61,59.61,0,0,1,.82-21.63c12-48.6,24.52-97,36.72-145.59,3.27-13,11.21-22.45,20.76-31.37,11.79-11,22.47-23.18,34-34.46,5.77-5.65,12.65-10.16,18.56-15.7,6.08-5.7,13.64-11.07,17-18.25,10.19-22.09,29.81-34.89,47.22-53.48Zm146.95,107.33c-1,4.36-1.64,9.41-3.29,14.12q-41.86,120.15-84.1,240.18a54.81,54.81,0,0,1-9.14,15.4c-21.6,26.87-43.54,53.47-65.22,80.28-2.31,2.86-3.69,6.48-5.51,9.75l-3.64-2.92c-2.21-10.9-3.84-22-6.74-32.67-12.38-45.77-8.7-91.88-2.1-137.75,4.34-30.14,16.19-58.11,29.73-85.47,18.42-37.26,46-63.81,85.06-78.12,21.2-7.7,42.56-14.9,65-22.75ZM1825,324.68c17,9,30.28,19.72,37.87,35.9C1871,377.87,1878,395.7,1886,413c13.2,28.29,25.81,56.93,40.78,84.28,8.38,15.32,9.94,30.3-2.54,43.26-12,12.43-17.36,27.28-18.84,43.93a160.71,160.71,0,0,0-.53,20.11c.9,24.78-6.89,47.57-15.35,71.69-3.76-2.1-7.27-3.13-9.44-5.42-20.69-21.9-45.69-37.7-71.86-52-9.87-5.39-14.61-14.14-14.12-25.32.66-15,1.16-30,2.78-44.9,3.94-36.49,8.53-72.91,12.79-109.37,3.74-32,7.29-64.09,11.17-96.11C1821.62,337.07,1823.51,331.12,1825,324.68Zm-287.15,624c7.12-44.79,5.27-88.47-2.33-132.18-1.64-9.42-1.82-20,.7-29,7.24-26.11,16.07-51.79,24.64-77.52,1.51-4.56,4.76-8.54,7.2-12.79,4.14,3.53,9.26,6.37,12.27,10.69q33.64,48.3,66.46,97.2c4.36,6.51,9.3,14.08,9.84,21.47,2.28,30.9,12,60,19.38,89.68,2.65,10.62,4.9,21.32,7.45,32.5ZM1939.52,517l4.39-.48a81,81,0,0,0,5.67,7.63c9.37,10,19.11,19.62,28.25,29.8,4.1,4.57,9,9.67,10.31,15.29,11.47,48.33,15.6,97,5.36,146.24-5.45,26.18-11.65,52.45-8.34,79.65.89,7.31,1.33,14.67,2,22l-2.64.79c-2.94-3.62-6.19-7-8.75-10.88-14.4-21.69-29.83-41.89-54.52-53.57-6.63-3.14-13.31-11.52-15.06-18.69-5.93-24.37-11.94-49.27-3.35-74.39,6.92-20.21,9.62-40.88,9.22-62.19-.29-15.77,1.26-31.51,11.15-44.71C1931.32,542.61,1942.91,533.76,1939.52,517ZM1455.25,71.74c17.26,18.17,33.59,36.38,51,53.46,20.53,20.1,41.75,39.54,63.21,58.65a52.76,52.76,0,0,1,18,33.69c1.59,12,2.62,24.11,4.12,36.15,3.73,29.83,6.5,59.69,3.05,89.77-1,8.44-3.54,9.82-9.89,4.53-17.45-14.52-34.7-29.34-46.14-49.46-25.38-44.66-50.9-89.23-75.73-134.19-4-7.16-6-16.05-6.51-24.28-1.18-18.47-.86-37-1.12-55.57C1455.2,79.84,1455.25,75.19,1455.25,71.74Zm458.09,685.43c13.17,10.07,26.58,17.25,35.76,28,16.09,18.9,29.75,39.9,44,60.29,2.37,3.38,4.57,8.47,3.83,12.17-3.47,17.41-7.61,34.71-12.25,51.84-3.12,11.52-7.49,22.71-11.89,35.82-18.34-21.41-35.66-40.91-52.12-61.11-11.66-14.3-22.55-29.29-33-44.49-5.33-7.73-10.66-16.22-12.82-25.13-1.39-5.71.93-15.5,5.19-18.8C1893.06,785.71,1905.46,775.64,1913.34,757.17ZM1319.12,948H1170.45c23.85-42.55,46.38-83.15,69.34-123.5,6.35-11.16,11.76-10.52,18,1.29,9.11,17.17,18.37,34.27,27.06,51.65C1296.36,900.47,1307.37,923.74,1319.12,948Zm644.44,0H1803.67c19.72-30,38.09-58.4,56.89-86.48,14.69-21.93,17.73-21.61,34-.17s33.19,42.8,50,64.06C1950.24,932.63,1956.35,939.47,1963.56,948Zm-941.42,93.56c-10.12-.4-15.5-6.19-20.7-13.15-9.48-12.71-19.2-25.32-29.84-37-5.41-6-6.67-9.12.79-13.86,4.48-2.84,8-7.24,11.73-11.18,6.64-7.07,14.27-10,24.08-7.81,11.18,2.55,22.57,4.1,33.75,6.63,3.46.78,8,2.48,9.53,5.19,8,14.06,16.71,28.09,17,45,.06,3-1.8,7.77-4.14,8.89-12.56,6-25.53,11.21-38.4,16.6a15.84,15.84,0,0,1-3.8.71Zm216.15-25.33c0-21.92,10-36.22,29.83-43.73,3.26-1.23,6.21-3.49,9.54-4.31,4.42-1.09,9.32-2.45,13.59-1.59,20.1,4,33.87,16.83,44.17,33.87,6.62,11,4.94,16.34-6.8,21.76-16.46,7.6-32.91,15.26-49.52,22.52a12.26,12.26,0,0,1-8.88.12c-7.28-3.16-14.19-7.19-21.27-10.86-7.61-3.93-11.08-10.21-10.66-17.76Zm300.62-42.66c10.17-3.54,16.78,4.22,25.3,10.33,16.13,11.56,18.46,23.82,13.42,43-8.08,30.73-12.48,35.14-43.83,29.11-12.64-2.43-21.31-7.09-23-21-.65-5.27-3.32-10.28-5-15.43-8.73-26.24,4.2-45,33.11-46Zm243,1.1c4.5.75,7,1,9.53,1.61,12.74,2.82,25.57,5.33,38.13,8.8,3.6,1,7.24,4.26,9.44,7.46,10.3,14.93,20,30.28,30.15,45.31,3.75,5.54,3.6,11-1.83,14a28.67,28.67,0,0,1-15.75,3.11c-7.53-.67-14.83-4.42-22.34-4.86-18.12-1.06-32.25-9-43.85-22.37a102.64,102.64,0,0,0-8-8.29c-18.14-16.86-18.5-19-3.86-38.84,2.26-2.89,6.31-4.45,8.47-5.91ZM1065.2,258.48l2.19,1c-.61,3.36-1.11,6.75-1.85,10.08-3.54,15.89-7.46,31.71-10.63,47.67s-6.45,31.8-15.59,45.86c-7.92,12.17-20.12,17.62-32.4,24,0-22.16-1.14-43.18.52-64,.73-9.24,5-20.21,11.39-26.56C1033,282.59,1049.6,271,1065.2,258.48Zm117.93,703.1h5.74c7.84-.19,15.65-.08,19.62,8.46s3.61,16.54-3.46,23.72c-1.9,1.94-3,4.87-3.93,7.52-5.53,15-10,17.91-25.67,15.43-6-1-11.81-2.63-17.68-4.08-7.86-2-11.45-6.41-8.51-14.73,1.9-5.4,3.46-10.92,5.35-16.32,7-20.07,7.5-20.37,28.54-20Zm269.33,28.22c5.41,2.66,14.34,6.61,22.73,11.48,1.77,1,2.86,5.92,2,8.25-4.73,13.53-13.37,24-26.87,29.54-12.45,5.11-23.6.66-32.72-7.5-8.35-7.47,1.57-14.38,2.79-21.62.3-1.81,1.47-3.53,2.45-5.16,5.77-9.55,14.35-14.21,29.62-15Zm489.19,19.36h-.24c0-3.19-.06-6.38,0-9.57.31-13.62,4.3-16,16.19-9.89,1.69.87,3.44,2,5.24,2.21,18.64,1.67,24.87,15.76,30.43,30.37,2.93,7.72,2.65,15.66-4.22,21-6.53,5.07-13.26,1.45-19.56-2.13-6-3.43-11.93-7.8-18.47-9.47s-9.23-4.83-9.37-11c-.07-3.86,0-7.68,0-11.52Zm-275.93,18.89c-10.63-2-21.3-3.43-31.68-6-7.76-1.94-12.35-7.59-13.13-15.89s-1.57-16.54-2.48-24.79c-.75-6.77,2.08-8.61,8.83-8.69,29-.36,40.82,29.53,38.46,55.37ZM1866.9,993.1c.28-4.42-.23-9.11,1.11-13.19a11.22,11.22,0,0,1,6.86-6.41c7.4-1.76,26.82,6.56,27.75,13.54,1.37,10.24-.89,21-2.32,31.5-.17,1.24-4.82,2.6-7.43,2.67C1876,1021.67,1868.36,1013.11,1866.9,993.1Zm-167.07-4.65c21.28-3.6,25.29-1,30,18.31a6.73,6.73,0,0,1,.46,2.81c-1.07,4.65-1,11.81-3.81,13.28-3.82,2-10.88,1.19-14.86-1.21-12.39-7.47-13.53-19.79-11.79-33.19Zm-573.5,17.71c.08,11.59-4.25,18.8-11.47,19.09-8.11.34-23.15-12-22.83-18.8.29-6.11,12.53-13.4,23-13.72,8.78-.26,11.22,2.64,11.3,13.43Zm238.44-21.46c.21-12,4.92-17.44,15.82-16.27,4.13.45,11.13,4,11.3,6.47,1,14.47-6.19,25.2-14.88,24.9-8-.27-12.4-5.67-12.24-15.1Z"/><path class="cls-5" d="M1022.14,1041.58a16.22,16.22,0,0,0,3.84-.75c12.87-5.39,25.84-10.56,38.4-16.6,2.34-1.12,4.2-5.86,4.14-8.89-.33-16.89-9.06-30.92-17-45-1.54-2.71-6.07-4.41-9.53-5.19-11.18-2.53-22.57-4.08-33.75-6.63-9.81-2.24-17.44.74-24.08,7.81-3.71,3.94-7.25,8.34-11.73,11.18-7.46,4.74-6.2,7.9-.79,13.86,10.64,11.72,20.36,24.33,29.84,37C1006.64,1035.39,1012,1041.18,1022.14,1041.58Z"/><path class="cls-5" d="M1238.29,1016.25c-.42,7.55,3,13.83,10.66,17.78,7.08,3.67,14,7.7,21.27,10.86a12.26,12.26,0,0,0,8.88-.12c16.61-7.26,33.06-14.92,49.52-22.52,11.74-5.42,13.42-10.81,6.8-21.76-10.3-17-24.07-29.83-44.17-33.87-4.27-.86-9.17.5-13.59,1.59-3.33.82-6.28,3.08-9.54,4.31C1248.28,980,1238.26,994.33,1238.29,1016.25Z"/><path class="cls-5" d="M1538.91,973.59c-28.89,1-41.84,19.75-33.17,45.95,1.7,5.15,4.37,10.16,5,15.43,1.73,14,10.4,18.61,23,21,31.35,6,35.75,1.62,43.83-29.11,5-19.16,2.71-31.42-13.42-43C1555.69,977.81,1549.08,970.05,1538.91,973.59Z"/><path class="cls-5" d="M1782,974.69c-2.12,1.46-6.17,3-8.34,6-14.64,19.87-14.28,22,3.86,38.84a102.64,102.64,0,0,1,8,8.29c11.6,13.4,25.73,21.31,43.85,22.37,7.51.44,14.81,4.19,22.34,4.86a28.67,28.67,0,0,0,15.75-3.11c5.43-3,5.58-8.5,1.83-14-10.15-15-19.85-30.38-30.15-45.31-2.2-3.2-5.84-6.47-9.44-7.46-12.56-3.47-25.39-6-38.13-8.8C1789,975.74,1786.46,975.44,1782,974.69Z"/><path class="cls-5" d="M1183.13,961.58c-21-.37-21.51-.07-28.54,20-1.89,5.4-3.45,10.92-5.35,16.32-2.94,8.32.65,12.77,8.51,14.73,5.87,1.45,11.72,3.13,17.68,4.08,15.67,2.48,20.14-.39,25.67-15.43,1-2.65,2-5.58,3.93-7.52,7.07-7.18,7.44-15.15,3.46-23.72s-11.78-8.65-19.62-8.46C1187,961.62,1185,961.58,1183.13,961.58Z"/><path class="cls-5" d="M1452.46,989.8c-15.27.78-23.85,5.44-29.57,15a15.46,15.46,0,0,0-2.45,5.16c-1.22,7.24-11.14,14.15-2.79,21.62,9.12,8.16,20.27,12.61,32.72,7.5,13.5-5.54,22.14-16,26.87-29.54.81-2.33-.28-7.22-2-8.25C1466.8,996.41,1457.87,992.46,1452.46,989.8Z"/><path class="cls-5" d="M1665.72,1028.05c2.36-25.84-9.46-55.73-38.46-55.4-6.75.08-9.58,1.92-8.83,8.69.91,8.25,1.71,16.52,2.48,24.79s5.37,14,13.13,15.89C1644.42,1024.62,1655.09,1026.08,1665.72,1028.05Z"/><path class="cls-5" d="M1866.9,993.1c1.46,20,9.09,28.57,26,28.11,2.61-.07,7.26-1.43,7.43-2.67,1.43-10.46,3.69-21.26,2.32-31.5-.93-7-20.35-15.3-27.75-13.54a11.22,11.22,0,0,0-6.86,6.41C1866.67,984,1867.18,988.68,1866.9,993.1Z"/><path class="cls-5" d="M1699.83,988.45c-1.74,13.4-.6,25.72,11.76,33.19,4,2.4,11,3.19,14.86,1.21,2.82-1.47,2.74-8.63,3.81-13.28a6.73,6.73,0,0,0-.46-2.81C1725.12,987.42,1721.11,984.85,1699.83,988.45Z"/><path class="cls-5" d="M1126.33,1006.16c-.08-10.79-2.52-13.69-11.29-13.43-10.48.32-22.72,7.61-23,13.72-.32,6.75,14.72,19.14,22.83,18.8C1122.08,1025,1126.41,1017.75,1126.33,1006.16Z"/><path class="cls-5" d="M1364.77,984.7c-.16,9.43,4.22,14.83,12.24,15.1,8.69.3,15.86-10.43,14.88-24.9-.17-2.49-7.17-6-11.3-6.47C1369.69,967.26,1365,972.69,1364.77,984.7Z"/><path d="M-120.27,578.59V569c17.77-5.92,35.71-11.38,53.2-18,5.68-2.15,10.73-6.83,15.12-11.28,8.3-8.39,16.18-17.23,23.66-26.36,2.87-3.5,5.72-8.24,5.88-12.51.41-11.12.3-22.44-1.36-33.42-3.84-25.41-8.73-50.66-13.19-76l2.06-.44c7.28,35.1,14.56,70.2,21.9,105.63,3.25-5.22,7.27-10.3,9.83-16C9.83,451.51,22.72,422.36,35,393c9.78-23.39,19.54-46.45,40-63.16,5.43-4.44,10.82-10.22,13.4-16.54,4-9.86,7.14-20.59,7.92-31.15a396.15,396.15,0,0,0,0-50.64c-1.64-30-11.42-57.4-28.51-82.11-7.62-11-10.58-11-16.63,1.24Q32.07,189.2,14,228.31c-4.51,9.75-9.6,18.37-18.95,24.51-4.24,2.79-7.08,8.05-9.87,12.61C-22.44,277.9-30,290.43-37,303.21c-18.31,33-50.49,46.18-83.22,58.62v-7.67c10.23-4.31,20.55-8.42,30.66-13,20-9,36-22.71,46.87-42.06,7.94-14.1,15.87-28.23,24.6-41.84,7.27-11.35,9.55-23.24,8.25-36.43-2.7-27.29-4.95-54.63-7.48-81.93-.15-1.63-1.08-3.18-1.92-5.51-2.22,1.72-4,2.61-5.09,4C-56,177.86-90,216.52-120.22,258.21V241c22.2-26.24,44.61-52.3,66.5-78.8,10.53-12.75,21.36-25.55,29.76-39.69C-11.27,101.12-11,76.07-7.14,52.21c.31-1.91-.79-4.06-1.32-6.5-1.9.32-3.31.18-4.24.78-13.78,8.79-26.88,5.25-39.69-2.19-10.82-6.3-21.42-12.8-32.2-19-11-6.35-22.77-10-35.68-8.73V-.71h19.18l-11.53,7c14.83,6.86,30,13.57,44.86,20.88,7.68,3.77,14.67,9,22.27,12.92,19.12,10,36.36,3,42.83-17.64C-.3,14.92.8,7,2.47-.71h7.68C6.56,18.36,2.41,37.34-.51,56.51-5.79,91.16-13.6,125.58-9,161.14c2.74,21.21,4,42.6,6.12,63.9.32,3.25,1.66,6.4,3,11.3,2.68-3.06,4.48-4.4,5.32-6.2C20,198.9,34.7,167.72,48.79,136.26c6.51-14.53,12-29.53,17.49-44.49A150.15,150.15,0,0,0,73,68.05C77.3,45.18,81,22.22,84.94-.71h7.68c-.57,1.48-1.21,2.94-1.69,4.45C79.1,41,83.4,82.06,64,117.53a7.46,7.46,0,0,0-.72,4.69c1,4.83,1,10.69,3.76,14.22,26,32.72,37,70.27,37,111.42,0,19.45-2.81,39-1.37,58.3,2,27.32,6.83,54.44,10.44,81.64q1.19,8.94,2.4,17.87a26.25,26.25,0,0,0,8.56-9.33c14.2-24,29.14-47.75,50.46-65.91,18.09-15.42,23.11-34.55,24.32-56.83,2.89-53.21,6.11-106.42,10.61-159.51,2.35-27.62-.49-53.1-15.87-76.87C185.77,25.21,179.9,12,173.17-.71H200c-5.53,11.82-7.85,23.63,0,35.48,9.53,14.34,14.77,30.23,17.4,47.14,1.38,8.86,5.44,11.27,12.29,6,15.78-12.21,31.39-24.8,45.86-38.52,12.67-12,23.69-25.74,35.41-38.75,3.35-3.72,6.59-7.55,9.88-11.33H340c.59,10.19,1.5,20.37,1.69,30.57.84,45.66,1.44,91.32,2.27,137,.06,2.93,1.38,5.83,2.11,8.75,2.79-1.16,6.2-1.67,8.28-3.6,27.15-25.21,54.56-50.17,81-76.14,27-26.53,35.65-59.62,31.25-96.6h7.67c-.3,15-.71,30-.88,45-.56,50.14-1.45,100.29-1.42,150.43,0,39.28,1.93,78.56,1.71,117.83-.29,52.39-2,104.76-2.66,157.14-.09,8.13.21,17.64,4.15,24.21,16.49,27.5,35,54.13,63.78,70,12.31,6.76,18.23,15.39,22,27.91,2.73,9.2,7.66,17.75,11.61,26.58l4.09-.28c1.58-5.44,3.88-10.78,4.63-16.33C589,544.17,595.52,486.42,604.43,429c5.43-35,2-68.67-8.79-101.74C559.8,217.91,518,110.49,487.7-.71h7.67c8.45,29.37,18.68,58.37,24.85,88.2,6.3,30.43,26.9,43.69,52.83,53a140.78,140.78,0,0,0,14.56,4.65c25.89,6.2,48.62,18.7,69.86,34.36,2.64,1.94,6.16,2.68,9.27,4,1-3.41,2.85-6.8,3-10.25,1.55-36,1.1-72.17,4.79-107.93,2.56-24.86.71-46.78-16.14-66h15.35c19,24.78,40.76,46.92,63.83,67.77l3.29-1V-.71h5.75c1.1,27.44-3.35,55.23,5.58,85.55,4-5,6.57-8.5,9.49-11.65,13-14,25.6-28.39,39.31-41.64,9.73-9.41,19.49-18.3,22.34-32.26h5.75c-.92,11.66-5.56,21.39-14.48,29.16-7.23,6.29-14.19,12.88-21.19,19.43-12.48,11.67-23.84,24.22-27.56,41.58-.77,3.58-.55,8.48,1.37,11.33,6.07,9,12.42,18,20.06,25.58,6.32,6.27,14,12.77,22.23,15.1,9.86,2.78,14.6,7.52,16.87,16.85,5.28,21.68,9.73,43.69,17,64.69a87.74,87.74,0,0,0,20.46,32.53c14.68,14.54,31.76,26.66,47.92,39.69,1.29,1,3.28,1.23,5.27,1.92,3.77-15.75,6.72-31.06,11.16-45.93,8.77-29.35,18.67-58.37,27.44-87.72,2.22-7.44,4.27-16.28,2.36-23.38C948.53,104.79,938.61,69.51,926.66,35c-2.88-8.34-13.77-14.13-21.43-20.55C898.73,9,891.57,4.3,884.7-.71h9.59c7.1,3.12,14,7,21.33,9.23,15.9,4.91,30.79-1.3,45.8-5.4V10.8c-7.38,1.83-14.77,3.64-22.15,5.5-8.8,2.21-9.85,4.93-6.68,13.43,5.88,15.75,11.46,31.62,16.89,47.54,4.2,12.3,8,24.73,11.94,37.11v57.55c-5.87,17.39-11.08,35-17.75,52.14-18.17,46.59-21,95.39-21.6,144.5-.25,19.52,8.26,28.36,27,30.36l12.35,1.26V406c-6.67-.23-13.36-.22-20-.76-8-.65-10.16,3-7.25,9.74,8.92,20.73,18.14,41.34,27.25,62v17.27c-1.51-2.76-3.22-5.43-4.48-8.3-9.64-21.91-19.29-43.83-28.73-65.83-5.86-13.68-14.68-24.58-27.89-31.74-30.08-16.3-60.89-30.45-94.53-38.38-20.37-4.81-40-12.55-60-19.09-4.7-1.54-9.24-3.54-13.86-5.33-.9,5.13-3,10.38-2.52,15.37,4.88,49.73,2.11,98.77-10.91,147.21-2.71,10-3.48,20.94,2.94,30.61,10.88,16.37,13.66,34.8,13.82,53.94.21,25.56-.24,51.15,1,76.66,3.26,67,6.83,134,11.23,201,1.9,28.91,6.34,57.66,9.2,86.52,1,9.66,4.73,13,15,12.87,58.8-.54,117.61-.24,176.41-.28,4.46,0,8.92-.37,13.38-.57v132.36H-120.27v-48c5-6.61,12.24-12.53,14.65-20,4.22-13.09,5.81-27.09,7.72-40.82.33-2.41-2.63-6.74-5.07-7.76-5.43-2.26-11.49-3-17.3-4.32V948.8h60c-4.73-14.21-9.11-27.16-13.33-40.16s-8.3-26.06-12.83-40.36l-33.86,26.81V883.58c7.52-5.9,16.28-10.76,22.26-18,7.8-9.36,16.75-19.81,19.29-31.12,7.46-33.17,9.63-66.9,1.48-100.7-13.15-54.56-10.83-109,2.22-163.34.56-2.34.51-4.84.82-8.09C-91.89,563-105.92,571.24-120.27,578.59ZM187.49,743.46l2.56,1c1.76-1.24,4-2.12,5.22-3.78,12.3-17,25.85-33.29,36.21-51.42,11.41-20,21.86-40.14,37.66-57.38,15.47-16.9,29.05-35.51,43.77-53.11,1.91-2.28,7.39-4.88,8.29-4.07,2.64,2.38,5.2,6.34,5.34,9.78,1.28,30.83,9.55,59.53,23.17,87.19,9.4,19.08,16.78,39.16,24.91,58.86,3,7.19,5.47,14.57,8.18,21.86h3.63c2.33-8,4.88-16,6.94-24,4.9-19.12,7.77-39,14.72-57.31,12.22-32.2,27.34-63.29,40.36-95.2,8.05-19.73,15.79-39.74,15-61.83-.4-11.47.47-23,.51-34.48q.42-147.57.72-295.14a75.82,75.82,0,0,0-.73-7.81L461,175c-1.07,2-2.11,3.92-3.22,5.86-9,15.79-18.51,31.36-26.93,47.48a36.49,36.49,0,0,0-4.15,18.38c1.24,18.13-3.42,34.62-10.36,51C388.41,363.56,359.2,429,339.79,498.19c4.86-20.73,9.64-41.56,16.82-61.53,17.68-49.23,36.65-98,54.67-147.11,3.81-10.39,5.77-21.46,8.58-32.22L416.14,256c-1.95,3-4.21,5.8-5.8,9-18.19,36.11-41.1,68.48-74,92.73-20.95,15.44-36.57,35.44-50.47,57-18.16,28.15-36.71,56.07-53.85,84.83-6.2,10.39-10.16,22.63-12.68,34.55-2.83,13.34-3.36,27.25-4,41-1.61,33.26-6.29,65.68-16.13,97.83C192.24,695.43,191.17,719.84,187.49,743.46Zm-6.74-20.84c-4.49,2.2-6.8,3.2-9,4.42-25.4,14.14-51,27.48-79.79,34-16.27,3.66-27.48,14.13-30.86,31.57a255.63,255.63,0,0,1-6.44,26c-3.18,10.41-.55,19.22,5.2,28,21,32,41.59,64.29,62.72,96.21,2,3.1,6.71,6.26,10.21,6.32,29.39.5,58.79.18,88.18.39,5.54,0,8-2.13,9.1-7.33,2-9.35,4.57-18.58,6.73-27.9,5.75-24.83,12.62-49.49,16.65-74.61,2.55-15.91,7-30,16.36-43.14,22.5-31.77,44.3-64,66.26-96.18,5.78-8.47,9.05-17.67,5.41-28C332.43,646.65,323.32,621,314.13,595c-.7.44-3.74,1.38-5.35,3.44-21.78,27.75-50,50.42-64.87,83.66-5.71,12.76-12,25.72-20.41,36.71-14.36,18.67-30.82,35.73-46,53.76-4,4.75-8.32,10.16-9.85,16C161.92,810,157,831.78,152.44,853.63c-3.93,18.92-6.92,38-10.33,57.06a15.45,15.45,0,0,1-1.51-8.59c6-38.07,12-76.15,18.45-114.15.86-5.08,3-10.88,6.55-14.41,9.93-10,12.27-22.79,15-35.49C181.54,733.68,180.75,728.93,180.75,722.62ZM622.07,399.24l-3.68.64c-2.12,7.48-5.17,14.84-6.21,22.47-8.14,59.74-17.26,119.39-22.94,179.37-1.79,18.87,3,39.81,10.09,57.73,10.09,25.64,24.3,49.78,38,73.85,32.81,57.69,66.33,115,99.61,172.39a26.17,26.17,0,0,0,3.27,3.78l2.32-.56c-.6-10-1.23-20-1.81-30-3-52-6.54-103.91-8.81-155.9-1.93-44.32-3.17-88.7-3.26-133.06-.06-28.71-2.89-56.06-20.52-80-18.54-25.12-36.81-50.46-55.78-75.26C642.92,422.38,632.2,411,622.07,399.24ZM474,507.68c-1.47,6.44-3.22,10.92-3.42,15.47-2.1,47.51,4.37,94.32,13.81,140.63,4.18,20.5,13.77,39.91,18,60.41,5.86,28.7,8,58.15,13.51,86.92,8.5,44.13,18.45,88,28.21,131.85.57,2.56,4.84,5.88,7.58,6.08,10.17.72,20.46-.27,30.63.45,7.58.53,11.09-2.28,14.36-9,18.38-37.89,36.5-76,56.49-113,9.72-18,8.55-33.76-.76-50.5-9-16.17-18-32.36-26.71-48.67-12.63-23.59-24.47-47.62-37.69-70.87-13.85-24.37-30.88-47-38.1-74.81a13.25,13.25,0,0,0-6.58-7.57c-21-9.63-36.26-25.78-50.43-43.25C486.92,524.44,481.2,516.88,474,507.68ZM260.74,288.36l-1.57-1.47c20.63-27.06,40.95-54.38,62-81.09,10.28-13,16.49-26.42,15.8-43.66-1.17-29-.35-58.12-.85-87.18q-.5-28.71-2.44-57.4c-.73-10.89-5.08-13-13-5.79-11.32,10.21-22.44,20.92-32,32.73-14.65,18-27.17,37.55-50.27,46.85-15,6-21.67,19.66-23,35.1-3.19,35.9-6.06,71.85-8.22,107.82-1.34,22.25-2.28,44.66-1.14,66.88.61,11.75,7.8,23.08,9,34.91,4.71,45.71,8.18,91.55,12.21,137.33.3,3.45,1.32,6.85,2,10.27l3.21.94c7.16-10.33,14.44-20.58,21.46-31,18.5-27.49,36.51-55.34,55.55-82.46,6.39-9.09,9.62-18,9.81-29.1.5-29,1.79-58,3.32-86.92.74-14.1,2.74-28.14,4.16-42.2l-1.87-.67ZM170.52,581.79c9.94-13.77,22.06-28.6,32-44.76,13.74-22.38,21-46.2,17.38-73.68-4.82-36.33-6.26-73.11-9.61-109.65-1-10.42-3.16-20.77-5.41-31-1.35-6.12-5.58-8.24-10.33-3.16-14.16,15.13-28.54,30.12-41.81,46-27.61,33.08-38.76,69.74-30.49,113.82,7.21,38.41,7.92,78,11.9,117.07,1.39,13.62-2.77,21.81-15.7,28.87a428.86,428.86,0,0,0-59.61,39.61C39.63,680,25.53,699.22,25.64,725.78A34.48,34.48,0,0,1,21,742.19c-6.5,11.37-4,20.77,4.49,29.41a131.57,131.57,0,0,0,13.39,12.25c8.73,6.72,12.71,5.76,17.51-4.44,6.63-14.08,18.16-23.15,32.44-26.17,29.3-6.21,54.72-20.61,80.86-33.94,10.41-5.31,14.76-13.39,16.58-23.94.48-2.83.89-5.68,1.51-8.48,7.26-32.57,19.93-63.94,19.35-98.27-.29-16.89,2.9-33.84,4.52-50.77C197.49,554,186.2,571.81,170.52,581.79Zm292.36-17.31h-1.66c-10.92,26.15-21.62,52.39-32.84,78.41-9.84,22.87-21.26,45.11-24.38,70.3-1.31,10.43-4.06,20.66-5.78,31-1.79,10.82-4.61,21.75-4.31,32.56.49,17.79,1.8,35.18-1.48,53.16-6.5,35.56-6.79,71.6-2.22,107.6,1.1,8.74,4.48,12.22,14,12.08,40.57-.58,81.17-.28,121.75-.31h10.52c-2.21-11.88-3.48-22.34-6.14-32.44-14.45-54.71-25.36-110-31.59-166.33-2.95-26.66-7.17-53.33-23.22-76.21a11.28,11.28,0,0,1-1.75-5.37c-1.16-14.27-1.8-28.6-3.32-42.84C468.22,605.55,465.42,585,462.88,564.48Zm223.64-537c-1.64,5.42-3.08,8.41-3.4,11.52-1.73,16.51-4.06,33-4.52,49.58-.8,28.68-3.67,57.86.26,86,6.63,47.35,29.08,89.27,53.68,129.93,10.17,16.82,24.32,26.16,42.67,31,24.66,6.5,49.22,13.38,73.77,20.29,7.36,2.07,11.78-1.52,12.61-7.79a59.56,59.56,0,0,0-.82-21.62c-12-48.6-24.53-97-36.73-145.6-3.26-13-11.2-22.44-20.76-31.36-11.79-11-22.47-23.18-34-34.47-5.78-5.65-12.66-10.16-18.56-15.69-6.08-5.7-13.64-11.07-17-18.25-10.17-22.14-29.82-34.94-47.2-53.53Zm-147,107.33c1,4.37,1.64,9.42,3.28,14.13Q584.73,269.11,627,389.13a54.15,54.15,0,0,0,9.14,15.39c21.6,26.87,43.54,53.47,65.22,80.28,2.32,2.87,3.7,6.49,5.51,9.76l3.64-2.92c2.22-10.9,3.85-22,6.74-32.68,12.38-45.77,8.71-91.88,2.11-137.75-4.34-30.14-16.2-58.1-29.74-85.47-18.43-37.25-46-63.8-85.07-78.11-21.2-7.76-42.55-15-65-22.81ZM95.91,325.12c-17,9-30.28,19.73-37.88,35.9-8.12,17.3-15.11,35.12-23.2,52.44C21.63,441.74,9,470.39-5.95,497.73-14.33,513.06-15.89,528-3.42,541c12,12.44,17.37,27.28,18.85,43.93A160,160,0,0,1,16,605c-.9,24.79,6.89,47.58,15.35,71.69,3.76-2.1,7.28-3.12,9.45-5.42,20.68-21.89,45.69-37.7,71.86-52,9.87-5.39,14.61-14.15,14.12-25.32-.66-15-1.16-30-2.77-44.91-4-36.49-8.54-72.91-12.8-109.36-3.74-32-7.29-64.1-11.17-96.12C99.26,337.52,97.37,331.57,95.91,325.12Zm287.17,624c-7.12-44.78-5.27-88.46,2.33-132.18,1.64-9.41,1.83-20-.69-29-7.25-26.11-16.08-51.79-24.64-77.51-1.52-4.56-4.76-8.55-7.21-12.8-4.14,3.53-9.26,6.38-12.27,10.7q-33.66,48.3-66.46,97.19c-4.37,6.52-9.31,14.09-9.85,21.47-2.27,30.9-12,60-19.38,89.69-2.64,10.61-4.9,21.32-7.45,32.49ZM-18.65,517.41l-4.39-.48c-1.88,2.55-3.52,5.33-5.67,7.62-9.37,10-19.11,19.62-28.25,29.8-4.1,4.57-9,9.68-10.32,15.3-11.47,48.32-15.59,97-5.35,146.23,5.44,26.19,11.65,52.45,8.34,79.65-.89,7.31-1.34,14.68-2,22l2.64.78c2.93-3.61,6.18-7,8.75-10.87C-40.48,785.77-25,765.57-.36,753.89,6.27,750.75,13,742.37,14.7,735.2c5.93-24.38,11.94-49.28,3.35-74.4-6.92-20.21-9.62-40.87-9.22-62.18.29-15.77-1.26-31.52-11.15-44.71C-10.45,543.06-22,534.21-18.65,517.41ZM465.66,72.18c-17.26,18.18-33.59,36.38-51,53.46-20.53,20.11-41.75,39.54-63.21,58.66a52.76,52.76,0,0,0-18,33.69c-1.59,12-2.62,24.11-4.12,36.14-3.73,29.84-6.5,59.7-3.06,89.77,1,8.45,3.55,9.82,9.9,4.54,17.45-14.53,34.71-29.34,46.15-49.47,25.38-44.65,50.9-89.23,75.73-134.19,4-7.15,6-16,6.51-24.28,1.18-18.47.86-37,1.12-55.56C465.71,80.29,465.66,75.64,465.66,72.18ZM7.53,757.61c-13.17,10.08-26.58,17.25-35.76,28-16.1,18.9-29.75,39.9-44,60.29-2.37,3.38-4.56,8.46-3.83,12.16,3.47,17.41,7.61,34.71,12.26,51.85,3.12,11.52,7.48,22.7,11.89,35.81,18.33-21.41,35.65-40.91,52.12-61.1,11.66-14.31,22.56-29.29,33-44.49C38.53,832.42,43.86,823.94,46,815c1.38-5.71-.94-15.51-5.2-18.8C27.81,786.16,15.42,776.09,7.53,757.61ZM601.81,948.45H750.49c-23.85-42.56-46.39-83.15-69.35-123.51-6.35-11.15-11.76-10.51-18,1.29-9.1,17.18-18.37,34.27-27,51.66C624.57,900.91,613.56,924.19,601.81,948.45Zm-644.5,0h159.9c-19.72-30-38.09-58.4-56.9-86.48-14.69-21.93-17.73-21.62-34-.18s-33.2,42.8-50,64.07c-5.69,7.21-11.79,14.06-19,22.61ZM898.81,1042c10.13-.41,15.5-6.19,20.7-13.16,9.49-12.7,19.2-25.32,29.85-37,5.4-6,6.67-9.12-.8-13.85-4.47-2.84-8-7.25-11.73-11.19-6.64-7.06-14.27-10-24.08-7.8-11.18,2.54-22.57,4.1-33.75,6.62-3.46.79-8,2.49-9.53,5.19-8,14.07-16.71,28.09-17,45-.06,3,1.8,7.76,4.13,8.89,12.56,6,25.54,11.21,38.41,16.59A15.84,15.84,0,0,0,898.81,1042Zm-216.17-25.34c0-21.92-10-36.22-29.83-43.72-3.26-1.24-6.21-3.5-9.54-4.32-4.42-1.09-9.32-2.44-13.6-1.58-20.1,4-33.86,16.82-44.17,33.87-6.62,11-4.94,16.34,6.8,21.76,16.47,7.6,32.91,15.25,49.52,22.52a12.36,12.36,0,0,0,8.88.12c7.29-3.17,14.2-7.19,21.27-10.86,7.62-3.92,11.09-10.21,10.67-17.76ZM382,974c-10.17-3.54-16.77,4.22-25.29,10.32-16.14,11.56-18.47,23.83-13.43,43,8.08,30.73,12.49,35.14,43.84,29.11,12.64-2.43,21.31-7.1,23-21,.66-5.27,3.33-10.29,5-15.44C423.83,993.78,410.89,975,382,974Zm-243.07,1.09c-4.5.75-7,1.06-9.53,1.61-12.74,2.82-25.57,5.33-38.13,8.8-3.6,1-7.24,4.26-9.45,7.46-10.3,14.93-20,30.28-30.15,45.32-3.74,5.54-3.6,11,1.83,14a28.85,28.85,0,0,0,15.75,3.11c7.54-.67,14.84-4.43,22.35-4.86,18.12-1.06,32.25-9,43.85-22.38a109.82,109.82,0,0,1,8-8.29c18.14-16.85,18.5-19,3.87-38.83-2.22-2.87-6.32-4.43-8.4-5.9ZM855.74,258.92l-2.19,1c.62,3.36,1.12,6.74,1.86,10.07,3.54,15.89,7.46,31.71,10.62,47.68s6.46,31.8,15.6,45.85c7.92,12.18,20.12,17.63,32.41,24.05,0-22.17,1.13-43.18-.53-64-.73-9.23-5-20.21-11.39-26.56C887.94,283,871.35,271.48,855.74,258.92ZM737.81,962h-5.74c-7.85-.18-15.66-.08-19.62,8.46s-3.62,16.54,3.46,23.73c1.9,1.93,3,4.87,3.93,7.52,5.53,15,10,17.9,25.66,15.42,6-.94,11.81-2.62,17.69-4.08,7.86-2,11.44-6.4,8.51-14.72-1.9-5.4-3.46-10.92-5.36-16.33C759.32,962,758.85,961.66,737.81,962ZM468.45,990.25c-5.41,2.65-14.34,6.6-22.73,11.48-1.77,1-2.86,5.92-2.05,8.25,4.73,13.53,13.37,24,26.87,29.54,12.45,5.11,23.6.65,32.72-7.5,8.36-7.47-1.57-14.39-2.78-21.62-.31-1.81-1.48-3.53-2.46-5.17C492.31,995.68,483.72,991,468.45,990.25Zm-489.23,19.36h.24c0-3.19.06-6.39,0-9.57-.31-13.63-4.3-16-16.19-9.9-1.69.88-3.44,2.06-5.25,2.22-18.64,1.66-24.86,15.75-30.42,30.37-2.94,7.72-2.66,15.65,4.21,21,6.53,5.06,13.27,1.44,19.57-2.14,6-3.43,11.93-7.8,18.47-9.46s9.23-4.83,9.36-11C-20.71,1017.27-20.78,1013.44-20.78,1009.61Zm276,18.89c10.64-2,21.31-3.44,31.69-6,7.76-1.93,12.34-7.59,13.12-15.89s1.58-16.53,2.49-24.78c.75-6.78-2.08-8.61-8.84-8.69-29.05-.38-40.86,29.51-38.51,55.36ZM54,993.55c-.27-4.43.24-9.12-1.1-13.19A11.2,11.2,0,0,0,46,974c-7.4-1.76-26.82,6.55-27.75,13.54-1.37,10.24.89,21,2.32,31.49.17,1.25,4.83,2.61,7.44,2.68C44.89,1022.12,52.52,1013.56,54,993.55Zm167.09-4.65c-21.29-3.6-25.29-1-30,18.3a6.73,6.73,0,0,0-.46,2.81c1.07,4.66,1,11.81,3.81,13.28,3.82,2,10.87,1.19,14.85-1.21,12.37-7.46,13.51-19.79,11.77-33.18Zm573.55,17.71c-.08,11.58,4.25,18.79,11.47,19.09,8.12.33,23.15-12.05,22.83-18.81-.29-6.1-12.53-13.4-23-13.71-8.81-.26-11.25,2.64-11.33,13.43ZM556.15,985.15c-.21-12-4.92-17.44-15.83-16.27-4.12.44-11.13,4-11.29,6.47-1,14.47,6.18,25.19,14.88,24.9C551.93,1000,556.31,994.58,556.15,985.15Z"/><path d="M961.42,519.12c-10.33-3.94-20.64-7.95-31-11.8-9.45-3.51-12.07-2-10.86,7.95,2.34,19.3,5.62,38.47,8.37,57.72a59.36,59.36,0,0,1,.32,15.24c-4.28-20.47-8.09-41.05-13-61.36-5.3-22-14.06-42.15-31.92-57.55-13.28-11.45-25.42-24.2-38.26-36.16-2.76-2.58-6.34-4.29-12.06-8.06,1.76,17.69,2.21,32.35,4.83,46.6,9.77,53,20.64,105.74,30.33,158.72,6.14,33.55,11,67.33,16.26,101,2.33,15,6.81,27.21,21.64,35.76,21.42,12.36,32,35,44.77,55.18,3.59,5.65,7.06,11.37,10.58,17.06v15.35c-9-14.19-18.44-28.16-27-42.62-11.49-19.34-24.67-36.65-47.24-43.84-7.44-2.37-7.54-8.4-8.51-14.43-9.49-58.89-17.46-118.09-29.13-176.55-10.36-51.69-20.17-103.33-23.39-156-.43-7-3.22-14.08-5.77-20.8-2.34-6.15-5.84-11.85-7.57-18.52,7.78,10.41,14.51,21.85,23.55,31,26.67,27,53.23,54.36,82,79.06,11.45,9.84,28.54,13.12,43.07,19.38Z"/><path d="M961.42,808.77c-2.86-16.23-6.24-32.39-8.46-48.71q-6.39-47.13-10.7-94.47,9.59,53.37,19.16,106.74Z"/><path class="cls-5" d="M898.81,1042a15.66,15.66,0,0,1-3.84-.76c-12.87-5.38-25.85-10.56-38.41-16.59-2.33-1.13-4.19-5.86-4.13-8.89.33-16.9,9.06-30.92,17-45,1.54-2.7,6.07-4.4,9.53-5.19,11.18-2.52,22.57-4.08,33.75-6.62,9.81-2.24,17.44.74,24.08,7.8,3.71,3.94,7.26,8.35,11.73,11.19,7.47,4.73,6.2,7.9.8,13.85-10.65,11.72-20.36,24.34-29.85,37C914.31,1035.84,908.94,1041.62,898.81,1042Z"/><path class="cls-5" d="M682.64,1016.69c.42,7.55-3,13.84-10.67,17.79-7.07,3.67-14,7.69-21.27,10.86a12.36,12.36,0,0,1-8.88-.12c-16.61-7.27-33.05-14.92-49.52-22.52-11.74-5.42-13.42-10.81-6.8-21.76,10.31-17.05,24.07-29.84,44.17-33.87,4.28-.86,9.18.49,13.6,1.58,3.33.82,6.28,3.08,9.54,4.32C672.65,980.47,682.67,994.77,682.64,1016.69Z"/><path class="cls-5" d="M382,974c28.9,1,41.84,19.74,33.18,45.94-1.7,5.15-4.37,10.17-5,15.44-1.72,13.94-10.39,18.61-23,21-31.35,6-35.76,1.62-43.84-29.11-5-19.16-2.71-31.43,13.43-43C365.22,978.26,371.82,970.5,382,974Z"/><path class="cls-5" d="M138.92,975.13c2.12,1.47,6.18,3,8.35,6,14.63,19.87,14.27,22-3.87,38.83a109.82,109.82,0,0,0-8,8.29c-11.6,13.41-25.73,21.32-43.85,22.38-7.51.43-14.81,4.19-22.35,4.86a28.85,28.85,0,0,1-15.75-3.11c-5.43-3-5.57-8.5-1.83-14,10.16-15,19.85-30.39,30.15-45.32,2.21-3.2,5.85-6.46,9.45-7.46,12.56-3.47,25.39-6,38.13-8.8C131.88,976.19,134.42,975.88,138.92,975.13Z"/><path class="cls-5" d="M737.81,962c21-.36,21.51-.06,28.53,20,1.9,5.41,3.46,10.93,5.36,16.33,2.93,8.32-.65,12.77-8.51,14.72-5.88,1.46-11.73,3.14-17.69,4.08-15.67,2.48-20.13-.39-25.66-15.42-1-2.65-2-5.59-3.93-7.52-7.08-7.19-7.45-15.16-3.46-23.73s11.77-8.64,19.62-8.46C734,962.07,735.89,962,737.81,962Z"/><path class="cls-5" d="M468.45,990.25c15.27.77,23.86,5.43,29.57,15a15.82,15.82,0,0,1,2.46,5.17c1.21,7.23,11.14,14.15,2.78,21.62-9.12,8.15-20.27,12.61-32.72,7.5-13.5-5.54-22.14-16-26.87-29.54-.81-2.33.28-7.22,2.05-8.25C454.11,996.85,463,992.9,468.45,990.25Z"/><path class="cls-5" d="M255.17,1028.5c-2.35-25.85,9.46-55.74,38.46-55.4,6.76.08,9.59,1.91,8.84,8.69-.91,8.25-1.71,16.51-2.49,24.78s-5.36,14-13.12,15.89C276.48,1025.06,265.81,1026.53,255.17,1028.5Z"/><path class="cls-5" d="M54,993.55c-1.45,20-9.08,28.57-26,28.11-2.61-.07-7.27-1.43-7.44-2.68-1.43-10.46-3.69-21.25-2.32-31.49.93-7,20.35-15.3,27.75-13.54a11.21,11.21,0,0,1,6.87,6.41C54.21,984.43,53.7,989.12,54,993.55Z"/><path class="cls-5" d="M221.06,988.9c1.74,13.39.6,25.72-11.77,33.18-4,2.4-11,3.2-14.85,1.21-2.82-1.47-2.74-8.62-3.81-13.28a6.73,6.73,0,0,1,.46-2.81C195.77,987.86,199.77,985.3,221.06,988.9Z"/><path class="cls-5" d="M794.61,1006.61c.08-10.79,2.52-13.69,11.29-13.43,10.48.31,22.72,7.61,23,13.71.32,6.76-14.71,19.14-22.83,18.81C798.86,1025.4,794.53,1018.19,794.61,1006.61Z"/><path class="cls-5" d="M556.15,985.15c.16,9.43-4.22,14.83-12.24,15.1-8.7.29-15.86-10.43-14.88-24.9.16-2.5,7.17-6,11.29-6.47C551.23,967.71,555.94,973.13,556.15,985.15Z"/><path d="M961,519c10.33-3.94,20.64-8,31-11.8,9.45-3.51,12.07-2,10.86,7.95-2.34,19.29-5.62,38.47-8.37,57.72a59.36,59.36,0,0,0-.32,15.24c4.28-20.47,8.09-41.05,13-61.36,5.31-22,14.07-42.15,31.93-57.55,13.28-11.45,25.42-24.2,38.26-36.16,2.76-2.58,6.34-4.29,12.06-8.06-1.76,17.69-2.21,32.35-4.83,46.6-9.77,53-20.64,105.74-30.33,158.72-6.14,33.55-11,67.33-16.26,101-2.33,15-6.81,27.21-21.64,35.76-21.42,12.36-32,35-44.77,55.18-3.59,5.65-7.06,11.37-10.58,17.06v15.35c9-14.19,18.44-28.17,27-42.62,11.49-19.34,24.67-36.65,47.24-43.84,7.44-2.38,7.54-8.4,8.51-14.43,9.49-58.9,17.46-118.09,29.13-176.55,10.33-51.73,20.13-103.33,23.36-156.06.43-7,3.22-14.09,5.77-20.8,2.34-6.15,5.84-11.85,7.57-18.52-7.78,10.41-14.51,21.85-23.55,31-26.67,27-53.24,54.37-82,79.07-11.46,9.86-28.55,13.1-43,19.4Z"/><path d="M961.11,808c2.85-16.23,6.24-32.38,8.45-48.7q6.39-47.13,10.7-94.48-9.57,53.37-19.15,106.74Z"/></g></g></svg>