<svg id="Calque_1" data-name="Calque 1" xmlns="http://www.w3.org/2000/svg" viewBox="0 0 1921.02 1080"><defs><style>.cls-1,.cls-2{isolation:isolate;}.cls-2{font-size:60px;fill:#fff;font-family:ChelseaMarket-Regular, Chelsea Market;}.cls-3{fill:#416c90;}.cls-4{fill:#e0b592;}.cls-5{fill:#be8059;}.cls-6{fill:#653322;}.cls-7{fill:#2c424f;}.cls-8{fill:#0a0909;}.cls-9{fill:#14191f;}.cls-10{fill:#9aa19e;}.cls-11{fill:#2c4049;}.cls-12{fill:#443a37;}.cls-13{fill:#82503d;}.cls-14{fill:#633b2b;}.cls-15{fill:#89a2b5;}.cls-16{fill:#a85767;}.cls-17{fill:#c29778;}.cls-18{fill:#a2bbbf;}.cls-19{fill:#955e3f;}.cls-20{fill:#ce6972;}.cls-21{fill:#d0c8c1;}.cls-22{fill:#8fa0a8;}.cls-23{fill:#772430;}.cls-24{fill:#534238;}.cls-25{fill:#916f76;}.cls-26{fill:#ebe7e1;}.cls-27{fill:#92726f;}.cls-28{fill:#aaa49c;}</style></defs><g id="Groupe_268" data-name="Groupe 268"><g id="Avril_à_juin_2021" data-name="Avril à juin 2021" class="cls-1"><text class="cls-2" transform="translate(1300.99 111.57)">Avril à juin 2021</text></g><rect id="Rectangle_191" data-name="Rectangle 191" class="cls-3" width="1920" height="1080"/><g id="Groupe_267" data-name="Groupe 267"><path id="Tracé_917" data-name="Tracé 917" class="cls-4" d="M1680.3,572.83c19.65,4.16,40.18,3.37,59.24,11,28.4,11.4,53.21,28.12,75.12,49.31-17.39,18.9-41.33,27-63.25,38.48-36.7,19.2-77.15,32.7-100.1,71.75-12.21,20.79-29.3,38.5-40.87,59.88-.2.37-.39.74-.59,1.1l.56-1.12c6.9.86,11.64-3.69,16.87-6.87,49.76-30.26,97.5-63.52,142.11-100.87,23.21-19.43,49.39-36,66.8-61.82,9.21-8.52,20.69-7.05,31.77-7.12,17.31-.1,34.62,0,51.92,0V772.67c-56.31,8.35-107,29.92-148.33,69.17-38,36-83.75,52.23-133.81,60.14-17.77,2.8-36.48,3.84-42.86,26-1.14,3.93-5.72,6.86-8.66,10.3-16.07,18.78-40,25.21-60,37.64-17.13,10.61-36.58,13.81-56.89,14.4-17,.49-33.55-6.43-50.59-2.19l-42.8-15.22c-1.54-6.63-6.34-10.35-11.77-13.76-16-10.07-28.83-23.64-41.27-37.63-2.86-3.21-4.54-9.14-10.18-6.86-5.94,2.4-5.42,8.62-4,13.34,2.58,8.73-.72,12.84-8.91,14.46-4,.78-7.86,1.73-9,6.47-23.56,1.65-43.7-9-64.36-17.81a32.86,32.86,0,0,0-15.88-10.79c-2.53-14.37-20.5-19.16-21.43-34.5,18.44-.86,35.19,5.09,51.56,15.73-.44-19.69,0-20.71,8.92-17.21,15.59,6.1,28.65,9,47.71,6.06,50.83-7.75,86.68-34.84,119.26-70.34l6.11-1c23.17-3.77,37.57-19.7,51.12-36.81l14.52-9.88c-21.7-8.34-11.19-12.46,0-16.6,3.15-1.16,6-3.59,9.22-4,14.18-1.75,8.9-8.33,2.76-14.62,19.07-5.08,19.81-8.41,6.88-25.52,11.25-9.14,19.29-20.7,25.59-33.59l17.7-13.94a33.78,33.78,0,0,1,10.43-14.74c27.14-22.68,54-45.73,80.88-68.65Z" transform="translate(0.51)"/><path id="Tracé_918" data-name="Tracé 918" class="cls-5" d="M1418.71,988.14c17-4.24,33.58,2.68,50.59,2.19,20.3-.58,39.76-3.79,56.89-14.4,20.07-12.43,44-18.86,60-37.64,2.94-3.44,7.52-6.37,8.65-10.3,6.39-22.17,25.1-23.2,42.87-26,50.06-7.91,95.83-24.13,133.81-60.14,41.38-39.24,92-60.82,148.33-69.17v34c-24.53,10.6-47.82,24-78.67,32,29.11,7.52,54.16,8.23,78.67,12.23v17c-12.89,1.68-26,1.85-38.49,6.13-11.18,1.06-22.59-.78-33.57,2.7-10.88-3.35-18.14.33-23.66,10.39-4.32,7.85-9.49,15.78-16,21.76-15.75,14.36-23.21,32-23,52.72.18,16.8-7.72,27.29-21.65,35.38-10.8,6.28-20.28,14.52-24.32,27.2-4.44,7.1-12.2,9.5-18.92,13.37l-1.45.51c-25.72,11.93-55.26,8.84-81,20.55a21,21,0,0,0-17.73-3.88c-24.19,5.92-47.29-6.69-71.3-3.4-7.39,1-15.72-1.6-20.28-7.07-21.28-25.47-51.26-30.8-81.06-37.67C1436.25,1004,1423.86,1001.06,1418.71,988.14Z" transform="translate(0.51)"/><path id="Tracé_919" data-name="Tracé 919" class="cls-6" d="M1418.71,988.14c5.15,12.92,17.54,15.83,28.66,18.39,29.8,6.87,59.78,12.2,81.06,37.67,4.56,5.47,12.89,8.09,20.28,7.07,24-3.3,47.11,9.32,71.3,3.4a21,21,0,0,1,17.73,3.88c-3.65,1.15-7.84,1.52-10.83,3.6-8.59,6-23.15,2.36-26.69,16.41h-306c-1.41-8.06-8.16-6.24-13.39-7.18-26.36-4.75-52.73-9.48-79.76-14.33,5.37-12.65,19.4-16.57,21.68-29.27-5.14-11.94-11.9-20-27.06-15.09-4.16,1.36-9.74-1.62-14.67-2.61-8.71-10.51-21.58-7.29-32.7-9.86,1.29-6.36-.54-10.44-7.43-12.24-9.17-2.4-18.13-5.56-27.18-8.4,17.08-14.22,36.85-22.92,58.22-30.85,0,12.25-14.24,12.1-13.74,24.08,12.37-13.44,26.5-15.28,42.28-10.24,2.9.93,7.06.27,9.82-1.2,5.22-2.78,13.57-4.57,13.28-11.18-.32-7.32-9.91-1.68-13.85-6,3.15-7.49,12.73-6.76,16.74-13.07,20.66,8.81,40.8,19.46,64.36,17.82,3.69,3.22,8.3,3.54,12.65,3,18-2.4,33.86,3.71,49.51,11.43,7.43,3.66,15.3,6.42,23,9.59Z" transform="translate(0.51)"/><path id="Tracé_920" data-name="Tracé 920" class="cls-7" d="M733.83,252.75c-58.55-13.25-118-21.2-177.27-30.28q-240.79-36.9-482.3-68.79c-24.12-3.16-48.22-6.51-72.33-9.77v-13.6l13.3.45L127.91,142.7l6.58.72,3.59.24,6.34.6c12.36,3.77,25.08,5.1,37.91,5.69,44,6.67,88,13.21,132,20.05,63.49,9.88,126.87,20.43,190.71,27.84l61.5,9.64c17.69,4.38,35.74,6.16,53.85,7.47l34.78,5.42c11.26,1.37,22.08,5.93,33.7,4.77l56.32,8.52q-.26,6-.52,12.05C743.41,251.69,739.37,253.38,733.83,252.75Z" transform="translate(0.51)"/><path id="Tracé_921" data-name="Tracé 921" class="cls-8" d="M1148.27,1000.21c11.12,2.57,24-.65,32.71,9.87a22.43,22.43,0,0,0-17.34,10.67l59.06,7c-2.27,12.69-16.31,16.61-21.68,29.26,27,4.86,53.4,9.59,79.76,14.34,5.23.94,12-.89,13.39,7.18H1117.34c.79-9.68-1.61-19-3.28-28.37-1.27-7.2-5.71-10.73-11.71-8.32-26.38,10.56-55,16.62-76.83,36.69h-51a10.81,10.81,0,0,1,5.76-7.87c28.87-16.45,56.69-35.25,86.89-48.74C1092.53,1010.6,1117.31,992.43,1148.27,1000.21Z" transform="translate(0.51)"/><path id="Tracé_922" data-name="Tracé 922" class="cls-6" d="M1739.15,1024.12c4-12.69,13.53-20.93,24.32-27.2,13.93-8.09,21.83-18.58,21.65-35.38-.21-20.71,7.25-38.36,23-52.72,6.55-6,11.73-13.91,16.05-21.76,5.52-10.06,12.77-13.74,23.66-10.4,5.22,4.12,10.74,7.92,15.58,12.45,9.39,8.79,26.08,11.17,29.76,23.3,4.56,15.05,14,20,26.72,23.4V959.6c-5.1-.05-9.82,1.57-14.72,2.69-13.92,3.17-24.74,13-38.25,16.6-18.45,5-36.28,11.47-54,18.61C1788.66,1007.26,1763.76,1015.33,1739.15,1024.12Z" transform="translate(0.51)"/><path id="Tracé_923" data-name="Tracé 923" class="cls-9" d="M1148.27,1000.21c-31-7.78-55.74,10.39-81.11,21.74-30.2,13.49-58,32.29-86.89,48.74a10.81,10.81,0,0,0-5.76,7.87H920.1c22.3-34.61,44.95-67.85,89.21-78.71,31-7.6,60.58-20.53,91.9-27.42-2.94,14.71,8,5.23,12.45,7.15,9,2.83,18,6,27.18,8.4C1147.73,989.77,1149.56,993.85,1148.27,1000.21Z" transform="translate(0.51)"/><path id="Tracé_924" data-name="Tracé 924" class="cls-10" d="M1794.06,1078.56h-98.62c52.61-20.25,105.08-40.84,157.88-60.58,22.12-8.27,43.26-19.32,66.56-24.39v68c-9.67,4.71-22.13,5-27.2,17h-44.21c3.3-5.16,6.55-10.35,9.93-15.45,3.9-5.9,2.35-8.92-4.51-10.58C1837.4,1048.54,1804.13,1062.81,1794.06,1078.56Z" transform="translate(0.51)"/><path id="Tracé_925" data-name="Tracé 925" class="cls-11" d="M1919.88,993.59c-23.3,5.07-44.44,16.11-66.56,24.38-52.8,19.74-105.27,40.34-157.88,60.59h-74.81c18.5-11.32,41-11.55,59.88-21,12.78-6.39,31.37-1.93,38.27-19.58l1.44-.51c6.74.27,13.51.85,20-1.91,47.31-20.1,97-34,143.8-55.48,11.64-5.33,22.93-11.7,35.86-13.7Z" transform="translate(0.51)"/><path id="Tracé_926" data-name="Tracé 926" class="cls-9" d="M1025.52,1078.56c21.84-20.07,50.45-26.13,76.83-36.69,6-2.4,10.44,1.12,11.71,8.33,1.67,9.41,4.07,18.68,3.28,28.36Z" transform="translate(0.51)"/><path id="Tracé_927" data-name="Tracé 927" class="cls-12" d="M1919.88,966.4c-12.93,2-24.22,8.37-35.86,13.7-46.8,21.43-96.49,35.38-143.8,55.48-6.5,2.76-13.26,2.18-20,1.91,6.73-3.87,14.49-6.28,18.93-13.37,24.61-8.79,49.51-16.87,73.74-26.62,17.74-7.14,35.58-13.65,54-18.61,13.51-3.64,24.33-13.43,38.25-16.6,4.9-1.12,9.62-2.74,14.72-2.69Z" transform="translate(0.51)"/><path id="Tracé_928" data-name="Tracé 928" class="cls-4" d="M1919.88,850.84c-24.51-4-49.56-4.7-78.67-12.23,30.85-7.92,54.14-21.35,78.67-32Z" transform="translate(0.51)"/><path id="Tracé_929" data-name="Tracé 929" class="cls-13" d="M1919.88,935.81c-12.76-3.37-22.15-8.35-26.72-23.4-3.68-12.13-20.36-14.51-29.76-23.3-4.84-4.53-10.36-8.33-15.58-12.45,11-3.47,22.39-1.63,33.55-2.69l38.51,34.65Z" transform="translate(0.51)"/><path id="Tracé_930" data-name="Tracé 930" class="cls-12" d="M1718.78,1038c-6.9,17.65-25.5,13.19-38.27,19.58-18.88,9.43-41.38,9.66-59.88,21h-20.4c3.53-14.06,18.1-10.4,26.68-16.41,3-2.09,7.18-2.45,10.83-3.61C1663.52,1046.84,1693.06,1049.93,1718.78,1038Z" transform="translate(0.51)"/><path id="Tracé_931" data-name="Tracé 931" class="cls-14" d="M1794.06,1078.56c10.07-15.75,43.34-30,59.82-26,6.86,1.66,8.41,4.68,4.51,10.57-3.38,5.1-6.62,10.3-9.92,15.45Z" transform="translate(0.51)"/><path id="Tracé_932" data-name="Tracé 932" class="cls-15" d="M15.23,130.76l-13.29-.44v-10.2c24.27-6.71,47.93-2.19,71.5,3.9-4.5,9.83-12.15,4-18.95,4.38C41.41,129.23,27.32,115.37,15.23,130.76Z" transform="translate(0.51)"/><path id="Tracé_933" data-name="Tracé 933" class="cls-14" d="M1892.67,1078.56c5.08-12,17.54-12.29,27.2-17C1924.42,1089,1903.35,1075.46,1892.67,1078.56Z" transform="translate(0.51)"/><path id="Tracé_934" data-name="Tracé 934" class="cls-16" d="M943.48,844.05c-24.12-10.52-46.4-24.56-73.33-29.45-23.09-4.19-36.07-24.06-37.44-47.39-.06-1.12.15-2.41-.33-3.34-15.62-30.06-7.33-60.11-.36-90.3,2.7-11.71,4.17-24.1,17.57-28.52,12.7-4.19,21.36,2.7,28.57,12.46,1.57,2.12,4.57,3.19,6.92,4.73.78,4.15,2.6,7.48,7,8.76,2.27,6.8,8.58,8.62,14.11,11.18,30.68,14.21,49.58,39.54,64.9,68.3-.83,6.22-1.93,12.21-10.25,12.07-7-14.24-21.42-19.57-33.49-27.71l-29.11-44.79c1.39,20.66,10.83,35.35,27.69,46.11,8.06,13.57,21.71,19.71,35,26.27,29.27,24.85,24.31,65,6.51,88.05-6.56,1.59-12.38-1.51-18.45-3-.84-.55-1.65-1.15-2.43-1.78ZM895.91,756c5.75,12.65,11.22,25.43,17.35,37.89,3.53,7.18,10.52,9.95,18.09,11.1,4.94.75,11,3.31,14.36-1.32,3.9-5.36-.32-11-3.47-15.46-11-15.78-28.65-23.17-46.33-32.21Zm-55-38.89c2.47,18.87-4.59,39.88,9.45,56.88,2.8,3.39,4.27,9.1,9.69,7.94,5.59-1.19,6.82-7.11,8.4-11.83,1.78-5.29-.73-9.75-3.56-14.2-8.14-12.84-16-25.85-24-38.79Z" transform="translate(0.51)"/><path id="Tracé_935" data-name="Tracé 935" class="cls-13" d="M1113.66,979.58c-4.42-1.92-15.39,7.56-12.45-7.15,19.1-4.8,28.78-25.54,49.36-28.54,7.43-1.09,3.18-6.35-.08-9.67-5.38-5.45-10.7-11-12.48-19.68,9.73.54,16.47,6,24.21,8.6l1,.93,1.27-.39,13.68.63a44.34,44.34,0,0,0,32.4-4,33,33,0,0,1,15.89,10.78c-4,6.31-13.6,5.59-16.74,13.07,3.93,4.31,13.52-1.32,13.85,6,.29,6.61-8.07,8.4-13.28,11.18-2.76,1.47-6.92,2.14-9.83,1.2-15.77-5-29.9-3.2-42.27,10.24-.5-12,13.76-11.82,13.73-24.08C1150.51,956.66,1130.74,965.36,1113.66,979.58Z" transform="translate(0.51)"/><path id="Tracé_936" data-name="Tracé 936" class="cls-17" d="M892.07,671c-4.39-1.29-6.21-4.61-7-8.77,11.7-.28,21.28-5.24,30.41-12.37,10.2-8,11.15-25.49.15-32.76-14.5-9.59-6.35-15.3,3.06-20.34,8.54-4.58,9.53-8.94,1.57-14.78-4.25-3.13-12.85-3.55-11.11-10.63,2-8.11,11.17-5.62,17.26-7.65q10.27,2.53,20.56,5c-.47,5.79-1.43,11.66,3,16.54a51.34,51.34,0,0,1-5.86-3.12c-3.55-2.44-6.93-7.41-11.5-3.92-4.11,3.13-.32,7.13,1.59,10.37,3.56,6.07.76,9-4.72,11.65-3.83,1.83-9.38,4.33-6.78,9.72,2.29,4.77,7.83,2.72,12.19,2.2,3.31-.39,6.63-.73,10-1.1-.37,7.5-8.28,14.58-1.22,22.47-2.19,10.46-7.27,17.54-17.62,22.82A297.23,297.23,0,0,1,892.07,671Z" transform="translate(0.51)"/><path id="Tracé_937" data-name="Tracé 937" class="cls-3" d="M930.38,500.82l6-13.78a18.14,18.14,0,0,0,10.52-9.24l6.52-3.9c2.49,26.05.26,51.6-8.09,76.5-2.75,8.21-6.4,13.91-15.11,5.37q-1.47-12.56-2.93-25.11C937.48,521.65,942.79,512.14,930.38,500.82Z" transform="translate(0.51)"/><path id="Tracé_938" data-name="Tracé 938" class="cls-17" d="M814.87,305.85l-12.66-.55c-7.73-11.22-21.16-12.7-32-18.66q-.27-9.92-.53-19.85,1.93-8.62,3.86-17.24c6.1-.4,12,.09,17.43,3.3-5.16,8.59-15.35,15.68-6.41,27.93,6.63,9.1,15.39,15.19,25.76,11.68,16.1-5.44,22.57,2.6,28.56,14.94,4.72,9.73,7.34,20,9.88,30.31l-5.74-.08-4.65-3.42q-.35-3.18-.68-6.36C838,312.32,830.78,304.58,814.87,305.85Z" transform="translate(0.51)"/><path id="Tracé_939" data-name="Tracé 939" class="cls-5" d="M946.93,477.81A18.12,18.12,0,0,1,936.41,487a90.83,90.83,0,0,1-24.3-50.76c-2.55-18.07-15.35-27.34-30.09-35.67-17.09-9.65-34.18-20.06-35.09-43.19,3.92,1.31,7.49,3.78,8.44,7.58,3.63,14.48,15.14,19.33,27.36,23.57,1.69,2.21,3,5,5.13,6.52,18,12.43,30.76,27.22,34.72,50.52C924.73,458.21,927.61,475.7,946.93,477.81Z" transform="translate(0.51)"/><path id="Tracé_940" data-name="Tracé 940" class="cls-18" d="M930.25,555.77c8.71,8.54,12.36,2.84,15.11-5.37,8.35-24.9,10.58-50.45,8.09-76.5,1.2-2.83,3.7-3.35,6.36-3.57,4.55,33.95-3.1,66.31-12.84,98.4l-20.56-5C927.69,561.05,929,558.41,930.25,555.77Z" transform="translate(0.51)"/><path id="Tracé_941" data-name="Tracé 941" class="cls-5" d="M882.74,388.57c-12.23-4.24-23.74-9.09-27.37-23.57-1-3.8-4.52-6.27-8.44-7.58q-2.7-8.13-5.42-16.26c.51-1.17,1-2.35,1.54-3.53l5.74.08c6.9,19.91,19.48,35.89,34.7,50Z" transform="translate(0.51)"/><path id="Tracé_942" data-name="Tracé 942" class="cls-9" d="M930.38,500.82c12.41,11.32,7.1,20.83-3.06,29.84C925.35,520.4,927,510.52,930.38,500.82Z" transform="translate(0.51)"/><path id="Tracé_943" data-name="Tracé 943" class="cls-17" d="M770.24,286.64c10.81,6,24.24,7.44,32,18.66C790,305,772.91,295,770.24,286.64Z" transform="translate(0.51)"/><path id="Tracé_944" data-name="Tracé 944" class="cls-17" d="M843.05,337.63c-.52,1.18-1,2.36-1.54,3.53-4.09-1-6.38-2.71-3.12-6.94Z" transform="translate(0.51)"/><path id="Tracé_945" data-name="Tracé 945" class="cls-13" d="M1164.45,923.69l-1.28.39-1-.94a1.39,1.39,0,0,1,2,.11A1.16,1.16,0,0,1,1164.45,923.69Z" transform="translate(0.51)"/><path id="Tracé_946" data-name="Tracé 946" class="cls-17" d="M944.88,611.08c-3.32.36-6.64.7-10,1.1-4.36.52-9.9,2.56-12.19-2.2-2.6-5.4,3-7.89,6.78-9.73,5.48-2.63,8.28-5.58,4.72-11.64-1.91-3.25-5.7-7.24-1.59-10.38,4.57-3.48,8,1.48,11.5,3.93a56.76,56.76,0,0,0,5.86,3.13c7.27,4.23,12.38,11.6,20.76,14.17,1.21,3,2.57,3.37,4.13.24l-.3.16c3-.11,6.13,0,7.41-3.64l2.93-3.11c4.65-3.62,8.26-7.21,5.44-14.15-3.58-8.84-6.19-18.07-9.22-27.13-6.18-29-14.9-57.68-13.77-87.87l.34-7.77c-2.23-21,4.75-39.79,12.47-58.78,9.44-23.22,28.86-40,38.88-62.7,7.88-1.55,16.67-2,16-13.63,13.47-8.25,26.29-17.94,40.57-24.41,20.24-9.17,37.76-26,62.31-24,41-12.59,79.17-30.59,110.39-61.85-.6,11.43-10.75,17.4-8.53,28.26,2,9.81,5.52,13.79,14.18,5.49l12.85-9.42c8.3-1.39,17.8-3.9,8.89,10-1.69,2.64-5.1,5.44-1.9,8.71,2.66,2.72,6.54,1.68,9.45.16,9.85-5.17,20.19-9.89,25.38-20.79l5.55-1.94c7.81,2.53,10.89-9.48,20.16-6.76-2,4.9-5.07,8.91-5,12.88.09,7.47-8.47,16.17-.3,21.94s18.24,4.5,27.32-.23c2.49-1.3,4.73-3.53,7.35-4.06,8.58-1.76,16.81-7.74,28.59-3.46l-27.56,20.74c18.15-.33,32.58,5.28,44.9-6.94l7.12-.6c-5.82,16.88,5,18.86,17.41,19.5a147.58,147.58,0,0,1-43.6,16.29c-7.37,1.51-15.2,2.58-17.31,11.09-4.46,17.95-11.55,35.19-11.25,54.38.51,32-.1,32,30.62,29.14,4.78.33,9.44.84,10.3,7-5.1,5.58-9.71,11.52-16.23,15.82-3.37,2.22-9.73,5.09-3.94,11.25l-.7,6.65c-1.36,1.33-4.08,3-3.85,3.94,1,4.13,4.83,2.91,7.8,3.26l6.23.27c-1.12,13.86-17,12.25-25.58,24.28,23.17-4,42.78,4.21,63.86-8.19,11-6.5,11.43-17.86,20.71-23h1.42l1.41-.18,20.87-7.83c-1.83-6.68-8.13-5.36-10.51-9.16a16.68,16.68,0,0,0,.49-3.06c5.7-2,13.68-2.81,14.09-9.76.35-5.78-6.8-3.71-10.87-4.5-1.54-6,2.5-10.91,3.12-16.49,6.32-2.26,11.72-7.6,10.82-13.19-1.17-7.23-9.42-2.41-14.28-4.06,2-13,15.7-20.33,16.23-34l3.83-27.23,1.25-1c18.78,2.26,19,2.62,8.43,19.8,4.38,1.39,8.5,3.05,12.78,4,6.89,1.49,17.21-.94,19.06,7,1.6,6.87-8.16,8.83-13.77,12.1-8.25,4.81-8.21,10.24.2,14.85,3.89,2.14,8.29,3.34,12.46,5l.14.06c3.64,7.4,10.37,5.64,16.24,4.9,7.76-1,15.38-3,23.1-4.42,3.78-.69,8.22-2,10.49,2.43s-.8,7.52-4.43,9.47c-10.88,5.83-7.2,12-.73,18.44,1.92,1.91,5.1,4,5.16,6.13.6,19.81,13.75,16.7,26,14.31,7.61-1.47,14.8-5.59,22.93-3-20.06,14.1-43.42,21.78-67.31,32.58,10.22,5,19.4-4.24,25.27,1.08,4.46,7.13-14.77,4.4-2,12.54l.38.48c-11.82,9.71-26.64,13.81-42.07,21.4,10.13,3.7,20.68,1,28,10.68l-45.35,18.87c9.15,5.94,19.93-1.15,26.86,8.61-31.83,13.08-65.65,20.46-94.2,40.36,22.11-3.59,43.82-8.46,67.16-7.42L1474,585.76c10.48,3,17.7-3.54,26-.21-32,23.06-62.6,46.63-102.79,52.17,17.94,4.25,35.2.32,52.87,2.28l-43.16,17.62c11.69,1.46,22.47-2.32,38.37,2.39l-78.78,31.38.85,2.19,61.65-8.74c-40.09,24.3-85.22,29.63-131.68,38.27l47.68,9.48a136.47,136.47,0,0,1-62.16,6.1c-11.25-1.37-18.1,10.4-30,5.29-13.43-5.78-27.87-9.23-40.61-16.85-5.74-3.43-11.53-7.4-19.08-3.12,1.18,10.59,13.48,16,14.18,28.22-3.62-.72-5.83-.86-7.82-1.6q-29.08-10.92-58.11-22c-1.31-6.8,1.2-14.42-4.33-20.33-2.47-10.91-5.16-21.72-12.37-30.73-2.62-3.28-2.93-9.91-8.34-9.05-5.87.94-8.19,6.3-9.85,12.17-5,17.71-11.59,34.87-20.71,51-9.84.29-16.25,7.05-23.12,12.63a675.52,675.52,0,0,0-65,60.78c-9.79-17.75-11.67-39.35-26.61-54.59-15.32-28.75-34.22-54.08-64.9-68.29-5.53-2.56-11.84-4.38-14.11-11.17a299.64,299.64,0,0,0,34-14.65c10.35-5.28,15.43-12.36,17.62-22.82,3.93-4.64,8-9.21,11.75-14,2.68-3.35,3.32-7.35.42-10.67C951.3,603.71,948.15,608.34,944.88,611.08Zm287.19,11.43,5.14.84c-7.49,18.53-25.57,22.59-41.23,29.53-10.66,4.72-22.09,7.71-33.18,11.48,43.82-.64,88.24-.43,123.54-29.81,11.83-9.85,18.66-25.81,32-35.68a103.73,103.73,0,0,0,27-30c2-.65,4.24-1,4.26-3.75a1.48,1.48,0,0,0-1-1c-2.69.05-3.3,2.08-3.81,4.18-7.53-2.6-16.75,8.58-21.3.78-3.44-5.9,5.38-13.76,8.23-21,1-2.4,3.52-4.66,0-8.58-7.87,9.1-21.09,5.47-30.09,12.89-.5-.52-1-1-1.53-1.52-.92-4.47,2.27-9.75-3.12-14.08-6.46,8.13-7.06,19.69-15.94,25.86l-8.12-1.89c.72-3,1.45-6,2.17-9,8.31-12.65,2.26-24.67-1.6-36.78a10.27,10.27,0,0,0-2.37-1.4c.77-15.31-5.1-21.62-20.45-15l-18.81,2.3c-25.76-.27-51.31.05-69.44,22.89A78.79,78.79,0,0,0,1141,544.66c-18,24.26-29,51.57-35.6,80.89-1.55,6.9.73,11.26,7.41,12.48,31.74,5.8,63.46,9.26,94.52-3.54,9.59-1.26,16.26-8.55,24.79-12Zm-91-159.15c-24.82,10.55-17.16,48.17-46.1,55.28-10.15,28.62-20.15,57.26-11.94,91.76,23.52-33.46,30.5-73.55,59.51-99.86,29.47-26.74,64.7-44.53,100.33-61.77-4-4.6-14.74-1-12.81-4.78,7.27-14.33-4.21-6.92-6.64-5.89-27.09,11.49-59.61,10.6-81.25,37.45-.47-5.52-.75-8.82-1-12.13l.61-1.07-.67,1ZM1187.57,719a2.85,2.85,0,0,0,.34-1.14c0-.17-.64-.26-1-.38a2.94,2.94,0,0,0-.34,1.15c0,.16.64.25,1,.37Z" transform="translate(0.51)"/><path id="Tracé_947" data-name="Tracé 947" class="cls-19" d="M1141.44,728.63q29,11,58.11,22c2,.75,4.2.88,7.82,1.6-.7-12.24-13-17.62-14.18-28.22,7.54-4.27,13.34-.3,19.07,3.13,12.75,7.62,27.19,11.07,40.62,16.85,11.9,5.12,18.74-6.66,30-5.29a136.47,136.47,0,0,0,62.16-6.1l-47.68-9.48c46.45-8.64,91.59-14,131.68-38.27l-61.66,8.74-.84-2.19L1445.32,660c-15.9-4.71-26.68-.94-38.37-2.39L1450.1,640c-17.67-2-34.92,2-52.86-2.29,40.18-5.53,70.76-29.1,102.78-52.16-8.29-3.33-15.5,3.23-26,.21l49.9-29.56c-23.34-1-45,3.83-67.17,7.41,28.55-19.9,62.38-27.27,94.2-40.35-6.92-9.76-17.7-2.67-26.85-8.61l45.34-18.87c-7.35-9.64-17.9-7-28-10.69,15.43-7.58,30.25-11.68,42.07-21.4l6-1.29c-.27-.42-.66-1.23-.78-1.2-1.88.61-3.72,1.33-5.57,2-12.75-8.14,6.48-5.41,2-12.54-5.87-5.32-15.05,3.9-25.28-1.08,23.9-10.8,47.26-18.48,67.32-32.58l5.94-.93c.34,1.08.63,2.16.87,3.25-7,5.13-14.08,12.69-12.22,20.27,2.15,8.79,13.34,4.3,20.45,6,5.19,1.25,12.38-.29,7.64,9l-1.16.63c-7,1.46-13.58,3.56-16.82,12.38,11.26,3.21,20.26-1.15,29.39-4.51l10.58-3.19,16.53-3.42c0,2.27,0,4.55,0,6.82-2.43,1.63-3.26,4-3.13,6.81l0,.05c-2.88.71-4.31,2.68-4.78,5.49l-.26.14c-7.16,3.27-6.85,12.38-13.54,16.72-4.17,2.71-9,10-8,13.88,1.74,6.86,10.28,4.67,16.16,5.72a1.33,1.33,0,0,0,1.79.47l8.13,3.53c6.52,6,1.41,7.92-3.45,10.46-5.29,2.76-14.26,4.26-13.87,10.42.5,7.84,10.42,6.43,16.78,9.51,1.87,4-17,6.59-.93,13,12.73,5.09,4.89,10.19-2.89,13.28l-38.51,8c-15.14-9-31.34-9.75-48.1-7.4-.1,8.82,10.54,9.3,10.7,17.28-10.4,4.32-22.85-.4-32.1,7.65,10.83,10.9,10.7,10.63-3.57,17.12-8,3.62-17.48,4.69-22.6,12.12.76,6.55,10.21,2.64,10.23,10.13l-29.32,17c8.79,4.26,17.4,3.77,23.46,9.49l-17.71,13.94-50.55,19.73c8.19,8.15,15.53,12.93,25,13.86,12.93,17.11,12.19,20.45-6.88,25.52,6.14,6.3,11.42,12.87-2.76,14.63-3.18.39-6.07,2.83-9.21,4-11.25,4.14-21.76,8.26-.06,16.6l-14.52,9.88c-18.93,4.94-38,9.52-56.74,15-6.13,1.8-16.78.36-17.31,7.15-.6,7.68,10.12,6.18,15.89,8.53,3.29,1.34,6.28,2.22,7,6.12l-6.11.94c-4.84-4.37-12.28-5.25-15.65-1.79-15.06,15.52-31.32,16.92-50,7.89-5-2.4-9.14-1.87-7.08,5.82.9,3.34,4.25,6.92-.93,12-16-20.31-35.84-11.88-55.38-6.71-3.82,1-9.36,1.5-8.74,6.18,1.8,13.54-4.92,8.77-11.4,6.17-5.75-2.3-11.73-4-17.55-6.18-7.33-2.74-15.92-9.57-21.6-7.65-9.46,3.21,2.37,15-4.13,22.05-8.05-1.1-12.81-8.5-20-11.35-4.09-1.61-8.15-6.13-12.36-3.85-6.78,3.67,4.14,8.42.16,13.24-9.39-.72-15.77-8-24-11.22-2.62-2.95-5-6.11-7.89-8.79-7-6.53-13.31-8.07-14.86,4-2,15.37-7.73,10.25-14.14,3.1-2.63-2.93-5.52-5.87-7.28-9.32-7-13.77-14.14-21.73-28.54-6.33-6.57,7-12.33,2.89-15.88-6.33-9.18-23.83-44.13-28-60.74-7.66l-15.32,4c-5.43-2.49-5-7.62-5.54-12.27a674.56,674.56,0,0,1,65-60.79c6.86-5.57,13.28-12.34,23.12-12.63-.43,2.56-2.25,5.21.48,7.57,26.54,30.49,38.35,29.2,53.57-5.83C1140.55,731.86,1140.93,730.22,1141.44,728.63Z" transform="translate(0.51)"/><path id="Tracé_948" data-name="Tracé 948" class="cls-20" d="M1137.92,272.65c-24.56-2-42.07,14.84-62.31,24-14.28,6.47-27.1,16.16-40.57,24.41l-12.66-14.38q-.25-6.42-.52-12.86c11.13-5.62,6.88-16.28,8.24-25.1,14.66-21.58,17.87-48.69,33.63-69.7,6.36-8.48,12.86-22.07,22.71-20.46,11.27,1.85,10.35,17.49,11.62,27.42,2.2,17.25,19.64,22.8,25.28,36.89C1125.32,254.21,1134.56,262,1137.92,272.65Z" transform="translate(0.51)"/><path id="Tracé_949" data-name="Tracé 949" class="cls-15" d="M505,197.84c-63.84-7.4-127.22-18-190.71-27.83-44-6.84-88-13.38-132-20.06-10.51-16.06-24.34-10-37.91-5.69l-6.35-.59-3.58-.25-6.58-.72c-6.83-9.62-22-6.86-27.48-18.47,28.58,6.5,58.91,3.33,86.46,11.51,16.51,4.9,30.07,9,46.13,2.2,2.91-1.24,7.8.68,11.21,2.32,21.86,10.52,45.08,16.65,69,13.5,26.64-3.51,49,9.62,73.27,14.89,13.28,2.89,25.67,7.3,39.58,1.62,10.28-4.2,22.24-1,31.25,3.21,22.89,10.67,46.76,10.3,70.82,11.32,19.29.81,38,3.8,55.16,14.21,9.61,5.84,21.44,4.37,31.55,2,17.72-4.08,34.53-1.61,49,7.12s31,4.26,45.52,10.32c-5.56,6.18-14.73,1.21-20.52,6.66-11.62,1.15-22.43-3.41-33.7-4.78-8.55-13.63-22.34-15.78-34.77-5.42-18.12-1.3-36.17-3.08-53.85-7.46C557.91,193.32,518.23,187.09,505,197.84Z" transform="translate(0.51)"/><path id="Tracé_950" data-name="Tracé 950" class="cls-5" d="M1836.19,633.69c-17.41,25.82-43.58,42.39-66.8,61.82-44.61,37.35-92.35,70.61-142.11,100.87-5.23,3.18-10,7.73-16.87,6.87l0,0c11.58-21.37,28.66-39.1,40.88-59.88,22.94-39,63.4-52.54,100.1-71.75,21.92-11.47,45.86-19.57,63.25-38.48Z" transform="translate(0.51)"/><path id="Tracé_951" data-name="Tracé 951" class="cls-21" d="M1030.1,268.73c-1.36,8.82,2.89,19.48-8.23,25.1-42.38-3-82.72-18-125.1-21,4.16-22.64-6.3-38.35-24-50.64.08-1.12.19-2.23.33-3.34,12-1.44,18.7,7.06,25.18,14.63,8.67,10.12,19.36,14.22,32.2,16.45C963.77,255.74,996.07,266.81,1030.1,268.73Z" transform="translate(0.51)"/><path id="Tracé_952" data-name="Tracé 952" class="cls-22" d="M100.43,124.23c5.48,11.62,20.65,8.85,27.48,18.47L15.23,130.76c12.09-15.39,26.18-1.53,39.26-2.36,6.8-.42,14.45,5.45,18.95-4.38l10.2-.13c2.19,2.47,4.39,2.5,6.62,0Z" transform="translate(0.51)"/><path id="Tracé_953" data-name="Tracé 953" class="cls-22" d="M688.86,225.15c5.79-5.45,15-.48,20.51-6.65l13.44.08c3.34,3.65,6.75,3.77,10.23.21l13.55.26c.1,1.23.21,2.45.31,3.68q-.85,5.46-1.72,10.94Z" transform="translate(0.51)"/><path id="Tracé_954" data-name="Tracé 954" class="cls-15" d="M746.91,222.73c-.11-1.23-.22-2.45-.32-3.68l50.9-.57.85,1.33c-4.46,5.47-10.17,6.24-16.6,4.48C770.25,221.15,758.58,221.75,746.91,222.73Z" transform="translate(0.51)"/><path id="Tracé_955" data-name="Tracé 955" class="cls-15" d="M733,218.79c-3.48,3.56-6.89,3.44-10.23-.21C726.29,215.29,729.7,215.29,733,218.79Z" transform="translate(0.51)"/><path id="Tracé_956" data-name="Tracé 956" class="cls-21" d="M873.1,218.88c-.13,1.11-.24,2.22-.34,3.33L862.64,221c-.25-1.77-.51-3.54-.76-5.31l.66-.66C866.48,215.17,870.23,215.83,873.1,218.88Z" transform="translate(0.51)"/><path id="Tracé_957" data-name="Tracé 957" class="cls-19" d="M1684.69,516.13l-8.14-3.53C1680.18,511.65,1683.1,512.36,1684.69,516.13Z" transform="translate(0.51)"/><path id="Tracé_958" data-name="Tracé 958" class="cls-5" d="M1167.89,844.64c8.23,3.22,14.6,10.5,24,11.23,4-4.82-6.94-9.57-.16-13.24,4.21-2.29,8.27,2.24,12.36,3.85,7.23,2.86,12,10.25,20,11.35,6.5-7.05-5.33-18.84,4.13-22.05,5.68-1.92,14.27,4.91,21.6,7.65,5.82,2.16,11.8,3.87,17.55,6.18,6.47,2.6,13.2,7.37,11.4-6.17-.62-4.68,4.92-5.18,8.74-6.19,19.54-5.16,39.34-13.6,55.38,6.72,5.18-5.05,1.83-8.63.93-12-2.06-7.68,2.12-8.22,7.08-5.82,18.64,9,34.9,7.64,50-7.88,3.37-3.47,10.81-2.58,15.65,1.79-32.58,35.51-68.43,62.59-119.26,70.35-19.06,2.91-32.12,0-47.71-6.07-8.95-3.5-9.35-2.48-8.92,17.21-16.37-10.64-33.12-16.59-51.56-15.73C1178.47,873.93,1169.36,861.25,1167.89,844.64Z" transform="translate(0.51)"/><path id="Tracé_959" data-name="Tracé 959" class="cls-5" d="M1550.5,664.18c-6.06-5.72-14.67-5.23-23.45-9.49l29.31-17c0-7.49-9.46-3.59-10.22-10.13,5.12-7.43,14.65-8.5,22.6-12.12,14.27-6.49,14.4-6.22,3.57-17.12,9.25-8,21.7-3.33,32.09-7.65-.15-8-10.8-8.47-10.7-17.28,16.77-2.35,33-1.64,48.1,7.4-26.93,22.93-53.74,46-80.88,68.66A34,34,0,0,0,1550.5,664.18Z" transform="translate(0.51)"/><path id="Tracé_960" data-name="Tracé 960" class="cls-5" d="M1375.91,972.92c-7.67-3.17-15.55-5.92-23-9.58-15.65-7.72-31.5-13.84-49.51-11.43-4.35.58-9,.25-12.65-3,1.13-4.75,5-5.7,9-6.48,8.2-1.62,11.5-5.73,8.92-14.46-1.4-4.72-1.92-11,4-13.34,5.65-2.28,7.33,3.65,10.19,6.86,12.43,14,25.27,27.56,41.27,37.63C1369.57,962.57,1374.37,966.29,1375.91,972.92Z" transform="translate(0.51)"/><path id="Tracé_961" data-name="Tracé 961" class="cls-5" d="M1422.66,819.13c-.76-3.9-3.76-4.77-7-6.11-5.78-2.36-16.49-.86-15.89-8.54.53-6.78,11.17-5.35,17.3-7.15,18.77-5.5,37.82-10.07,56.75-15C1460.23,799.43,1445.82,815.36,1422.66,819.13Z" transform="translate(0.51)"/><path id="Tracé_962" data-name="Tracé 962" class="cls-5" d="M1507.21,711.71c-9.43-.94-16.78-5.71-25-13.87l50.56-19.72C1526.49,691,1518.45,702.58,1507.21,711.71Z" transform="translate(0.51)"/><path id="Tracé_963" data-name="Tracé 963" class="cls-5" d="M1610.41,803.25l-.55,1.12.58-1.1Z" transform="translate(0.51)"/><path id="Tracé_964" data-name="Tracé 964" class="cls-14" d="M1222.7,1027.78l-59.06-7a22.43,22.43,0,0,1,17.34-10.67c4.92,1,10.5,4,14.66,2.61C1210.79,1007.76,1217.56,1015.84,1222.7,1027.78Z" transform="translate(0.51)"/><path id="Tracé_965" data-name="Tracé 965" class="cls-21" d="M798.34,219.81a24.91,24.91,0,0,1,3,.23c-6.25,10.05,2.2,24.72-10.32,32.81-5.41-3.21-11.33-3.7-17.43-3.3l-28.9-3.83q.26-6,.52-12.05l1.71-10.95c11.68-1,23.35-1.57,34.84,1.57C788.17,226.05,793.88,225.28,798.34,219.81Z" transform="translate(0.51)"/><path id="Tracé_966" data-name="Tracé 966" class="cls-22" d="M505,197.84c13.19-10.75,52.87-4.52,61.5,9.65Z" transform="translate(0.51)"/><path id="Tracé_967" data-name="Tracé 967" class="cls-10" d="M620.39,215c12.43-10.36,26.22-8.21,34.77,5.42Z" transform="translate(0.51)"/><path id="Tracé_968" data-name="Tracé 968" class="cls-22" d="M144.42,144.26c13.57-4.33,27.4-10.37,37.91,5.69C169.5,149.36,156.77,148,144.42,144.26Z" transform="translate(0.51)"/><path id="Tracé_969" data-name="Tracé 969" class="cls-22" d="M134.49,143.42l3.58.25Z" transform="translate(0.51)"/><path id="Tracé_970" data-name="Tracé 970" class="cls-23" d="M997.7,805.06c.59,4.65.11,9.79,5.54,12.27q-2,7.47-3.94,14.94l-1.65,4.57-3.74,6.41c-8.2,4.62-16.44,9.1-26.42,7.23,17.79-23,22.75-63.2-6.52-88.05l-.13.12c8.32.14,9.42-5.85,10.25-12.07C986,765.71,987.91,787.31,997.7,805.06Z" transform="translate(0.51)"/><path id="Tracé_971" data-name="Tracé 971" class="cls-23" d="M895.91,756c17.68,9,35.32,16.43,46.33,32.2,3.15,4.51,7.37,10.1,3.47,15.46-3.37,4.63-9.42,2.07-14.36,1.32-7.57-1.15-14.56-3.92-18.09-11.1C907.13,781.38,901.66,768.6,895.91,756Z" transform="translate(0.51)"/><path id="Tracé_972" data-name="Tracé 972" class="cls-23" d="M840.9,717.06c8,12.94,15.85,26,24,38.79,2.83,4.45,5.34,8.91,3.56,14.2-1.58,4.71-2.82,10.63-8.4,11.83-5.42,1.16-6.89-4.55-9.69-7.94C836.31,756.94,843.37,735.93,840.9,717.06Z" transform="translate(0.51)"/><path id="Tracé_973" data-name="Tracé 973" class="cls-23" d="M925.92,736.16c-16.85-10.77-26.29-25.45-27.68-46.12l29.11,44.8C926.88,735.29,926.4,735.73,925.92,736.16Z" transform="translate(0.51)"/><path id="Tracé_974" data-name="Tracé 974" class="cls-23" d="M961,762.43c-13.33-6.56-27-12.7-35-26.27.47-.43,1-.87,1.42-1.32,12.07,8.14,26.48,13.47,33.49,27.71Z" transform="translate(0.51)"/><path id="Tracé_975" data-name="Tracé 975" class="cls-24" d="M984.94,593.1,982,596.22c-3.07,0-5.65,1-7.41,3.64l.3-.17-4.13-.23c-8.38-2.58-13.49-10-20.75-14.18-4.47-4.89-3.5-10.76-3-16.55,9.74-32.08,17.38-64.44,12.84-98.39,1-3.88,2.57-7.19,7.57-6.39-1.13,30.19,7.59,58.84,13.78,87.88C975.61,566.21,987.63,579,984.94,593.1Z" transform="translate(0.51)"/><path id="Tracé_976" data-name="Tracé 976" class="cls-17" d="M944.88,611.08c3.27-2.73,6.42-7.37,11-2.17,2.9,3.32,2.26,7.32-.42,10.67-3.8,4.75-7.82,9.32-11.75,14C936.6,625.65,944.51,618.57,944.88,611.08Z" transform="translate(0.51)"/><path id="Tracé_977" data-name="Tracé 977" class="cls-5" d="M967.39,464c-5-.8-6.54,2.51-7.58,6.39-2.66.21-5.16.73-6.36,3.56l-6.52,3.9c-19.32-2.1-22.2-19.59-24.35-32.19-4-23.3-16.67-38.09-34.72-50.52-2.17-1.5-3.44-4.31-5.13-6.52l.75-.81c8.28,1.46,9.34-3.66,9.29-10-.09-11.37,0-22.73,0-36.3,10.41,15.2,19,28.76,21,46.17,3.86,33.61,17.14,60.56,54,68.58Z" transform="translate(0.51)"/><path id="Tracé_978" data-name="Tracé 978" class="cls-4" d="M967.73,456.18c-36.86-8-50.13-35-54-68.58-2-17.41-10.59-31-21-46.17,0,13.58-.06,24.94,0,36.3,0,6.37-1,11.48-9.29,10-15.21-14.17-27.79-30.14-34.7-50.05-2.54-10.35-5.15-20.58-9.88-30.31-6-12.34-12.45-20.38-28.55-14.94-10.37,3.5-19.13-2.58-25.76-11.68-8.94-12.25,1.25-19.34,6.41-27.93,12.51-8.09,4.07-22.76,10.31-32.81,2-.65,4-1.32,6-2l10.26.52c1.47,3.8.62,10.73,7.16,8.92,9.33-2.59,3-10.14,3.42-15.57l10.61-1.23,9.86,1.48c2.12,7,7.27,9.22,14.06,8.8l10.12,1.23c17.7,12.29,28.17,28,24,50.65-1.46,9.35,4,13.62,12,14.83,15.63,2.38,28.46,8.66,37.16,22.54,3.06,4.9,8.47,7.12,14.38,7.47l.16.11,4,5.93.07.08c2.4,3.5,6,3.9,9.78,3.73a138.6,138.6,0,0,0,44.7,7.15c-10,22.7-29.44,39.48-38.88,62.7C972.47,416.4,965.5,435.23,967.73,456.18Z" transform="translate(0.51)"/><path id="Tracé_979" data-name="Tracé 979" class="cls-20" d="M1434.15,284.31c20-1.57,32.32-16.4,46.89-27.35,3.78-2.85,7-8.74,12.75-5.23,6,3.64,3.82,9.8,2.66,15.22-1.76,8.22-3.75,16.37-8.92,23.29-8.69.37-9.73,8.23-13.18,13.63-20.32,31.8-38.43,65.6-75.54,82-3.82,1.69-5.84,5.11-6.21,9.36-30.72,2.84-30.11,2.83-30.62-29.15-.3-19.19,6.79-36.43,11.25-54.37,2.11-8.5,9.94-9.59,17.31-11.1A147.34,147.34,0,0,0,1434.15,284.31Z" transform="translate(0.51)"/><path id="Tracé_980" data-name="Tracé 980" class="cls-19" d="M1345.36,568.92a104,104,0,0,1-27,30c-13.36,9.87-20.19,25.83-32,35.68-35.3,29.38-79.72,29.17-123.54,29.81,11.09-3.77,22.52-6.76,33.18-11.48,15.66-6.94,33.74-11,41.22-29.53-.33-1.27-.65-2.53-1-3.8l-.08.13c10.24-1.14,14.42-8.28,16.89-17.09l3.13-4.55c12.42-8.85,18.27-22.34,24.85-35.31,8.88-6.18,9.48-17.74,15.93-25.87,5.4,4.33,2.21,9.61,3.13,14.09-.22.78-.45,1.55-.68,2.32l2.2-.81c9-7.42,22.22-3.79,30.09-12.89,3.52,3.92.94,6.18,0,8.58-2.85,7.21-11.67,15.07-8.23,21,4.54,7.8,13.77-3.38,21.3-.78Z" transform="translate(0.51)"/><path id="Tracé_981" data-name="Tracé 981" class="cls-25" d="M1392.59,395.21c.38-4.25,2.39-7.67,6.22-9.36,37.1-16.38,55.21-50.18,75.54-82,3.44-5.4,4.48-13.26,13.18-13.63q.75,7.92,1.53,15.84l-1.25,1c-6.87.94-6.86,8.1-10.68,11.87-10.94,10.81-6.17,15,6.86,15.36-.54,13.66-14.27,21-16.24,34l-.17.1c-.33.35-1,.78-.94,1.06a14.43,14.43,0,0,0,1,2.53c0,4.84-.53,9.82,3.59,13.57-.62,5.57-4.67,10.5-3.13,16.49-8.9,3-8.67,8-3.22,14.25a16.66,16.66,0,0,1-.48,3.06c-9.27,2.12-9.91,9.5-10.36,17l-1.41.18h-1.43c-8.16-.71-15.76.28-21.24,7.29-3.15,4-6.72,5.82-11.53,2.69-8.22-5.35-17.36-3-26.22-3.09l-6.23-.27-3.94-7.2c.23-2.21.47-4.43.7-6.64,7.51-8.44,26.46-8.36,20.16-27.08C1402,396.05,1397.38,395.54,1392.59,395.21Z" transform="translate(0.51)"/><path id="Tracé_982" data-name="Tracé 982" class="cls-19" d="M1141.18,463.42c.28,3.3.56,6.6,1,12.13,21.64-26.85,54.16-26,81.24-37.45,2.44-1,13.91-8.44,6.64,5.89-1.92,3.8,8.83.18,12.81,4.78-35.63,17.24-70.86,35-100.32,61.77-29,26.31-36,66.4-59.51,99.86-8.22-34.5,1.79-63.14,11.94-91.76,28.94-7.11,21.28-44.73,46.1-55.28Z" transform="translate(0.51)"/><path id="Tracé_983" data-name="Tracé 983" class="cls-24" d="M1207.28,634.48c-31.07,12.81-62.78,9.34-94.52,3.54-6.69-1.22-9-5.57-7.42-12.47,6.57-29.32,17.58-56.63,35.6-80.89,4.72,2,7.6,5.84,9.86,10.24-.38,46.26,9.37,58.55,51.46,64.85C1202.37,625.2,1202.26,630.71,1207.28,634.48Z" transform="translate(0.51)"/><path id="Tracé_984" data-name="Tracé 984" class="cls-18" d="M1202.26,619.75c-42.09-6.3-51.84-18.59-51.46-64.85,1.33-11.31,11.07-19.48,11.6-31.09,18.12-22.84,43.68-23.16,69.43-22.89l8.55,6.36c-6.57.13-13.25-.43-19.69.56-8,1.23-18.21-1.21-21.59,10.16l.06-.07c-28.25,4.89-40.81,43.83-22.09,68.48,17.92,23.6,44.49,24.53,76.36,2.66,3,2.37,2.94,5.64,2.74,9l-3.13,4.55c-7.1,1.89-13,5.42-16.58,12.12Z" transform="translate(0.51)"/><path id="Tracé_985" data-name="Tracé 985" class="cls-26" d="M1086.32,739.22c-2.73-2.36-.9-5-.48-7.57,9.12-16.09,15.7-33.25,20.71-51,1.65-5.86,4-11.22,9.85-12.16,5.4-.87,5.72,5.77,8.34,9.05,7.21,9,9.89,19.82,12.37,30.73C1125.83,727.87,1105.9,733.26,1086.32,739.22Z" transform="translate(0.51)"/><path id="Tracé_986" data-name="Tracé 986" class="cls-21" d="M1086.32,739.22c19.58-6,39.51-11.35,50.8-30.92,5.52,5.91,3,13.53,4.32,20.33-.51,1.59-.89,3.23-1.55,4.75C1124.67,768.42,1112.86,769.7,1086.32,739.22Z" transform="translate(0.51)"/><path id="Tracé_987" data-name="Tracé 987" class="cls-27" d="M1392.2,443.36c8.86.05,18-2.26,26.22,3.09,4.81,3.13,8.38,1.35,11.53-2.68,5.48-7,13.08-8,21.24-7.3-9.28,5.12-9.65,16.48-20.71,23-21.08,12.4-40.69,4.18-63.86,8.19C1375.25,455.62,1391.08,457.23,1392.2,443.36Z" transform="translate(0.51)"/><path id="Tracé_988" data-name="Tracé 988" class="cls-12" d="M1240.37,507.28l-8.55-6.36,18.82-2.3c7.62,3.93,8.81,16.59,20.45,15.06a10.41,10.41,0,0,1,2.37,1.38q.8,18.39,1.61,36.79c-.73,3-1.45,6-2.18,9a2.5,2.5,0,0,0-1.68-.14c-1.44-11.21,1-23.31-7.47-32.91l.06,0c-.77-3.75-1-8-6.71-7l0,.11c.93-3.24-.14-4.49-3.47-3.49l.08.07c1.07-3.4-.43-4.21-3.49-3.45h.16c1.7-3.08-1.11-2.81-2.6-3.53-2.12-2.3-4.47-4-7.87-3.24Z" transform="translate(0.51)"/><path id="Tracé_989" data-name="Tracé 989" class="cls-28" d="M1271.21,560.69a2.5,2.5,0,0,1,1.68.14l8.13,1.89c-6.58,13-12.43,26.47-24.85,35.32.2-3.33.21-6.6-2.75-9,5-7.63,11.22-14.52,13.43-23.71Z" transform="translate(0.51)"/><path id="Tracé_990" data-name="Tracé 990" class="cls-24" d="M1202.26,619.75l34.2-5-.3,5,.08-.13-4.16,3c-8.54,3.43-15.2,10.72-24.79,12C1202.26,630.71,1202.37,625.2,1202.26,619.75Z" transform="translate(0.51)"/><path id="Tracé_991" data-name="Tracé 991" class="cls-27" d="M1484,334.27c-13-.34-17.8-4.56-6.86-15.36,3.82-3.77,3.81-10.93,10.68-11.87Q1485.91,320.66,1484,334.27Z" transform="translate(0.51)"/><path id="Tracé_992" data-name="Tracé 992" class="cls-27" d="M1402.9,402.18c6.3,18.71-12.66,18.63-20.17,27.07-5.8-6.16.57-9,3.94-11.25C1393.19,413.69,1397.8,407.76,1402.9,402.18Z" transform="translate(0.51)"/><path id="Tracé_993" data-name="Tracé 993" class="cls-9" d="M1271.09,513.67c-11.64,1.53-12.83-11.12-20.45-15C1266,492.05,1271.86,498.36,1271.09,513.67Z" transform="translate(0.51)"/><path id="Tracé_994" data-name="Tracé 994" class="cls-24" d="M1162.39,523.81c-.52,11.61-10.26,19.78-11.6,31.09-2.26-4.4-5.13-8.21-9.85-10.24A78.68,78.68,0,0,1,1162.39,523.81Z" transform="translate(0.51)"/><path id="Tracé_995" data-name="Tracé 995" class="cls-24" d="M984.94,593.1c2.69-14.11-9.33-26.89-3.78-41.27,3,9.06,5.64,18.29,9.22,27.12C993.19,585.9,989.59,589.49,984.94,593.1Z" transform="translate(0.51)"/><path id="Tracé_996" data-name="Tracé 996" class="cls-27" d="M1471.22,385.52c-4.12-3.75-3.57-8.73-3.59-13.57,0-1.2,0-2.4-.05-3.6l.17-.09c4.86,1.65,13.11-3.17,14.28,4.07C1482.94,377.92,1477.54,383.25,1471.22,385.52Z" transform="translate(0.51)"/><path id="Tracé_997" data-name="Tracé 997" class="cls-27" d="M1464.87,416.26c-5.45-6.22-5.68-11.26,3.22-14.25,4.08.78,11.22-1.29,10.88,4.49C1478.55,413.44,1470.58,414.28,1464.87,416.26Z" transform="translate(0.51)"/><path id="Tracé_998" data-name="Tracé 998" class="cls-27" d="M1454,436.3c.45-7.49,1.09-14.86,10.36-17,2.37,3.8,8.68,2.48,10.51,9.16Z" transform="translate(0.51)"/><path id="Tracé_999" data-name="Tracé 999" class="cls-28" d="M1275.07,551.85q-.81-18.39-1.61-36.79C1277.33,527.18,1283.37,539.21,1275.07,551.85Z" transform="translate(0.51)"/><path id="Tracé_1000" data-name="Tracé 1000" class="cls-27" d="M1382,435.9l3.94,7.2c-3-.35-6.84.86-7.8-3.27C1378,438.87,1380.66,437.23,1382,435.9Z" transform="translate(0.51)"/><path id="Tracé_1001" data-name="Tracé 1001" class="cls-19" d="M1344.76,568.34c.5-2.1,1.12-4.13,3.81-4.18a1.48,1.48,0,0,1,1,1c0,2.77-2.3,3.1-4.26,3.75Z" transform="translate(0.51)"/><path id="Tracé_1002" data-name="Tracé 1002" class="cls-24" d="M974.6,599.86c1.76-2.66,4.34-3.65,7.41-3.64C980.73,599.85,977.61,599.75,974.6,599.86Z" transform="translate(0.51)"/><path id="Tracé_1003" data-name="Tracé 1003" class="cls-19" d="M1187.57,719c-.35-.12-1-.21-1-.37a2.89,2.89,0,0,1,.34-1.15c.35.12,1,.21,1,.38A2.85,2.85,0,0,1,1187.57,719Z" transform="translate(0.51)"/><path id="Tracé_1004" data-name="Tracé 1004" class="cls-19" d="M1141.12,463.36l.67-1-.61,1.07Z" transform="translate(0.51)"/><path id="Tracé_1005" data-name="Tracé 1005" class="cls-17" d="M970.77,599.46l4.13.24C973.34,602.82,972,602.49,970.77,599.46Z" transform="translate(0.51)"/><path id="Tracé_1006" data-name="Tracé 1006" class="cls-28" d="M1232.07,622.51l4.16-3c.32,1.27.64,2.53,1,3.8Z" transform="translate(0.51)"/><path id="Tracé_1007" data-name="Tracé 1007" class="cls-17" d="M1583.11,463.22c1.85-.7,3.69-1.41,5.57-2,.12,0,.52.78.78,1.2l-6,1.29Z" transform="translate(0.51)"/><path id="Tracé_1008" data-name="Tracé 1008" class="cls-28" d="M1022.38,306.69c-24.11-1.22-48.11-2.95-70.3-13.92-2-1-4.44-1.86-6.18.32-2.12,2.65-.76,5.23.87,7.63,4.08,6,11.28,9.53,13.55,17-5.92-.35-11.32-2.57-14.39-7.46-8.69-13.88-21.52-20.16-37.16-22.54-8-1.22-13.46-5.48-12-14.84,42.39,2.93,82.73,18,125.1,21Q1022.13,300.27,1022.38,306.69Z" transform="translate(0.51)"/><path id="Tracé_1009" data-name="Tracé 1009" class="cls-21" d="M862.64,221c-6.79.42-11.94-1.78-14.06-8.8l13.3,3.49C862.13,217.45,862.39,219.22,862.64,221Z" transform="translate(0.51)"/><path id="Tracé_1010" data-name="Tracé 1010" class="cls-5" d="M817.53,218.59c1.25-5.84,5.26-7.3,10.58-6.66-.38,5.43,5.92,13-3.42,15.57C818.16,229.32,819,222.38,817.53,218.59Z" transform="translate(0.51)"/><path id="Tracé_1011" data-name="Tracé 1011" class="cls-4" d="M964.59,323.83c3.75,0,7.23.64,9.79,3.73C970.57,327.73,967,327.32,964.59,323.83Z" transform="translate(0.51)"/><path id="Tracé_1012" data-name="Tracé 1012" class="cls-4" d="M960.47,317.81c2.7,1.07,3.8,3.21,4,5.94Z" transform="translate(0.51)"/><path id="Tracé_1013" data-name="Tracé 1013" class="cls-28" d="M1236.15,619.68l.3-5c3.59-6.7,9.48-10.23,16.58-12.12C1250.57,611.4,1246.39,618.54,1236.15,619.68Z" transform="translate(0.51)"/><path id="Tracé_1014" data-name="Tracé 1014" class="cls-17" d="M1301.6,552.46l-2.2.81c.23-.77.47-1.54.69-2.31C1300.6,551.44,1301.1,551.94,1301.6,552.46Z" transform="translate(0.51)"/><path id="Tracé_1015" data-name="Tracé 1015" class="cls-17" d="M1467.58,368.35c0,1.21,0,2.4.05,3.6a14.43,14.43,0,0,1-1-2.53C1466.59,369.14,1467.25,368.71,1467.58,368.35Z" transform="translate(0.51)"/><path id="Tracé_1016" data-name="Tracé 1016" class="cls-3" d="M1266.85,565.36c-2.21,9.19-8.47,16.08-13.43,23.71-31.87,21.87-58.43,20.95-76.35-2.66-18.72-24.65-6.16-63.6,22.09-68.48-.6,2.68-1.71,5.37-1.7,8.05,0,5.53,2.63,10.22,8.39,10.6,5.31.36,9.75-2.49,10.11-8.67.34-5.9-2.63-9.53-8.57-10.16-2.73-.29-5.53.14-8.3.25,3.38-11.37,13.58-8.93,21.59-10.17,6.44-1,13.12-.43,19.69-.56l-.44,0,3,4.13a7.55,7.55,0,0,0,7.47,2.64h-.16l3.48,3.46-.08-.08,3.47,3.49,0-.11c.14,4.34,1.85,7.2,6.71,7l-.06,0C1263.71,540.4,1269.05,552.57,1266.85,565.36ZM1243.9,542.7c-.46-5.07-2.5-9-7.94-9.36-6-.39-9.9,2.55-9.58,8.94.25,5.21,3.7,8.3,8.76,8.52C1240.4,551,1243.44,548,1243.9,542.7Z" transform="translate(0.51)"/><path id="Tracé_1017" data-name="Tracé 1017" class="cls-22" d="M1266.85,565.36c2.2-12.79-3.14-25-3.11-37.58,8.52,9.6,6,21.7,7.47,32.91Z" transform="translate(0.51)"/><path id="Tracé_1018" data-name="Tracé 1018" class="cls-22" d="M1263.8,527.82c-4.87.16-6.57-2.69-6.71-7C1262.84,519.78,1263,524.07,1263.8,527.82Z" transform="translate(0.51)"/><path id="Tracé_1019" data-name="Tracé 1019" class="cls-18" d="M1242.94,511.38l-3-4.12c3.39-.79,5.75.93,7.87,3.24Z" transform="translate(0.51)"/><path id="Tracé_1020" data-name="Tracé 1020" class="cls-22" d="M1242.94,511.38l4.86-.88c1.49.72,4.3.45,2.6,3.52A7.51,7.51,0,0,1,1242.94,511.38Z" transform="translate(0.51)"/><path id="Tracé_1021" data-name="Tracé 1021" class="cls-22" d="M1253.73,517.48l-3.49-3.46C1253.3,513.27,1254.8,514.08,1253.73,517.48Z" transform="translate(0.51)"/><path id="Tracé_1022" data-name="Tracé 1022" class="cls-22" d="M1257.12,520.9l-3.47-3.5C1257,516.41,1258.05,517.66,1257.12,520.9Z" transform="translate(0.51)"/><path id="Tracé_1023" data-name="Tracé 1023" class="cls-9" d="M1243.9,542.7c-.46,5.3-3.5,8.33-8.76,8.1-5.06-.22-8.51-3.31-8.76-8.52-.32-6.39,3.58-9.33,9.58-8.94C1241.4,533.69,1243.44,537.63,1243.9,542.7Z" transform="translate(0.51)"/><path id="Tracé_1024" data-name="Tracé 1024" class="cls-26" d="M1199.09,518c2.77-.1,5.57-.53,8.3-.24,5.94.63,8.92,4.26,8.58,10.15-.36,6.18-4.8,9-10.12,8.67-5.75-.38-8.37-5.07-8.39-10.6,0-2.68,1.1-5.36,1.7-8Z" transform="translate(0.51)"/></g></g></svg>