<svg id="Calque_1" data-name="Calque 1" xmlns="http://www.w3.org/2000/svg" xmlns:xlink="http://www.w3.org/1999/xlink" viewBox="0 0 1921.54 1080.23"><defs><style>.cls-1{fill:url(#Dégradé_sans_nom_14);}.cls-2{fill:#b11b3b;}</style><linearGradient id="Dégradé_sans_nom_14" x1="961.54" y1="1080" x2="961.54" gradientUnits="userSpaceOnUse"><stop offset="0.68" stop-color="#ecb246"/><stop offset="0.71" stop-color="#edb64f"/><stop offset="0.77" stop-color="#efc069"/><stop offset="0.85" stop-color="#f2d092"/><stop offset="0.93" stop-color="#f6e7ca"/><stop offset="1" stop-color="#fafafa"/></linearGradient></defs><rect class="cls-1" x="1.54" width="1920" height="1080"/><path class="cls-2" d="M1919.47,713.24V497.05c-6-5.78-9.34-16.79-7.61-27.07,1.28-7.58,3.52-14.9,5.6-22.21.83-2.93,1.5-5.81,2-8.66V414.72a54.91,54.91,0,0,0-9.65-21.53c-7.22-9.87-9.78-21.69-8.31-35.14,1.09-9.9,2.55-19.72,3.84-29.58-5,9.79-9.93,19.76-13.56,30.49-5,14.83-5.88,30-.2,45.44a109.43,109.43,0,0,1,5,21c4.07,26.83-4.7,46.2-23,51.62-12.76,3.77-22.9-8.68-21.58-26.16.56-7.38,3.26-13,6.78-18.22,16.51-24.61,6.64-57.43-14.14-71.58,1.51,5.18,3.19,10,4.34,15.1a115.67,115.67,0,0,1,2.59,15.71c1.08,12.38-5.13,22.93-14.28,24.93-7.18,1.56-15.2-6-16.12-17.5-.66-8.34.51-17.32,2.15-25.55,2.46-12.3,6.4-24.05,9.07-36.29,4.19-19.27,1.74-37.05-8.5-54.37.6,3.71.87,5.66,1.23,7.57,4,22,2.15,42.15-9.57,59.73a179.8,179.8,0,0,0-11.65,21c-12.29,25.28-9,40.36,1.39,62,6.13,12.72,12.7,25.21,17.72,38.71a37.21,37.21,0,0,1-3.86,33.89c-4.79,7.25-10.66,11.22-17.21,12h-5.23a27.75,27.75,0,0,1-2.91-.51c-11.75-2.84-18.66-16-17-33.56,1.55-16-1.92-29.35-8.39-42.32-7.07-14.19-13.78-28.89-11.36-47.31,1.09-8.32,2.49-16.58,3.75-24.86-9.25,21.78-18.68,43.08-11.14,70.2,2.8,10.11,3.43,21.94,3.06,32.86-.52,15.54-8.78,28.55-18.86,31.31-11.63,3.18-22.64.2-31.87-10.42-7.78-9-9.62-22.48-5-34.83,1.56-4.16,3.83-7.83,5.67-11.82,4.29-9.27,9.39-18.09,12.58-28,7.29-22.72,6.63-50-9.82-65.5a30,30,0,0,1-4.2-5.74c-5.57-8.71-7-18.72-4.52-29.57,1.17-5.18,2.94-10.11,4.84-16.47-10.44,13.58-17.5,28.07-15.52,47,.87,8.39,4.24,16.33,6.63,24.4,2.82,9.53,6.81,18.66,8.5,28.52,3.35,19.51-6.21,36-20.86,37.88-7.6,1-14.41-5.56-15.42-15.88a63.74,63.74,0,0,1,.71-16c3.55-21.93,1.53-42.26-8.28-60.89-2.78-5.28-5-11.13-7.37-16.78-5.2-12.31-4.94-24.8-.56-37.4.58-1.67,1.13-3.36,2-6.05-13.4,14.62-16.29,34.51-8.49,53.56a83.75,83.75,0,0,1,4.17,12.16c3.49,14.56-.6,32.36-9.14,39.75-5.87,5.08-12.26,6.36-18.38,1.21s-7.06-13.17-5.8-21.93c.66-4.6,2-9,2.62-13.63,1.3-9.42,3.17-18.89,3.3-28.38.22-16.41-6.9-34.82-14.79-41.59,2.11,7.18,4.4,14.35,6.33,21.69,3.28,12.47,2.24,24.21-3.69,35.06-2.76,5.05-5.36,10.29-7.78,15.65-8.18,18.12-7.37,36.34.49,54.08,3.22,7.28,7.64,13.59,11.09,20.71,4.87,10.06,10.75,19.79,13.68,30.87,5.43,20.5-4.06,39.71-19.16,41.1-7.86.73-15-2.37-19.59-11.72-3.49-7.16-3.2-14.72,0-22.27,5.69-13.46,4.39-22.26-5-31.84-11.15-11.44-17-25.48-13.49-44.83a12.26,12.26,0,0,0-.57-2.68c-5.26,17-10.93,32.53-2.25,49.35.66,1.27.92,2.89,1.5,4.24,6.9,16.15-4.41,36.89-18.41,35.32-13.74-1.53-23.06-20.12-18.54-38a128.53,128.53,0,0,1,5.45-15.84c7.09-17.81,6.87-35-2.86-50.81-7.77-12.61-10-26-5.19-41.19.07-.22-.2-.63-.35-1-7.92,14.21-10.33,29.14-4.73,46a114.67,114.67,0,0,1,4.51,21.2c1.08,8.4-2.84,16.87-8.88,20.73-4.46,2.85-9,3.49-13.13-1.14-4.61-5.15-6-13.91-3.63-22.84a110,110,0,0,1,3.9-11.62,97.2,97.2,0,0,0,6.26-46.85c-1.34-12.33-3.93-24-9.61-34,.79,6.67,2,13.16,3.15,19.64,3.74,20.25,1.8,38.21-9.58,54.07-13,18.2-14.46,43.2.43,63.7a48.78,48.78,0,0,1,9.16,24.18c.8,8.08-1.18,14.62-6.27,19.15a4.74,4.74,0,0,1-2.12,1.16c-5.66,1.66-11.14-3.37-12.08-11.05a77.78,77.78,0,0,0-16-38.62c-3.72-4.82-7.12-10.09-10.64-15.18a55.39,55.39,0,0,1-10.09-29.37c-.55-12.23-.12-24.54-.13-36.81l-1.42-.38c-3,9.58-6.12,19.07-8.91,28.75a64.21,64.21,0,0,0,1.79,41.61,183.39,183.39,0,0,1,7.15,22.89c4.08,17.45,0,35.2-9.74,43.89-7.07,6.31-14.55,7.59-22.08,1.41-6.63-5.45-10.5-17.16-8.67-28,1.28-7.58,3.52-14.91,5.59-22.21,5.79-20.36,4-38.73-7.63-54.58-7.23-9.87-9.79-21.7-8.31-35.14,1.08-9.9,2.54-19.73,3.84-29.58-5.06,9.79-9.94,19.75-13.56,30.49-5,14.82-5.89,30-.21,45.44a108.52,108.52,0,0,1,5,21c4.08,26.83-4.7,46.2-23,51.62-12.75,3.77-22.89-8.68-21.57-26.16.55-7.39,3.25-13,6.77-18.22,16.51-24.62,6.64-57.43-14.13-71.58,1.51,5.18,3.19,10,4.34,15.1a117.36,117.36,0,0,1,2.59,15.7c1.07,12.38-5.13,22.94-14.29,24.93-7.18,1.57-15.19-6-16.11-17.49-.67-8.34.51-17.32,2.15-25.56,2.45-12.3,6.4-24,9.06-36.28,4.2-19.27,1.75-37-8.49-54.37.6,3.71.87,5.65,1.22,7.57,4,22,2.15,42.15-9.57,59.73a179,179,0,0,0-11.65,21c-12.28,25.28-9,40.35,1.4,62,6.13,12.72,12.7,25.2,17.72,38.71a37.24,37.24,0,0,1-3.86,33.89c-6.71,10.14-15.52,13.9-25.36,11.53-11.74-2.84-18.65-16-16.95-33.56,1.56-16-1.91-29.35-8.38-42.32-7.07-14.19-13.79-28.9-11.37-47.31,1.1-8.33,2.5-16.58,3.76-24.86-9.26,21.78-18.68,43.08-11.15,70.2,2.81,10.1,3.44,21.94,3.07,32.86-.53,15.53-8.78,28.54-18.86,31.3-11.63,3.19-22.64.21-31.87-10.41-7.78-8.95-9.62-22.48-5-34.83,1.56-4.16,3.83-7.84,5.67-11.82,4.28-9.28,9.39-18.09,12.58-28,7.29-22.72,6.63-50-9.82-65.49a30,30,0,0,1-4.21-5.74c-5.56-8.72-7-18.72-4.52-29.57,1.18-5.18,3-10.11,4.84-16.47-10.43,13.58-17.49,28.07-15.52,47,.87,8.39,4.25,16.33,6.64,24.4,2.82,9.53,6.81,18.66,8.5,28.51,3.35,19.51-6.22,36-20.86,37.89-7.6,1-14.41-5.57-15.43-15.89a63.66,63.66,0,0,1,.72-15.95c3.54-21.93,1.53-42.26-8.28-60.89-2.79-5.29-5-11.13-7.37-16.78-5.21-12.31-5-24.81-.57-37.4.58-1.67,1.13-3.36,2-6.05-13.39,14.61-16.28,34.51-8.48,53.56a84.55,84.55,0,0,1,4.17,12.16c3.49,14.56-.61,32.36-9.14,39.75-5.87,5.07-12.26,6.36-18.39,1.21s-7.06-13.17-5.79-21.93c.66-4.6,2-9,2.62-13.63,1.3-9.43,3.16-18.89,3.29-28.38.23-16.41-6.89-34.82-14.79-41.59,2.11,7.18,4.4,14.35,6.33,21.69,3.28,12.47,2.25,24.21-3.69,35.05-2.76,5.05-5.35,10.3-7.77,15.66-8.18,18.11-7.37,36.34.49,54.08,3.22,7.28,7.64,13.58,11.08,20.71,4.87,10.06,10.76,19.79,13.69,30.87,5.43,20.5-4.06,39.7-19.16,41.1-7.87.73-15-2.37-19.59-11.72-3.49-7.16-3.21-14.72,0-22.27,5.68-13.47,4.39-22.26-4.95-31.84-11.15-11.44-17.05-25.48-13.49-44.84a12.61,12.61,0,0,0-.58-2.67c-5.25,17-10.93,32.53-2.24,49.35.66,1.27.92,2.89,1.5,4.24,6.89,16.15-4.42,36.89-18.42,35.32-13.73-1.54-23.06-20.13-18.53-38a128.53,128.53,0,0,1,5.45-15.84c7.08-17.81,6.86-35-2.87-50.81-7.76-12.61-10-26-5.18-41.19.07-.22-.21-.63-.36-1-7.91,14.21-10.32,29.13-4.73,46a114.51,114.51,0,0,1,4.52,21.2c1.08,8.4-2.84,16.87-8.88,20.72-4.47,2.85-9,3.49-13.14-1.13-4.6-5.15-6-13.91-3.63-22.85A114,114,0,0,1,998,385.53a97.15,97.15,0,0,0,6.26-46.84c-1.35-12.33-3.93-24-9.62-34,.8,6.66,2,13.16,3.15,19.64,3.74,20.25,1.81,38.21-9.57,54.07-13.05,18.2-14.46,43.19.43,63.7a48.67,48.67,0,0,1,9.15,24.18c.8,8.08-1.17,14.62-6.27,19.14l-.28.25c-6.53,5.62-15.06.13-16.38-10.15a77.78,77.78,0,0,0-15.94-38.14c-3.72-4.82-7.12-10.08-10.64-15.18a55.49,55.49,0,0,1-10.1-29.37c-.54-12.22-.11-24.53-.12-36.81l-1.42-.38c-3,9.58-6.12,19.08-8.91,28.75A64.24,64.24,0,0,0,929.51,426a183.24,183.24,0,0,1,7.15,22.88c4.08,17.45,0,35.2-9.74,43.89-7.07,6.31-14.55,7.6-22.08,1.41-6.63-5.45-10.5-17.16-8.67-28,1.27-7.58,3.51-14.91,5.59-22.21,5.79-20.35,4-38.73-7.64-54.58-7.22-9.87-9.78-21.69-8.3-35.14,1.08-9.9,2.54-19.72,3.84-29.58-5.06,9.79-9.94,19.76-13.57,30.49-5,14.83-5.88,30-.2,45.44a108.69,108.69,0,0,1,5,21c4.08,26.83-4.7,46.2-23,51.62-12.76,3.77-22.89-8.68-21.58-26.16.56-7.39,3.26-13,6.78-18.22,16.51-24.61,6.64-57.43-14.14-71.58,1.52,5.18,3.2,10,4.35,15.1a117.36,117.36,0,0,1,2.59,15.7c1.07,12.38-5.14,22.94-14.29,24.93-7.18,1.57-15.19-6-16.11-17.49-.67-8.34.5-17.32,2.15-25.55,2.45-12.3,6.4-24.05,9.06-36.29,4.19-19.27,1.75-37.05-8.49-54.37.59,3.71.87,5.65,1.22,7.57,4,22,2.15,42.15-9.57,59.73a179.8,179.8,0,0,0-11.65,21c-12.29,25.28-9,40.36,1.4,62,6.12,12.72,12.7,25.21,17.72,38.71a37.21,37.21,0,0,1-3.87,33.89c-6.71,10.15-15.51,13.9-25.35,11.53-11.75-2.84-18.65-16-16.95-33.56,1.55-16-1.92-29.35-8.38-42.32-7.08-14.19-13.79-28.89-11.37-47.31,1.1-8.32,2.49-16.58,3.75-24.86-9.25,21.78-18.67,43.08-11.14,70.2,2.81,10.11,3.44,21.94,3.07,32.86-.53,15.54-8.78,28.54-18.86,31.31-11.64,3.18-22.64.2-31.87-10.42-7.78-8.95-9.62-22.48-5-34.83,1.56-4.16,3.82-7.84,5.67-11.82,4.28-9.27,9.39-18.09,12.57-28,7.3-22.71,6.64-50-9.82-65.49a30,30,0,0,1-4.2-5.74C680,335,678.54,325,681,314.14c1.18-5.18,3-10.11,4.84-16.47-10.44,13.58-17.49,28.07-15.52,47,.87,8.39,4.25,16.33,6.63,24.4,2.82,9.53,6.82,18.66,8.51,28.52,3.34,19.51-6.22,36-20.87,37.88-7.59,1-14.4-5.56-15.42-15.88a63.28,63.28,0,0,1,.72-16c3.54-21.93,1.52-42.26-8.29-60.89-2.78-5.28-5-11.13-7.36-16.78-5.21-12.31-5-24.8-.57-37.4.58-1.67,1.13-3.36,2-6-13.4,14.62-16.28,34.51-8.49,53.56a83.79,83.79,0,0,1,4.18,12.16c3.49,14.56-.61,32.36-9.15,39.75-5.86,5.08-12.25,6.36-18.38,1.21s-7.06-13.17-5.8-21.93c.67-4.6,2-9,2.63-13.63,1.29-9.43,3.16-18.89,3.29-28.38.23-16.41-6.89-34.82-14.79-41.59,2.11,7.18,4.4,14.35,6.33,21.69,3.28,12.47,2.25,24.21-3.69,35.06-2.76,5-5.35,10.29-7.77,15.65-8.19,18.12-7.37,36.34.48,54.08,3.23,7.28,7.64,13.59,11.09,20.71,4.87,10.06,10.75,19.79,13.69,30.87,5.43,20.5-4.06,39.7-19.16,41.1-7.87.73-15-2.37-19.59-11.72-3.5-7.16-3.21-14.72,0-22.27,5.68-13.46,4.38-22.26-4.95-31.84-11.15-11.44-17.05-25.48-13.49-44.83a12.51,12.51,0,0,0-.58-2.68c-5.25,17-10.93,32.53-2.24,49.35.65,1.27.92,2.89,1.49,4.24,6.9,16.15-4.41,36.89-18.41,35.32-13.74-1.53-23.06-20.12-18.53-38a126.88,126.88,0,0,1,5.45-15.84c7.08-17.81,6.86-35-2.87-50.81-7.77-12.61-10-26-5.18-41.19.07-.22-.21-.63-.36-1-7.92,14.21-10.32,29.13-4.73,46a114.51,114.51,0,0,1,4.52,21.2c1.08,8.4-2.85,16.87-8.88,20.73-4.47,2.85-9,3.49-13.14-1.14-4.6-5.15-6-13.91-3.63-22.84a107.8,107.8,0,0,1,3.91-11.62A97.44,97.44,0,0,0,495.19,337c-1.35-12.33-3.93-24-9.62-34,.8,6.67,2,13.16,3.15,19.64,3.74,20.25,1.8,38.21-9.57,54.07-13,18.2-14.47,43.2.42,63.7a48.59,48.59,0,0,1,9.16,24.18c.8,8.08-1.18,14.62-6.27,19.15l-.13.11c-5.55,4.86-13,.07-13.92-8.76a77.79,77.79,0,0,0-16.15-39.86c-3.71-4.82-7.12-10.09-10.63-15.18a55.49,55.49,0,0,1-10.1-29.37c-.55-12.23-.12-24.54-.12-36.81l-1.42-.38c-3,9.58-6.12,19.07-8.91,28.75a64.28,64.28,0,0,0,1.78,41.61A181.74,181.74,0,0,1,430,446.7c4.08,17.45,0,35.19-9.73,43.89-7.08,6.31-14.55,7.59-22.08,1.41-6.64-5.45-10.51-17.16-8.68-28,1.28-7.58,3.52-14.91,5.6-22.21,5.78-20.36,4-38.73-7.64-54.58-7.22-9.87-9.78-21.7-8.31-35.14,1.09-9.9,2.55-19.73,3.84-29.58-5.05,9.79-9.93,19.75-13.56,30.49-5,14.82-5.88,30-.2,45.44a109.26,109.26,0,0,1,4.95,21c4.07,26.83-4.7,46.2-23,51.62-12.76,3.77-22.9-8.68-21.58-26.16.56-7.39,3.26-13,6.78-18.22,16.51-24.62,6.64-57.43-14.14-71.58,1.51,5.18,3.2,10,4.34,15.1a115.8,115.8,0,0,1,2.6,15.7c1.07,12.38-5.14,22.94-14.29,24.93-7.18,1.57-15.19-6-16.12-17.49-.66-8.35.51-17.33,2.15-25.56,2.46-12.3,6.41-24,9.07-36.28,4.19-19.27,1.74-37.05-8.5-54.37.6,3.71.87,5.65,1.23,7.57,4,22,2.15,42.15-9.57,59.73a179,179,0,0,0-11.65,21c-12.29,25.28-9,40.35,1.4,62,6.12,12.72,12.69,25.2,17.71,38.71A37.21,37.21,0,0,1,296.75,500c-6.71,10.14-15.51,13.9-25.35,11.52-11.75-2.83-18.66-16-16.95-33.55,1.55-16-1.92-29.35-8.39-42.32-7.07-14.19-13.78-28.9-11.36-47.31,1.09-8.33,2.49-16.58,3.75-24.87-9.25,21.79-18.68,43.09-11.14,70.21,2.8,10.1,3.43,21.93,3.06,32.86-.52,15.53-8.78,28.54-18.86,31.3-11.63,3.19-22.64.21-31.87-10.41-7.78-8.95-9.62-22.48-5-34.83,1.57-4.16,3.83-7.84,5.67-11.82,4.29-9.28,9.39-18.09,12.58-28,7.3-22.72,6.64-50-9.82-65.49a30.35,30.35,0,0,1-4.2-5.74c-5.56-8.72-7-18.72-4.52-29.57,1.17-5.18,2.94-10.11,4.84-16.47-10.44,13.58-17.5,28.07-15.52,47,.87,8.39,4.24,16.33,6.63,24.4,2.82,9.53,6.81,18.65,8.5,28.51,3.35,19.51-6.21,36-20.86,37.89-7.6,1-14.4-5.57-15.42-15.89a63.2,63.2,0,0,1,.72-15.95c3.54-21.93,1.52-42.26-8.29-60.89-2.78-5.29-5-11.13-7.37-16.78-5.2-12.31-4.94-24.81-.56-37.4.58-1.67,1.13-3.36,2-6.05-13.4,14.61-16.28,34.51-8.49,53.56a83.37,83.37,0,0,1,4.18,12.16c3.48,14.56-.61,32.36-9.15,39.75-5.86,5.07-12.26,6.36-18.38,1.21s-7.06-13.17-5.8-21.93c.66-4.6,2-9,2.62-13.64,1.3-9.42,3.17-18.88,3.3-28.37.22-16.41-6.89-34.82-14.79-41.59,2.11,7.18,4.4,14.35,6.33,21.69,3.28,12.47,2.24,24.21-3.69,35-2.76,5.05-5.36,10.3-7.78,15.65C69.23,372,70,390.27,77.9,408c3.22,7.28,7.64,13.58,11.09,20.71,4.87,10.06,10.75,19.79,13.68,30.87,5.43,20.5-4.06,39.7-19.15,41.1-7.87.73-15-2.37-19.59-11.72-3.5-7.16-3.21-14.72,0-22.27,5.69-13.47,4.39-22.26-4.95-31.84C47.81,423.42,41.9,409.38,45.46,390a12.23,12.23,0,0,0-.57-2.67c-5.26,17-10.93,32.53-2.24,49.35.65,1.26.91,2.89,1.49,4.24,6.9,16.15-4.41,36.89-18.41,35.32-13.74-1.54-23.06-20.13-18.54-38a128.53,128.53,0,0,1,5.45-15.84c7.09-17.81,6.87-35-2.86-50.81C2,359-.18,345.63,4.6,330.41c.06-.22-.21-.63-.36-1-.79,1.4-1.5,2.82-2.17,4.24v51.32c.82,3.83,1.45,7.74,1.95,11.62A23,23,0,0,1,2.07,409V713.24H-.77v366.88H1920.07V713.24Z" transform="translate(0.77 0.12)"/></svg>