<?xml version="1.0" encoding="utf-8"?>
<!-- Generator: Adobe Illustrator 26.0.1, SVG Export Plug-In . SVG Version: 6.00 Build 0)  -->
<svg version="1.1" id="Calque_1" xmlns="http://www.w3.org/2000/svg" xmlns:xlink="http://www.w3.org/1999/xlink" x="0px" y="0px"
	 viewBox="0 0 1920 160" style="enable-background:new 0 0 1920 160;" xml:space="preserve">
<style type="text/css">
	.st0{fill:#A0072C;}
</style>
<g id="Groupe_192">
	<path id="Tracé_795" class="st0" d="M550.7,21c-2.1,22,5.4,29.6,28.7,31.5C722.9,64.1,866.6,72.8,1010.5,77
		c134.3,4.2,268.7,4.7,403.1,1.3c164.3-4.4,328.2-14.4,491.9-30c5.2-0.3,11.9-3,14.1,3.9c1.8,5.8-3.2,10.2-7.3,13.8
		c-15.9,14.4-35.5,20.3-56,23.1c-252,34.3-505,48.9-759,48.4c-172.6-0.3-344.9-8.8-517.2-19.3c-30.1-1.9-30.1-1.5-38.3,27.9
		c-1.5,5.6-2.1,14.4-9.7,13.9c-10-0.7-6.1-10.4-7-16.6c-0.3-2.8,0-5.6,0.9-8.3c5.9-16.4-1.6-19.3-16.4-19.8
		c-82.7-2.8-164.8-9.8-246.8-19.9C187.4,86.1,112.2,77.1,37,67.4C4.4,63.1-5.5,48.4,2.7,20.4C9.4-2.1,26.6-0.9,44.1,0.8
		C199.1,15.3,354,30.2,508.9,45.5c16.9,1.6,26.4-0.4,24.6-20.7c-0.5-6.8-1.1-15.6,8.2-21.4C553.6,3.4,551.4,13.8,550.7,21z
		 M1818.4,64.4c-20.5-3-39.8,1.5-58.9,3.1C1476.9,90,1193.2,96,909.8,85.2c-100.2-4-200.3-9.8-300.2-17.4
		c-5.9-0.5-15.9-5.6-17.1,4.2c-1.5,11.9,10.2,6.4,15.2,6.7C785.1,90.5,963,95.1,1141,96.7c167.8,1.5,335.3-1.2,502.7-13.7
		c54.3-4,108.5-9.4,162.8-14C1810.7,68.7,1814.7,69.2,1818.4,64.4L1818.4,64.4z M362.7,73.3c2.8,3,4.9,9.4,9.2,4.6
		c6.3-7.1,11.9-15.6,6.3-26.1c-1.8-3.4-4.3-8.9-8.9-4.7C362,53.6,359.4,64,362.7,73.3L362.7,73.3z M418.9,79.1
		c2.5,3.9,4.8,9.6,9.2,4.8c6.1-6.6,10.1-15,6.4-24.6c-1.4-3.8-5-8.6-8.9-5.6C417.9,59.6,415.1,70.1,418.9,79.1L418.9,79.1z M97,47.6
		c2.2,4.1,4.9,8.3,9,3.9c5.8-6.6,10.8-14.4,6.7-23.9c-1.7-3.9-4.7-10.4-9.9-5.7C95.7,28.4,93.4,38.7,97,47.6L97,47.6z M154.4,26.7
		c-6.3,7.4-9.5,15.9-5.8,25.8c1.4,3.7,4.7,8.1,8.8,4.2c6.4-6.2,10.8-14.2,7.7-23.7c-1.5-4.4-4-8.8-10.7-6.4V26.7z M201.2,57.3
		c2.3,4.2,5.8,6.7,9.5,2.8c6.8-7.1,10.8-15.5,5.3-25.5c-2-3.7-4.9-7.6-9-3.4C200,38,197.8,48.3,201.2,57.3L201.2,57.3z M227.6,57.4
		c2.2,4.3,5.2,9.7,9,6.1c6.9-6.6,12.4-15,7.7-25.6c-1.7-3.7-5.5-8.7-8.9-5.7C227.8,38.1,224.7,48.2,227.6,57.4L227.6,57.4z
		 M296.6,44.3c-1.6-3.4-5-8.5-9.1-4.7c-7.6,6.4-10.2,17-6.4,26.2c1.6,4,4.1,6.9,8.9,5.2C296,62.6,301.4,54.5,296.6,44.3z
		 M179.9,29.8c-5.8,7.8-9.6,16.1-4.6,26.1c1.6,3.2,4.3,7.3,7.4,4.2c6.9-6.9,11.9-15.1,6.3-25.4c-1.8-3.3-3.4-8-9.2-4.7L179.9,29.8z
		 M309.9,69.7c2.2,3.8,5.2,4,7.9,0.6c8.1-10.3,10.1-20.5-1.4-30.8C306.5,48.1,302.6,57.6,309.9,69.7z M334.8,64.3
		c2.1,4.1,4.1,9.5,8.7,6c7.4-5.2,10.4-14.8,7.3-23.3c-1.4-3.8-4.5-11-9.6-6.1C334.4,46.7,331.9,56,334.8,64.3L334.8,64.3z M451,88.9
		c9.4-9.3,15.6-18.4,7.4-30.9c-0.4-0.9-1-1.6-1.7-2.1c-2.2-1.4-5.1-0.8-6.5,1.3C441.3,67.5,441.3,77.8,451,88.9L451,88.9z
		 M70.4,42.3c2.7,4.6,4.2,10.5,9.2,6.6c7.6-5.3,10.6-15.1,7.2-23.7c-1.5-3.6-3.8-11.2-9.7-5.9C70.3,24.8,67.6,34,70.4,42.3
		L70.4,42.3z M129.7,57c8.6-9,14.5-17.8,6.7-30.2c-0.4-1-1.1-1.9-2.1-2.5c0,0,0,0,0,0c-2.2-1.2-4.9-0.4-6.1,1.8
		c-8.4,10.1-9.4,20.3,1.4,30.9H129.7z M395.1,51.3c-6.1,8.3-9.4,16.7-4.1,26.5c1.7,3.2,4.3,6.4,7.6,2.9c6.8-7.1,11.3-15.4,6-25.6
		C402.7,51.3,399.7,48.6,395.1,51.3L395.1,51.3z M254.7,59.6c2.8,3.9,3.9,11,8.8,6.9c7-5.7,11.1-14,7-23.7c-1.5-3.5-4.1-9.7-8.2-6.2
		C255.1,41.9,252.1,51.1,254.7,59.6L254.7,59.6z M52.7,9.2c-2.7,14-7,24.5-1.6,38.9C61.1,35.1,67.5,24.8,52.7,9.2L52.7,9.2z"/>
</g>
</svg>
