<svg id="Calque_1" data-name="Calque 1" xmlns="http://www.w3.org/2000/svg" viewBox="0 0 1920 160"><defs><style>.cls-1{fill:#a0072c;}</style></defs><g id="Groupe_192" data-name="Groupe 192"><path id="Tracé_795" data-name="Tracé 795" class="cls-1" d="M1378.31,3.39c9.27,5.73,8.66,14.53,8.2,21.38-1.8,20.33,7.68,22.36,24.62,20.75q232.32-23,464.74-44.7c17.55-1.7,34.7-2.91,41.39,19.63,8.21,27.93-1.68,42.7-34.21,46.94-75.2,9.67-150.45,18.71-225.64,27.93-82.06,10.08-164.11,17.14-246.85,19.92-14.86.49-22.32,3.4-16.41,19.83a18.72,18.72,0,0,1,.86,8.3c-.86,6.19,3,15.86-7,16.6-7.59.58-8.2-8.3-9.72-13.86-8.21-29.42-8.21-29.75-38.32-27.89-172.31,10.54-344.61,19-517.21,19.3-254,.46-507-14.11-759-48.39C43.26,86.31,23.65,80.38,7.73,66c-4.1-3.56-9.19-8-7.34-13.81C2.56,45.31,9.29,48,14.46,48.3q245.5,23.45,491.9,30Q708,83.36,909.47,77c143.92-4.15,287.59-12.94,431.1-24.52,23.26-1.87,30.77-9.46,28.71-31.46C1368.59,13.81,1366.41,3.43,1378.31,3.39Zm-1276.75,61c3.77,4.81,7.79,4.35,11.9,4.69,54.31,4.6,108.51,10,162.83,14C443.67,95.52,611.22,98.26,779,96.73c178-1.66,355.89-6.23,533.33-18.06,5-.33,16.7,5.19,15.22-6.72-1.23-9.71-11.2-4.69-17.11-4.15q-149.94,11.49-300.22,17.43a7230.23,7230.23,0,0,1-849.8-17.76C141.39,65.89,122.11,61.41,101.56,64.36Zm1455.78,8.92A24.49,24.49,0,0,0,1550.66,47c-4.56-4.15-7.06,1.29-8.86,4.73-5.58,10.5,0,19.05,6.31,26.15,4.35,4.77,6.44-1.62,9.23-4.61Zm-56.28,5.81a21.49,21.49,0,0,0-6.81-25.44c-3.9-3-7.43,1.83-8.86,5.64-3.66,9.59.32,18,6.44,24.57,4.43,4.82,6.68-.83,9.23-4.77Zm322-31.5a23.3,23.3,0,0,0-5.78-25.73c-5.21-4.69-8.2,1.78-9.89,5.73-4.1,9.54.86,17.34,6.65,23.94,4.1,4.36,6.81.21,9-3.94Zm-57.43-21.08c-6.65-2.37-9.19,2-10.67,6.43-3.07,9.55,1.32,17.51,7.72,23.7,4.1,3.9,7.38-.5,8.78-4.15,3.65-9.92.49-18.43-5.83-25.82Zm-46.81,30.83A24.53,24.53,0,0,0,1713,31.2c-4.1-4.15-7-.25-9,3.44-5.46,10-1.52,18.39,5.33,25.53,3.74,3.85,7.26,1.36,9.52-2.83Zm-26.5,0a23.16,23.16,0,0,0-7.76-25.27c-3.4-3-7.22,2-8.9,5.73-4.72,10.62.82,19,7.71,25.6,3.78,3.61,6.77-1.78,9-6.06ZM1630,71c4.8,1.7,7.3-1.21,8.9-5.23a22.74,22.74,0,0,0-6.44-26.15c-4.1-3.82-7.46,1.25-9.06,4.65-4.81,10.25.65,18.38,6.6,26.73Zm110.15-41c-5.78-3.36-7.34,1.37-9.15,4.69-5.62,10.34-.57,18.51,6.32,25.4,3.12,3.11,5.83-.91,7.39-4.15,5-10,1.19-18.34-4.56-26.14Zm-136.53,9.46c-11.45,10.3-9.52,20.51-1.39,30.84,2.7,3.4,5.66,3.24,7.91-.58,7.27-12.12,3.41-21.66-6.52-30.26Zm-18.38,24.9a21.76,21.76,0,0,0-6.36-23.44c-5.17-4.9-8.2,2.24-9.64,6.06a20,20,0,0,0,7.26,23.32C1581.1,73.82,1583.11,68.38,1585.2,64.31ZM1468.93,88.84c9.73-11.08,9.81-21.29.83-31.58a4.67,4.67,0,0,0-8.21.75c-8.2,12.45-2,21.54,7.43,30.87Zm380.68-46.56a21.19,21.19,0,0,0-6.61-23c-5.86-5.31-8.2,2.28-9.68,5.93a19.87,19.87,0,0,0,7.18,23.66c5,3.9,6.48-2,9.15-6.56ZM1790.49,57c10.83-10.58,9.81-20.75,1.4-30.88a4.5,4.5,0,0,0-6.13-1.8,4.56,4.56,0,0,0-2.08,2.47c-7.83,12.45-1.93,21.21,6.65,30.21Zm-265.64-5.73c-4.59-2.69-7.51,0-9.43,3.82-5.26,10.17-.78,18.43,6,25.57,3.28,3.48,5.9.33,7.59-2.87,5.33-9.79,2-18.22-4.11-26.52Zm140.47,8.3a21.16,21.16,0,0,0-7.55-23c-4.1-3.48-6.68,2.74-8.2,6.23-4.1,9.71,0,18,7,23.73,4.84,4.15,6-2.94,8.78-6.88Zm202-50.34c-14.77,15.57-8.45,25.86,1.56,38.93C1874.35,33.73,1870,23.27,1867.33,9.24Z"/></g></svg>