<?xml version="1.0" encoding="utf-8"?>
<!-- Generator: Adobe Illustrator 26.0.1, SVG Export Plug-In . SVG Version: 6.00 Build 0)  -->
<svg version="1.1" id="Calque_1" xmlns="http://www.w3.org/2000/svg" xmlns:xlink="http://www.w3.org/1999/xlink" x="0px" y="0px"
	 viewBox="0 0 680.4 1161.8" style="enable-background:new 0 0 680.4 1161.8;" xml:space="preserve">
<style type="text/css">
	.st0{fill:#FFFFFF;}
</style>
<g id="Groupe_221">
	<g id="Groupe_181">
		
			<image style="overflow:visible;opacity:0.75;enable-background:new    ;" width="388" height="1162" id="Rectangle_36" xlink:href="67EFF82E.png"  transform="matrix(1.0026 0 0 1.0026 116.3346 40.6832)">
		</image>
		<g id="Groupe_180">
			<path id="Tracé_775" class="st0" d="M460.2,556.7c0,0-34.5-23-38.6-37.3c-4.1-14.3-8.3-66.7-16.4-46.7s-15.3,8.1-15.3,1.5
				s-21-36.2-20.5-52s8.3-32,20.7-47.8c12.4-15.8-6.7-44.2,2-115.3c0,0,23.3,1.8,7.8-14s-52.6-31.3-52.6-64s-10.8-133.9-14.3-88
				c0,0,5.5,39.2-1.2,47.4s-19.4,34.2-19.4,34.2s21.8,5,30.8,31.3s-6.7,35.1,18.9,58.2v9.4c0,0-37.3-2-37.5,12.9
				s-1.3,25.6-10.3,38.6s-4.6,26.5,0.4,34s11.1,38.1,0,38.1s-26.6,4.6-56.9-30c-0.5,4.7,0.3,9.4,2.4,13.6c0,0-21.8,3.3-33.6,7.7
				s-19-2-19-2s0.2,12.9,13.8,30.9s17.2,22.6,13.1,28.7s-39,22.4-39.5,41.9c0,0,19.2-25.2,51.9-29.4s-17.9-29.2-18.1-50.4
				s36.4-20.8,43.6-15.1s29.7,14.2,31,26.3s33.2-38.4,49.5-28.9s-12.2,28.9-24.4,70.2s-21.2,57.7-37.1,70.6
				c-15.9,12.9-46.9,50.9-46.9,50.9s-14.8-9.6-18.8,7.5c0,0-18.8,6.8-16.4-11.4c2.4-18.2-20-22.4-29-8.2c-9,14.2-9.4,44.3-9.2,63.6
				c0,0-16.6,5.9-11.6,42.5s14.8,19.5,14.8,42.5s28.6,17.1,33.6,11.6s8.1-33.1,14.2-14.2s8.1,25.7,31,25.9s26.6,12.5,26,25.9
				s-12.4,40.8-28.6,55s5.9,18.2,18.5,33.3s37.1,47.8,42.3,68.4s18.7,35.6,15.7,57.5c0,0,55,9.2,57.4,35.5s7.2,64-15.9,95.2
				c0,0,3.9-20-10.2-24.6c0,0,9.8,14.7-1.3,32.7s-30.1,1.1-29.2-8.6s11.8-20.4,10.9-30.9c-0.8-9-10-17.4-31.4-19.7
				c0,0,22.4,12.5,18.1,25.9c-3.8,11.9-21.9,21.3-0.4,43.9c13.7,14.4-3.3,11.8-9.6,6.8s-25.3-2.2-22.2,3.5s20.9-3.7,33.2,10.1
				s57.8,8.3,66.1,3.1s25.3-24.6,31-10.7s16.8,5.9,5.2-7.2c0,0,19-0.9,16.8-13.4s-18.7-18-18.7-18s12.9,15.4,7.4,20.9
				c-3.7,3.7-13.8,4.6-20.4-2.6s-4.4-13.4-15.5-12.3c0,0-3.9-14.9,12.7-39.7c16.6-24.8,28.6-80.7,0.2-77.4c0,0-5.4-29.8-0.7-39.7
				s29-29.8,26.6-39.9s-21-22.8-14.8-30s17.2-39.7,3.7-54.4c0,0,6.5-35.5-14.6-36.2s-22,24.6-18.5,36.8c0,0-18.3,7-33.8-6.1
				s-21.4-4.2-21.4-4.2s-0.2-20.8,2.2-25.9s-5.2-5.7-10.7-1.1c0,0-13.5-16-12.7-20.4s21.8-37.1,29.5-29s12.9,0,1.5-11.6
				s-48.7-48.9-41.9-71.9c0,0,15.5-4.4,13.7-20.2s-30.1-12.3-26.2-41.4s27.5-40.8,27.9-48.9s-2-32,5.9-31.8
				c7.9,0.2,20.9-1.1,17.7-29.8s14.8-48,22.5-35.7s18.1,25.6,10,35.5s13.5,5.3,28.8,4.2c0,0,8.1,4.8,6.1,25.2s33.6,32,39,52
				s4.6,31.8,4.6,31.8S463.9,585.9,460.2,556.7z M273,729.7c-4.7-11.1-24.7-25.1-24.1-18.7s32.3,25.4,4.4,19.9s-12.5-21.6-27-28.9
				s-25,21.3-36.1,19.9s1.8-11.4-13.1-34.2s3.5-44.5,3.5-44.5c6.4-20.5-4.7-38.6,1.2-56.7c11.8-24.8,19.4-14.3,19.4-4.6
				c0,9.6,3.8,19.6,23,34.2c50,40.1,70.4,101.2,68.6,118.7S277.6,740.8,273,729.7z M412,802.3c12.4,1.5,4.8,28.9,4.8,28.9
				c-3.7-7.2-15.9-3.7-15.9-3.7S399.5,800.8,412,802.3L412,802.3z M306.6,785.7c18.3,12.3,19.8,14.9,20.5,26.3s-4.6,42.5,4.1,34
				c0.5-0.5,13.1-29.8,25.1-12.7s53-3.1,61.1,8.1s10.3,32.2-8.5,35.3s-18.5,16.2-14.8,21s2.8-11.2,11.1-10.7s12.2,14.9,17.2,21.7
				s7.6,14.5-11.6,23.2s-17,23.9-17,36.4s-4.4,25.4-16.4,18s-35.3-17.1-42.3-54.6s-31.8-58.1-38-73.9S288.3,773.4,306.6,785.7z
				 M301.2,651c-5.5,6.7-15.7-3.2-28.5-35.4s14-50,14-50s-9,40.6,0,51.5S306.7,644.3,301.2,651z M294.8,556.3
				c-0.3-10.5,8.7-17.5,8.7-17.5C311.1,554,295.1,566.8,294.8,556.3L294.8,556.3z M333.3,383.1c5.5-11.4-16.6-33.1-7.8-47.4
				c8.7-14.3,7.8-26.1,8.3-41.4s14.8-12.9,25.1-12.3c10.2,0.7,15.1,45,12.9,61.8S333.3,383.1,333.3,383.1z"/>
		</g>
	</g>
	<path id="Tracé_776-2" class="st0" d="M266.7,1060c0,0-0.2,13.8,3,14.9s17.2,3.1,12.2,15.3c0,0-3.7-8.8-10.5-8.1
		S259.1,1080.8,266.7,1060z"/>
	<path id="Tracé_777-2" class="st0" d="M369.9,1045.7c0,0,17.2,5.5,6.5,15.3S369.9,1045.7,369.9,1045.7z"/>
	<path id="Tracé_778-2" class="st0" d="M348.8,1073.8c0,0,4.6,2.6,1.1,7.7C346.4,1086.5,342.9,1074,348.8,1073.8z"/>
	<path id="Tracé_779-2" class="st0" d="M454.5,1056.4c0,0,15.9,7.7,2,20.8s-14.6,25.9-14.6,25.9s-2.2-18.6,10.9-30.5
		S454.5,1056.4,454.5,1056.4z"/>
	<path id="Tracé_780-2" class="st0" d="M227.2,522.8c0,0,9.8,9.2,0.7,25.2C227.9,548,260.6,523.6,227.2,522.8z"/>
	<path id="Tracé_781-2" class="st0" d="M190.9,1161.5h366.7c0,0-68.1-35.8-183-36.5S190.9,1161.5,190.9,1161.5z"/>
</g>
<g id="Groupe_222">
	<path id="Tracé_782-2" class="st0" d="M494.3,253.7c0,0,1.8,19.4,11.7,32.9c0,0,23.8-4,31.2,19c0,0,5.8,15-10.3,24.6
		c0,0,24.7,15.8,40.4,21.6c0,0,14.3-7.5,19.2-12.7s-1.3-20.6,9.5-35.6c10.9-15,36.5-10.1,18.1-52.2c0,0,12.1,28.8-3.8,38.1
		c-15.9,9.3-16.1,8.3-17.4,13.4s-7.2,25.4-18.6,32.8s-14.8,8-27.7-6.9c-5.9-7.1-6.2-8.5,0.3-19c6.5-10.6-8.4-15.3-12.7-29.7
		c0,0,0.9-3.2-6.1,0.1S509.6,279.1,494.3,253.7z"/>
	<path id="Tracé_783-2" class="st0" d="M596.4,229.6c0,0-8.6-10.2-13.2-11.1s-5.2-8.4-7.4,6.4C575.8,224.9,580.9,213.6,596.4,229.6
		z"/>
	<path id="Tracé_784-2" class="st0" d="M569.7,240.5c0,0-1.4-3-3.8,0.3S570.8,243.9,569.7,240.5z"/>
</g>
<g id="Groupe_223">
	<path id="Tracé_785-2" class="st0" d="M444.9,724.8c0,0,5.1,3.4,4.8,6.4c0,0,2.8,2.5-0.5,2.8s-17.5,1.1-21.9-3.1
		s-8.1-11.6-12.2-15s10.8-10.4,12.7-20.2s11.3-2.1,18.1-10.2s13.2-14.4,13.7-24.7s3-18.7,5.4-20.4s5.7-5.7,11.1-5.6s11-0.2,13.2,3
		s8.5,18.8,11.9,23.5s11.4,17,16.1,16.3s8.9-0.8,12.2,0.6s10.6,5.7,10.6,11.3s0,19.5-2.1,22.9c0,0,1.9-23.6-2.8-27.4
		s-9.5-7.7-18.1-4.4c-3.7-0.9-6.9-3.1-9-6.3c-3.7-5.5-9.2-8.7-10.7-9.9s0.7-10.5-6.6-17.3s-19.2-5.7-22.2-2.5s-8.4,8.7-6.6,17.3
		s-4.7,22.6-4.9,28.1c0,0-20.8,0.1-26.6,12.4s-2.1,26,5.5,26.8S444.7,728.4,444.9,724.8z"/>
	<path id="Tracé_786-2" class="st0" d="M535,717.5c0,0,0.8,6.1-5.1,7.6C529.9,725.1,534.9,718.7,535,717.5z"/>
	<path id="Tracé_787-2" class="st0" d="M525.3,728.4c0,0-6.9,3.2-8.2-1.8c0,0-2.2,6.5-0.2,11.5
		C516.9,738.1,519.2,733.6,525.3,728.4z"/>
</g>
<g id="Groupe_224">
	<path id="Tracé_788-3" class="st0" d="M171.4,1080.7c0,0-5.9-6.3-13.2-6.3s-9.9-10.2-5.3-14.9s13.7,1.4,23.2-9.4
		s13.3-14.7,12-31.2c-1.3-16.5-14.4-33.4-32.9-32.2s-27.4,13.3-30.3,25c1.2-13.9,9.3-26.2,21.6-32.9c20.9-11.4,27.1-10.2,28.6-8
		s16.7,21.9,17.5,28.8s-0.6,21.6,1,37.3c0,0-10.1,12.8-15.1,24.4c0,0-12.1-2.1-14.5,4.1S171.5,1074,171.4,1080.7z"/>
	<path id="Tracé_789-3" class="st0" d="M122.1,1023.6c0,0,1.9,8.9-9.5,10.2c-11.4,1.3-16.6,0.5-19.5,3.5c-2.9,3.1-10.9-4-13.8-20
		c0,0,5.7,13.7,15.1,15.6S118.9,1033.2,122.1,1023.6z"/>
	<path id="Tracé_790-3" class="st0" d="M77.7,983.5c0,0-7,9.5-6.3,14.4s3,5.1,4.7,10.4C76.1,1008.3,73.3,992.2,77.7,983.5z"/>
	<path id="Tracé_791-3" class="st0" d="M108.4,961.9c0,0-1.9-6.8-6.9-4.8s-3.9,6.4-3.9,6.4C100.4,960.4,104.9,959.8,108.4,961.9z"
		/>
</g>
<g id="Groupe_225">
	<path id="Tracé_792-2" class="st0" d="M671.8,1050.6c-1.3,0.7-2.9,0.9-4.3,0.5c-2.5-0.5-8.4-0.7-8.2,9.6c0.3,13.2,5.2,5.5,5.2,5.5
		s1.7,6.1-7.8,10.4c0,0-0.2-14.2-3.2-20c-3.1-5.8-0.8-14.8,3.8-12.1s7.2-11.9,4.6-27.1s-14.8-32.9-34.7-27.7s-20,27.2-17.9,35.5
		c2.1,8.3-10.2,11.8-9.5,30.4c0,0,1.8,3.6-6.7,3.7s-23,9.9-22.5,19.9s0.8,17.8,7,23c6.2,5.2,12.4,13.3,16.4,11.2s3,2.4-1,3.1
		s-14.3-12.7-19.3-15.6s-2.4-12.3-5.1-17.4s-7.5-13.2,5-15.6c4.4-1.1,9.1-8.2,18.2-11.6s6.3-13.8,12.8-26.2
		c6.5-12.5-1.5-25.2,4.5-30s16.8-15.7,16.2-22.4s2.4-13.2,9.9-8.3s30.6,25.8,34.4,31.4c0,0-0.4,25.4,3.9,38.1
		C676.1,1046.4,674,1049.4,671.8,1050.6z"/>
	<path id="Tracé_793-2" class="st0" d="M613.5,1104.1c0,0,3.2,7.2-5.8,6.2C607.8,1110.4,613.4,1107.5,613.5,1104.1z"/>
</g>
<g id="Groupe_226">
	<path id="Tracé_788-4" class="st0" d="M94.4,497.7c0,0-5.9-6.4-13.2-6.4s-9.9-10.2-5.3-14.9s13.7,1.4,23.2-9.4s13.3-14.7,12-31.2
		s-14.4-33.4-32.9-32.2s-27.4,13.3-30.3,25c1.2-13.9,9.3-26.2,21.6-32.9c20.9-11.4,27.1-10.2,28.6-8s16.7,21.9,17.5,28.8
		s-0.6,21.6,1,37.3c0,0-10.1,12.8-15.1,24.4c0,0-12.1-2.1-14.5,4.1S94.5,491,94.4,497.7z"/>
	<path id="Tracé_789-4" class="st0" d="M45.1,440.6c0,0,1.9,8.9-9.5,10.2s-16.6,0.5-19.5,3.5s-10.9-4-13.8-20
		c0,0,5.7,13.7,15.1,15.6S41.9,450.2,45.1,440.6z"/>
	<path id="Tracé_790-4" class="st0" d="M0.7,400.5c0,0-7,9.5-6.3,14.4s3,5.1,4.7,10.4C-0.9,425.3-3.7,409.2,0.7,400.5z"/>
	<path id="Tracé_791-4" class="st0" d="M31.4,378.9c0,0-1.9-6.8-6.9-4.9s-3.9,6.4-3.9,6.4C23.4,377.4,27.9,376.8,31.4,378.9z"/>
</g>
</svg>
