<?xml version="1.0" encoding="utf-8"?>
<!-- Generator: Adobe Illustrator 26.0.1, SVG Export Plug-In . SVG Version: 6.00 Build 0)  -->
<svg version="1.1" id="Calque_1" xmlns="http://www.w3.org/2000/svg" xmlns:xlink="http://www.w3.org/1999/xlink" x="0px" y="0px"
	 viewBox="0 0 1965.4 1141.3" style="enable-background:new 0 0 1965.4 1141.3;" xml:space="preserve">
<style type="text/css">
	.st0{fill:url(#Rectangle_92_00000015347545797556526040000004718294031799835013_);}
	.st1{opacity:0.3;}
	.st2{fill:#FFFFFF;}
</style>
<linearGradient id="Rectangle_92_00000051342342483619568080000015672398865296110977_" gradientUnits="userSpaceOnUse" x1="886.7412" y1="1081.2875" x2="886.7412" y2="1080.2238" gradientTransform="matrix(1920 0 0 -1080 -1701560.375 1167787.375)">
	<stop  offset="0" style="stop-color:#FFCA4F"/>
	<stop  offset="1" style="stop-color:#EF7F1F"/>
</linearGradient>
<rect id="Rectangle_92" style="fill:url(#Rectangle_92_00000051342342483619568080000015672398865296110977_);" width="1965.4" height="1141.3"/>
<g id="Groupe_220" class="st1">
	<g id="Groupe_173">
		<g id="Groupe_171">
			<path id="Tracé_760" class="st2" d="M46.7,22.8L15,77.8h63.4L46.7,22.8z"/>
			<path id="Tracé_761" class="st2" d="M180.7,22.8l-31.7,55h63.4L180.7,22.8z"/>
			<path id="Tracé_762" class="st2" d="M314.7,22.8l-31.7,55h63.4L314.7,22.8z"/>
			<path id="Tracé_763" class="st2" d="M448.7,22.8l-31.7,55h63.4L448.7,22.8z"/>
			<path id="Tracé_764" class="st2" d="M582.7,22.8l-31.7,55h63.4L582.7,22.8z"/>
			<path id="Tracé_765" class="st2" d="M716.7,22.8l-31.7,55h63.4L716.7,22.8z"/>
			<path id="Tracé_766" class="st2" d="M850.7,22.8l-31.7,55h63.4L850.7,22.8z"/>
			<path id="Tracé_767" class="st2" d="M984.7,22.8l-31.7,55h63.4L984.7,22.8z"/>
			<path id="Tracé_768" class="st2" d="M1118.7,22.8l-31.7,55h63.4L1118.7,22.8z"/>
			<path id="Tracé_769" class="st2" d="M1252.7,22.8l-31.7,55h63.4L1252.7,22.8z"/>
			<path id="Tracé_770" class="st2" d="M1386.7,22.8l-31.7,55h63.4L1386.7,22.8z"/>
			<path id="Tracé_771" class="st2" d="M1520.7,22.8l-31.7,55h63.4L1520.7,22.8z"/>
			<path id="Tracé_772" class="st2" d="M1654.7,22.8l-31.7,55h63.4L1654.7,22.8z"/>
			<path id="Tracé_773" class="st2" d="M1788.7,22.8l-31.7,55h63.4L1788.7,22.8z"/>
			<path id="Tracé_774" class="st2" d="M1933.7,22.8l-31.7,55h63.4L1933.7,22.8z"/>
		</g>
		<g id="Groupe_172">
			<path id="Tracé_761-2" class="st2" d="M113.7,118.1L82,173.2h63.4L113.7,118.1z"/>
			<path id="Tracé_762-2" class="st2" d="M247.7,118.1L216,173.2h63.4L247.7,118.1z"/>
			<path id="Tracé_763-2" class="st2" d="M381.7,118.1L350,173.2h63.4L381.7,118.1z"/>
			<path id="Tracé_764-2" class="st2" d="M515.7,118.1L484,173.2h63.4L515.7,118.1z"/>
			<path id="Tracé_765-2" class="st2" d="M649.7,118.1L618,173.2h63.4L649.7,118.1z"/>
			<path id="Tracé_766-2" class="st2" d="M783.7,118.1L752,173.2h63.4L783.7,118.1z"/>
			<path id="Tracé_767-2" class="st2" d="M917.7,118.1L886,173.2h63.4L917.7,118.1z"/>
			<path id="Tracé_768-2" class="st2" d="M1051.7,118.1l-31.7,55.1h63.4L1051.7,118.1z"/>
			<path id="Tracé_769-2" class="st2" d="M1185.7,118.1l-31.7,55.1h63.4L1185.7,118.1z"/>
			<path id="Tracé_770-2" class="st2" d="M1319.7,118.1l-31.7,55.1h63.4L1319.7,118.1z"/>
			<path id="Tracé_771-2" class="st2" d="M1453.7,118.1l-31.7,55.1h63.4L1453.7,118.1z"/>
			<path id="Tracé_772-2" class="st2" d="M1587.7,118.1l-31.7,55.1h63.4L1587.7,118.1z"/>
			<path id="Tracé_773-2" class="st2" d="M1721.7,118.1l-31.7,55.1h63.4L1721.7,118.1z"/>
			<path id="Tracé_774-2" class="st2" d="M1866.7,118.1l-31.7,55.1h63.4L1866.7,118.1z"/>
		</g>
	</g>
	<g id="Groupe_174">
		<g id="Groupe_171-2">
			<path id="Tracé_760-2" class="st2" d="M46.7,216.4L15,271.5h63.4L46.7,216.4z"/>
			<path id="Tracé_761-3" class="st2" d="M180.7,216.4L149,271.5h63.4L180.7,216.4z"/>
			<path id="Tracé_762-3" class="st2" d="M314.7,216.4L283,271.5h63.4L314.7,216.4z"/>
			<path id="Tracé_763-3" class="st2" d="M448.7,216.4L417,271.5h63.4L448.7,216.4z"/>
			<path id="Tracé_764-3" class="st2" d="M582.7,216.4L551,271.5h63.4L582.7,216.4z"/>
			<path id="Tracé_765-3" class="st2" d="M716.7,216.4L685,271.5h63.4L716.7,216.4z"/>
			<path id="Tracé_766-3" class="st2" d="M850.7,216.4L819,271.5h63.4L850.7,216.4z"/>
			<path id="Tracé_767-3" class="st2" d="M984.7,216.4L953,271.5h63.4L984.7,216.4z"/>
			<path id="Tracé_768-3" class="st2" d="M1118.7,216.4l-31.7,55.1h63.4L1118.7,216.4z"/>
			<path id="Tracé_769-3" class="st2" d="M1252.7,216.4l-31.7,55.1h63.4L1252.7,216.4z"/>
			<path id="Tracé_770-3" class="st2" d="M1386.7,216.4l-31.7,55.1h63.4L1386.7,216.4z"/>
			<path id="Tracé_771-3" class="st2" d="M1520.7,216.4l-31.7,55.1h63.4L1520.7,216.4z"/>
			<path id="Tracé_772-3" class="st2" d="M1654.7,216.4l-31.7,55.1h63.4L1654.7,216.4z"/>
			<path id="Tracé_773-3" class="st2" d="M1788.7,216.4l-31.7,55.1h63.4L1788.7,216.4z"/>
			<path id="Tracé_774-3" class="st2" d="M1933.7,216.4l-31.7,55.1h63.4L1933.7,216.4z"/>
		</g>
		<g id="Groupe_172-2">
			<path id="Tracé_761-4" class="st2" d="M113.7,311.7L82,366.8h63.4L113.7,311.7z"/>
			<path id="Tracé_762-4" class="st2" d="M247.7,311.7L216,366.8h63.4L247.7,311.7z"/>
			<path id="Tracé_763-4" class="st2" d="M381.7,311.7L350,366.8h63.4L381.7,311.7z"/>
			<path id="Tracé_764-4" class="st2" d="M515.7,311.7L484,366.8h63.4L515.7,311.7z"/>
			<path id="Tracé_765-4" class="st2" d="M649.7,311.7L618,366.8h63.4L649.7,311.7z"/>
			<path id="Tracé_766-4" class="st2" d="M783.7,311.7L752,366.8h63.4L783.7,311.7z"/>
			<path id="Tracé_767-4" class="st2" d="M917.7,311.7L886,366.8h63.4L917.7,311.7z"/>
			<path id="Tracé_768-4" class="st2" d="M1051.7,311.7l-31.7,55.1h63.4L1051.7,311.7z"/>
			<path id="Tracé_769-4" class="st2" d="M1185.7,311.7l-31.7,55.1h63.4L1185.7,311.7z"/>
			<path id="Tracé_770-4" class="st2" d="M1319.7,311.7l-31.7,55.1h63.4L1319.7,311.7z"/>
			<path id="Tracé_771-4" class="st2" d="M1453.7,311.7l-31.7,55.1h63.4L1453.7,311.7z"/>
			<path id="Tracé_772-4" class="st2" d="M1587.7,311.7l-31.7,55.1h63.4L1587.7,311.7z"/>
			<path id="Tracé_773-4" class="st2" d="M1721.7,311.7l-31.7,55.1h63.4L1721.7,311.7z"/>
			<path id="Tracé_774-4" class="st2" d="M1866.7,311.7l-31.7,55.1h63.4L1866.7,311.7z"/>
		</g>
	</g>
	<g id="Groupe_175">
		<g id="Groupe_171-3">
			<path id="Tracé_760-3" class="st2" d="M46.7,410L15,465.1h63.4L46.7,410z"/>
			<path id="Tracé_761-5" class="st2" d="M180.7,410L149,465.1h63.4L180.7,410z"/>
			<path id="Tracé_762-5" class="st2" d="M314.7,410L283,465.1h63.4L314.7,410z"/>
			<path id="Tracé_763-5" class="st2" d="M448.7,410L417,465.1h63.4L448.7,410z"/>
			<path id="Tracé_764-5" class="st2" d="M582.7,410L551,465.1h63.4L582.7,410z"/>
			<path id="Tracé_765-5" class="st2" d="M716.7,410L685,465.1h63.4L716.7,410z"/>
			<path id="Tracé_766-5" class="st2" d="M850.7,410L819,465.1h63.4L850.7,410z"/>
			<path id="Tracé_767-5" class="st2" d="M984.7,410L953,465.1h63.4L984.7,410z"/>
			<path id="Tracé_768-5" class="st2" d="M1118.7,410l-31.7,55.1h63.4L1118.7,410z"/>
			<path id="Tracé_769-5" class="st2" d="M1252.7,410l-31.7,55.1h63.4L1252.7,410z"/>
			<path id="Tracé_770-5" class="st2" d="M1386.7,410l-31.7,55.1h63.4L1386.7,410z"/>
			<path id="Tracé_771-5" class="st2" d="M1520.7,410l-31.7,55.1h63.4L1520.7,410z"/>
			<path id="Tracé_772-5" class="st2" d="M1654.7,410l-31.7,55.1h63.4L1654.7,410z"/>
			<path id="Tracé_773-5" class="st2" d="M1788.7,410l-31.7,55.1h63.4L1788.7,410z"/>
			<path id="Tracé_774-5" class="st2" d="M1933.7,410l-31.7,55.1h63.4L1933.7,410z"/>
		</g>
		<g id="Groupe_172-3">
			<path id="Tracé_761-6" class="st2" d="M113.7,505.3L82,560.4h63.4L113.7,505.3z"/>
			<path id="Tracé_762-6" class="st2" d="M247.7,505.3L216,560.4h63.4L247.7,505.3z"/>
			<path id="Tracé_763-6" class="st2" d="M381.7,505.3L350,560.4h63.4L381.7,505.3z"/>
			<path id="Tracé_764-6" class="st2" d="M515.7,505.3L484,560.4h63.4L515.7,505.3z"/>
			<path id="Tracé_765-6" class="st2" d="M649.7,505.3L618,560.4h63.4L649.7,505.3z"/>
			<path id="Tracé_766-6" class="st2" d="M783.7,505.3L752,560.4h63.4L783.7,505.3z"/>
			<path id="Tracé_767-6" class="st2" d="M917.7,505.3L886,560.4h63.4L917.7,505.3z"/>
			<path id="Tracé_768-6" class="st2" d="M1051.7,505.3l-31.7,55.1h63.4L1051.7,505.3z"/>
			<path id="Tracé_769-6" class="st2" d="M1185.7,505.3l-31.7,55.1h63.4L1185.7,505.3z"/>
			<path id="Tracé_770-6" class="st2" d="M1319.7,505.3l-31.7,55.1h63.4L1319.7,505.3z"/>
			<path id="Tracé_771-6" class="st2" d="M1453.7,505.3l-31.7,55.1h63.4L1453.7,505.3z"/>
			<path id="Tracé_772-6" class="st2" d="M1587.7,505.3l-31.7,55.1h63.4L1587.7,505.3z"/>
			<path id="Tracé_773-6" class="st2" d="M1721.7,505.3l-31.7,55.1h63.4L1721.7,505.3z"/>
			<path id="Tracé_774-6" class="st2" d="M1866.7,505.3l-31.7,55.1h63.4L1866.7,505.3z"/>
		</g>
	</g>
	<g id="Groupe_176">
		<g id="Groupe_171-4">
			<path id="Tracé_760-4" class="st2" d="M46.7,603.7L15,658.8h63.4L46.7,603.7z"/>
			<path id="Tracé_761-7" class="st2" d="M180.7,603.7L149,658.8h63.4L180.7,603.7z"/>
			<path id="Tracé_762-7" class="st2" d="M314.7,603.7L283,658.8h63.4L314.7,603.7z"/>
			<path id="Tracé_763-7" class="st2" d="M448.7,603.7L417,658.8h63.4L448.7,603.7z"/>
			<path id="Tracé_764-7" class="st2" d="M582.7,603.7L551,658.8h63.4L582.7,603.7z"/>
			<path id="Tracé_765-7" class="st2" d="M716.7,603.7L685,658.8h63.4L716.7,603.7z"/>
			<path id="Tracé_766-7" class="st2" d="M850.7,603.7L819,658.8h63.4L850.7,603.7z"/>
			<path id="Tracé_767-7" class="st2" d="M984.7,603.7L953,658.8h63.4L984.7,603.7z"/>
			<path id="Tracé_768-7" class="st2" d="M1118.7,603.7l-31.7,55.1h63.4L1118.7,603.7z"/>
			<path id="Tracé_769-7" class="st2" d="M1252.7,603.7l-31.7,55.1h63.4L1252.7,603.7z"/>
			<path id="Tracé_770-7" class="st2" d="M1386.7,603.7l-31.7,55.1h63.4L1386.7,603.7z"/>
			<path id="Tracé_771-7" class="st2" d="M1520.7,603.7l-31.7,55.1h63.4L1520.7,603.7z"/>
			<path id="Tracé_772-7" class="st2" d="M1654.7,603.7l-31.7,55.1h63.4L1654.7,603.7z"/>
			<path id="Tracé_773-7" class="st2" d="M1788.7,603.7l-31.7,55.1h63.4L1788.7,603.7z"/>
			<path id="Tracé_774-7" class="st2" d="M1933.7,603.7l-31.7,55.1h63.4L1933.7,603.7z"/>
		</g>
		<g id="Groupe_172-4">
			<path id="Tracé_761-8" class="st2" d="M113.7,699L82,754.1h63.4L113.7,699z"/>
			<path id="Tracé_762-8" class="st2" d="M247.7,699L216,754.1h63.4L247.7,699z"/>
			<path id="Tracé_763-8" class="st2" d="M381.7,699L350,754.1h63.4L381.7,699z"/>
			<path id="Tracé_764-8" class="st2" d="M515.7,699L484,754.1h63.4L515.7,699z"/>
			<path id="Tracé_765-8" class="st2" d="M649.7,699L618,754.1h63.4L649.7,699z"/>
			<path id="Tracé_766-8" class="st2" d="M783.7,699L752,754.1h63.4L783.7,699z"/>
			<path id="Tracé_767-8" class="st2" d="M917.7,699L886,754.1h63.4L917.7,699z"/>
			<path id="Tracé_768-8" class="st2" d="M1051.7,699l-31.7,55.1h63.4L1051.7,699z"/>
			<path id="Tracé_769-8" class="st2" d="M1185.7,699l-31.7,55.1h63.4L1185.7,699z"/>
			<path id="Tracé_770-8" class="st2" d="M1319.7,699l-31.7,55.1h63.4L1319.7,699z"/>
			<path id="Tracé_771-8" class="st2" d="M1453.7,699l-31.7,55.1h63.4L1453.7,699z"/>
			<path id="Tracé_772-8" class="st2" d="M1587.7,699l-31.7,55.1h63.4L1587.7,699z"/>
			<path id="Tracé_773-8" class="st2" d="M1721.7,699l-31.7,55.1h63.4L1721.7,699z"/>
			<path id="Tracé_774-8" class="st2" d="M1866.7,699l-31.7,55.1h63.4L1866.7,699z"/>
		</g>
	</g>
	<g id="Groupe_177">
		<g id="Groupe_171-5">
			<path id="Tracé_760-5" class="st2" d="M46.7,797.3L15,852.4h63.4L46.7,797.3z"/>
			<path id="Tracé_761-9" class="st2" d="M180.7,797.3L149,852.4h63.4L180.7,797.3z"/>
			<path id="Tracé_762-9" class="st2" d="M314.7,797.3L283,852.4h63.4L314.7,797.3z"/>
			<path id="Tracé_763-9" class="st2" d="M448.7,797.3L417,852.4h63.4L448.7,797.3z"/>
			<path id="Tracé_764-9" class="st2" d="M582.7,797.3L551,852.4h63.4L582.7,797.3z"/>
			<path id="Tracé_765-9" class="st2" d="M716.7,797.3L685,852.4h63.4L716.7,797.3z"/>
			<path id="Tracé_766-9" class="st2" d="M850.7,797.3L819,852.4h63.4L850.7,797.3z"/>
			<path id="Tracé_767-9" class="st2" d="M984.7,797.3L953,852.4h63.4L984.7,797.3z"/>
			<path id="Tracé_768-9" class="st2" d="M1118.7,797.3l-31.7,55.1h63.4L1118.7,797.3z"/>
			<path id="Tracé_769-9" class="st2" d="M1252.7,797.3l-31.7,55.1h63.4L1252.7,797.3z"/>
			<path id="Tracé_770-9" class="st2" d="M1386.7,797.3l-31.7,55.1h63.4L1386.7,797.3z"/>
			<path id="Tracé_771-9" class="st2" d="M1520.7,797.3l-31.7,55.1h63.4L1520.7,797.3z"/>
			<path id="Tracé_772-9" class="st2" d="M1654.7,797.3l-31.7,55.1h63.4L1654.7,797.3z"/>
			<path id="Tracé_773-9" class="st2" d="M1788.7,797.3l-31.7,55.1h63.4L1788.7,797.3z"/>
			<path id="Tracé_774-9" class="st2" d="M1933.7,797.3l-31.7,55.1h63.4L1933.7,797.3z"/>
		</g>
		<g id="Groupe_172-5">
			<path id="Tracé_761-10" class="st2" d="M113.7,892.6L82,947.7h63.4L113.7,892.6z"/>
			<path id="Tracé_762-10" class="st2" d="M247.7,892.6L216,947.7h63.4L247.7,892.6z"/>
			<path id="Tracé_763-10" class="st2" d="M381.7,892.6L350,947.7h63.4L381.7,892.6z"/>
			<path id="Tracé_764-10" class="st2" d="M515.7,892.6L484,947.7h63.4L515.7,892.6z"/>
			<path id="Tracé_765-10" class="st2" d="M649.7,892.6L618,947.7h63.4L649.7,892.6z"/>
			<path id="Tracé_766-10" class="st2" d="M783.7,892.6L752,947.7h63.4L783.7,892.6z"/>
			<path id="Tracé_767-10" class="st2" d="M917.7,892.6L886,947.7h63.4L917.7,892.6z"/>
			<path id="Tracé_768-10" class="st2" d="M1051.7,892.6l-31.7,55.1h63.4L1051.7,892.6z"/>
			<path id="Tracé_769-10" class="st2" d="M1185.7,892.6l-31.7,55.1h63.4L1185.7,892.6z"/>
			<path id="Tracé_770-10" class="st2" d="M1319.7,892.6l-31.7,55.1h63.4L1319.7,892.6z"/>
			<path id="Tracé_771-10" class="st2" d="M1453.7,892.6l-31.7,55.1h63.4L1453.7,892.6z"/>
			<path id="Tracé_772-10" class="st2" d="M1587.7,892.6l-31.7,55.1h63.4L1587.7,892.6z"/>
			<path id="Tracé_773-10" class="st2" d="M1721.7,892.6l-31.7,55.1h63.4L1721.7,892.6z"/>
			<path id="Tracé_774-10" class="st2" d="M1866.7,892.6l-31.7,55.1h63.4L1866.7,892.6z"/>
		</g>
	</g>
	<g id="Groupe_178">
		<g id="Groupe_171-6">
			<path id="Tracé_760-6" class="st2" d="M31.7,990.9L0,1046h63.4L31.7,990.9z"/>
			<path id="Tracé_761-11" class="st2" d="M165.7,990.9L134,1046h63.4L165.7,990.9z"/>
			<path id="Tracé_762-11" class="st2" d="M299.7,990.9L268,1046h63.4L299.7,990.9z"/>
			<path id="Tracé_763-11" class="st2" d="M433.7,990.9L402,1046h63.4L433.7,990.9z"/>
			<path id="Tracé_764-11" class="st2" d="M567.7,990.9L536,1046h63.4L567.7,990.9z"/>
			<path id="Tracé_765-11" class="st2" d="M701.7,990.9L670,1046h63.4L701.7,990.9z"/>
			<path id="Tracé_766-11" class="st2" d="M835.7,990.9L804,1046h63.4L835.7,990.9z"/>
			<path id="Tracé_767-11" class="st2" d="M969.7,990.9L938,1046h63.4L969.7,990.9z"/>
			<path id="Tracé_768-11" class="st2" d="M1103.7,990.9L1072,1046h63.4L1103.7,990.9z"/>
			<path id="Tracé_769-11" class="st2" d="M1237.7,990.9L1206,1046h63.4L1237.7,990.9z"/>
			<path id="Tracé_770-11" class="st2" d="M1371.7,990.9L1340,1046h63.4L1371.7,990.9z"/>
			<path id="Tracé_771-11" class="st2" d="M1505.7,990.9L1474,1046h63.4L1505.7,990.9z"/>
			<path id="Tracé_772-11" class="st2" d="M1639.7,990.9L1608,1046h63.4L1639.7,990.9z"/>
			<path id="Tracé_773-11" class="st2" d="M1773.7,990.9L1742,1046h63.4L1773.7,990.9z"/>
			<path id="Tracé_774-11" class="st2" d="M1918.7,990.9L1887,1046h63.4L1918.7,990.9z"/>
		</g>
		<g id="Groupe_172-6">
			<path id="Tracé_761-12" class="st2" d="M98.7,1086.2L67,1141.3h63.4L98.7,1086.2z"/>
			<path id="Tracé_762-12" class="st2" d="M232.7,1086.2l-31.7,55.1h63.4L232.7,1086.2z"/>
			<path id="Tracé_763-12" class="st2" d="M366.7,1086.2l-31.7,55.1h63.4L366.7,1086.2z"/>
			<path id="Tracé_764-12" class="st2" d="M500.7,1086.2l-31.7,55.1h63.4L500.7,1086.2z"/>
			<path id="Tracé_765-12" class="st2" d="M634.7,1086.2l-31.7,55.1h63.4L634.7,1086.2z"/>
			<path id="Tracé_766-12" class="st2" d="M768.7,1086.2l-31.7,55.1h63.4L768.7,1086.2z"/>
			<path id="Tracé_767-12" class="st2" d="M902.7,1086.2l-31.7,55.1h63.4L902.7,1086.2z"/>
			<path id="Tracé_768-12" class="st2" d="M1036.7,1086.2l-31.7,55.1h63.4L1036.7,1086.2z"/>
			<path id="Tracé_769-12" class="st2" d="M1170.7,1086.2l-31.7,55.1h63.4L1170.7,1086.2z"/>
			<path id="Tracé_770-12" class="st2" d="M1304.7,1086.2l-31.7,55.1h63.4L1304.7,1086.2z"/>
			<path id="Tracé_771-12" class="st2" d="M1438.7,1086.2l-31.7,55.1h63.4L1438.7,1086.2z"/>
			<path id="Tracé_772-12" class="st2" d="M1572.7,1086.2l-31.7,55.1h63.4L1572.7,1086.2z"/>
			<path id="Tracé_773-12" class="st2" d="M1706.7,1086.2l-31.7,55.1h63.4L1706.7,1086.2z"/>
			<path id="Tracé_774-12" class="st2" d="M1851.7,1086.2l-31.7,55.1h63.4L1851.7,1086.2z"/>
		</g>
	</g>
</g>
</svg>
